G75*
%MOIN*%
%OFA0B0*%
%FSLAX25Y25*%
%IPPOS*%
%LPD*%
%AMOC8*
5,1,8,0,0,1.08239X$1,22.5*
%
%ADD10C,0.00000*%
%ADD11C,0.01000*%
%ADD12R,0.05197X0.02756*%
%ADD13C,0.00300*%
%ADD14C,0.00400*%
%ADD15R,0.05709X0.02953*%
%ADD16C,0.00800*%
%ADD17C,0.00600*%
%ADD18R,0.06000X0.12000*%
%ADD19R,0.06000X0.03000*%
%ADD20C,0.00100*%
%ADD21R,0.05600X0.01400*%
%ADD22C,0.00004*%
%ADD23R,0.01400X0.05600*%
%ADD24R,0.10000X0.02500*%
%ADD25R,0.01800X0.02300*%
D10*
X0038450Y0025866D02*
X0038450Y0115826D01*
X0228401Y0115826D01*
X0228401Y0115866D02*
X0228401Y0025866D01*
X0038450Y0025866D01*
D11*
X0068143Y0032069D02*
X0082513Y0032069D01*
X0082513Y0033014D01*
X0068143Y0033014D01*
X0068143Y0032069D02*
X0068143Y0049490D01*
X0082513Y0049490D01*
X0082513Y0033014D01*
D12*
X0085525Y0035907D03*
X0085525Y0045947D03*
X0065131Y0045947D03*
X0065131Y0035907D03*
D13*
X0055175Y0034587D02*
X0052273Y0034587D01*
X0052273Y0036038D01*
X0052757Y0036522D01*
X0053724Y0036522D01*
X0054208Y0036038D01*
X0054208Y0034587D01*
X0054692Y0033092D02*
X0052273Y0033092D01*
X0052273Y0032608D02*
X0052273Y0033576D01*
X0054692Y0033092D02*
X0055175Y0032608D01*
X0055175Y0032124D01*
X0054692Y0031641D01*
X0055175Y0037534D02*
X0053240Y0039469D01*
X0052757Y0039469D01*
X0052273Y0038985D01*
X0052273Y0038017D01*
X0052757Y0037534D01*
X0055175Y0037534D02*
X0055175Y0039469D01*
X0072397Y0044752D02*
X0073849Y0044752D01*
X0074332Y0045236D01*
X0074332Y0045720D01*
X0073849Y0046203D01*
X0072397Y0046203D01*
X0072397Y0044752D02*
X0072397Y0047655D01*
X0073849Y0047655D01*
X0074332Y0047171D01*
X0074332Y0046687D01*
X0073849Y0046203D01*
X0075344Y0046687D02*
X0076311Y0047655D01*
X0076311Y0044752D01*
X0075344Y0044752D02*
X0077279Y0044752D01*
X0060178Y0052952D02*
X0057275Y0052952D01*
X0057275Y0054403D01*
X0057759Y0054887D01*
X0058727Y0054887D01*
X0059210Y0054403D01*
X0059210Y0052952D01*
X0059210Y0053920D02*
X0060178Y0054887D01*
X0060178Y0055899D02*
X0058243Y0057834D01*
X0057759Y0057834D01*
X0057275Y0057350D01*
X0057275Y0056382D01*
X0057759Y0055899D01*
X0060178Y0055899D02*
X0060178Y0057834D01*
X0102972Y0042727D02*
X0103940Y0041759D01*
X0103456Y0040748D02*
X0102972Y0040264D01*
X0102972Y0038813D01*
X0105874Y0038813D01*
X0105874Y0040264D01*
X0105391Y0040748D01*
X0103456Y0040748D01*
X0102972Y0042727D02*
X0105874Y0042727D01*
X0105874Y0043694D02*
X0105874Y0041759D01*
X0109538Y0052828D02*
X0109538Y0055731D01*
X0110505Y0054763D01*
X0111473Y0055731D01*
X0111473Y0052828D01*
X0112484Y0052828D02*
X0113452Y0052828D01*
X0112968Y0052828D02*
X0112968Y0055731D01*
X0112484Y0055731D02*
X0113452Y0055731D01*
X0113482Y0058766D02*
X0112031Y0060217D01*
X0111547Y0059733D02*
X0113482Y0061668D01*
X0111547Y0061668D02*
X0111547Y0058766D01*
X0110535Y0059249D02*
X0110052Y0058766D01*
X0109084Y0058766D01*
X0108600Y0059249D01*
X0109084Y0060217D02*
X0110052Y0060217D01*
X0110535Y0059733D01*
X0110535Y0059249D01*
X0109084Y0060217D02*
X0108600Y0060701D01*
X0108600Y0061184D01*
X0109084Y0061668D01*
X0110052Y0061668D01*
X0110535Y0061184D01*
X0110223Y0065016D02*
X0110223Y0067918D01*
X0109255Y0066951D01*
X0108288Y0067918D01*
X0108288Y0065016D01*
X0108266Y0066370D02*
X0106331Y0066370D01*
X0105847Y0066854D01*
X0105847Y0067821D01*
X0106331Y0068305D01*
X0106331Y0069317D02*
X0105847Y0069800D01*
X0105847Y0070768D01*
X0106331Y0071252D01*
X0106815Y0071252D01*
X0108749Y0069317D01*
X0108749Y0071252D01*
X0108913Y0071266D02*
X0108913Y0074168D01*
X0110364Y0074168D01*
X0110848Y0073684D01*
X0110848Y0072717D01*
X0110364Y0072233D01*
X0108913Y0072233D01*
X0109880Y0072233D02*
X0110848Y0071266D01*
X0111859Y0071266D02*
X0113794Y0074168D01*
X0111859Y0074168D02*
X0113794Y0071266D01*
X0108749Y0067821D02*
X0108266Y0068305D01*
X0108749Y0067821D02*
X0108749Y0066854D01*
X0108266Y0066370D01*
X0111234Y0065499D02*
X0111718Y0065016D01*
X0112686Y0065016D01*
X0113169Y0065499D01*
X0113169Y0067434D01*
X0112686Y0067918D01*
X0111718Y0067918D01*
X0111234Y0067434D01*
X0111234Y0065499D01*
X0132395Y0073441D02*
X0132395Y0076343D01*
X0133846Y0076343D01*
X0134330Y0075859D01*
X0134330Y0074892D01*
X0133846Y0074408D01*
X0132395Y0074408D01*
X0133362Y0074408D02*
X0134330Y0073441D01*
X0135341Y0073924D02*
X0135341Y0074408D01*
X0135825Y0074892D01*
X0136793Y0074892D01*
X0137276Y0074408D01*
X0137276Y0073924D01*
X0136793Y0073441D01*
X0135825Y0073441D01*
X0135341Y0073924D01*
X0135825Y0074892D02*
X0135341Y0075376D01*
X0135341Y0075859D01*
X0135825Y0076343D01*
X0136793Y0076343D01*
X0137276Y0075859D01*
X0137276Y0075376D01*
X0136793Y0074892D01*
X0137373Y0082266D02*
X0137373Y0085168D01*
X0135922Y0083717D01*
X0137857Y0083717D01*
X0134910Y0083717D02*
X0134427Y0083233D01*
X0132975Y0083233D01*
X0132975Y0082266D02*
X0132975Y0085168D01*
X0134427Y0085168D01*
X0134910Y0084684D01*
X0134910Y0083717D01*
X0133943Y0083233D02*
X0134910Y0082266D01*
X0135223Y0090703D02*
X0134255Y0091671D01*
X0134739Y0091671D02*
X0133288Y0091671D01*
X0133288Y0090703D02*
X0133288Y0093606D01*
X0134739Y0093606D01*
X0135223Y0093122D01*
X0135223Y0092154D01*
X0134739Y0091671D01*
X0136234Y0092154D02*
X0137202Y0092638D01*
X0137686Y0092638D01*
X0138169Y0092154D01*
X0138169Y0091187D01*
X0137686Y0090703D01*
X0136718Y0090703D01*
X0136234Y0091187D01*
X0136234Y0092154D02*
X0136234Y0093606D01*
X0138169Y0093606D01*
X0136793Y0098441D02*
X0135825Y0098441D01*
X0135341Y0098924D01*
X0135825Y0099892D02*
X0137276Y0099892D01*
X0137276Y0100859D02*
X0137276Y0098924D01*
X0136793Y0098441D01*
X0135825Y0099892D02*
X0135341Y0100376D01*
X0135341Y0100859D01*
X0135825Y0101343D01*
X0136793Y0101343D01*
X0137276Y0100859D01*
X0134330Y0100859D02*
X0134330Y0099892D01*
X0133846Y0099408D01*
X0132395Y0099408D01*
X0132395Y0098441D02*
X0132395Y0101343D01*
X0133846Y0101343D01*
X0134330Y0100859D01*
X0133362Y0099408D02*
X0134330Y0098441D01*
X0113482Y0099481D02*
X0113482Y0096578D01*
X0111547Y0099481D01*
X0111547Y0096578D01*
X0111564Y0096569D02*
X0111564Y0094634D01*
X0111564Y0095602D02*
X0108661Y0095602D01*
X0109629Y0094634D01*
X0109145Y0093623D02*
X0108661Y0093139D01*
X0108661Y0092171D01*
X0109145Y0091688D01*
X0111080Y0091688D01*
X0111564Y0092171D01*
X0111564Y0093139D01*
X0111080Y0093623D01*
X0110848Y0093231D02*
X0108913Y0093231D01*
X0109880Y0093231D02*
X0109880Y0090328D01*
X0108661Y0090207D02*
X0111564Y0090207D01*
X0111859Y0090328D02*
X0113794Y0093231D01*
X0111859Y0093231D02*
X0113794Y0090328D01*
X0111564Y0090691D02*
X0111564Y0089723D01*
X0108661Y0089723D02*
X0108661Y0090691D01*
X0108913Y0087293D02*
X0110364Y0087293D01*
X0110848Y0086809D01*
X0110848Y0085842D01*
X0110364Y0085358D01*
X0108913Y0085358D01*
X0108913Y0084391D02*
X0108913Y0087293D01*
X0109880Y0085358D02*
X0110848Y0084391D01*
X0111859Y0084874D02*
X0112343Y0084391D01*
X0113311Y0084391D01*
X0113794Y0084874D01*
X0113794Y0085358D01*
X0113311Y0085842D01*
X0112343Y0085842D01*
X0111859Y0086326D01*
X0111859Y0086809D01*
X0112343Y0087293D01*
X0113311Y0087293D01*
X0113794Y0086809D01*
X0113311Y0080418D02*
X0112343Y0080418D01*
X0111859Y0079934D01*
X0111859Y0077999D01*
X0112343Y0077516D01*
X0113311Y0077516D01*
X0113794Y0077999D01*
X0113794Y0079934D02*
X0113311Y0080418D01*
X0110848Y0080418D02*
X0110848Y0078483D01*
X0109880Y0077516D01*
X0108913Y0078483D01*
X0108913Y0080418D01*
X0109084Y0096578D02*
X0110052Y0096578D01*
X0110535Y0097062D01*
X0110535Y0098029D01*
X0109568Y0098029D01*
X0108600Y0097062D02*
X0109084Y0096578D01*
X0108600Y0097062D02*
X0108600Y0098997D01*
X0109084Y0099481D01*
X0110052Y0099481D01*
X0110535Y0098997D01*
X0153645Y0074468D02*
X0155096Y0074468D01*
X0155580Y0073984D01*
X0155580Y0072049D01*
X0155096Y0071566D01*
X0153645Y0071566D01*
X0153645Y0074468D01*
X0156591Y0073017D02*
X0158526Y0073017D01*
X0158043Y0074468D02*
X0156591Y0073017D01*
X0158043Y0071566D02*
X0158043Y0074468D01*
X0157975Y0062356D02*
X0159427Y0062356D01*
X0159910Y0061872D01*
X0159910Y0059937D01*
X0159427Y0059453D01*
X0157975Y0059453D01*
X0157975Y0062356D01*
X0160922Y0061872D02*
X0161406Y0062356D01*
X0162373Y0062356D01*
X0162857Y0061872D01*
X0162857Y0061388D01*
X0162373Y0060904D01*
X0162857Y0060421D01*
X0162857Y0059937D01*
X0162373Y0059453D01*
X0161406Y0059453D01*
X0160922Y0059937D01*
X0161889Y0060904D02*
X0162373Y0060904D01*
X0146351Y0053134D02*
X0146351Y0052651D01*
X0144416Y0050716D01*
X0144416Y0050232D01*
X0143405Y0050716D02*
X0142921Y0050232D01*
X0141953Y0050232D01*
X0141470Y0050716D01*
X0141470Y0052651D01*
X0141953Y0053134D01*
X0142921Y0053134D01*
X0143405Y0052651D01*
X0144416Y0053134D02*
X0146351Y0053134D01*
X0168145Y0050422D02*
X0168145Y0048487D01*
X0168629Y0048003D01*
X0169596Y0048003D01*
X0170080Y0048487D01*
X0170080Y0050422D01*
X0169596Y0050906D01*
X0168629Y0050906D01*
X0168145Y0050422D01*
X0171091Y0049938D02*
X0172059Y0050906D01*
X0172059Y0048003D01*
X0173026Y0048003D02*
X0171091Y0048003D01*
X0170080Y0048003D02*
X0169112Y0048971D01*
X0183332Y0049468D02*
X0183332Y0046566D01*
X0183332Y0047533D02*
X0185267Y0049468D01*
X0186279Y0048984D02*
X0186763Y0049468D01*
X0187730Y0049468D01*
X0188214Y0048984D01*
X0188214Y0048501D01*
X0186279Y0046566D01*
X0188214Y0046566D01*
X0185267Y0046566D02*
X0183816Y0048017D01*
X0207898Y0045547D02*
X0207898Y0044580D01*
X0208382Y0044096D01*
X0208382Y0043085D02*
X0209349Y0043085D01*
X0209833Y0042601D01*
X0209833Y0041150D01*
X0210800Y0041150D02*
X0207898Y0041150D01*
X0207898Y0042601D01*
X0208382Y0043085D01*
X0210317Y0044096D02*
X0210800Y0044580D01*
X0210800Y0045547D01*
X0210317Y0046031D01*
X0209833Y0046031D01*
X0209349Y0045547D01*
X0209349Y0045064D01*
X0209349Y0045547D02*
X0208865Y0046031D01*
X0208382Y0046031D01*
X0207898Y0045547D01*
X0207898Y0040138D02*
X0207898Y0039171D01*
X0207898Y0039654D02*
X0210317Y0039654D01*
X0210800Y0039171D01*
X0210800Y0038687D01*
X0210317Y0038203D01*
X0166794Y0091453D02*
X0164859Y0091453D01*
X0166794Y0093388D01*
X0166794Y0093872D01*
X0166311Y0094356D01*
X0165343Y0094356D01*
X0164859Y0093872D01*
X0163848Y0093872D02*
X0163848Y0091937D01*
X0163364Y0091453D01*
X0162397Y0091453D01*
X0161913Y0091937D01*
X0161913Y0093872D01*
X0162397Y0094356D01*
X0163364Y0094356D01*
X0163848Y0093872D01*
X0162880Y0092421D02*
X0163848Y0091453D01*
D14*
X0103923Y0067988D02*
X0103923Y0064988D01*
X0098726Y0064988D02*
X0098726Y0067890D01*
D15*
X0101329Y0069312D03*
X0101329Y0063612D03*
D16*
X0101721Y0053048D02*
X0101721Y0034938D01*
X0099949Y0034938D01*
X0099949Y0040056D02*
X0092075Y0040056D01*
X0092075Y0034938D02*
X0090303Y0034938D01*
X0090303Y0053048D01*
X0092075Y0053048D01*
X0099949Y0053048D02*
X0101721Y0053048D01*
X0122995Y0067005D02*
X0122995Y0038265D01*
X0126539Y0034721D01*
X0133035Y0034721D01*
X0145042Y0034721D01*
X0151735Y0034721D01*
X0155279Y0038265D01*
X0155279Y0067005D01*
X0145239Y0067005D01*
X0133035Y0067005D01*
X0122995Y0067005D01*
X0144846Y0065037D02*
X0145191Y0064892D01*
X0145533Y0064740D01*
X0145871Y0064579D01*
X0146205Y0064410D01*
X0146534Y0064233D01*
X0146860Y0064048D01*
X0147180Y0063855D01*
X0147496Y0063654D01*
X0147807Y0063445D01*
X0148112Y0063229D01*
X0148412Y0063006D01*
X0148707Y0062775D01*
X0148996Y0062537D01*
X0149279Y0062292D01*
X0149556Y0062040D01*
X0149826Y0061782D01*
X0150090Y0061517D01*
X0150348Y0061245D01*
X0150599Y0060967D01*
X0150843Y0060684D01*
X0151080Y0060394D01*
X0151310Y0060099D01*
X0151532Y0059798D01*
X0151748Y0059492D01*
X0151955Y0059180D01*
X0152155Y0058864D01*
X0152347Y0058543D01*
X0152531Y0058217D01*
X0152707Y0057887D01*
X0152875Y0057552D01*
X0153035Y0057214D01*
X0153186Y0056871D01*
X0153329Y0056526D01*
X0153463Y0056176D01*
X0153589Y0055824D01*
X0153706Y0055468D01*
X0153815Y0055110D01*
X0153914Y0054749D01*
X0154005Y0054386D01*
X0154087Y0054021D01*
X0154160Y0053654D01*
X0154224Y0053285D01*
X0154279Y0052915D01*
X0154324Y0052544D01*
X0154361Y0052171D01*
X0154388Y0051798D01*
X0154407Y0051424D01*
X0154416Y0051050D01*
X0154416Y0050676D01*
X0154407Y0050302D01*
X0154388Y0049928D01*
X0154361Y0049555D01*
X0154324Y0049182D01*
X0154279Y0048811D01*
X0154224Y0048441D01*
X0154160Y0048072D01*
X0154087Y0047705D01*
X0154005Y0047340D01*
X0153914Y0046977D01*
X0153815Y0046616D01*
X0153706Y0046258D01*
X0153589Y0045902D01*
X0153463Y0045550D01*
X0153329Y0045200D01*
X0153186Y0044855D01*
X0153035Y0044512D01*
X0152875Y0044174D01*
X0152707Y0043839D01*
X0152531Y0043509D01*
X0152347Y0043183D01*
X0152155Y0042862D01*
X0151955Y0042546D01*
X0151748Y0042234D01*
X0151532Y0041928D01*
X0151310Y0041627D01*
X0151080Y0041332D01*
X0150843Y0041042D01*
X0150599Y0040759D01*
X0150348Y0040481D01*
X0150090Y0040209D01*
X0149826Y0039944D01*
X0149556Y0039686D01*
X0149279Y0039434D01*
X0148996Y0039189D01*
X0148707Y0038951D01*
X0148412Y0038720D01*
X0148112Y0038497D01*
X0147807Y0038281D01*
X0147496Y0038072D01*
X0147180Y0037871D01*
X0146860Y0037678D01*
X0146534Y0037493D01*
X0146205Y0037316D01*
X0145871Y0037147D01*
X0145533Y0036986D01*
X0145191Y0036834D01*
X0144846Y0036689D01*
X0161807Y0040354D02*
X0164956Y0040354D01*
X0164956Y0042716D01*
X0164956Y0049015D02*
X0164956Y0051377D01*
X0161807Y0051377D01*
X0144846Y0036689D02*
X0144505Y0036557D01*
X0144161Y0036433D01*
X0143814Y0036317D01*
X0143465Y0036209D01*
X0143113Y0036109D01*
X0142759Y0036018D01*
X0142403Y0035936D01*
X0142045Y0035862D01*
X0141685Y0035797D01*
X0141323Y0035740D01*
X0140961Y0035692D01*
X0140597Y0035653D01*
X0140233Y0035622D01*
X0139868Y0035600D01*
X0139503Y0035587D01*
X0139137Y0035583D01*
X0138771Y0035587D01*
X0138406Y0035600D01*
X0138041Y0035622D01*
X0137677Y0035653D01*
X0137313Y0035692D01*
X0136951Y0035740D01*
X0136589Y0035797D01*
X0136229Y0035862D01*
X0135871Y0035936D01*
X0135515Y0036018D01*
X0135161Y0036109D01*
X0134809Y0036209D01*
X0134460Y0036317D01*
X0134113Y0036433D01*
X0133769Y0036557D01*
X0133428Y0036689D01*
X0133428Y0065037D02*
X0133769Y0065169D01*
X0134113Y0065293D01*
X0134460Y0065409D01*
X0134809Y0065517D01*
X0135161Y0065617D01*
X0135515Y0065708D01*
X0135871Y0065790D01*
X0136229Y0065864D01*
X0136589Y0065929D01*
X0136951Y0065986D01*
X0137313Y0066034D01*
X0137677Y0066073D01*
X0138041Y0066104D01*
X0138406Y0066126D01*
X0138771Y0066139D01*
X0139137Y0066143D01*
X0139503Y0066139D01*
X0139868Y0066126D01*
X0140233Y0066104D01*
X0140597Y0066073D01*
X0140961Y0066034D01*
X0141323Y0065986D01*
X0141685Y0065929D01*
X0142045Y0065864D01*
X0142403Y0065790D01*
X0142759Y0065708D01*
X0143113Y0065617D01*
X0143465Y0065517D01*
X0143814Y0065409D01*
X0144161Y0065293D01*
X0144505Y0065169D01*
X0144846Y0065037D01*
X0133428Y0065037D02*
X0133083Y0064892D01*
X0132741Y0064740D01*
X0132403Y0064579D01*
X0132069Y0064410D01*
X0131740Y0064233D01*
X0131414Y0064048D01*
X0131094Y0063855D01*
X0130778Y0063654D01*
X0130467Y0063445D01*
X0130162Y0063229D01*
X0129862Y0063006D01*
X0129567Y0062775D01*
X0129278Y0062537D01*
X0128995Y0062292D01*
X0128718Y0062040D01*
X0128448Y0061782D01*
X0128184Y0061517D01*
X0127926Y0061245D01*
X0127675Y0060967D01*
X0127431Y0060684D01*
X0127194Y0060394D01*
X0126964Y0060099D01*
X0126742Y0059798D01*
X0126526Y0059492D01*
X0126319Y0059180D01*
X0126119Y0058864D01*
X0125927Y0058543D01*
X0125743Y0058217D01*
X0125567Y0057887D01*
X0125399Y0057552D01*
X0125239Y0057214D01*
X0125088Y0056871D01*
X0124945Y0056526D01*
X0124811Y0056176D01*
X0124685Y0055824D01*
X0124568Y0055468D01*
X0124459Y0055110D01*
X0124360Y0054749D01*
X0124269Y0054386D01*
X0124187Y0054021D01*
X0124114Y0053654D01*
X0124050Y0053285D01*
X0123995Y0052915D01*
X0123950Y0052544D01*
X0123913Y0052171D01*
X0123886Y0051798D01*
X0123867Y0051424D01*
X0123858Y0051050D01*
X0123858Y0050676D01*
X0123867Y0050302D01*
X0123886Y0049928D01*
X0123913Y0049555D01*
X0123950Y0049182D01*
X0123995Y0048811D01*
X0124050Y0048441D01*
X0124114Y0048072D01*
X0124187Y0047705D01*
X0124269Y0047340D01*
X0124360Y0046977D01*
X0124459Y0046616D01*
X0124568Y0046258D01*
X0124685Y0045902D01*
X0124811Y0045550D01*
X0124945Y0045200D01*
X0125088Y0044855D01*
X0125239Y0044512D01*
X0125399Y0044174D01*
X0125567Y0043839D01*
X0125743Y0043509D01*
X0125927Y0043183D01*
X0126119Y0042862D01*
X0126319Y0042546D01*
X0126526Y0042234D01*
X0126742Y0041928D01*
X0126964Y0041627D01*
X0127194Y0041332D01*
X0127431Y0041042D01*
X0127675Y0040759D01*
X0127926Y0040481D01*
X0128184Y0040209D01*
X0128448Y0039944D01*
X0128718Y0039686D01*
X0128995Y0039434D01*
X0129278Y0039189D01*
X0129567Y0038951D01*
X0129862Y0038720D01*
X0130162Y0038497D01*
X0130467Y0038281D01*
X0130778Y0038072D01*
X0131094Y0037871D01*
X0131414Y0037678D01*
X0131740Y0037493D01*
X0132069Y0037316D01*
X0132403Y0037147D01*
X0132741Y0036986D01*
X0133083Y0036834D01*
X0133428Y0036689D01*
X0173027Y0034857D02*
X0201374Y0034857D01*
X0201374Y0093125D01*
X0173027Y0093125D01*
X0173027Y0034857D01*
X0204752Y0032123D02*
X0229162Y0032123D01*
X0229162Y0111257D01*
X0232311Y0111257D01*
X0232311Y0032123D01*
X0229162Y0032123D01*
X0227390Y0032123D02*
X0227390Y0030548D01*
X0223453Y0030548D01*
X0223453Y0032123D01*
X0204752Y0032123D02*
X0204752Y0111257D01*
X0229162Y0111257D01*
X0209673Y0111257D02*
X0209673Y0112832D01*
X0205736Y0112832D01*
X0205736Y0111257D01*
X0164956Y0093565D02*
X0164956Y0091203D01*
X0164956Y0093565D02*
X0161807Y0093565D01*
X0164956Y0084904D02*
X0164956Y0082541D01*
X0161807Y0082541D01*
X0060749Y0111257D02*
X0060749Y0032123D01*
X0057599Y0032123D01*
X0057599Y0111257D01*
X0060749Y0111257D01*
X0057599Y0111257D02*
X0033190Y0111257D01*
X0033190Y0032123D01*
X0057599Y0032123D01*
X0055827Y0032123D02*
X0055827Y0030548D01*
X0051890Y0030548D01*
X0051890Y0032123D01*
X0038111Y0111257D02*
X0038111Y0112832D01*
X0034174Y0112832D01*
X0034174Y0111257D01*
D17*
X0082832Y0106605D02*
X0082832Y0082006D01*
X0096454Y0082006D01*
X0096454Y0106605D01*
X0082832Y0106605D01*
X0143463Y0102428D02*
X0149063Y0102428D01*
X0149063Y0097428D02*
X0143463Y0097428D01*
X0143463Y0094303D02*
X0149063Y0094303D01*
X0149063Y0089303D02*
X0143463Y0089303D01*
X0143463Y0086178D02*
X0149063Y0086178D01*
X0159600Y0082453D02*
X0159600Y0093653D01*
X0164800Y0093653D01*
X0164800Y0082453D01*
X0159600Y0082453D01*
X0156600Y0077216D02*
X0167800Y0077216D01*
X0167800Y0072016D01*
X0156600Y0072016D01*
X0156600Y0077216D01*
X0149063Y0078053D02*
X0143463Y0078053D01*
X0143463Y0081178D02*
X0149063Y0081178D01*
X0149063Y0073053D02*
X0143463Y0073053D01*
X0160350Y0061903D02*
X0171550Y0061903D01*
X0171550Y0056703D01*
X0160350Y0056703D01*
X0160350Y0061903D01*
X0159600Y0051466D02*
X0164800Y0051466D01*
X0164800Y0040266D01*
X0159600Y0040266D01*
X0159600Y0051466D01*
X0067828Y0055002D02*
X0067828Y0060602D01*
X0062828Y0060602D02*
X0062828Y0055002D01*
D18*
X0099639Y0094306D03*
D19*
X0079639Y0094306D03*
X0079639Y0085306D03*
X0079639Y0103306D03*
D20*
X0084000Y0068681D02*
X0084734Y0068681D01*
X0085101Y0068314D01*
X0084734Y0067947D01*
X0084000Y0067947D01*
X0084000Y0067576D02*
X0084734Y0067576D01*
X0085101Y0067209D01*
X0084734Y0066842D01*
X0084000Y0066842D01*
X0084550Y0066842D02*
X0084550Y0067576D01*
X0084550Y0067947D02*
X0084550Y0068681D01*
X0084734Y0065366D02*
X0084917Y0065366D01*
X0085101Y0065183D01*
X0085101Y0064816D01*
X0084917Y0064632D01*
X0084734Y0065366D02*
X0084000Y0064632D01*
X0084000Y0065366D01*
X0084000Y0064261D02*
X0084000Y0063527D01*
X0084000Y0063894D02*
X0085101Y0063894D01*
X0084734Y0063527D01*
X0084917Y0063157D02*
X0084183Y0062423D01*
X0084000Y0062606D01*
X0084000Y0062973D01*
X0084183Y0063157D01*
X0084917Y0063157D01*
X0085101Y0062973D01*
X0085101Y0062606D01*
X0084917Y0062423D01*
X0084183Y0062423D01*
X0084550Y0062052D02*
X0084550Y0061318D01*
X0084367Y0060947D02*
X0084183Y0060947D01*
X0084000Y0060763D01*
X0084000Y0060396D01*
X0084183Y0060213D01*
X0084550Y0060396D02*
X0084550Y0060763D01*
X0084367Y0060947D01*
X0084917Y0060947D02*
X0085101Y0060763D01*
X0085101Y0060396D01*
X0084917Y0060213D01*
X0084734Y0060213D01*
X0084550Y0060396D01*
X0084000Y0059842D02*
X0085101Y0059842D01*
X0084734Y0059475D01*
X0085101Y0059108D01*
X0084000Y0059108D01*
X0084183Y0057632D02*
X0084000Y0057448D01*
X0084000Y0057081D01*
X0084183Y0056898D01*
X0084917Y0056898D01*
X0085101Y0057081D01*
X0085101Y0057448D01*
X0084917Y0057632D01*
X0085101Y0056527D02*
X0085101Y0055793D01*
X0084000Y0055793D01*
X0084000Y0056527D01*
X0084550Y0056160D02*
X0084550Y0055793D01*
X0084183Y0055422D02*
X0084917Y0055422D01*
X0085101Y0055238D01*
X0085101Y0054688D01*
X0084000Y0054688D01*
X0084000Y0055238D01*
X0084183Y0055422D01*
X0084000Y0054317D02*
X0084000Y0053583D01*
X0085101Y0053583D01*
X0085101Y0054317D01*
X0084550Y0053950D02*
X0084550Y0053583D01*
X0085101Y0053212D02*
X0085101Y0052845D01*
X0085101Y0053029D02*
X0084183Y0053029D01*
X0084000Y0052845D01*
X0084000Y0052662D01*
X0084183Y0052478D01*
X0081564Y0052478D02*
X0081564Y0052979D01*
X0081564Y0052728D02*
X0080063Y0052728D01*
X0080063Y0052478D02*
X0080063Y0052979D01*
X0080063Y0053460D02*
X0081564Y0053460D01*
X0081564Y0054211D01*
X0081314Y0054461D01*
X0080814Y0054461D01*
X0080563Y0054211D01*
X0080563Y0053460D01*
X0080313Y0054934D02*
X0080063Y0055184D01*
X0080063Y0055684D01*
X0080313Y0055934D01*
X0080313Y0054934D02*
X0081314Y0054934D01*
X0081564Y0055184D01*
X0081564Y0055684D01*
X0081314Y0055934D01*
X0081314Y0057880D02*
X0081064Y0057880D01*
X0080814Y0058130D01*
X0080814Y0058631D01*
X0080563Y0058881D01*
X0080313Y0058881D01*
X0080063Y0058631D01*
X0080063Y0058130D01*
X0080313Y0057880D01*
X0081314Y0057880D02*
X0081564Y0058130D01*
X0081564Y0058631D01*
X0081314Y0058881D01*
X0081314Y0059353D02*
X0080313Y0059353D01*
X0080063Y0059604D01*
X0080063Y0060104D01*
X0080313Y0060354D01*
X0081314Y0060354D01*
X0081564Y0060104D01*
X0081564Y0059604D01*
X0081314Y0059353D01*
X0081314Y0060827D02*
X0081064Y0060827D01*
X0080814Y0061077D01*
X0080814Y0061577D01*
X0080563Y0061827D01*
X0080313Y0061827D01*
X0080063Y0061577D01*
X0080063Y0061077D01*
X0080313Y0060827D01*
X0080563Y0060827D01*
X0080814Y0061077D01*
X0080814Y0061577D02*
X0081064Y0061827D01*
X0081314Y0061827D01*
X0081564Y0061577D01*
X0081564Y0061077D01*
X0081314Y0060827D01*
D21*
X0065328Y0061202D03*
X0065328Y0054402D03*
D22*
X0044902Y0060863D02*
X0044904Y0060944D01*
X0044910Y0061026D01*
X0044920Y0061107D01*
X0044934Y0061187D01*
X0044951Y0061266D01*
X0044973Y0061345D01*
X0044998Y0061422D01*
X0045027Y0061499D01*
X0045060Y0061573D01*
X0045097Y0061646D01*
X0045136Y0061717D01*
X0045180Y0061786D01*
X0045226Y0061853D01*
X0045276Y0061917D01*
X0045329Y0061979D01*
X0045385Y0062039D01*
X0045443Y0062095D01*
X0045505Y0062149D01*
X0045569Y0062200D01*
X0045635Y0062247D01*
X0045703Y0062291D01*
X0045774Y0062332D01*
X0045846Y0062369D01*
X0045921Y0062403D01*
X0045996Y0062433D01*
X0046074Y0062459D01*
X0046152Y0062482D01*
X0046231Y0062500D01*
X0046311Y0062515D01*
X0046392Y0062526D01*
X0046473Y0062533D01*
X0046555Y0062536D01*
X0046636Y0062535D01*
X0046717Y0062530D01*
X0046798Y0062521D01*
X0046879Y0062508D01*
X0046959Y0062491D01*
X0047037Y0062471D01*
X0047115Y0062446D01*
X0047192Y0062418D01*
X0047267Y0062386D01*
X0047340Y0062351D01*
X0047411Y0062312D01*
X0047481Y0062269D01*
X0047548Y0062224D01*
X0047614Y0062175D01*
X0047676Y0062123D01*
X0047736Y0062067D01*
X0047793Y0062009D01*
X0047848Y0061949D01*
X0047899Y0061885D01*
X0047947Y0061820D01*
X0047992Y0061752D01*
X0048034Y0061682D01*
X0048072Y0061610D01*
X0048107Y0061536D01*
X0048138Y0061461D01*
X0048165Y0061384D01*
X0048188Y0061306D01*
X0048208Y0061227D01*
X0048224Y0061147D01*
X0048236Y0061066D01*
X0048244Y0060985D01*
X0048248Y0060904D01*
X0048248Y0060822D01*
X0048244Y0060741D01*
X0048236Y0060660D01*
X0048224Y0060579D01*
X0048208Y0060499D01*
X0048188Y0060420D01*
X0048165Y0060342D01*
X0048138Y0060265D01*
X0048107Y0060190D01*
X0048072Y0060116D01*
X0048034Y0060044D01*
X0047992Y0059974D01*
X0047947Y0059906D01*
X0047899Y0059841D01*
X0047848Y0059777D01*
X0047793Y0059717D01*
X0047736Y0059659D01*
X0047676Y0059603D01*
X0047614Y0059551D01*
X0047548Y0059502D01*
X0047481Y0059457D01*
X0047412Y0059414D01*
X0047340Y0059375D01*
X0047267Y0059340D01*
X0047192Y0059308D01*
X0047115Y0059280D01*
X0047037Y0059255D01*
X0046959Y0059235D01*
X0046879Y0059218D01*
X0046798Y0059205D01*
X0046717Y0059196D01*
X0046636Y0059191D01*
X0046555Y0059190D01*
X0046473Y0059193D01*
X0046392Y0059200D01*
X0046311Y0059211D01*
X0046231Y0059226D01*
X0046152Y0059244D01*
X0046074Y0059267D01*
X0045996Y0059293D01*
X0045921Y0059323D01*
X0045846Y0059357D01*
X0045774Y0059394D01*
X0045703Y0059435D01*
X0045635Y0059479D01*
X0045569Y0059526D01*
X0045505Y0059577D01*
X0045443Y0059631D01*
X0045385Y0059687D01*
X0045329Y0059747D01*
X0045276Y0059809D01*
X0045226Y0059873D01*
X0045180Y0059940D01*
X0045136Y0060009D01*
X0045097Y0060080D01*
X0045060Y0060153D01*
X0045027Y0060227D01*
X0044998Y0060304D01*
X0044973Y0060381D01*
X0044951Y0060460D01*
X0044934Y0060539D01*
X0044920Y0060619D01*
X0044910Y0060700D01*
X0044904Y0060782D01*
X0044902Y0060863D01*
X0044902Y0041178D02*
X0044904Y0041259D01*
X0044910Y0041341D01*
X0044920Y0041422D01*
X0044934Y0041502D01*
X0044951Y0041581D01*
X0044973Y0041660D01*
X0044998Y0041737D01*
X0045027Y0041814D01*
X0045060Y0041888D01*
X0045097Y0041961D01*
X0045136Y0042032D01*
X0045180Y0042101D01*
X0045226Y0042168D01*
X0045276Y0042232D01*
X0045329Y0042294D01*
X0045385Y0042354D01*
X0045443Y0042410D01*
X0045505Y0042464D01*
X0045569Y0042515D01*
X0045635Y0042562D01*
X0045703Y0042606D01*
X0045774Y0042647D01*
X0045846Y0042684D01*
X0045921Y0042718D01*
X0045996Y0042748D01*
X0046074Y0042774D01*
X0046152Y0042797D01*
X0046231Y0042815D01*
X0046311Y0042830D01*
X0046392Y0042841D01*
X0046473Y0042848D01*
X0046555Y0042851D01*
X0046636Y0042850D01*
X0046717Y0042845D01*
X0046798Y0042836D01*
X0046879Y0042823D01*
X0046959Y0042806D01*
X0047037Y0042786D01*
X0047115Y0042761D01*
X0047192Y0042733D01*
X0047267Y0042701D01*
X0047340Y0042666D01*
X0047411Y0042627D01*
X0047481Y0042584D01*
X0047548Y0042539D01*
X0047614Y0042490D01*
X0047676Y0042438D01*
X0047736Y0042382D01*
X0047793Y0042324D01*
X0047848Y0042264D01*
X0047899Y0042200D01*
X0047947Y0042135D01*
X0047992Y0042067D01*
X0048034Y0041997D01*
X0048072Y0041925D01*
X0048107Y0041851D01*
X0048138Y0041776D01*
X0048165Y0041699D01*
X0048188Y0041621D01*
X0048208Y0041542D01*
X0048224Y0041462D01*
X0048236Y0041381D01*
X0048244Y0041300D01*
X0048248Y0041219D01*
X0048248Y0041137D01*
X0048244Y0041056D01*
X0048236Y0040975D01*
X0048224Y0040894D01*
X0048208Y0040814D01*
X0048188Y0040735D01*
X0048165Y0040657D01*
X0048138Y0040580D01*
X0048107Y0040505D01*
X0048072Y0040431D01*
X0048034Y0040359D01*
X0047992Y0040289D01*
X0047947Y0040221D01*
X0047899Y0040156D01*
X0047848Y0040092D01*
X0047793Y0040032D01*
X0047736Y0039974D01*
X0047676Y0039918D01*
X0047614Y0039866D01*
X0047548Y0039817D01*
X0047481Y0039772D01*
X0047412Y0039729D01*
X0047340Y0039690D01*
X0047267Y0039655D01*
X0047192Y0039623D01*
X0047115Y0039595D01*
X0047037Y0039570D01*
X0046959Y0039550D01*
X0046879Y0039533D01*
X0046798Y0039520D01*
X0046717Y0039511D01*
X0046636Y0039506D01*
X0046555Y0039505D01*
X0046473Y0039508D01*
X0046392Y0039515D01*
X0046311Y0039526D01*
X0046231Y0039541D01*
X0046152Y0039559D01*
X0046074Y0039582D01*
X0045996Y0039608D01*
X0045921Y0039638D01*
X0045846Y0039672D01*
X0045774Y0039709D01*
X0045703Y0039750D01*
X0045635Y0039794D01*
X0045569Y0039841D01*
X0045505Y0039892D01*
X0045443Y0039946D01*
X0045385Y0040002D01*
X0045329Y0040062D01*
X0045276Y0040124D01*
X0045226Y0040188D01*
X0045180Y0040255D01*
X0045136Y0040324D01*
X0045097Y0040395D01*
X0045060Y0040468D01*
X0045027Y0040542D01*
X0044998Y0040619D01*
X0044973Y0040696D01*
X0044951Y0040775D01*
X0044934Y0040854D01*
X0044920Y0040934D01*
X0044910Y0041015D01*
X0044904Y0041097D01*
X0044902Y0041178D01*
X0044902Y0080548D02*
X0044904Y0080629D01*
X0044910Y0080711D01*
X0044920Y0080792D01*
X0044934Y0080872D01*
X0044951Y0080951D01*
X0044973Y0081030D01*
X0044998Y0081107D01*
X0045027Y0081184D01*
X0045060Y0081258D01*
X0045097Y0081331D01*
X0045136Y0081402D01*
X0045180Y0081471D01*
X0045226Y0081538D01*
X0045276Y0081602D01*
X0045329Y0081664D01*
X0045385Y0081724D01*
X0045443Y0081780D01*
X0045505Y0081834D01*
X0045569Y0081885D01*
X0045635Y0081932D01*
X0045703Y0081976D01*
X0045774Y0082017D01*
X0045846Y0082054D01*
X0045921Y0082088D01*
X0045996Y0082118D01*
X0046074Y0082144D01*
X0046152Y0082167D01*
X0046231Y0082185D01*
X0046311Y0082200D01*
X0046392Y0082211D01*
X0046473Y0082218D01*
X0046555Y0082221D01*
X0046636Y0082220D01*
X0046717Y0082215D01*
X0046798Y0082206D01*
X0046879Y0082193D01*
X0046959Y0082176D01*
X0047037Y0082156D01*
X0047115Y0082131D01*
X0047192Y0082103D01*
X0047267Y0082071D01*
X0047340Y0082036D01*
X0047411Y0081997D01*
X0047481Y0081954D01*
X0047548Y0081909D01*
X0047614Y0081860D01*
X0047676Y0081808D01*
X0047736Y0081752D01*
X0047793Y0081694D01*
X0047848Y0081634D01*
X0047899Y0081570D01*
X0047947Y0081505D01*
X0047992Y0081437D01*
X0048034Y0081367D01*
X0048072Y0081295D01*
X0048107Y0081221D01*
X0048138Y0081146D01*
X0048165Y0081069D01*
X0048188Y0080991D01*
X0048208Y0080912D01*
X0048224Y0080832D01*
X0048236Y0080751D01*
X0048244Y0080670D01*
X0048248Y0080589D01*
X0048248Y0080507D01*
X0048244Y0080426D01*
X0048236Y0080345D01*
X0048224Y0080264D01*
X0048208Y0080184D01*
X0048188Y0080105D01*
X0048165Y0080027D01*
X0048138Y0079950D01*
X0048107Y0079875D01*
X0048072Y0079801D01*
X0048034Y0079729D01*
X0047992Y0079659D01*
X0047947Y0079591D01*
X0047899Y0079526D01*
X0047848Y0079462D01*
X0047793Y0079402D01*
X0047736Y0079344D01*
X0047676Y0079288D01*
X0047614Y0079236D01*
X0047548Y0079187D01*
X0047481Y0079142D01*
X0047412Y0079099D01*
X0047340Y0079060D01*
X0047267Y0079025D01*
X0047192Y0078993D01*
X0047115Y0078965D01*
X0047037Y0078940D01*
X0046959Y0078920D01*
X0046879Y0078903D01*
X0046798Y0078890D01*
X0046717Y0078881D01*
X0046636Y0078876D01*
X0046555Y0078875D01*
X0046473Y0078878D01*
X0046392Y0078885D01*
X0046311Y0078896D01*
X0046231Y0078911D01*
X0046152Y0078929D01*
X0046074Y0078952D01*
X0045996Y0078978D01*
X0045921Y0079008D01*
X0045846Y0079042D01*
X0045774Y0079079D01*
X0045703Y0079120D01*
X0045635Y0079164D01*
X0045569Y0079211D01*
X0045505Y0079262D01*
X0045443Y0079316D01*
X0045385Y0079372D01*
X0045329Y0079432D01*
X0045276Y0079494D01*
X0045226Y0079558D01*
X0045180Y0079625D01*
X0045136Y0079694D01*
X0045097Y0079765D01*
X0045060Y0079838D01*
X0045027Y0079912D01*
X0044998Y0079989D01*
X0044973Y0080066D01*
X0044951Y0080145D01*
X0044934Y0080224D01*
X0044920Y0080304D01*
X0044910Y0080385D01*
X0044904Y0080467D01*
X0044902Y0080548D01*
X0044902Y0100233D02*
X0044904Y0100314D01*
X0044910Y0100396D01*
X0044920Y0100477D01*
X0044934Y0100557D01*
X0044951Y0100636D01*
X0044973Y0100715D01*
X0044998Y0100792D01*
X0045027Y0100869D01*
X0045060Y0100943D01*
X0045097Y0101016D01*
X0045136Y0101087D01*
X0045180Y0101156D01*
X0045226Y0101223D01*
X0045276Y0101287D01*
X0045329Y0101349D01*
X0045385Y0101409D01*
X0045443Y0101465D01*
X0045505Y0101519D01*
X0045569Y0101570D01*
X0045635Y0101617D01*
X0045703Y0101661D01*
X0045774Y0101702D01*
X0045846Y0101739D01*
X0045921Y0101773D01*
X0045996Y0101803D01*
X0046074Y0101829D01*
X0046152Y0101852D01*
X0046231Y0101870D01*
X0046311Y0101885D01*
X0046392Y0101896D01*
X0046473Y0101903D01*
X0046555Y0101906D01*
X0046636Y0101905D01*
X0046717Y0101900D01*
X0046798Y0101891D01*
X0046879Y0101878D01*
X0046959Y0101861D01*
X0047037Y0101841D01*
X0047115Y0101816D01*
X0047192Y0101788D01*
X0047267Y0101756D01*
X0047340Y0101721D01*
X0047411Y0101682D01*
X0047481Y0101639D01*
X0047548Y0101594D01*
X0047614Y0101545D01*
X0047676Y0101493D01*
X0047736Y0101437D01*
X0047793Y0101379D01*
X0047848Y0101319D01*
X0047899Y0101255D01*
X0047947Y0101190D01*
X0047992Y0101122D01*
X0048034Y0101052D01*
X0048072Y0100980D01*
X0048107Y0100906D01*
X0048138Y0100831D01*
X0048165Y0100754D01*
X0048188Y0100676D01*
X0048208Y0100597D01*
X0048224Y0100517D01*
X0048236Y0100436D01*
X0048244Y0100355D01*
X0048248Y0100274D01*
X0048248Y0100192D01*
X0048244Y0100111D01*
X0048236Y0100030D01*
X0048224Y0099949D01*
X0048208Y0099869D01*
X0048188Y0099790D01*
X0048165Y0099712D01*
X0048138Y0099635D01*
X0048107Y0099560D01*
X0048072Y0099486D01*
X0048034Y0099414D01*
X0047992Y0099344D01*
X0047947Y0099276D01*
X0047899Y0099211D01*
X0047848Y0099147D01*
X0047793Y0099087D01*
X0047736Y0099029D01*
X0047676Y0098973D01*
X0047614Y0098921D01*
X0047548Y0098872D01*
X0047481Y0098827D01*
X0047412Y0098784D01*
X0047340Y0098745D01*
X0047267Y0098710D01*
X0047192Y0098678D01*
X0047115Y0098650D01*
X0047037Y0098625D01*
X0046959Y0098605D01*
X0046879Y0098588D01*
X0046798Y0098575D01*
X0046717Y0098566D01*
X0046636Y0098561D01*
X0046555Y0098560D01*
X0046473Y0098563D01*
X0046392Y0098570D01*
X0046311Y0098581D01*
X0046231Y0098596D01*
X0046152Y0098614D01*
X0046074Y0098637D01*
X0045996Y0098663D01*
X0045921Y0098693D01*
X0045846Y0098727D01*
X0045774Y0098764D01*
X0045703Y0098805D01*
X0045635Y0098849D01*
X0045569Y0098896D01*
X0045505Y0098947D01*
X0045443Y0099001D01*
X0045385Y0099057D01*
X0045329Y0099117D01*
X0045276Y0099179D01*
X0045226Y0099243D01*
X0045180Y0099310D01*
X0045136Y0099379D01*
X0045097Y0099450D01*
X0045060Y0099523D01*
X0045027Y0099597D01*
X0044998Y0099674D01*
X0044973Y0099751D01*
X0044951Y0099830D01*
X0044934Y0099909D01*
X0044920Y0099989D01*
X0044910Y0100070D01*
X0044904Y0100152D01*
X0044902Y0100233D01*
X0216465Y0100233D02*
X0216467Y0100314D01*
X0216473Y0100396D01*
X0216483Y0100477D01*
X0216497Y0100557D01*
X0216514Y0100636D01*
X0216536Y0100715D01*
X0216561Y0100792D01*
X0216590Y0100869D01*
X0216623Y0100943D01*
X0216660Y0101016D01*
X0216699Y0101087D01*
X0216743Y0101156D01*
X0216789Y0101223D01*
X0216839Y0101287D01*
X0216892Y0101349D01*
X0216948Y0101409D01*
X0217006Y0101465D01*
X0217068Y0101519D01*
X0217132Y0101570D01*
X0217198Y0101617D01*
X0217266Y0101661D01*
X0217337Y0101702D01*
X0217409Y0101739D01*
X0217484Y0101773D01*
X0217559Y0101803D01*
X0217637Y0101829D01*
X0217715Y0101852D01*
X0217794Y0101870D01*
X0217874Y0101885D01*
X0217955Y0101896D01*
X0218036Y0101903D01*
X0218118Y0101906D01*
X0218199Y0101905D01*
X0218280Y0101900D01*
X0218361Y0101891D01*
X0218442Y0101878D01*
X0218522Y0101861D01*
X0218600Y0101841D01*
X0218678Y0101816D01*
X0218755Y0101788D01*
X0218830Y0101756D01*
X0218903Y0101721D01*
X0218974Y0101682D01*
X0219044Y0101639D01*
X0219111Y0101594D01*
X0219177Y0101545D01*
X0219239Y0101493D01*
X0219299Y0101437D01*
X0219356Y0101379D01*
X0219411Y0101319D01*
X0219462Y0101255D01*
X0219510Y0101190D01*
X0219555Y0101122D01*
X0219597Y0101052D01*
X0219635Y0100980D01*
X0219670Y0100906D01*
X0219701Y0100831D01*
X0219728Y0100754D01*
X0219751Y0100676D01*
X0219771Y0100597D01*
X0219787Y0100517D01*
X0219799Y0100436D01*
X0219807Y0100355D01*
X0219811Y0100274D01*
X0219811Y0100192D01*
X0219807Y0100111D01*
X0219799Y0100030D01*
X0219787Y0099949D01*
X0219771Y0099869D01*
X0219751Y0099790D01*
X0219728Y0099712D01*
X0219701Y0099635D01*
X0219670Y0099560D01*
X0219635Y0099486D01*
X0219597Y0099414D01*
X0219555Y0099344D01*
X0219510Y0099276D01*
X0219462Y0099211D01*
X0219411Y0099147D01*
X0219356Y0099087D01*
X0219299Y0099029D01*
X0219239Y0098973D01*
X0219177Y0098921D01*
X0219111Y0098872D01*
X0219044Y0098827D01*
X0218975Y0098784D01*
X0218903Y0098745D01*
X0218830Y0098710D01*
X0218755Y0098678D01*
X0218678Y0098650D01*
X0218600Y0098625D01*
X0218522Y0098605D01*
X0218442Y0098588D01*
X0218361Y0098575D01*
X0218280Y0098566D01*
X0218199Y0098561D01*
X0218118Y0098560D01*
X0218036Y0098563D01*
X0217955Y0098570D01*
X0217874Y0098581D01*
X0217794Y0098596D01*
X0217715Y0098614D01*
X0217637Y0098637D01*
X0217559Y0098663D01*
X0217484Y0098693D01*
X0217409Y0098727D01*
X0217337Y0098764D01*
X0217266Y0098805D01*
X0217198Y0098849D01*
X0217132Y0098896D01*
X0217068Y0098947D01*
X0217006Y0099001D01*
X0216948Y0099057D01*
X0216892Y0099117D01*
X0216839Y0099179D01*
X0216789Y0099243D01*
X0216743Y0099310D01*
X0216699Y0099379D01*
X0216660Y0099450D01*
X0216623Y0099523D01*
X0216590Y0099597D01*
X0216561Y0099674D01*
X0216536Y0099751D01*
X0216514Y0099830D01*
X0216497Y0099909D01*
X0216483Y0099989D01*
X0216473Y0100070D01*
X0216467Y0100152D01*
X0216465Y0100233D01*
X0216465Y0080548D02*
X0216467Y0080629D01*
X0216473Y0080711D01*
X0216483Y0080792D01*
X0216497Y0080872D01*
X0216514Y0080951D01*
X0216536Y0081030D01*
X0216561Y0081107D01*
X0216590Y0081184D01*
X0216623Y0081258D01*
X0216660Y0081331D01*
X0216699Y0081402D01*
X0216743Y0081471D01*
X0216789Y0081538D01*
X0216839Y0081602D01*
X0216892Y0081664D01*
X0216948Y0081724D01*
X0217006Y0081780D01*
X0217068Y0081834D01*
X0217132Y0081885D01*
X0217198Y0081932D01*
X0217266Y0081976D01*
X0217337Y0082017D01*
X0217409Y0082054D01*
X0217484Y0082088D01*
X0217559Y0082118D01*
X0217637Y0082144D01*
X0217715Y0082167D01*
X0217794Y0082185D01*
X0217874Y0082200D01*
X0217955Y0082211D01*
X0218036Y0082218D01*
X0218118Y0082221D01*
X0218199Y0082220D01*
X0218280Y0082215D01*
X0218361Y0082206D01*
X0218442Y0082193D01*
X0218522Y0082176D01*
X0218600Y0082156D01*
X0218678Y0082131D01*
X0218755Y0082103D01*
X0218830Y0082071D01*
X0218903Y0082036D01*
X0218974Y0081997D01*
X0219044Y0081954D01*
X0219111Y0081909D01*
X0219177Y0081860D01*
X0219239Y0081808D01*
X0219299Y0081752D01*
X0219356Y0081694D01*
X0219411Y0081634D01*
X0219462Y0081570D01*
X0219510Y0081505D01*
X0219555Y0081437D01*
X0219597Y0081367D01*
X0219635Y0081295D01*
X0219670Y0081221D01*
X0219701Y0081146D01*
X0219728Y0081069D01*
X0219751Y0080991D01*
X0219771Y0080912D01*
X0219787Y0080832D01*
X0219799Y0080751D01*
X0219807Y0080670D01*
X0219811Y0080589D01*
X0219811Y0080507D01*
X0219807Y0080426D01*
X0219799Y0080345D01*
X0219787Y0080264D01*
X0219771Y0080184D01*
X0219751Y0080105D01*
X0219728Y0080027D01*
X0219701Y0079950D01*
X0219670Y0079875D01*
X0219635Y0079801D01*
X0219597Y0079729D01*
X0219555Y0079659D01*
X0219510Y0079591D01*
X0219462Y0079526D01*
X0219411Y0079462D01*
X0219356Y0079402D01*
X0219299Y0079344D01*
X0219239Y0079288D01*
X0219177Y0079236D01*
X0219111Y0079187D01*
X0219044Y0079142D01*
X0218975Y0079099D01*
X0218903Y0079060D01*
X0218830Y0079025D01*
X0218755Y0078993D01*
X0218678Y0078965D01*
X0218600Y0078940D01*
X0218522Y0078920D01*
X0218442Y0078903D01*
X0218361Y0078890D01*
X0218280Y0078881D01*
X0218199Y0078876D01*
X0218118Y0078875D01*
X0218036Y0078878D01*
X0217955Y0078885D01*
X0217874Y0078896D01*
X0217794Y0078911D01*
X0217715Y0078929D01*
X0217637Y0078952D01*
X0217559Y0078978D01*
X0217484Y0079008D01*
X0217409Y0079042D01*
X0217337Y0079079D01*
X0217266Y0079120D01*
X0217198Y0079164D01*
X0217132Y0079211D01*
X0217068Y0079262D01*
X0217006Y0079316D01*
X0216948Y0079372D01*
X0216892Y0079432D01*
X0216839Y0079494D01*
X0216789Y0079558D01*
X0216743Y0079625D01*
X0216699Y0079694D01*
X0216660Y0079765D01*
X0216623Y0079838D01*
X0216590Y0079912D01*
X0216561Y0079989D01*
X0216536Y0080066D01*
X0216514Y0080145D01*
X0216497Y0080224D01*
X0216483Y0080304D01*
X0216473Y0080385D01*
X0216467Y0080467D01*
X0216465Y0080548D01*
X0216465Y0060863D02*
X0216467Y0060944D01*
X0216473Y0061026D01*
X0216483Y0061107D01*
X0216497Y0061187D01*
X0216514Y0061266D01*
X0216536Y0061345D01*
X0216561Y0061422D01*
X0216590Y0061499D01*
X0216623Y0061573D01*
X0216660Y0061646D01*
X0216699Y0061717D01*
X0216743Y0061786D01*
X0216789Y0061853D01*
X0216839Y0061917D01*
X0216892Y0061979D01*
X0216948Y0062039D01*
X0217006Y0062095D01*
X0217068Y0062149D01*
X0217132Y0062200D01*
X0217198Y0062247D01*
X0217266Y0062291D01*
X0217337Y0062332D01*
X0217409Y0062369D01*
X0217484Y0062403D01*
X0217559Y0062433D01*
X0217637Y0062459D01*
X0217715Y0062482D01*
X0217794Y0062500D01*
X0217874Y0062515D01*
X0217955Y0062526D01*
X0218036Y0062533D01*
X0218118Y0062536D01*
X0218199Y0062535D01*
X0218280Y0062530D01*
X0218361Y0062521D01*
X0218442Y0062508D01*
X0218522Y0062491D01*
X0218600Y0062471D01*
X0218678Y0062446D01*
X0218755Y0062418D01*
X0218830Y0062386D01*
X0218903Y0062351D01*
X0218974Y0062312D01*
X0219044Y0062269D01*
X0219111Y0062224D01*
X0219177Y0062175D01*
X0219239Y0062123D01*
X0219299Y0062067D01*
X0219356Y0062009D01*
X0219411Y0061949D01*
X0219462Y0061885D01*
X0219510Y0061820D01*
X0219555Y0061752D01*
X0219597Y0061682D01*
X0219635Y0061610D01*
X0219670Y0061536D01*
X0219701Y0061461D01*
X0219728Y0061384D01*
X0219751Y0061306D01*
X0219771Y0061227D01*
X0219787Y0061147D01*
X0219799Y0061066D01*
X0219807Y0060985D01*
X0219811Y0060904D01*
X0219811Y0060822D01*
X0219807Y0060741D01*
X0219799Y0060660D01*
X0219787Y0060579D01*
X0219771Y0060499D01*
X0219751Y0060420D01*
X0219728Y0060342D01*
X0219701Y0060265D01*
X0219670Y0060190D01*
X0219635Y0060116D01*
X0219597Y0060044D01*
X0219555Y0059974D01*
X0219510Y0059906D01*
X0219462Y0059841D01*
X0219411Y0059777D01*
X0219356Y0059717D01*
X0219299Y0059659D01*
X0219239Y0059603D01*
X0219177Y0059551D01*
X0219111Y0059502D01*
X0219044Y0059457D01*
X0218975Y0059414D01*
X0218903Y0059375D01*
X0218830Y0059340D01*
X0218755Y0059308D01*
X0218678Y0059280D01*
X0218600Y0059255D01*
X0218522Y0059235D01*
X0218442Y0059218D01*
X0218361Y0059205D01*
X0218280Y0059196D01*
X0218199Y0059191D01*
X0218118Y0059190D01*
X0218036Y0059193D01*
X0217955Y0059200D01*
X0217874Y0059211D01*
X0217794Y0059226D01*
X0217715Y0059244D01*
X0217637Y0059267D01*
X0217559Y0059293D01*
X0217484Y0059323D01*
X0217409Y0059357D01*
X0217337Y0059394D01*
X0217266Y0059435D01*
X0217198Y0059479D01*
X0217132Y0059526D01*
X0217068Y0059577D01*
X0217006Y0059631D01*
X0216948Y0059687D01*
X0216892Y0059747D01*
X0216839Y0059809D01*
X0216789Y0059873D01*
X0216743Y0059940D01*
X0216699Y0060009D01*
X0216660Y0060080D01*
X0216623Y0060153D01*
X0216590Y0060227D01*
X0216561Y0060304D01*
X0216536Y0060381D01*
X0216514Y0060460D01*
X0216497Y0060539D01*
X0216483Y0060619D01*
X0216473Y0060700D01*
X0216467Y0060782D01*
X0216465Y0060863D01*
X0216465Y0041178D02*
X0216467Y0041259D01*
X0216473Y0041341D01*
X0216483Y0041422D01*
X0216497Y0041502D01*
X0216514Y0041581D01*
X0216536Y0041660D01*
X0216561Y0041737D01*
X0216590Y0041814D01*
X0216623Y0041888D01*
X0216660Y0041961D01*
X0216699Y0042032D01*
X0216743Y0042101D01*
X0216789Y0042168D01*
X0216839Y0042232D01*
X0216892Y0042294D01*
X0216948Y0042354D01*
X0217006Y0042410D01*
X0217068Y0042464D01*
X0217132Y0042515D01*
X0217198Y0042562D01*
X0217266Y0042606D01*
X0217337Y0042647D01*
X0217409Y0042684D01*
X0217484Y0042718D01*
X0217559Y0042748D01*
X0217637Y0042774D01*
X0217715Y0042797D01*
X0217794Y0042815D01*
X0217874Y0042830D01*
X0217955Y0042841D01*
X0218036Y0042848D01*
X0218118Y0042851D01*
X0218199Y0042850D01*
X0218280Y0042845D01*
X0218361Y0042836D01*
X0218442Y0042823D01*
X0218522Y0042806D01*
X0218600Y0042786D01*
X0218678Y0042761D01*
X0218755Y0042733D01*
X0218830Y0042701D01*
X0218903Y0042666D01*
X0218974Y0042627D01*
X0219044Y0042584D01*
X0219111Y0042539D01*
X0219177Y0042490D01*
X0219239Y0042438D01*
X0219299Y0042382D01*
X0219356Y0042324D01*
X0219411Y0042264D01*
X0219462Y0042200D01*
X0219510Y0042135D01*
X0219555Y0042067D01*
X0219597Y0041997D01*
X0219635Y0041925D01*
X0219670Y0041851D01*
X0219701Y0041776D01*
X0219728Y0041699D01*
X0219751Y0041621D01*
X0219771Y0041542D01*
X0219787Y0041462D01*
X0219799Y0041381D01*
X0219807Y0041300D01*
X0219811Y0041219D01*
X0219811Y0041137D01*
X0219807Y0041056D01*
X0219799Y0040975D01*
X0219787Y0040894D01*
X0219771Y0040814D01*
X0219751Y0040735D01*
X0219728Y0040657D01*
X0219701Y0040580D01*
X0219670Y0040505D01*
X0219635Y0040431D01*
X0219597Y0040359D01*
X0219555Y0040289D01*
X0219510Y0040221D01*
X0219462Y0040156D01*
X0219411Y0040092D01*
X0219356Y0040032D01*
X0219299Y0039974D01*
X0219239Y0039918D01*
X0219177Y0039866D01*
X0219111Y0039817D01*
X0219044Y0039772D01*
X0218975Y0039729D01*
X0218903Y0039690D01*
X0218830Y0039655D01*
X0218755Y0039623D01*
X0218678Y0039595D01*
X0218600Y0039570D01*
X0218522Y0039550D01*
X0218442Y0039533D01*
X0218361Y0039520D01*
X0218280Y0039511D01*
X0218199Y0039506D01*
X0218118Y0039505D01*
X0218036Y0039508D01*
X0217955Y0039515D01*
X0217874Y0039526D01*
X0217794Y0039541D01*
X0217715Y0039559D01*
X0217637Y0039582D01*
X0217559Y0039608D01*
X0217484Y0039638D01*
X0217409Y0039672D01*
X0217337Y0039709D01*
X0217266Y0039750D01*
X0217198Y0039794D01*
X0217132Y0039841D01*
X0217068Y0039892D01*
X0217006Y0039946D01*
X0216948Y0040002D01*
X0216892Y0040062D01*
X0216839Y0040124D01*
X0216789Y0040188D01*
X0216743Y0040255D01*
X0216699Y0040324D01*
X0216660Y0040395D01*
X0216623Y0040468D01*
X0216590Y0040542D01*
X0216561Y0040619D01*
X0216536Y0040696D01*
X0216514Y0040775D01*
X0216497Y0040854D01*
X0216483Y0040934D01*
X0216473Y0041015D01*
X0216467Y0041097D01*
X0216465Y0041178D01*
D23*
X0149663Y0075553D03*
X0142863Y0075553D03*
X0142863Y0083678D03*
X0149663Y0083678D03*
X0149663Y0091803D03*
X0142863Y0091803D03*
X0142863Y0099928D03*
X0149663Y0099928D03*
D24*
X0187200Y0037741D03*
D25*
X0169650Y0055353D03*
X0162250Y0055353D03*
X0165950Y0063253D03*
X0162200Y0070666D03*
X0158500Y0078566D03*
X0165900Y0078566D03*
M02*
