G75*
%MOIN*%
%OFA0B0*%
%FSLAX25Y25*%
%IPPOS*%
%LPD*%
%AMOC8*
5,1,8,0,0,1.08239X$1,22.5*
%
%ADD10R,0.06496X0.05709*%
%ADD11R,0.04528X0.06102*%
%ADD12R,0.09252X0.02953*%
%ADD13C,0.07991*%
%ADD14R,0.04528X0.04528*%
%ADD15R,0.05315X0.05315*%
%ADD16R,0.06890X0.05709*%
%ADD17R,0.05709X0.06890*%
%ADD18R,0.13189X0.05315*%
%ADD19R,0.03937X0.04724*%
%ADD20R,0.04724X0.03937*%
%ADD21R,0.06299X0.05315*%
%ADD22R,0.05906X0.05315*%
%ADD23R,0.05315X0.06299*%
%ADD24R,0.08591X0.08591*%
%ADD25C,0.08591*%
%ADD26C,0.06102*%
%ADD27C,0.02953*%
%ADD28C,0.04843*%
%ADD29C,0.04134*%
D10*
X0073450Y0076894D03*
X0073450Y0083587D03*
X0089700Y0083587D03*
X0098450Y0083587D03*
X0098450Y0076894D03*
X0089700Y0076894D03*
X0075013Y0097438D03*
X0075013Y0104918D03*
X0164075Y0062337D03*
X0164075Y0055644D03*
D11*
X0138128Y0094347D03*
X0130648Y0094347D03*
X0134388Y0103009D03*
D12*
X0092749Y0067428D03*
X0092749Y0062428D03*
X0092749Y0057428D03*
X0092749Y0052428D03*
X0072277Y0052428D03*
X0072277Y0057428D03*
X0072277Y0062428D03*
X0072277Y0067428D03*
D13*
X0164075Y0101803D03*
D14*
X0156137Y0092428D03*
X0148263Y0092428D03*
X0164075Y0046678D03*
X0164075Y0038804D03*
D15*
X0065013Y0097044D03*
X0065013Y0105312D03*
D16*
X0083138Y0104918D03*
X0083138Y0097438D03*
X0081575Y0083981D03*
X0081575Y0076500D03*
D17*
X0079710Y0043991D03*
X0087191Y0043991D03*
X0131273Y0033366D03*
X0138753Y0033366D03*
D18*
X0120899Y0093929D03*
X0094127Y0093929D03*
X0094127Y0109677D03*
X0120899Y0109677D03*
D19*
X0107166Y0073927D03*
X0107166Y0068021D03*
X0107166Y0062116D03*
X0107166Y0056210D03*
X0107166Y0050305D03*
X0155985Y0056210D03*
D20*
X0138957Y0039872D03*
X0133052Y0039872D03*
X0127146Y0039872D03*
X0121241Y0039872D03*
X0121241Y0084360D03*
X0127146Y0084360D03*
X0133052Y0084360D03*
D21*
X0147816Y0083671D03*
X0147816Y0040561D03*
D22*
X0115335Y0040561D03*
X0115335Y0083671D03*
D23*
X0155296Y0063100D03*
D24*
X0218138Y0041178D03*
X0046575Y0041178D03*
D25*
X0046575Y0060863D03*
X0046575Y0080548D03*
X0046575Y0100233D03*
X0218138Y0100233D03*
X0218138Y0080548D03*
X0218138Y0060863D03*
D26*
X0197200Y0058991D03*
X0197200Y0068991D03*
X0197200Y0078991D03*
X0197200Y0088991D03*
X0177200Y0088991D03*
X0177200Y0078991D03*
X0177200Y0068991D03*
X0177200Y0058991D03*
X0177200Y0038991D03*
X0197200Y0038991D03*
D27*
X0168450Y0041178D03*
X0153450Y0041178D03*
X0153450Y0044616D03*
X0147825Y0045553D03*
X0143138Y0046178D03*
X0139075Y0046491D03*
X0135950Y0045241D03*
X0130638Y0049303D03*
X0141575Y0050553D03*
X0141888Y0055241D03*
X0147513Y0055241D03*
X0151888Y0049928D03*
X0130950Y0060241D03*
X0130950Y0064303D03*
X0128450Y0067116D03*
X0131263Y0069928D03*
X0128138Y0072428D03*
X0125325Y0069928D03*
X0124700Y0075866D03*
X0128138Y0080241D03*
X0135325Y0078678D03*
X0155325Y0068678D03*
X0156575Y0071803D03*
X0134075Y0088991D03*
X0127200Y0088991D03*
X0128450Y0099928D03*
X0110950Y0073678D03*
X0110950Y0068053D03*
X0110950Y0062116D03*
X0110950Y0056178D03*
X0102200Y0053366D03*
X0110950Y0050241D03*
X0117200Y0048366D03*
X0110325Y0040553D03*
X0107200Y0040553D03*
X0104075Y0040553D03*
X0100950Y0040553D03*
X0101888Y0036803D03*
X0105325Y0035553D03*
X0108450Y0035553D03*
X0111575Y0035553D03*
X0114700Y0035553D03*
X0080013Y0053366D03*
D28*
X0095638Y0040866D03*
D29*
X0080013Y0031491D03*
X0073450Y0040866D03*
X0069700Y0045866D03*
X0101575Y0048678D03*
X0121263Y0045241D03*
X0124700Y0034928D03*
X0067513Y0076803D03*
X0090950Y0101491D03*
M02*
