G75*
%MOIN*%
%OFA0B0*%
%FSLAX25Y25*%
%IPPOS*%
%LPD*%
%AMOC8*
5,1,8,0,0,1.08239X$1,22.5*
%
%ADD10C,0.00100*%
D10*
X0076013Y0031491D02*
X0084013Y0031491D01*
X0080013Y0027491D02*
X0080013Y0035491D01*
X0077450Y0040866D02*
X0069450Y0040866D01*
X0073450Y0036866D02*
X0073450Y0044866D01*
X0073700Y0045866D02*
X0065700Y0045866D01*
X0069700Y0041866D02*
X0069700Y0049866D01*
X0076113Y0053366D02*
X0076115Y0053490D01*
X0076121Y0053615D01*
X0076131Y0053739D01*
X0076145Y0053862D01*
X0076162Y0053985D01*
X0076184Y0054108D01*
X0076210Y0054230D01*
X0076239Y0054350D01*
X0076273Y0054470D01*
X0076310Y0054589D01*
X0076351Y0054706D01*
X0076395Y0054822D01*
X0076443Y0054937D01*
X0076495Y0055050D01*
X0076551Y0055161D01*
X0076610Y0055271D01*
X0076672Y0055378D01*
X0076738Y0055484D01*
X0076807Y0055587D01*
X0076880Y0055688D01*
X0076956Y0055787D01*
X0077034Y0055883D01*
X0077116Y0055977D01*
X0077201Y0056068D01*
X0077288Y0056157D01*
X0077379Y0056242D01*
X0077472Y0056325D01*
X0077568Y0056404D01*
X0077666Y0056480D01*
X0077766Y0056554D01*
X0077869Y0056624D01*
X0077974Y0056690D01*
X0078081Y0056754D01*
X0078190Y0056814D01*
X0078301Y0056870D01*
X0078413Y0056923D01*
X0078528Y0056972D01*
X0078643Y0057018D01*
X0078761Y0057059D01*
X0078879Y0057098D01*
X0078999Y0057132D01*
X0079119Y0057162D01*
X0079241Y0057189D01*
X0079363Y0057211D01*
X0079486Y0057230D01*
X0079609Y0057245D01*
X0079733Y0057256D01*
X0079858Y0057263D01*
X0079982Y0057266D01*
X0080106Y0057265D01*
X0080231Y0057260D01*
X0080355Y0057251D01*
X0080478Y0057238D01*
X0080602Y0057221D01*
X0080724Y0057201D01*
X0080846Y0057176D01*
X0080967Y0057147D01*
X0081087Y0057115D01*
X0081206Y0057079D01*
X0081324Y0057039D01*
X0081441Y0056995D01*
X0081556Y0056948D01*
X0081669Y0056897D01*
X0081781Y0056842D01*
X0081891Y0056784D01*
X0081999Y0056723D01*
X0082105Y0056658D01*
X0082209Y0056589D01*
X0082310Y0056518D01*
X0082410Y0056443D01*
X0082507Y0056365D01*
X0082601Y0056284D01*
X0082693Y0056200D01*
X0082782Y0056113D01*
X0082868Y0056023D01*
X0082951Y0055931D01*
X0083031Y0055836D01*
X0083109Y0055738D01*
X0083183Y0055638D01*
X0083254Y0055536D01*
X0083321Y0055432D01*
X0083385Y0055325D01*
X0083446Y0055216D01*
X0083503Y0055106D01*
X0083557Y0054994D01*
X0083607Y0054880D01*
X0083654Y0054765D01*
X0083696Y0054648D01*
X0083735Y0054530D01*
X0083771Y0054410D01*
X0083802Y0054290D01*
X0083829Y0054169D01*
X0083853Y0054047D01*
X0083873Y0053924D01*
X0083889Y0053800D01*
X0083901Y0053677D01*
X0083909Y0053553D01*
X0083913Y0053428D01*
X0083913Y0053304D01*
X0083909Y0053179D01*
X0083901Y0053055D01*
X0083889Y0052932D01*
X0083873Y0052808D01*
X0083853Y0052685D01*
X0083829Y0052563D01*
X0083802Y0052442D01*
X0083771Y0052322D01*
X0083735Y0052202D01*
X0083696Y0052084D01*
X0083654Y0051967D01*
X0083607Y0051852D01*
X0083557Y0051738D01*
X0083503Y0051626D01*
X0083446Y0051516D01*
X0083385Y0051407D01*
X0083321Y0051300D01*
X0083254Y0051196D01*
X0083183Y0051094D01*
X0083109Y0050994D01*
X0083031Y0050896D01*
X0082951Y0050801D01*
X0082868Y0050709D01*
X0082782Y0050619D01*
X0082693Y0050532D01*
X0082601Y0050448D01*
X0082507Y0050367D01*
X0082410Y0050289D01*
X0082310Y0050214D01*
X0082209Y0050143D01*
X0082105Y0050074D01*
X0081999Y0050009D01*
X0081891Y0049948D01*
X0081781Y0049890D01*
X0081669Y0049835D01*
X0081556Y0049784D01*
X0081441Y0049737D01*
X0081324Y0049693D01*
X0081206Y0049653D01*
X0081087Y0049617D01*
X0080967Y0049585D01*
X0080846Y0049556D01*
X0080724Y0049531D01*
X0080602Y0049511D01*
X0080478Y0049494D01*
X0080355Y0049481D01*
X0080231Y0049472D01*
X0080106Y0049467D01*
X0079982Y0049466D01*
X0079858Y0049469D01*
X0079733Y0049476D01*
X0079609Y0049487D01*
X0079486Y0049502D01*
X0079363Y0049521D01*
X0079241Y0049543D01*
X0079119Y0049570D01*
X0078999Y0049600D01*
X0078879Y0049634D01*
X0078761Y0049673D01*
X0078643Y0049714D01*
X0078528Y0049760D01*
X0078413Y0049809D01*
X0078301Y0049862D01*
X0078190Y0049918D01*
X0078081Y0049978D01*
X0077974Y0050042D01*
X0077869Y0050108D01*
X0077766Y0050178D01*
X0077666Y0050252D01*
X0077568Y0050328D01*
X0077472Y0050407D01*
X0077379Y0050490D01*
X0077288Y0050575D01*
X0077201Y0050664D01*
X0077116Y0050755D01*
X0077034Y0050849D01*
X0076956Y0050945D01*
X0076880Y0051044D01*
X0076807Y0051145D01*
X0076738Y0051248D01*
X0076672Y0051354D01*
X0076610Y0051461D01*
X0076551Y0051571D01*
X0076495Y0051682D01*
X0076443Y0051795D01*
X0076395Y0051910D01*
X0076351Y0052026D01*
X0076310Y0052143D01*
X0076273Y0052262D01*
X0076239Y0052382D01*
X0076210Y0052502D01*
X0076184Y0052624D01*
X0076162Y0052747D01*
X0076145Y0052870D01*
X0076131Y0052993D01*
X0076121Y0053117D01*
X0076115Y0053242D01*
X0076113Y0053366D01*
X0076013Y0049366D02*
X0084013Y0057366D01*
X0097575Y0048678D02*
X0105575Y0048678D01*
X0101575Y0044678D02*
X0101575Y0052678D01*
X0098300Y0053366D02*
X0098302Y0053490D01*
X0098308Y0053615D01*
X0098318Y0053739D01*
X0098332Y0053862D01*
X0098349Y0053985D01*
X0098371Y0054108D01*
X0098397Y0054230D01*
X0098426Y0054350D01*
X0098460Y0054470D01*
X0098497Y0054589D01*
X0098538Y0054706D01*
X0098582Y0054822D01*
X0098630Y0054937D01*
X0098682Y0055050D01*
X0098738Y0055161D01*
X0098797Y0055271D01*
X0098859Y0055378D01*
X0098925Y0055484D01*
X0098994Y0055587D01*
X0099067Y0055688D01*
X0099143Y0055787D01*
X0099221Y0055883D01*
X0099303Y0055977D01*
X0099388Y0056068D01*
X0099475Y0056157D01*
X0099566Y0056242D01*
X0099659Y0056325D01*
X0099755Y0056404D01*
X0099853Y0056480D01*
X0099953Y0056554D01*
X0100056Y0056624D01*
X0100161Y0056690D01*
X0100268Y0056754D01*
X0100377Y0056814D01*
X0100488Y0056870D01*
X0100600Y0056923D01*
X0100715Y0056972D01*
X0100830Y0057018D01*
X0100948Y0057059D01*
X0101066Y0057098D01*
X0101186Y0057132D01*
X0101306Y0057162D01*
X0101428Y0057189D01*
X0101550Y0057211D01*
X0101673Y0057230D01*
X0101796Y0057245D01*
X0101920Y0057256D01*
X0102045Y0057263D01*
X0102169Y0057266D01*
X0102293Y0057265D01*
X0102418Y0057260D01*
X0102542Y0057251D01*
X0102665Y0057238D01*
X0102789Y0057221D01*
X0102911Y0057201D01*
X0103033Y0057176D01*
X0103154Y0057147D01*
X0103274Y0057115D01*
X0103393Y0057079D01*
X0103511Y0057039D01*
X0103628Y0056995D01*
X0103743Y0056948D01*
X0103856Y0056897D01*
X0103968Y0056842D01*
X0104078Y0056784D01*
X0104186Y0056723D01*
X0104292Y0056658D01*
X0104396Y0056589D01*
X0104497Y0056518D01*
X0104597Y0056443D01*
X0104694Y0056365D01*
X0104788Y0056284D01*
X0104880Y0056200D01*
X0104969Y0056113D01*
X0105055Y0056023D01*
X0105138Y0055931D01*
X0105218Y0055836D01*
X0105296Y0055738D01*
X0105370Y0055638D01*
X0105441Y0055536D01*
X0105508Y0055432D01*
X0105572Y0055325D01*
X0105633Y0055216D01*
X0105690Y0055106D01*
X0105744Y0054994D01*
X0105794Y0054880D01*
X0105841Y0054765D01*
X0105883Y0054648D01*
X0105922Y0054530D01*
X0105958Y0054410D01*
X0105989Y0054290D01*
X0106016Y0054169D01*
X0106040Y0054047D01*
X0106060Y0053924D01*
X0106076Y0053800D01*
X0106088Y0053677D01*
X0106096Y0053553D01*
X0106100Y0053428D01*
X0106100Y0053304D01*
X0106096Y0053179D01*
X0106088Y0053055D01*
X0106076Y0052932D01*
X0106060Y0052808D01*
X0106040Y0052685D01*
X0106016Y0052563D01*
X0105989Y0052442D01*
X0105958Y0052322D01*
X0105922Y0052202D01*
X0105883Y0052084D01*
X0105841Y0051967D01*
X0105794Y0051852D01*
X0105744Y0051738D01*
X0105690Y0051626D01*
X0105633Y0051516D01*
X0105572Y0051407D01*
X0105508Y0051300D01*
X0105441Y0051196D01*
X0105370Y0051094D01*
X0105296Y0050994D01*
X0105218Y0050896D01*
X0105138Y0050801D01*
X0105055Y0050709D01*
X0104969Y0050619D01*
X0104880Y0050532D01*
X0104788Y0050448D01*
X0104694Y0050367D01*
X0104597Y0050289D01*
X0104497Y0050214D01*
X0104396Y0050143D01*
X0104292Y0050074D01*
X0104186Y0050009D01*
X0104078Y0049948D01*
X0103968Y0049890D01*
X0103856Y0049835D01*
X0103743Y0049784D01*
X0103628Y0049737D01*
X0103511Y0049693D01*
X0103393Y0049653D01*
X0103274Y0049617D01*
X0103154Y0049585D01*
X0103033Y0049556D01*
X0102911Y0049531D01*
X0102789Y0049511D01*
X0102665Y0049494D01*
X0102542Y0049481D01*
X0102418Y0049472D01*
X0102293Y0049467D01*
X0102169Y0049466D01*
X0102045Y0049469D01*
X0101920Y0049476D01*
X0101796Y0049487D01*
X0101673Y0049502D01*
X0101550Y0049521D01*
X0101428Y0049543D01*
X0101306Y0049570D01*
X0101186Y0049600D01*
X0101066Y0049634D01*
X0100948Y0049673D01*
X0100830Y0049714D01*
X0100715Y0049760D01*
X0100600Y0049809D01*
X0100488Y0049862D01*
X0100377Y0049918D01*
X0100268Y0049978D01*
X0100161Y0050042D01*
X0100056Y0050108D01*
X0099953Y0050178D01*
X0099853Y0050252D01*
X0099755Y0050328D01*
X0099659Y0050407D01*
X0099566Y0050490D01*
X0099475Y0050575D01*
X0099388Y0050664D01*
X0099303Y0050755D01*
X0099221Y0050849D01*
X0099143Y0050945D01*
X0099067Y0051044D01*
X0098994Y0051145D01*
X0098925Y0051248D01*
X0098859Y0051354D01*
X0098797Y0051461D01*
X0098738Y0051571D01*
X0098682Y0051682D01*
X0098630Y0051795D01*
X0098582Y0051910D01*
X0098538Y0052026D01*
X0098497Y0052143D01*
X0098460Y0052262D01*
X0098426Y0052382D01*
X0098397Y0052502D01*
X0098371Y0052624D01*
X0098349Y0052747D01*
X0098332Y0052870D01*
X0098318Y0052993D01*
X0098308Y0053117D01*
X0098302Y0053242D01*
X0098300Y0053366D01*
X0098200Y0049366D02*
X0106200Y0057366D01*
X0107050Y0056178D02*
X0107052Y0056302D01*
X0107058Y0056427D01*
X0107068Y0056551D01*
X0107082Y0056674D01*
X0107099Y0056797D01*
X0107121Y0056920D01*
X0107147Y0057042D01*
X0107176Y0057162D01*
X0107210Y0057282D01*
X0107247Y0057401D01*
X0107288Y0057518D01*
X0107332Y0057634D01*
X0107380Y0057749D01*
X0107432Y0057862D01*
X0107488Y0057973D01*
X0107547Y0058083D01*
X0107609Y0058190D01*
X0107675Y0058296D01*
X0107744Y0058399D01*
X0107817Y0058500D01*
X0107893Y0058599D01*
X0107971Y0058695D01*
X0108053Y0058789D01*
X0108138Y0058880D01*
X0108225Y0058969D01*
X0108316Y0059054D01*
X0108409Y0059137D01*
X0108505Y0059216D01*
X0108603Y0059292D01*
X0108703Y0059366D01*
X0108806Y0059436D01*
X0108911Y0059502D01*
X0109018Y0059566D01*
X0109127Y0059626D01*
X0109238Y0059682D01*
X0109350Y0059735D01*
X0109465Y0059784D01*
X0109580Y0059830D01*
X0109698Y0059871D01*
X0109816Y0059910D01*
X0109936Y0059944D01*
X0110056Y0059974D01*
X0110178Y0060001D01*
X0110300Y0060023D01*
X0110423Y0060042D01*
X0110546Y0060057D01*
X0110670Y0060068D01*
X0110795Y0060075D01*
X0110919Y0060078D01*
X0111043Y0060077D01*
X0111168Y0060072D01*
X0111292Y0060063D01*
X0111415Y0060050D01*
X0111539Y0060033D01*
X0111661Y0060013D01*
X0111783Y0059988D01*
X0111904Y0059959D01*
X0112024Y0059927D01*
X0112143Y0059891D01*
X0112261Y0059851D01*
X0112378Y0059807D01*
X0112493Y0059760D01*
X0112606Y0059709D01*
X0112718Y0059654D01*
X0112828Y0059596D01*
X0112936Y0059535D01*
X0113042Y0059470D01*
X0113146Y0059401D01*
X0113247Y0059330D01*
X0113347Y0059255D01*
X0113444Y0059177D01*
X0113538Y0059096D01*
X0113630Y0059012D01*
X0113719Y0058925D01*
X0113805Y0058835D01*
X0113888Y0058743D01*
X0113968Y0058648D01*
X0114046Y0058550D01*
X0114120Y0058450D01*
X0114191Y0058348D01*
X0114258Y0058244D01*
X0114322Y0058137D01*
X0114383Y0058028D01*
X0114440Y0057918D01*
X0114494Y0057806D01*
X0114544Y0057692D01*
X0114591Y0057577D01*
X0114633Y0057460D01*
X0114672Y0057342D01*
X0114708Y0057222D01*
X0114739Y0057102D01*
X0114766Y0056981D01*
X0114790Y0056859D01*
X0114810Y0056736D01*
X0114826Y0056612D01*
X0114838Y0056489D01*
X0114846Y0056365D01*
X0114850Y0056240D01*
X0114850Y0056116D01*
X0114846Y0055991D01*
X0114838Y0055867D01*
X0114826Y0055744D01*
X0114810Y0055620D01*
X0114790Y0055497D01*
X0114766Y0055375D01*
X0114739Y0055254D01*
X0114708Y0055134D01*
X0114672Y0055014D01*
X0114633Y0054896D01*
X0114591Y0054779D01*
X0114544Y0054664D01*
X0114494Y0054550D01*
X0114440Y0054438D01*
X0114383Y0054328D01*
X0114322Y0054219D01*
X0114258Y0054112D01*
X0114191Y0054008D01*
X0114120Y0053906D01*
X0114046Y0053806D01*
X0113968Y0053708D01*
X0113888Y0053613D01*
X0113805Y0053521D01*
X0113719Y0053431D01*
X0113630Y0053344D01*
X0113538Y0053260D01*
X0113444Y0053179D01*
X0113347Y0053101D01*
X0113247Y0053026D01*
X0113146Y0052955D01*
X0113042Y0052886D01*
X0112936Y0052821D01*
X0112828Y0052760D01*
X0112718Y0052702D01*
X0112606Y0052647D01*
X0112493Y0052596D01*
X0112378Y0052549D01*
X0112261Y0052505D01*
X0112143Y0052465D01*
X0112024Y0052429D01*
X0111904Y0052397D01*
X0111783Y0052368D01*
X0111661Y0052343D01*
X0111539Y0052323D01*
X0111415Y0052306D01*
X0111292Y0052293D01*
X0111168Y0052284D01*
X0111043Y0052279D01*
X0110919Y0052278D01*
X0110795Y0052281D01*
X0110670Y0052288D01*
X0110546Y0052299D01*
X0110423Y0052314D01*
X0110300Y0052333D01*
X0110178Y0052355D01*
X0110056Y0052382D01*
X0109936Y0052412D01*
X0109816Y0052446D01*
X0109698Y0052485D01*
X0109580Y0052526D01*
X0109465Y0052572D01*
X0109350Y0052621D01*
X0109238Y0052674D01*
X0109127Y0052730D01*
X0109018Y0052790D01*
X0108911Y0052854D01*
X0108806Y0052920D01*
X0108703Y0052990D01*
X0108603Y0053064D01*
X0108505Y0053140D01*
X0108409Y0053219D01*
X0108316Y0053302D01*
X0108225Y0053387D01*
X0108138Y0053476D01*
X0108053Y0053567D01*
X0107971Y0053661D01*
X0107893Y0053757D01*
X0107817Y0053856D01*
X0107744Y0053957D01*
X0107675Y0054060D01*
X0107609Y0054166D01*
X0107547Y0054273D01*
X0107488Y0054383D01*
X0107432Y0054494D01*
X0107380Y0054607D01*
X0107332Y0054722D01*
X0107288Y0054838D01*
X0107247Y0054955D01*
X0107210Y0055074D01*
X0107176Y0055194D01*
X0107147Y0055314D01*
X0107121Y0055436D01*
X0107099Y0055559D01*
X0107082Y0055682D01*
X0107068Y0055805D01*
X0107058Y0055929D01*
X0107052Y0056054D01*
X0107050Y0056178D01*
X0106950Y0052178D02*
X0114950Y0060178D01*
X0107050Y0062116D02*
X0107052Y0062240D01*
X0107058Y0062365D01*
X0107068Y0062489D01*
X0107082Y0062612D01*
X0107099Y0062735D01*
X0107121Y0062858D01*
X0107147Y0062980D01*
X0107176Y0063100D01*
X0107210Y0063220D01*
X0107247Y0063339D01*
X0107288Y0063456D01*
X0107332Y0063572D01*
X0107380Y0063687D01*
X0107432Y0063800D01*
X0107488Y0063911D01*
X0107547Y0064021D01*
X0107609Y0064128D01*
X0107675Y0064234D01*
X0107744Y0064337D01*
X0107817Y0064438D01*
X0107893Y0064537D01*
X0107971Y0064633D01*
X0108053Y0064727D01*
X0108138Y0064818D01*
X0108225Y0064907D01*
X0108316Y0064992D01*
X0108409Y0065075D01*
X0108505Y0065154D01*
X0108603Y0065230D01*
X0108703Y0065304D01*
X0108806Y0065374D01*
X0108911Y0065440D01*
X0109018Y0065504D01*
X0109127Y0065564D01*
X0109238Y0065620D01*
X0109350Y0065673D01*
X0109465Y0065722D01*
X0109580Y0065768D01*
X0109698Y0065809D01*
X0109816Y0065848D01*
X0109936Y0065882D01*
X0110056Y0065912D01*
X0110178Y0065939D01*
X0110300Y0065961D01*
X0110423Y0065980D01*
X0110546Y0065995D01*
X0110670Y0066006D01*
X0110795Y0066013D01*
X0110919Y0066016D01*
X0111043Y0066015D01*
X0111168Y0066010D01*
X0111292Y0066001D01*
X0111415Y0065988D01*
X0111539Y0065971D01*
X0111661Y0065951D01*
X0111783Y0065926D01*
X0111904Y0065897D01*
X0112024Y0065865D01*
X0112143Y0065829D01*
X0112261Y0065789D01*
X0112378Y0065745D01*
X0112493Y0065698D01*
X0112606Y0065647D01*
X0112718Y0065592D01*
X0112828Y0065534D01*
X0112936Y0065473D01*
X0113042Y0065408D01*
X0113146Y0065339D01*
X0113247Y0065268D01*
X0113347Y0065193D01*
X0113444Y0065115D01*
X0113538Y0065034D01*
X0113630Y0064950D01*
X0113719Y0064863D01*
X0113805Y0064773D01*
X0113888Y0064681D01*
X0113968Y0064586D01*
X0114046Y0064488D01*
X0114120Y0064388D01*
X0114191Y0064286D01*
X0114258Y0064182D01*
X0114322Y0064075D01*
X0114383Y0063966D01*
X0114440Y0063856D01*
X0114494Y0063744D01*
X0114544Y0063630D01*
X0114591Y0063515D01*
X0114633Y0063398D01*
X0114672Y0063280D01*
X0114708Y0063160D01*
X0114739Y0063040D01*
X0114766Y0062919D01*
X0114790Y0062797D01*
X0114810Y0062674D01*
X0114826Y0062550D01*
X0114838Y0062427D01*
X0114846Y0062303D01*
X0114850Y0062178D01*
X0114850Y0062054D01*
X0114846Y0061929D01*
X0114838Y0061805D01*
X0114826Y0061682D01*
X0114810Y0061558D01*
X0114790Y0061435D01*
X0114766Y0061313D01*
X0114739Y0061192D01*
X0114708Y0061072D01*
X0114672Y0060952D01*
X0114633Y0060834D01*
X0114591Y0060717D01*
X0114544Y0060602D01*
X0114494Y0060488D01*
X0114440Y0060376D01*
X0114383Y0060266D01*
X0114322Y0060157D01*
X0114258Y0060050D01*
X0114191Y0059946D01*
X0114120Y0059844D01*
X0114046Y0059744D01*
X0113968Y0059646D01*
X0113888Y0059551D01*
X0113805Y0059459D01*
X0113719Y0059369D01*
X0113630Y0059282D01*
X0113538Y0059198D01*
X0113444Y0059117D01*
X0113347Y0059039D01*
X0113247Y0058964D01*
X0113146Y0058893D01*
X0113042Y0058824D01*
X0112936Y0058759D01*
X0112828Y0058698D01*
X0112718Y0058640D01*
X0112606Y0058585D01*
X0112493Y0058534D01*
X0112378Y0058487D01*
X0112261Y0058443D01*
X0112143Y0058403D01*
X0112024Y0058367D01*
X0111904Y0058335D01*
X0111783Y0058306D01*
X0111661Y0058281D01*
X0111539Y0058261D01*
X0111415Y0058244D01*
X0111292Y0058231D01*
X0111168Y0058222D01*
X0111043Y0058217D01*
X0110919Y0058216D01*
X0110795Y0058219D01*
X0110670Y0058226D01*
X0110546Y0058237D01*
X0110423Y0058252D01*
X0110300Y0058271D01*
X0110178Y0058293D01*
X0110056Y0058320D01*
X0109936Y0058350D01*
X0109816Y0058384D01*
X0109698Y0058423D01*
X0109580Y0058464D01*
X0109465Y0058510D01*
X0109350Y0058559D01*
X0109238Y0058612D01*
X0109127Y0058668D01*
X0109018Y0058728D01*
X0108911Y0058792D01*
X0108806Y0058858D01*
X0108703Y0058928D01*
X0108603Y0059002D01*
X0108505Y0059078D01*
X0108409Y0059157D01*
X0108316Y0059240D01*
X0108225Y0059325D01*
X0108138Y0059414D01*
X0108053Y0059505D01*
X0107971Y0059599D01*
X0107893Y0059695D01*
X0107817Y0059794D01*
X0107744Y0059895D01*
X0107675Y0059998D01*
X0107609Y0060104D01*
X0107547Y0060211D01*
X0107488Y0060321D01*
X0107432Y0060432D01*
X0107380Y0060545D01*
X0107332Y0060660D01*
X0107288Y0060776D01*
X0107247Y0060893D01*
X0107210Y0061012D01*
X0107176Y0061132D01*
X0107147Y0061252D01*
X0107121Y0061374D01*
X0107099Y0061497D01*
X0107082Y0061620D01*
X0107068Y0061743D01*
X0107058Y0061867D01*
X0107052Y0061992D01*
X0107050Y0062116D01*
X0106950Y0058116D02*
X0114950Y0066116D01*
X0107050Y0068053D02*
X0107052Y0068177D01*
X0107058Y0068302D01*
X0107068Y0068426D01*
X0107082Y0068549D01*
X0107099Y0068672D01*
X0107121Y0068795D01*
X0107147Y0068917D01*
X0107176Y0069037D01*
X0107210Y0069157D01*
X0107247Y0069276D01*
X0107288Y0069393D01*
X0107332Y0069509D01*
X0107380Y0069624D01*
X0107432Y0069737D01*
X0107488Y0069848D01*
X0107547Y0069958D01*
X0107609Y0070065D01*
X0107675Y0070171D01*
X0107744Y0070274D01*
X0107817Y0070375D01*
X0107893Y0070474D01*
X0107971Y0070570D01*
X0108053Y0070664D01*
X0108138Y0070755D01*
X0108225Y0070844D01*
X0108316Y0070929D01*
X0108409Y0071012D01*
X0108505Y0071091D01*
X0108603Y0071167D01*
X0108703Y0071241D01*
X0108806Y0071311D01*
X0108911Y0071377D01*
X0109018Y0071441D01*
X0109127Y0071501D01*
X0109238Y0071557D01*
X0109350Y0071610D01*
X0109465Y0071659D01*
X0109580Y0071705D01*
X0109698Y0071746D01*
X0109816Y0071785D01*
X0109936Y0071819D01*
X0110056Y0071849D01*
X0110178Y0071876D01*
X0110300Y0071898D01*
X0110423Y0071917D01*
X0110546Y0071932D01*
X0110670Y0071943D01*
X0110795Y0071950D01*
X0110919Y0071953D01*
X0111043Y0071952D01*
X0111168Y0071947D01*
X0111292Y0071938D01*
X0111415Y0071925D01*
X0111539Y0071908D01*
X0111661Y0071888D01*
X0111783Y0071863D01*
X0111904Y0071834D01*
X0112024Y0071802D01*
X0112143Y0071766D01*
X0112261Y0071726D01*
X0112378Y0071682D01*
X0112493Y0071635D01*
X0112606Y0071584D01*
X0112718Y0071529D01*
X0112828Y0071471D01*
X0112936Y0071410D01*
X0113042Y0071345D01*
X0113146Y0071276D01*
X0113247Y0071205D01*
X0113347Y0071130D01*
X0113444Y0071052D01*
X0113538Y0070971D01*
X0113630Y0070887D01*
X0113719Y0070800D01*
X0113805Y0070710D01*
X0113888Y0070618D01*
X0113968Y0070523D01*
X0114046Y0070425D01*
X0114120Y0070325D01*
X0114191Y0070223D01*
X0114258Y0070119D01*
X0114322Y0070012D01*
X0114383Y0069903D01*
X0114440Y0069793D01*
X0114494Y0069681D01*
X0114544Y0069567D01*
X0114591Y0069452D01*
X0114633Y0069335D01*
X0114672Y0069217D01*
X0114708Y0069097D01*
X0114739Y0068977D01*
X0114766Y0068856D01*
X0114790Y0068734D01*
X0114810Y0068611D01*
X0114826Y0068487D01*
X0114838Y0068364D01*
X0114846Y0068240D01*
X0114850Y0068115D01*
X0114850Y0067991D01*
X0114846Y0067866D01*
X0114838Y0067742D01*
X0114826Y0067619D01*
X0114810Y0067495D01*
X0114790Y0067372D01*
X0114766Y0067250D01*
X0114739Y0067129D01*
X0114708Y0067009D01*
X0114672Y0066889D01*
X0114633Y0066771D01*
X0114591Y0066654D01*
X0114544Y0066539D01*
X0114494Y0066425D01*
X0114440Y0066313D01*
X0114383Y0066203D01*
X0114322Y0066094D01*
X0114258Y0065987D01*
X0114191Y0065883D01*
X0114120Y0065781D01*
X0114046Y0065681D01*
X0113968Y0065583D01*
X0113888Y0065488D01*
X0113805Y0065396D01*
X0113719Y0065306D01*
X0113630Y0065219D01*
X0113538Y0065135D01*
X0113444Y0065054D01*
X0113347Y0064976D01*
X0113247Y0064901D01*
X0113146Y0064830D01*
X0113042Y0064761D01*
X0112936Y0064696D01*
X0112828Y0064635D01*
X0112718Y0064577D01*
X0112606Y0064522D01*
X0112493Y0064471D01*
X0112378Y0064424D01*
X0112261Y0064380D01*
X0112143Y0064340D01*
X0112024Y0064304D01*
X0111904Y0064272D01*
X0111783Y0064243D01*
X0111661Y0064218D01*
X0111539Y0064198D01*
X0111415Y0064181D01*
X0111292Y0064168D01*
X0111168Y0064159D01*
X0111043Y0064154D01*
X0110919Y0064153D01*
X0110795Y0064156D01*
X0110670Y0064163D01*
X0110546Y0064174D01*
X0110423Y0064189D01*
X0110300Y0064208D01*
X0110178Y0064230D01*
X0110056Y0064257D01*
X0109936Y0064287D01*
X0109816Y0064321D01*
X0109698Y0064360D01*
X0109580Y0064401D01*
X0109465Y0064447D01*
X0109350Y0064496D01*
X0109238Y0064549D01*
X0109127Y0064605D01*
X0109018Y0064665D01*
X0108911Y0064729D01*
X0108806Y0064795D01*
X0108703Y0064865D01*
X0108603Y0064939D01*
X0108505Y0065015D01*
X0108409Y0065094D01*
X0108316Y0065177D01*
X0108225Y0065262D01*
X0108138Y0065351D01*
X0108053Y0065442D01*
X0107971Y0065536D01*
X0107893Y0065632D01*
X0107817Y0065731D01*
X0107744Y0065832D01*
X0107675Y0065935D01*
X0107609Y0066041D01*
X0107547Y0066148D01*
X0107488Y0066258D01*
X0107432Y0066369D01*
X0107380Y0066482D01*
X0107332Y0066597D01*
X0107288Y0066713D01*
X0107247Y0066830D01*
X0107210Y0066949D01*
X0107176Y0067069D01*
X0107147Y0067189D01*
X0107121Y0067311D01*
X0107099Y0067434D01*
X0107082Y0067557D01*
X0107068Y0067680D01*
X0107058Y0067804D01*
X0107052Y0067929D01*
X0107050Y0068053D01*
X0106950Y0064053D02*
X0114950Y0072053D01*
X0107050Y0073678D02*
X0107052Y0073802D01*
X0107058Y0073927D01*
X0107068Y0074051D01*
X0107082Y0074174D01*
X0107099Y0074297D01*
X0107121Y0074420D01*
X0107147Y0074542D01*
X0107176Y0074662D01*
X0107210Y0074782D01*
X0107247Y0074901D01*
X0107288Y0075018D01*
X0107332Y0075134D01*
X0107380Y0075249D01*
X0107432Y0075362D01*
X0107488Y0075473D01*
X0107547Y0075583D01*
X0107609Y0075690D01*
X0107675Y0075796D01*
X0107744Y0075899D01*
X0107817Y0076000D01*
X0107893Y0076099D01*
X0107971Y0076195D01*
X0108053Y0076289D01*
X0108138Y0076380D01*
X0108225Y0076469D01*
X0108316Y0076554D01*
X0108409Y0076637D01*
X0108505Y0076716D01*
X0108603Y0076792D01*
X0108703Y0076866D01*
X0108806Y0076936D01*
X0108911Y0077002D01*
X0109018Y0077066D01*
X0109127Y0077126D01*
X0109238Y0077182D01*
X0109350Y0077235D01*
X0109465Y0077284D01*
X0109580Y0077330D01*
X0109698Y0077371D01*
X0109816Y0077410D01*
X0109936Y0077444D01*
X0110056Y0077474D01*
X0110178Y0077501D01*
X0110300Y0077523D01*
X0110423Y0077542D01*
X0110546Y0077557D01*
X0110670Y0077568D01*
X0110795Y0077575D01*
X0110919Y0077578D01*
X0111043Y0077577D01*
X0111168Y0077572D01*
X0111292Y0077563D01*
X0111415Y0077550D01*
X0111539Y0077533D01*
X0111661Y0077513D01*
X0111783Y0077488D01*
X0111904Y0077459D01*
X0112024Y0077427D01*
X0112143Y0077391D01*
X0112261Y0077351D01*
X0112378Y0077307D01*
X0112493Y0077260D01*
X0112606Y0077209D01*
X0112718Y0077154D01*
X0112828Y0077096D01*
X0112936Y0077035D01*
X0113042Y0076970D01*
X0113146Y0076901D01*
X0113247Y0076830D01*
X0113347Y0076755D01*
X0113444Y0076677D01*
X0113538Y0076596D01*
X0113630Y0076512D01*
X0113719Y0076425D01*
X0113805Y0076335D01*
X0113888Y0076243D01*
X0113968Y0076148D01*
X0114046Y0076050D01*
X0114120Y0075950D01*
X0114191Y0075848D01*
X0114258Y0075744D01*
X0114322Y0075637D01*
X0114383Y0075528D01*
X0114440Y0075418D01*
X0114494Y0075306D01*
X0114544Y0075192D01*
X0114591Y0075077D01*
X0114633Y0074960D01*
X0114672Y0074842D01*
X0114708Y0074722D01*
X0114739Y0074602D01*
X0114766Y0074481D01*
X0114790Y0074359D01*
X0114810Y0074236D01*
X0114826Y0074112D01*
X0114838Y0073989D01*
X0114846Y0073865D01*
X0114850Y0073740D01*
X0114850Y0073616D01*
X0114846Y0073491D01*
X0114838Y0073367D01*
X0114826Y0073244D01*
X0114810Y0073120D01*
X0114790Y0072997D01*
X0114766Y0072875D01*
X0114739Y0072754D01*
X0114708Y0072634D01*
X0114672Y0072514D01*
X0114633Y0072396D01*
X0114591Y0072279D01*
X0114544Y0072164D01*
X0114494Y0072050D01*
X0114440Y0071938D01*
X0114383Y0071828D01*
X0114322Y0071719D01*
X0114258Y0071612D01*
X0114191Y0071508D01*
X0114120Y0071406D01*
X0114046Y0071306D01*
X0113968Y0071208D01*
X0113888Y0071113D01*
X0113805Y0071021D01*
X0113719Y0070931D01*
X0113630Y0070844D01*
X0113538Y0070760D01*
X0113444Y0070679D01*
X0113347Y0070601D01*
X0113247Y0070526D01*
X0113146Y0070455D01*
X0113042Y0070386D01*
X0112936Y0070321D01*
X0112828Y0070260D01*
X0112718Y0070202D01*
X0112606Y0070147D01*
X0112493Y0070096D01*
X0112378Y0070049D01*
X0112261Y0070005D01*
X0112143Y0069965D01*
X0112024Y0069929D01*
X0111904Y0069897D01*
X0111783Y0069868D01*
X0111661Y0069843D01*
X0111539Y0069823D01*
X0111415Y0069806D01*
X0111292Y0069793D01*
X0111168Y0069784D01*
X0111043Y0069779D01*
X0110919Y0069778D01*
X0110795Y0069781D01*
X0110670Y0069788D01*
X0110546Y0069799D01*
X0110423Y0069814D01*
X0110300Y0069833D01*
X0110178Y0069855D01*
X0110056Y0069882D01*
X0109936Y0069912D01*
X0109816Y0069946D01*
X0109698Y0069985D01*
X0109580Y0070026D01*
X0109465Y0070072D01*
X0109350Y0070121D01*
X0109238Y0070174D01*
X0109127Y0070230D01*
X0109018Y0070290D01*
X0108911Y0070354D01*
X0108806Y0070420D01*
X0108703Y0070490D01*
X0108603Y0070564D01*
X0108505Y0070640D01*
X0108409Y0070719D01*
X0108316Y0070802D01*
X0108225Y0070887D01*
X0108138Y0070976D01*
X0108053Y0071067D01*
X0107971Y0071161D01*
X0107893Y0071257D01*
X0107817Y0071356D01*
X0107744Y0071457D01*
X0107675Y0071560D01*
X0107609Y0071666D01*
X0107547Y0071773D01*
X0107488Y0071883D01*
X0107432Y0071994D01*
X0107380Y0072107D01*
X0107332Y0072222D01*
X0107288Y0072338D01*
X0107247Y0072455D01*
X0107210Y0072574D01*
X0107176Y0072694D01*
X0107147Y0072814D01*
X0107121Y0072936D01*
X0107099Y0073059D01*
X0107082Y0073182D01*
X0107068Y0073305D01*
X0107058Y0073429D01*
X0107052Y0073554D01*
X0107050Y0073678D01*
X0106950Y0069678D02*
X0114950Y0077678D01*
X0120800Y0075866D02*
X0120802Y0075990D01*
X0120808Y0076115D01*
X0120818Y0076239D01*
X0120832Y0076362D01*
X0120849Y0076485D01*
X0120871Y0076608D01*
X0120897Y0076730D01*
X0120926Y0076850D01*
X0120960Y0076970D01*
X0120997Y0077089D01*
X0121038Y0077206D01*
X0121082Y0077322D01*
X0121130Y0077437D01*
X0121182Y0077550D01*
X0121238Y0077661D01*
X0121297Y0077771D01*
X0121359Y0077878D01*
X0121425Y0077984D01*
X0121494Y0078087D01*
X0121567Y0078188D01*
X0121643Y0078287D01*
X0121721Y0078383D01*
X0121803Y0078477D01*
X0121888Y0078568D01*
X0121975Y0078657D01*
X0122066Y0078742D01*
X0122159Y0078825D01*
X0122255Y0078904D01*
X0122353Y0078980D01*
X0122453Y0079054D01*
X0122556Y0079124D01*
X0122661Y0079190D01*
X0122768Y0079254D01*
X0122877Y0079314D01*
X0122988Y0079370D01*
X0123100Y0079423D01*
X0123215Y0079472D01*
X0123330Y0079518D01*
X0123448Y0079559D01*
X0123566Y0079598D01*
X0123686Y0079632D01*
X0123806Y0079662D01*
X0123928Y0079689D01*
X0124050Y0079711D01*
X0124173Y0079730D01*
X0124296Y0079745D01*
X0124420Y0079756D01*
X0124545Y0079763D01*
X0124669Y0079766D01*
X0124793Y0079765D01*
X0124918Y0079760D01*
X0125042Y0079751D01*
X0125165Y0079738D01*
X0125289Y0079721D01*
X0125411Y0079701D01*
X0125533Y0079676D01*
X0125654Y0079647D01*
X0125774Y0079615D01*
X0125893Y0079579D01*
X0126011Y0079539D01*
X0126128Y0079495D01*
X0126243Y0079448D01*
X0126356Y0079397D01*
X0126468Y0079342D01*
X0126578Y0079284D01*
X0126686Y0079223D01*
X0126792Y0079158D01*
X0126896Y0079089D01*
X0126997Y0079018D01*
X0127097Y0078943D01*
X0127194Y0078865D01*
X0127288Y0078784D01*
X0127380Y0078700D01*
X0127469Y0078613D01*
X0127555Y0078523D01*
X0127638Y0078431D01*
X0127718Y0078336D01*
X0127796Y0078238D01*
X0127870Y0078138D01*
X0127941Y0078036D01*
X0128008Y0077932D01*
X0128072Y0077825D01*
X0128133Y0077716D01*
X0128190Y0077606D01*
X0128244Y0077494D01*
X0128294Y0077380D01*
X0128341Y0077265D01*
X0128383Y0077148D01*
X0128422Y0077030D01*
X0128458Y0076910D01*
X0128489Y0076790D01*
X0128516Y0076669D01*
X0128540Y0076547D01*
X0128560Y0076424D01*
X0128576Y0076300D01*
X0128588Y0076177D01*
X0128596Y0076053D01*
X0128600Y0075928D01*
X0128600Y0075804D01*
X0128596Y0075679D01*
X0128588Y0075555D01*
X0128576Y0075432D01*
X0128560Y0075308D01*
X0128540Y0075185D01*
X0128516Y0075063D01*
X0128489Y0074942D01*
X0128458Y0074822D01*
X0128422Y0074702D01*
X0128383Y0074584D01*
X0128341Y0074467D01*
X0128294Y0074352D01*
X0128244Y0074238D01*
X0128190Y0074126D01*
X0128133Y0074016D01*
X0128072Y0073907D01*
X0128008Y0073800D01*
X0127941Y0073696D01*
X0127870Y0073594D01*
X0127796Y0073494D01*
X0127718Y0073396D01*
X0127638Y0073301D01*
X0127555Y0073209D01*
X0127469Y0073119D01*
X0127380Y0073032D01*
X0127288Y0072948D01*
X0127194Y0072867D01*
X0127097Y0072789D01*
X0126997Y0072714D01*
X0126896Y0072643D01*
X0126792Y0072574D01*
X0126686Y0072509D01*
X0126578Y0072448D01*
X0126468Y0072390D01*
X0126356Y0072335D01*
X0126243Y0072284D01*
X0126128Y0072237D01*
X0126011Y0072193D01*
X0125893Y0072153D01*
X0125774Y0072117D01*
X0125654Y0072085D01*
X0125533Y0072056D01*
X0125411Y0072031D01*
X0125289Y0072011D01*
X0125165Y0071994D01*
X0125042Y0071981D01*
X0124918Y0071972D01*
X0124793Y0071967D01*
X0124669Y0071966D01*
X0124545Y0071969D01*
X0124420Y0071976D01*
X0124296Y0071987D01*
X0124173Y0072002D01*
X0124050Y0072021D01*
X0123928Y0072043D01*
X0123806Y0072070D01*
X0123686Y0072100D01*
X0123566Y0072134D01*
X0123448Y0072173D01*
X0123330Y0072214D01*
X0123215Y0072260D01*
X0123100Y0072309D01*
X0122988Y0072362D01*
X0122877Y0072418D01*
X0122768Y0072478D01*
X0122661Y0072542D01*
X0122556Y0072608D01*
X0122453Y0072678D01*
X0122353Y0072752D01*
X0122255Y0072828D01*
X0122159Y0072907D01*
X0122066Y0072990D01*
X0121975Y0073075D01*
X0121888Y0073164D01*
X0121803Y0073255D01*
X0121721Y0073349D01*
X0121643Y0073445D01*
X0121567Y0073544D01*
X0121494Y0073645D01*
X0121425Y0073748D01*
X0121359Y0073854D01*
X0121297Y0073961D01*
X0121238Y0074071D01*
X0121182Y0074182D01*
X0121130Y0074295D01*
X0121082Y0074410D01*
X0121038Y0074526D01*
X0120997Y0074643D01*
X0120960Y0074762D01*
X0120926Y0074882D01*
X0120897Y0075002D01*
X0120871Y0075124D01*
X0120849Y0075247D01*
X0120832Y0075370D01*
X0120818Y0075493D01*
X0120808Y0075617D01*
X0120802Y0075742D01*
X0120800Y0075866D01*
X0120700Y0071866D02*
X0128700Y0079866D01*
X0124238Y0080241D02*
X0124240Y0080365D01*
X0124246Y0080490D01*
X0124256Y0080614D01*
X0124270Y0080737D01*
X0124287Y0080860D01*
X0124309Y0080983D01*
X0124335Y0081105D01*
X0124364Y0081225D01*
X0124398Y0081345D01*
X0124435Y0081464D01*
X0124476Y0081581D01*
X0124520Y0081697D01*
X0124568Y0081812D01*
X0124620Y0081925D01*
X0124676Y0082036D01*
X0124735Y0082146D01*
X0124797Y0082253D01*
X0124863Y0082359D01*
X0124932Y0082462D01*
X0125005Y0082563D01*
X0125081Y0082662D01*
X0125159Y0082758D01*
X0125241Y0082852D01*
X0125326Y0082943D01*
X0125413Y0083032D01*
X0125504Y0083117D01*
X0125597Y0083200D01*
X0125693Y0083279D01*
X0125791Y0083355D01*
X0125891Y0083429D01*
X0125994Y0083499D01*
X0126099Y0083565D01*
X0126206Y0083629D01*
X0126315Y0083689D01*
X0126426Y0083745D01*
X0126538Y0083798D01*
X0126653Y0083847D01*
X0126768Y0083893D01*
X0126886Y0083934D01*
X0127004Y0083973D01*
X0127124Y0084007D01*
X0127244Y0084037D01*
X0127366Y0084064D01*
X0127488Y0084086D01*
X0127611Y0084105D01*
X0127734Y0084120D01*
X0127858Y0084131D01*
X0127983Y0084138D01*
X0128107Y0084141D01*
X0128231Y0084140D01*
X0128356Y0084135D01*
X0128480Y0084126D01*
X0128603Y0084113D01*
X0128727Y0084096D01*
X0128849Y0084076D01*
X0128971Y0084051D01*
X0129092Y0084022D01*
X0129212Y0083990D01*
X0129331Y0083954D01*
X0129449Y0083914D01*
X0129566Y0083870D01*
X0129681Y0083823D01*
X0129794Y0083772D01*
X0129906Y0083717D01*
X0130016Y0083659D01*
X0130124Y0083598D01*
X0130230Y0083533D01*
X0130334Y0083464D01*
X0130435Y0083393D01*
X0130535Y0083318D01*
X0130632Y0083240D01*
X0130726Y0083159D01*
X0130818Y0083075D01*
X0130907Y0082988D01*
X0130993Y0082898D01*
X0131076Y0082806D01*
X0131156Y0082711D01*
X0131234Y0082613D01*
X0131308Y0082513D01*
X0131379Y0082411D01*
X0131446Y0082307D01*
X0131510Y0082200D01*
X0131571Y0082091D01*
X0131628Y0081981D01*
X0131682Y0081869D01*
X0131732Y0081755D01*
X0131779Y0081640D01*
X0131821Y0081523D01*
X0131860Y0081405D01*
X0131896Y0081285D01*
X0131927Y0081165D01*
X0131954Y0081044D01*
X0131978Y0080922D01*
X0131998Y0080799D01*
X0132014Y0080675D01*
X0132026Y0080552D01*
X0132034Y0080428D01*
X0132038Y0080303D01*
X0132038Y0080179D01*
X0132034Y0080054D01*
X0132026Y0079930D01*
X0132014Y0079807D01*
X0131998Y0079683D01*
X0131978Y0079560D01*
X0131954Y0079438D01*
X0131927Y0079317D01*
X0131896Y0079197D01*
X0131860Y0079077D01*
X0131821Y0078959D01*
X0131779Y0078842D01*
X0131732Y0078727D01*
X0131682Y0078613D01*
X0131628Y0078501D01*
X0131571Y0078391D01*
X0131510Y0078282D01*
X0131446Y0078175D01*
X0131379Y0078071D01*
X0131308Y0077969D01*
X0131234Y0077869D01*
X0131156Y0077771D01*
X0131076Y0077676D01*
X0130993Y0077584D01*
X0130907Y0077494D01*
X0130818Y0077407D01*
X0130726Y0077323D01*
X0130632Y0077242D01*
X0130535Y0077164D01*
X0130435Y0077089D01*
X0130334Y0077018D01*
X0130230Y0076949D01*
X0130124Y0076884D01*
X0130016Y0076823D01*
X0129906Y0076765D01*
X0129794Y0076710D01*
X0129681Y0076659D01*
X0129566Y0076612D01*
X0129449Y0076568D01*
X0129331Y0076528D01*
X0129212Y0076492D01*
X0129092Y0076460D01*
X0128971Y0076431D01*
X0128849Y0076406D01*
X0128727Y0076386D01*
X0128603Y0076369D01*
X0128480Y0076356D01*
X0128356Y0076347D01*
X0128231Y0076342D01*
X0128107Y0076341D01*
X0127983Y0076344D01*
X0127858Y0076351D01*
X0127734Y0076362D01*
X0127611Y0076377D01*
X0127488Y0076396D01*
X0127366Y0076418D01*
X0127244Y0076445D01*
X0127124Y0076475D01*
X0127004Y0076509D01*
X0126886Y0076548D01*
X0126768Y0076589D01*
X0126653Y0076635D01*
X0126538Y0076684D01*
X0126426Y0076737D01*
X0126315Y0076793D01*
X0126206Y0076853D01*
X0126099Y0076917D01*
X0125994Y0076983D01*
X0125891Y0077053D01*
X0125791Y0077127D01*
X0125693Y0077203D01*
X0125597Y0077282D01*
X0125504Y0077365D01*
X0125413Y0077450D01*
X0125326Y0077539D01*
X0125241Y0077630D01*
X0125159Y0077724D01*
X0125081Y0077820D01*
X0125005Y0077919D01*
X0124932Y0078020D01*
X0124863Y0078123D01*
X0124797Y0078229D01*
X0124735Y0078336D01*
X0124676Y0078446D01*
X0124620Y0078557D01*
X0124568Y0078670D01*
X0124520Y0078785D01*
X0124476Y0078901D01*
X0124435Y0079018D01*
X0124398Y0079137D01*
X0124364Y0079257D01*
X0124335Y0079377D01*
X0124309Y0079499D01*
X0124287Y0079622D01*
X0124270Y0079745D01*
X0124256Y0079868D01*
X0124246Y0079992D01*
X0124240Y0080117D01*
X0124238Y0080241D01*
X0124138Y0076241D02*
X0132138Y0084241D01*
X0130175Y0088991D02*
X0130177Y0089115D01*
X0130183Y0089240D01*
X0130193Y0089364D01*
X0130207Y0089487D01*
X0130224Y0089610D01*
X0130246Y0089733D01*
X0130272Y0089855D01*
X0130301Y0089975D01*
X0130335Y0090095D01*
X0130372Y0090214D01*
X0130413Y0090331D01*
X0130457Y0090447D01*
X0130505Y0090562D01*
X0130557Y0090675D01*
X0130613Y0090786D01*
X0130672Y0090896D01*
X0130734Y0091003D01*
X0130800Y0091109D01*
X0130869Y0091212D01*
X0130942Y0091313D01*
X0131018Y0091412D01*
X0131096Y0091508D01*
X0131178Y0091602D01*
X0131263Y0091693D01*
X0131350Y0091782D01*
X0131441Y0091867D01*
X0131534Y0091950D01*
X0131630Y0092029D01*
X0131728Y0092105D01*
X0131828Y0092179D01*
X0131931Y0092249D01*
X0132036Y0092315D01*
X0132143Y0092379D01*
X0132252Y0092439D01*
X0132363Y0092495D01*
X0132475Y0092548D01*
X0132590Y0092597D01*
X0132705Y0092643D01*
X0132823Y0092684D01*
X0132941Y0092723D01*
X0133061Y0092757D01*
X0133181Y0092787D01*
X0133303Y0092814D01*
X0133425Y0092836D01*
X0133548Y0092855D01*
X0133671Y0092870D01*
X0133795Y0092881D01*
X0133920Y0092888D01*
X0134044Y0092891D01*
X0134168Y0092890D01*
X0134293Y0092885D01*
X0134417Y0092876D01*
X0134540Y0092863D01*
X0134664Y0092846D01*
X0134786Y0092826D01*
X0134908Y0092801D01*
X0135029Y0092772D01*
X0135149Y0092740D01*
X0135268Y0092704D01*
X0135386Y0092664D01*
X0135503Y0092620D01*
X0135618Y0092573D01*
X0135731Y0092522D01*
X0135843Y0092467D01*
X0135953Y0092409D01*
X0136061Y0092348D01*
X0136167Y0092283D01*
X0136271Y0092214D01*
X0136372Y0092143D01*
X0136472Y0092068D01*
X0136569Y0091990D01*
X0136663Y0091909D01*
X0136755Y0091825D01*
X0136844Y0091738D01*
X0136930Y0091648D01*
X0137013Y0091556D01*
X0137093Y0091461D01*
X0137171Y0091363D01*
X0137245Y0091263D01*
X0137316Y0091161D01*
X0137383Y0091057D01*
X0137447Y0090950D01*
X0137508Y0090841D01*
X0137565Y0090731D01*
X0137619Y0090619D01*
X0137669Y0090505D01*
X0137716Y0090390D01*
X0137758Y0090273D01*
X0137797Y0090155D01*
X0137833Y0090035D01*
X0137864Y0089915D01*
X0137891Y0089794D01*
X0137915Y0089672D01*
X0137935Y0089549D01*
X0137951Y0089425D01*
X0137963Y0089302D01*
X0137971Y0089178D01*
X0137975Y0089053D01*
X0137975Y0088929D01*
X0137971Y0088804D01*
X0137963Y0088680D01*
X0137951Y0088557D01*
X0137935Y0088433D01*
X0137915Y0088310D01*
X0137891Y0088188D01*
X0137864Y0088067D01*
X0137833Y0087947D01*
X0137797Y0087827D01*
X0137758Y0087709D01*
X0137716Y0087592D01*
X0137669Y0087477D01*
X0137619Y0087363D01*
X0137565Y0087251D01*
X0137508Y0087141D01*
X0137447Y0087032D01*
X0137383Y0086925D01*
X0137316Y0086821D01*
X0137245Y0086719D01*
X0137171Y0086619D01*
X0137093Y0086521D01*
X0137013Y0086426D01*
X0136930Y0086334D01*
X0136844Y0086244D01*
X0136755Y0086157D01*
X0136663Y0086073D01*
X0136569Y0085992D01*
X0136472Y0085914D01*
X0136372Y0085839D01*
X0136271Y0085768D01*
X0136167Y0085699D01*
X0136061Y0085634D01*
X0135953Y0085573D01*
X0135843Y0085515D01*
X0135731Y0085460D01*
X0135618Y0085409D01*
X0135503Y0085362D01*
X0135386Y0085318D01*
X0135268Y0085278D01*
X0135149Y0085242D01*
X0135029Y0085210D01*
X0134908Y0085181D01*
X0134786Y0085156D01*
X0134664Y0085136D01*
X0134540Y0085119D01*
X0134417Y0085106D01*
X0134293Y0085097D01*
X0134168Y0085092D01*
X0134044Y0085091D01*
X0133920Y0085094D01*
X0133795Y0085101D01*
X0133671Y0085112D01*
X0133548Y0085127D01*
X0133425Y0085146D01*
X0133303Y0085168D01*
X0133181Y0085195D01*
X0133061Y0085225D01*
X0132941Y0085259D01*
X0132823Y0085298D01*
X0132705Y0085339D01*
X0132590Y0085385D01*
X0132475Y0085434D01*
X0132363Y0085487D01*
X0132252Y0085543D01*
X0132143Y0085603D01*
X0132036Y0085667D01*
X0131931Y0085733D01*
X0131828Y0085803D01*
X0131728Y0085877D01*
X0131630Y0085953D01*
X0131534Y0086032D01*
X0131441Y0086115D01*
X0131350Y0086200D01*
X0131263Y0086289D01*
X0131178Y0086380D01*
X0131096Y0086474D01*
X0131018Y0086570D01*
X0130942Y0086669D01*
X0130869Y0086770D01*
X0130800Y0086873D01*
X0130734Y0086979D01*
X0130672Y0087086D01*
X0130613Y0087196D01*
X0130557Y0087307D01*
X0130505Y0087420D01*
X0130457Y0087535D01*
X0130413Y0087651D01*
X0130372Y0087768D01*
X0130335Y0087887D01*
X0130301Y0088007D01*
X0130272Y0088127D01*
X0130246Y0088249D01*
X0130224Y0088372D01*
X0130207Y0088495D01*
X0130193Y0088618D01*
X0130183Y0088742D01*
X0130177Y0088867D01*
X0130175Y0088991D01*
X0130075Y0084991D02*
X0138075Y0092991D01*
X0123300Y0088991D02*
X0123302Y0089115D01*
X0123308Y0089240D01*
X0123318Y0089364D01*
X0123332Y0089487D01*
X0123349Y0089610D01*
X0123371Y0089733D01*
X0123397Y0089855D01*
X0123426Y0089975D01*
X0123460Y0090095D01*
X0123497Y0090214D01*
X0123538Y0090331D01*
X0123582Y0090447D01*
X0123630Y0090562D01*
X0123682Y0090675D01*
X0123738Y0090786D01*
X0123797Y0090896D01*
X0123859Y0091003D01*
X0123925Y0091109D01*
X0123994Y0091212D01*
X0124067Y0091313D01*
X0124143Y0091412D01*
X0124221Y0091508D01*
X0124303Y0091602D01*
X0124388Y0091693D01*
X0124475Y0091782D01*
X0124566Y0091867D01*
X0124659Y0091950D01*
X0124755Y0092029D01*
X0124853Y0092105D01*
X0124953Y0092179D01*
X0125056Y0092249D01*
X0125161Y0092315D01*
X0125268Y0092379D01*
X0125377Y0092439D01*
X0125488Y0092495D01*
X0125600Y0092548D01*
X0125715Y0092597D01*
X0125830Y0092643D01*
X0125948Y0092684D01*
X0126066Y0092723D01*
X0126186Y0092757D01*
X0126306Y0092787D01*
X0126428Y0092814D01*
X0126550Y0092836D01*
X0126673Y0092855D01*
X0126796Y0092870D01*
X0126920Y0092881D01*
X0127045Y0092888D01*
X0127169Y0092891D01*
X0127293Y0092890D01*
X0127418Y0092885D01*
X0127542Y0092876D01*
X0127665Y0092863D01*
X0127789Y0092846D01*
X0127911Y0092826D01*
X0128033Y0092801D01*
X0128154Y0092772D01*
X0128274Y0092740D01*
X0128393Y0092704D01*
X0128511Y0092664D01*
X0128628Y0092620D01*
X0128743Y0092573D01*
X0128856Y0092522D01*
X0128968Y0092467D01*
X0129078Y0092409D01*
X0129186Y0092348D01*
X0129292Y0092283D01*
X0129396Y0092214D01*
X0129497Y0092143D01*
X0129597Y0092068D01*
X0129694Y0091990D01*
X0129788Y0091909D01*
X0129880Y0091825D01*
X0129969Y0091738D01*
X0130055Y0091648D01*
X0130138Y0091556D01*
X0130218Y0091461D01*
X0130296Y0091363D01*
X0130370Y0091263D01*
X0130441Y0091161D01*
X0130508Y0091057D01*
X0130572Y0090950D01*
X0130633Y0090841D01*
X0130690Y0090731D01*
X0130744Y0090619D01*
X0130794Y0090505D01*
X0130841Y0090390D01*
X0130883Y0090273D01*
X0130922Y0090155D01*
X0130958Y0090035D01*
X0130989Y0089915D01*
X0131016Y0089794D01*
X0131040Y0089672D01*
X0131060Y0089549D01*
X0131076Y0089425D01*
X0131088Y0089302D01*
X0131096Y0089178D01*
X0131100Y0089053D01*
X0131100Y0088929D01*
X0131096Y0088804D01*
X0131088Y0088680D01*
X0131076Y0088557D01*
X0131060Y0088433D01*
X0131040Y0088310D01*
X0131016Y0088188D01*
X0130989Y0088067D01*
X0130958Y0087947D01*
X0130922Y0087827D01*
X0130883Y0087709D01*
X0130841Y0087592D01*
X0130794Y0087477D01*
X0130744Y0087363D01*
X0130690Y0087251D01*
X0130633Y0087141D01*
X0130572Y0087032D01*
X0130508Y0086925D01*
X0130441Y0086821D01*
X0130370Y0086719D01*
X0130296Y0086619D01*
X0130218Y0086521D01*
X0130138Y0086426D01*
X0130055Y0086334D01*
X0129969Y0086244D01*
X0129880Y0086157D01*
X0129788Y0086073D01*
X0129694Y0085992D01*
X0129597Y0085914D01*
X0129497Y0085839D01*
X0129396Y0085768D01*
X0129292Y0085699D01*
X0129186Y0085634D01*
X0129078Y0085573D01*
X0128968Y0085515D01*
X0128856Y0085460D01*
X0128743Y0085409D01*
X0128628Y0085362D01*
X0128511Y0085318D01*
X0128393Y0085278D01*
X0128274Y0085242D01*
X0128154Y0085210D01*
X0128033Y0085181D01*
X0127911Y0085156D01*
X0127789Y0085136D01*
X0127665Y0085119D01*
X0127542Y0085106D01*
X0127418Y0085097D01*
X0127293Y0085092D01*
X0127169Y0085091D01*
X0127045Y0085094D01*
X0126920Y0085101D01*
X0126796Y0085112D01*
X0126673Y0085127D01*
X0126550Y0085146D01*
X0126428Y0085168D01*
X0126306Y0085195D01*
X0126186Y0085225D01*
X0126066Y0085259D01*
X0125948Y0085298D01*
X0125830Y0085339D01*
X0125715Y0085385D01*
X0125600Y0085434D01*
X0125488Y0085487D01*
X0125377Y0085543D01*
X0125268Y0085603D01*
X0125161Y0085667D01*
X0125056Y0085733D01*
X0124953Y0085803D01*
X0124853Y0085877D01*
X0124755Y0085953D01*
X0124659Y0086032D01*
X0124566Y0086115D01*
X0124475Y0086200D01*
X0124388Y0086289D01*
X0124303Y0086380D01*
X0124221Y0086474D01*
X0124143Y0086570D01*
X0124067Y0086669D01*
X0123994Y0086770D01*
X0123925Y0086873D01*
X0123859Y0086979D01*
X0123797Y0087086D01*
X0123738Y0087196D01*
X0123682Y0087307D01*
X0123630Y0087420D01*
X0123582Y0087535D01*
X0123538Y0087651D01*
X0123497Y0087768D01*
X0123460Y0087887D01*
X0123426Y0088007D01*
X0123397Y0088127D01*
X0123371Y0088249D01*
X0123349Y0088372D01*
X0123332Y0088495D01*
X0123318Y0088618D01*
X0123308Y0088742D01*
X0123302Y0088867D01*
X0123300Y0088991D01*
X0123200Y0084991D02*
X0131200Y0092991D01*
X0124550Y0099928D02*
X0124552Y0100052D01*
X0124558Y0100177D01*
X0124568Y0100301D01*
X0124582Y0100424D01*
X0124599Y0100547D01*
X0124621Y0100670D01*
X0124647Y0100792D01*
X0124676Y0100912D01*
X0124710Y0101032D01*
X0124747Y0101151D01*
X0124788Y0101268D01*
X0124832Y0101384D01*
X0124880Y0101499D01*
X0124932Y0101612D01*
X0124988Y0101723D01*
X0125047Y0101833D01*
X0125109Y0101940D01*
X0125175Y0102046D01*
X0125244Y0102149D01*
X0125317Y0102250D01*
X0125393Y0102349D01*
X0125471Y0102445D01*
X0125553Y0102539D01*
X0125638Y0102630D01*
X0125725Y0102719D01*
X0125816Y0102804D01*
X0125909Y0102887D01*
X0126005Y0102966D01*
X0126103Y0103042D01*
X0126203Y0103116D01*
X0126306Y0103186D01*
X0126411Y0103252D01*
X0126518Y0103316D01*
X0126627Y0103376D01*
X0126738Y0103432D01*
X0126850Y0103485D01*
X0126965Y0103534D01*
X0127080Y0103580D01*
X0127198Y0103621D01*
X0127316Y0103660D01*
X0127436Y0103694D01*
X0127556Y0103724D01*
X0127678Y0103751D01*
X0127800Y0103773D01*
X0127923Y0103792D01*
X0128046Y0103807D01*
X0128170Y0103818D01*
X0128295Y0103825D01*
X0128419Y0103828D01*
X0128543Y0103827D01*
X0128668Y0103822D01*
X0128792Y0103813D01*
X0128915Y0103800D01*
X0129039Y0103783D01*
X0129161Y0103763D01*
X0129283Y0103738D01*
X0129404Y0103709D01*
X0129524Y0103677D01*
X0129643Y0103641D01*
X0129761Y0103601D01*
X0129878Y0103557D01*
X0129993Y0103510D01*
X0130106Y0103459D01*
X0130218Y0103404D01*
X0130328Y0103346D01*
X0130436Y0103285D01*
X0130542Y0103220D01*
X0130646Y0103151D01*
X0130747Y0103080D01*
X0130847Y0103005D01*
X0130944Y0102927D01*
X0131038Y0102846D01*
X0131130Y0102762D01*
X0131219Y0102675D01*
X0131305Y0102585D01*
X0131388Y0102493D01*
X0131468Y0102398D01*
X0131546Y0102300D01*
X0131620Y0102200D01*
X0131691Y0102098D01*
X0131758Y0101994D01*
X0131822Y0101887D01*
X0131883Y0101778D01*
X0131940Y0101668D01*
X0131994Y0101556D01*
X0132044Y0101442D01*
X0132091Y0101327D01*
X0132133Y0101210D01*
X0132172Y0101092D01*
X0132208Y0100972D01*
X0132239Y0100852D01*
X0132266Y0100731D01*
X0132290Y0100609D01*
X0132310Y0100486D01*
X0132326Y0100362D01*
X0132338Y0100239D01*
X0132346Y0100115D01*
X0132350Y0099990D01*
X0132350Y0099866D01*
X0132346Y0099741D01*
X0132338Y0099617D01*
X0132326Y0099494D01*
X0132310Y0099370D01*
X0132290Y0099247D01*
X0132266Y0099125D01*
X0132239Y0099004D01*
X0132208Y0098884D01*
X0132172Y0098764D01*
X0132133Y0098646D01*
X0132091Y0098529D01*
X0132044Y0098414D01*
X0131994Y0098300D01*
X0131940Y0098188D01*
X0131883Y0098078D01*
X0131822Y0097969D01*
X0131758Y0097862D01*
X0131691Y0097758D01*
X0131620Y0097656D01*
X0131546Y0097556D01*
X0131468Y0097458D01*
X0131388Y0097363D01*
X0131305Y0097271D01*
X0131219Y0097181D01*
X0131130Y0097094D01*
X0131038Y0097010D01*
X0130944Y0096929D01*
X0130847Y0096851D01*
X0130747Y0096776D01*
X0130646Y0096705D01*
X0130542Y0096636D01*
X0130436Y0096571D01*
X0130328Y0096510D01*
X0130218Y0096452D01*
X0130106Y0096397D01*
X0129993Y0096346D01*
X0129878Y0096299D01*
X0129761Y0096255D01*
X0129643Y0096215D01*
X0129524Y0096179D01*
X0129404Y0096147D01*
X0129283Y0096118D01*
X0129161Y0096093D01*
X0129039Y0096073D01*
X0128915Y0096056D01*
X0128792Y0096043D01*
X0128668Y0096034D01*
X0128543Y0096029D01*
X0128419Y0096028D01*
X0128295Y0096031D01*
X0128170Y0096038D01*
X0128046Y0096049D01*
X0127923Y0096064D01*
X0127800Y0096083D01*
X0127678Y0096105D01*
X0127556Y0096132D01*
X0127436Y0096162D01*
X0127316Y0096196D01*
X0127198Y0096235D01*
X0127080Y0096276D01*
X0126965Y0096322D01*
X0126850Y0096371D01*
X0126738Y0096424D01*
X0126627Y0096480D01*
X0126518Y0096540D01*
X0126411Y0096604D01*
X0126306Y0096670D01*
X0126203Y0096740D01*
X0126103Y0096814D01*
X0126005Y0096890D01*
X0125909Y0096969D01*
X0125816Y0097052D01*
X0125725Y0097137D01*
X0125638Y0097226D01*
X0125553Y0097317D01*
X0125471Y0097411D01*
X0125393Y0097507D01*
X0125317Y0097606D01*
X0125244Y0097707D01*
X0125175Y0097810D01*
X0125109Y0097916D01*
X0125047Y0098023D01*
X0124988Y0098133D01*
X0124932Y0098244D01*
X0124880Y0098357D01*
X0124832Y0098472D01*
X0124788Y0098588D01*
X0124747Y0098705D01*
X0124710Y0098824D01*
X0124676Y0098944D01*
X0124647Y0099064D01*
X0124621Y0099186D01*
X0124599Y0099309D01*
X0124582Y0099432D01*
X0124568Y0099555D01*
X0124558Y0099679D01*
X0124552Y0099804D01*
X0124550Y0099928D01*
X0124450Y0095928D02*
X0132450Y0103928D01*
X0160175Y0101803D02*
X0160177Y0101927D01*
X0160183Y0102052D01*
X0160193Y0102176D01*
X0160207Y0102299D01*
X0160224Y0102422D01*
X0160246Y0102545D01*
X0160272Y0102667D01*
X0160301Y0102787D01*
X0160335Y0102907D01*
X0160372Y0103026D01*
X0160413Y0103143D01*
X0160457Y0103259D01*
X0160505Y0103374D01*
X0160557Y0103487D01*
X0160613Y0103598D01*
X0160672Y0103708D01*
X0160734Y0103815D01*
X0160800Y0103921D01*
X0160869Y0104024D01*
X0160942Y0104125D01*
X0161018Y0104224D01*
X0161096Y0104320D01*
X0161178Y0104414D01*
X0161263Y0104505D01*
X0161350Y0104594D01*
X0161441Y0104679D01*
X0161534Y0104762D01*
X0161630Y0104841D01*
X0161728Y0104917D01*
X0161828Y0104991D01*
X0161931Y0105061D01*
X0162036Y0105127D01*
X0162143Y0105191D01*
X0162252Y0105251D01*
X0162363Y0105307D01*
X0162475Y0105360D01*
X0162590Y0105409D01*
X0162705Y0105455D01*
X0162823Y0105496D01*
X0162941Y0105535D01*
X0163061Y0105569D01*
X0163181Y0105599D01*
X0163303Y0105626D01*
X0163425Y0105648D01*
X0163548Y0105667D01*
X0163671Y0105682D01*
X0163795Y0105693D01*
X0163920Y0105700D01*
X0164044Y0105703D01*
X0164168Y0105702D01*
X0164293Y0105697D01*
X0164417Y0105688D01*
X0164540Y0105675D01*
X0164664Y0105658D01*
X0164786Y0105638D01*
X0164908Y0105613D01*
X0165029Y0105584D01*
X0165149Y0105552D01*
X0165268Y0105516D01*
X0165386Y0105476D01*
X0165503Y0105432D01*
X0165618Y0105385D01*
X0165731Y0105334D01*
X0165843Y0105279D01*
X0165953Y0105221D01*
X0166061Y0105160D01*
X0166167Y0105095D01*
X0166271Y0105026D01*
X0166372Y0104955D01*
X0166472Y0104880D01*
X0166569Y0104802D01*
X0166663Y0104721D01*
X0166755Y0104637D01*
X0166844Y0104550D01*
X0166930Y0104460D01*
X0167013Y0104368D01*
X0167093Y0104273D01*
X0167171Y0104175D01*
X0167245Y0104075D01*
X0167316Y0103973D01*
X0167383Y0103869D01*
X0167447Y0103762D01*
X0167508Y0103653D01*
X0167565Y0103543D01*
X0167619Y0103431D01*
X0167669Y0103317D01*
X0167716Y0103202D01*
X0167758Y0103085D01*
X0167797Y0102967D01*
X0167833Y0102847D01*
X0167864Y0102727D01*
X0167891Y0102606D01*
X0167915Y0102484D01*
X0167935Y0102361D01*
X0167951Y0102237D01*
X0167963Y0102114D01*
X0167971Y0101990D01*
X0167975Y0101865D01*
X0167975Y0101741D01*
X0167971Y0101616D01*
X0167963Y0101492D01*
X0167951Y0101369D01*
X0167935Y0101245D01*
X0167915Y0101122D01*
X0167891Y0101000D01*
X0167864Y0100879D01*
X0167833Y0100759D01*
X0167797Y0100639D01*
X0167758Y0100521D01*
X0167716Y0100404D01*
X0167669Y0100289D01*
X0167619Y0100175D01*
X0167565Y0100063D01*
X0167508Y0099953D01*
X0167447Y0099844D01*
X0167383Y0099737D01*
X0167316Y0099633D01*
X0167245Y0099531D01*
X0167171Y0099431D01*
X0167093Y0099333D01*
X0167013Y0099238D01*
X0166930Y0099146D01*
X0166844Y0099056D01*
X0166755Y0098969D01*
X0166663Y0098885D01*
X0166569Y0098804D01*
X0166472Y0098726D01*
X0166372Y0098651D01*
X0166271Y0098580D01*
X0166167Y0098511D01*
X0166061Y0098446D01*
X0165953Y0098385D01*
X0165843Y0098327D01*
X0165731Y0098272D01*
X0165618Y0098221D01*
X0165503Y0098174D01*
X0165386Y0098130D01*
X0165268Y0098090D01*
X0165149Y0098054D01*
X0165029Y0098022D01*
X0164908Y0097993D01*
X0164786Y0097968D01*
X0164664Y0097948D01*
X0164540Y0097931D01*
X0164417Y0097918D01*
X0164293Y0097909D01*
X0164168Y0097904D01*
X0164044Y0097903D01*
X0163920Y0097906D01*
X0163795Y0097913D01*
X0163671Y0097924D01*
X0163548Y0097939D01*
X0163425Y0097958D01*
X0163303Y0097980D01*
X0163181Y0098007D01*
X0163061Y0098037D01*
X0162941Y0098071D01*
X0162823Y0098110D01*
X0162705Y0098151D01*
X0162590Y0098197D01*
X0162475Y0098246D01*
X0162363Y0098299D01*
X0162252Y0098355D01*
X0162143Y0098415D01*
X0162036Y0098479D01*
X0161931Y0098545D01*
X0161828Y0098615D01*
X0161728Y0098689D01*
X0161630Y0098765D01*
X0161534Y0098844D01*
X0161441Y0098927D01*
X0161350Y0099012D01*
X0161263Y0099101D01*
X0161178Y0099192D01*
X0161096Y0099286D01*
X0161018Y0099382D01*
X0160942Y0099481D01*
X0160869Y0099582D01*
X0160800Y0099685D01*
X0160734Y0099791D01*
X0160672Y0099898D01*
X0160613Y0100008D01*
X0160557Y0100119D01*
X0160505Y0100232D01*
X0160457Y0100347D01*
X0160413Y0100463D01*
X0160372Y0100580D01*
X0160335Y0100699D01*
X0160301Y0100819D01*
X0160272Y0100939D01*
X0160246Y0101061D01*
X0160224Y0101184D01*
X0160207Y0101307D01*
X0160193Y0101430D01*
X0160183Y0101554D01*
X0160177Y0101679D01*
X0160175Y0101803D01*
X0160075Y0097803D02*
X0168075Y0105803D01*
X0181200Y0092991D02*
X0173200Y0084991D01*
X0181200Y0084991D02*
X0181200Y0092991D01*
X0181200Y0084991D02*
X0173200Y0092991D01*
X0173200Y0084991D01*
X0181200Y0082991D02*
X0173200Y0074991D01*
X0181200Y0074991D02*
X0181200Y0082991D01*
X0181200Y0074991D02*
X0173200Y0082991D01*
X0173200Y0074991D01*
X0181200Y0072991D02*
X0173200Y0064991D01*
X0181200Y0064991D02*
X0181200Y0072991D01*
X0181200Y0064991D02*
X0173200Y0072991D01*
X0173200Y0064991D01*
X0181200Y0062991D02*
X0173200Y0054991D01*
X0181200Y0054991D02*
X0181200Y0062991D01*
X0181200Y0054991D02*
X0173200Y0062991D01*
X0173200Y0054991D01*
X0149550Y0044616D02*
X0149552Y0044740D01*
X0149558Y0044865D01*
X0149568Y0044989D01*
X0149582Y0045112D01*
X0149599Y0045235D01*
X0149621Y0045358D01*
X0149647Y0045480D01*
X0149676Y0045600D01*
X0149710Y0045720D01*
X0149747Y0045839D01*
X0149788Y0045956D01*
X0149832Y0046072D01*
X0149880Y0046187D01*
X0149932Y0046300D01*
X0149988Y0046411D01*
X0150047Y0046521D01*
X0150109Y0046628D01*
X0150175Y0046734D01*
X0150244Y0046837D01*
X0150317Y0046938D01*
X0150393Y0047037D01*
X0150471Y0047133D01*
X0150553Y0047227D01*
X0150638Y0047318D01*
X0150725Y0047407D01*
X0150816Y0047492D01*
X0150909Y0047575D01*
X0151005Y0047654D01*
X0151103Y0047730D01*
X0151203Y0047804D01*
X0151306Y0047874D01*
X0151411Y0047940D01*
X0151518Y0048004D01*
X0151627Y0048064D01*
X0151738Y0048120D01*
X0151850Y0048173D01*
X0151965Y0048222D01*
X0152080Y0048268D01*
X0152198Y0048309D01*
X0152316Y0048348D01*
X0152436Y0048382D01*
X0152556Y0048412D01*
X0152678Y0048439D01*
X0152800Y0048461D01*
X0152923Y0048480D01*
X0153046Y0048495D01*
X0153170Y0048506D01*
X0153295Y0048513D01*
X0153419Y0048516D01*
X0153543Y0048515D01*
X0153668Y0048510D01*
X0153792Y0048501D01*
X0153915Y0048488D01*
X0154039Y0048471D01*
X0154161Y0048451D01*
X0154283Y0048426D01*
X0154404Y0048397D01*
X0154524Y0048365D01*
X0154643Y0048329D01*
X0154761Y0048289D01*
X0154878Y0048245D01*
X0154993Y0048198D01*
X0155106Y0048147D01*
X0155218Y0048092D01*
X0155328Y0048034D01*
X0155436Y0047973D01*
X0155542Y0047908D01*
X0155646Y0047839D01*
X0155747Y0047768D01*
X0155847Y0047693D01*
X0155944Y0047615D01*
X0156038Y0047534D01*
X0156130Y0047450D01*
X0156219Y0047363D01*
X0156305Y0047273D01*
X0156388Y0047181D01*
X0156468Y0047086D01*
X0156546Y0046988D01*
X0156620Y0046888D01*
X0156691Y0046786D01*
X0156758Y0046682D01*
X0156822Y0046575D01*
X0156883Y0046466D01*
X0156940Y0046356D01*
X0156994Y0046244D01*
X0157044Y0046130D01*
X0157091Y0046015D01*
X0157133Y0045898D01*
X0157172Y0045780D01*
X0157208Y0045660D01*
X0157239Y0045540D01*
X0157266Y0045419D01*
X0157290Y0045297D01*
X0157310Y0045174D01*
X0157326Y0045050D01*
X0157338Y0044927D01*
X0157346Y0044803D01*
X0157350Y0044678D01*
X0157350Y0044554D01*
X0157346Y0044429D01*
X0157338Y0044305D01*
X0157326Y0044182D01*
X0157310Y0044058D01*
X0157290Y0043935D01*
X0157266Y0043813D01*
X0157239Y0043692D01*
X0157208Y0043572D01*
X0157172Y0043452D01*
X0157133Y0043334D01*
X0157091Y0043217D01*
X0157044Y0043102D01*
X0156994Y0042988D01*
X0156940Y0042876D01*
X0156883Y0042766D01*
X0156822Y0042657D01*
X0156758Y0042550D01*
X0156691Y0042446D01*
X0156620Y0042344D01*
X0156546Y0042244D01*
X0156468Y0042146D01*
X0156388Y0042051D01*
X0156305Y0041959D01*
X0156219Y0041869D01*
X0156130Y0041782D01*
X0156038Y0041698D01*
X0155944Y0041617D01*
X0155847Y0041539D01*
X0155747Y0041464D01*
X0155646Y0041393D01*
X0155542Y0041324D01*
X0155436Y0041259D01*
X0155328Y0041198D01*
X0155218Y0041140D01*
X0155106Y0041085D01*
X0154993Y0041034D01*
X0154878Y0040987D01*
X0154761Y0040943D01*
X0154643Y0040903D01*
X0154524Y0040867D01*
X0154404Y0040835D01*
X0154283Y0040806D01*
X0154161Y0040781D01*
X0154039Y0040761D01*
X0153915Y0040744D01*
X0153792Y0040731D01*
X0153668Y0040722D01*
X0153543Y0040717D01*
X0153419Y0040716D01*
X0153295Y0040719D01*
X0153170Y0040726D01*
X0153046Y0040737D01*
X0152923Y0040752D01*
X0152800Y0040771D01*
X0152678Y0040793D01*
X0152556Y0040820D01*
X0152436Y0040850D01*
X0152316Y0040884D01*
X0152198Y0040923D01*
X0152080Y0040964D01*
X0151965Y0041010D01*
X0151850Y0041059D01*
X0151738Y0041112D01*
X0151627Y0041168D01*
X0151518Y0041228D01*
X0151411Y0041292D01*
X0151306Y0041358D01*
X0151203Y0041428D01*
X0151103Y0041502D01*
X0151005Y0041578D01*
X0150909Y0041657D01*
X0150816Y0041740D01*
X0150725Y0041825D01*
X0150638Y0041914D01*
X0150553Y0042005D01*
X0150471Y0042099D01*
X0150393Y0042195D01*
X0150317Y0042294D01*
X0150244Y0042395D01*
X0150175Y0042498D01*
X0150109Y0042604D01*
X0150047Y0042711D01*
X0149988Y0042821D01*
X0149932Y0042932D01*
X0149880Y0043045D01*
X0149832Y0043160D01*
X0149788Y0043276D01*
X0149747Y0043393D01*
X0149710Y0043512D01*
X0149676Y0043632D01*
X0149647Y0043752D01*
X0149621Y0043874D01*
X0149599Y0043997D01*
X0149582Y0044120D01*
X0149568Y0044243D01*
X0149558Y0044367D01*
X0149552Y0044492D01*
X0149550Y0044616D01*
X0149450Y0040616D02*
X0157450Y0048616D01*
X0147988Y0049928D02*
X0147990Y0050052D01*
X0147996Y0050177D01*
X0148006Y0050301D01*
X0148020Y0050424D01*
X0148037Y0050547D01*
X0148059Y0050670D01*
X0148085Y0050792D01*
X0148114Y0050912D01*
X0148148Y0051032D01*
X0148185Y0051151D01*
X0148226Y0051268D01*
X0148270Y0051384D01*
X0148318Y0051499D01*
X0148370Y0051612D01*
X0148426Y0051723D01*
X0148485Y0051833D01*
X0148547Y0051940D01*
X0148613Y0052046D01*
X0148682Y0052149D01*
X0148755Y0052250D01*
X0148831Y0052349D01*
X0148909Y0052445D01*
X0148991Y0052539D01*
X0149076Y0052630D01*
X0149163Y0052719D01*
X0149254Y0052804D01*
X0149347Y0052887D01*
X0149443Y0052966D01*
X0149541Y0053042D01*
X0149641Y0053116D01*
X0149744Y0053186D01*
X0149849Y0053252D01*
X0149956Y0053316D01*
X0150065Y0053376D01*
X0150176Y0053432D01*
X0150288Y0053485D01*
X0150403Y0053534D01*
X0150518Y0053580D01*
X0150636Y0053621D01*
X0150754Y0053660D01*
X0150874Y0053694D01*
X0150994Y0053724D01*
X0151116Y0053751D01*
X0151238Y0053773D01*
X0151361Y0053792D01*
X0151484Y0053807D01*
X0151608Y0053818D01*
X0151733Y0053825D01*
X0151857Y0053828D01*
X0151981Y0053827D01*
X0152106Y0053822D01*
X0152230Y0053813D01*
X0152353Y0053800D01*
X0152477Y0053783D01*
X0152599Y0053763D01*
X0152721Y0053738D01*
X0152842Y0053709D01*
X0152962Y0053677D01*
X0153081Y0053641D01*
X0153199Y0053601D01*
X0153316Y0053557D01*
X0153431Y0053510D01*
X0153544Y0053459D01*
X0153656Y0053404D01*
X0153766Y0053346D01*
X0153874Y0053285D01*
X0153980Y0053220D01*
X0154084Y0053151D01*
X0154185Y0053080D01*
X0154285Y0053005D01*
X0154382Y0052927D01*
X0154476Y0052846D01*
X0154568Y0052762D01*
X0154657Y0052675D01*
X0154743Y0052585D01*
X0154826Y0052493D01*
X0154906Y0052398D01*
X0154984Y0052300D01*
X0155058Y0052200D01*
X0155129Y0052098D01*
X0155196Y0051994D01*
X0155260Y0051887D01*
X0155321Y0051778D01*
X0155378Y0051668D01*
X0155432Y0051556D01*
X0155482Y0051442D01*
X0155529Y0051327D01*
X0155571Y0051210D01*
X0155610Y0051092D01*
X0155646Y0050972D01*
X0155677Y0050852D01*
X0155704Y0050731D01*
X0155728Y0050609D01*
X0155748Y0050486D01*
X0155764Y0050362D01*
X0155776Y0050239D01*
X0155784Y0050115D01*
X0155788Y0049990D01*
X0155788Y0049866D01*
X0155784Y0049741D01*
X0155776Y0049617D01*
X0155764Y0049494D01*
X0155748Y0049370D01*
X0155728Y0049247D01*
X0155704Y0049125D01*
X0155677Y0049004D01*
X0155646Y0048884D01*
X0155610Y0048764D01*
X0155571Y0048646D01*
X0155529Y0048529D01*
X0155482Y0048414D01*
X0155432Y0048300D01*
X0155378Y0048188D01*
X0155321Y0048078D01*
X0155260Y0047969D01*
X0155196Y0047862D01*
X0155129Y0047758D01*
X0155058Y0047656D01*
X0154984Y0047556D01*
X0154906Y0047458D01*
X0154826Y0047363D01*
X0154743Y0047271D01*
X0154657Y0047181D01*
X0154568Y0047094D01*
X0154476Y0047010D01*
X0154382Y0046929D01*
X0154285Y0046851D01*
X0154185Y0046776D01*
X0154084Y0046705D01*
X0153980Y0046636D01*
X0153874Y0046571D01*
X0153766Y0046510D01*
X0153656Y0046452D01*
X0153544Y0046397D01*
X0153431Y0046346D01*
X0153316Y0046299D01*
X0153199Y0046255D01*
X0153081Y0046215D01*
X0152962Y0046179D01*
X0152842Y0046147D01*
X0152721Y0046118D01*
X0152599Y0046093D01*
X0152477Y0046073D01*
X0152353Y0046056D01*
X0152230Y0046043D01*
X0152106Y0046034D01*
X0151981Y0046029D01*
X0151857Y0046028D01*
X0151733Y0046031D01*
X0151608Y0046038D01*
X0151484Y0046049D01*
X0151361Y0046064D01*
X0151238Y0046083D01*
X0151116Y0046105D01*
X0150994Y0046132D01*
X0150874Y0046162D01*
X0150754Y0046196D01*
X0150636Y0046235D01*
X0150518Y0046276D01*
X0150403Y0046322D01*
X0150288Y0046371D01*
X0150176Y0046424D01*
X0150065Y0046480D01*
X0149956Y0046540D01*
X0149849Y0046604D01*
X0149744Y0046670D01*
X0149641Y0046740D01*
X0149541Y0046814D01*
X0149443Y0046890D01*
X0149347Y0046969D01*
X0149254Y0047052D01*
X0149163Y0047137D01*
X0149076Y0047226D01*
X0148991Y0047317D01*
X0148909Y0047411D01*
X0148831Y0047507D01*
X0148755Y0047606D01*
X0148682Y0047707D01*
X0148613Y0047810D01*
X0148547Y0047916D01*
X0148485Y0048023D01*
X0148426Y0048133D01*
X0148370Y0048244D01*
X0148318Y0048357D01*
X0148270Y0048472D01*
X0148226Y0048588D01*
X0148185Y0048705D01*
X0148148Y0048824D01*
X0148114Y0048944D01*
X0148085Y0049064D01*
X0148059Y0049186D01*
X0148037Y0049309D01*
X0148020Y0049432D01*
X0148006Y0049555D01*
X0147996Y0049679D01*
X0147990Y0049804D01*
X0147988Y0049928D01*
X0147888Y0045928D02*
X0155888Y0053928D01*
X0143613Y0055241D02*
X0143615Y0055365D01*
X0143621Y0055490D01*
X0143631Y0055614D01*
X0143645Y0055737D01*
X0143662Y0055860D01*
X0143684Y0055983D01*
X0143710Y0056105D01*
X0143739Y0056225D01*
X0143773Y0056345D01*
X0143810Y0056464D01*
X0143851Y0056581D01*
X0143895Y0056697D01*
X0143943Y0056812D01*
X0143995Y0056925D01*
X0144051Y0057036D01*
X0144110Y0057146D01*
X0144172Y0057253D01*
X0144238Y0057359D01*
X0144307Y0057462D01*
X0144380Y0057563D01*
X0144456Y0057662D01*
X0144534Y0057758D01*
X0144616Y0057852D01*
X0144701Y0057943D01*
X0144788Y0058032D01*
X0144879Y0058117D01*
X0144972Y0058200D01*
X0145068Y0058279D01*
X0145166Y0058355D01*
X0145266Y0058429D01*
X0145369Y0058499D01*
X0145474Y0058565D01*
X0145581Y0058629D01*
X0145690Y0058689D01*
X0145801Y0058745D01*
X0145913Y0058798D01*
X0146028Y0058847D01*
X0146143Y0058893D01*
X0146261Y0058934D01*
X0146379Y0058973D01*
X0146499Y0059007D01*
X0146619Y0059037D01*
X0146741Y0059064D01*
X0146863Y0059086D01*
X0146986Y0059105D01*
X0147109Y0059120D01*
X0147233Y0059131D01*
X0147358Y0059138D01*
X0147482Y0059141D01*
X0147606Y0059140D01*
X0147731Y0059135D01*
X0147855Y0059126D01*
X0147978Y0059113D01*
X0148102Y0059096D01*
X0148224Y0059076D01*
X0148346Y0059051D01*
X0148467Y0059022D01*
X0148587Y0058990D01*
X0148706Y0058954D01*
X0148824Y0058914D01*
X0148941Y0058870D01*
X0149056Y0058823D01*
X0149169Y0058772D01*
X0149281Y0058717D01*
X0149391Y0058659D01*
X0149499Y0058598D01*
X0149605Y0058533D01*
X0149709Y0058464D01*
X0149810Y0058393D01*
X0149910Y0058318D01*
X0150007Y0058240D01*
X0150101Y0058159D01*
X0150193Y0058075D01*
X0150282Y0057988D01*
X0150368Y0057898D01*
X0150451Y0057806D01*
X0150531Y0057711D01*
X0150609Y0057613D01*
X0150683Y0057513D01*
X0150754Y0057411D01*
X0150821Y0057307D01*
X0150885Y0057200D01*
X0150946Y0057091D01*
X0151003Y0056981D01*
X0151057Y0056869D01*
X0151107Y0056755D01*
X0151154Y0056640D01*
X0151196Y0056523D01*
X0151235Y0056405D01*
X0151271Y0056285D01*
X0151302Y0056165D01*
X0151329Y0056044D01*
X0151353Y0055922D01*
X0151373Y0055799D01*
X0151389Y0055675D01*
X0151401Y0055552D01*
X0151409Y0055428D01*
X0151413Y0055303D01*
X0151413Y0055179D01*
X0151409Y0055054D01*
X0151401Y0054930D01*
X0151389Y0054807D01*
X0151373Y0054683D01*
X0151353Y0054560D01*
X0151329Y0054438D01*
X0151302Y0054317D01*
X0151271Y0054197D01*
X0151235Y0054077D01*
X0151196Y0053959D01*
X0151154Y0053842D01*
X0151107Y0053727D01*
X0151057Y0053613D01*
X0151003Y0053501D01*
X0150946Y0053391D01*
X0150885Y0053282D01*
X0150821Y0053175D01*
X0150754Y0053071D01*
X0150683Y0052969D01*
X0150609Y0052869D01*
X0150531Y0052771D01*
X0150451Y0052676D01*
X0150368Y0052584D01*
X0150282Y0052494D01*
X0150193Y0052407D01*
X0150101Y0052323D01*
X0150007Y0052242D01*
X0149910Y0052164D01*
X0149810Y0052089D01*
X0149709Y0052018D01*
X0149605Y0051949D01*
X0149499Y0051884D01*
X0149391Y0051823D01*
X0149281Y0051765D01*
X0149169Y0051710D01*
X0149056Y0051659D01*
X0148941Y0051612D01*
X0148824Y0051568D01*
X0148706Y0051528D01*
X0148587Y0051492D01*
X0148467Y0051460D01*
X0148346Y0051431D01*
X0148224Y0051406D01*
X0148102Y0051386D01*
X0147978Y0051369D01*
X0147855Y0051356D01*
X0147731Y0051347D01*
X0147606Y0051342D01*
X0147482Y0051341D01*
X0147358Y0051344D01*
X0147233Y0051351D01*
X0147109Y0051362D01*
X0146986Y0051377D01*
X0146863Y0051396D01*
X0146741Y0051418D01*
X0146619Y0051445D01*
X0146499Y0051475D01*
X0146379Y0051509D01*
X0146261Y0051548D01*
X0146143Y0051589D01*
X0146028Y0051635D01*
X0145913Y0051684D01*
X0145801Y0051737D01*
X0145690Y0051793D01*
X0145581Y0051853D01*
X0145474Y0051917D01*
X0145369Y0051983D01*
X0145266Y0052053D01*
X0145166Y0052127D01*
X0145068Y0052203D01*
X0144972Y0052282D01*
X0144879Y0052365D01*
X0144788Y0052450D01*
X0144701Y0052539D01*
X0144616Y0052630D01*
X0144534Y0052724D01*
X0144456Y0052820D01*
X0144380Y0052919D01*
X0144307Y0053020D01*
X0144238Y0053123D01*
X0144172Y0053229D01*
X0144110Y0053336D01*
X0144051Y0053446D01*
X0143995Y0053557D01*
X0143943Y0053670D01*
X0143895Y0053785D01*
X0143851Y0053901D01*
X0143810Y0054018D01*
X0143773Y0054137D01*
X0143739Y0054257D01*
X0143710Y0054377D01*
X0143684Y0054499D01*
X0143662Y0054622D01*
X0143645Y0054745D01*
X0143631Y0054868D01*
X0143621Y0054992D01*
X0143615Y0055117D01*
X0143613Y0055241D01*
X0143513Y0051241D02*
X0151513Y0059241D01*
X0137988Y0055241D02*
X0137990Y0055365D01*
X0137996Y0055490D01*
X0138006Y0055614D01*
X0138020Y0055737D01*
X0138037Y0055860D01*
X0138059Y0055983D01*
X0138085Y0056105D01*
X0138114Y0056225D01*
X0138148Y0056345D01*
X0138185Y0056464D01*
X0138226Y0056581D01*
X0138270Y0056697D01*
X0138318Y0056812D01*
X0138370Y0056925D01*
X0138426Y0057036D01*
X0138485Y0057146D01*
X0138547Y0057253D01*
X0138613Y0057359D01*
X0138682Y0057462D01*
X0138755Y0057563D01*
X0138831Y0057662D01*
X0138909Y0057758D01*
X0138991Y0057852D01*
X0139076Y0057943D01*
X0139163Y0058032D01*
X0139254Y0058117D01*
X0139347Y0058200D01*
X0139443Y0058279D01*
X0139541Y0058355D01*
X0139641Y0058429D01*
X0139744Y0058499D01*
X0139849Y0058565D01*
X0139956Y0058629D01*
X0140065Y0058689D01*
X0140176Y0058745D01*
X0140288Y0058798D01*
X0140403Y0058847D01*
X0140518Y0058893D01*
X0140636Y0058934D01*
X0140754Y0058973D01*
X0140874Y0059007D01*
X0140994Y0059037D01*
X0141116Y0059064D01*
X0141238Y0059086D01*
X0141361Y0059105D01*
X0141484Y0059120D01*
X0141608Y0059131D01*
X0141733Y0059138D01*
X0141857Y0059141D01*
X0141981Y0059140D01*
X0142106Y0059135D01*
X0142230Y0059126D01*
X0142353Y0059113D01*
X0142477Y0059096D01*
X0142599Y0059076D01*
X0142721Y0059051D01*
X0142842Y0059022D01*
X0142962Y0058990D01*
X0143081Y0058954D01*
X0143199Y0058914D01*
X0143316Y0058870D01*
X0143431Y0058823D01*
X0143544Y0058772D01*
X0143656Y0058717D01*
X0143766Y0058659D01*
X0143874Y0058598D01*
X0143980Y0058533D01*
X0144084Y0058464D01*
X0144185Y0058393D01*
X0144285Y0058318D01*
X0144382Y0058240D01*
X0144476Y0058159D01*
X0144568Y0058075D01*
X0144657Y0057988D01*
X0144743Y0057898D01*
X0144826Y0057806D01*
X0144906Y0057711D01*
X0144984Y0057613D01*
X0145058Y0057513D01*
X0145129Y0057411D01*
X0145196Y0057307D01*
X0145260Y0057200D01*
X0145321Y0057091D01*
X0145378Y0056981D01*
X0145432Y0056869D01*
X0145482Y0056755D01*
X0145529Y0056640D01*
X0145571Y0056523D01*
X0145610Y0056405D01*
X0145646Y0056285D01*
X0145677Y0056165D01*
X0145704Y0056044D01*
X0145728Y0055922D01*
X0145748Y0055799D01*
X0145764Y0055675D01*
X0145776Y0055552D01*
X0145784Y0055428D01*
X0145788Y0055303D01*
X0145788Y0055179D01*
X0145784Y0055054D01*
X0145776Y0054930D01*
X0145764Y0054807D01*
X0145748Y0054683D01*
X0145728Y0054560D01*
X0145704Y0054438D01*
X0145677Y0054317D01*
X0145646Y0054197D01*
X0145610Y0054077D01*
X0145571Y0053959D01*
X0145529Y0053842D01*
X0145482Y0053727D01*
X0145432Y0053613D01*
X0145378Y0053501D01*
X0145321Y0053391D01*
X0145260Y0053282D01*
X0145196Y0053175D01*
X0145129Y0053071D01*
X0145058Y0052969D01*
X0144984Y0052869D01*
X0144906Y0052771D01*
X0144826Y0052676D01*
X0144743Y0052584D01*
X0144657Y0052494D01*
X0144568Y0052407D01*
X0144476Y0052323D01*
X0144382Y0052242D01*
X0144285Y0052164D01*
X0144185Y0052089D01*
X0144084Y0052018D01*
X0143980Y0051949D01*
X0143874Y0051884D01*
X0143766Y0051823D01*
X0143656Y0051765D01*
X0143544Y0051710D01*
X0143431Y0051659D01*
X0143316Y0051612D01*
X0143199Y0051568D01*
X0143081Y0051528D01*
X0142962Y0051492D01*
X0142842Y0051460D01*
X0142721Y0051431D01*
X0142599Y0051406D01*
X0142477Y0051386D01*
X0142353Y0051369D01*
X0142230Y0051356D01*
X0142106Y0051347D01*
X0141981Y0051342D01*
X0141857Y0051341D01*
X0141733Y0051344D01*
X0141608Y0051351D01*
X0141484Y0051362D01*
X0141361Y0051377D01*
X0141238Y0051396D01*
X0141116Y0051418D01*
X0140994Y0051445D01*
X0140874Y0051475D01*
X0140754Y0051509D01*
X0140636Y0051548D01*
X0140518Y0051589D01*
X0140403Y0051635D01*
X0140288Y0051684D01*
X0140176Y0051737D01*
X0140065Y0051793D01*
X0139956Y0051853D01*
X0139849Y0051917D01*
X0139744Y0051983D01*
X0139641Y0052053D01*
X0139541Y0052127D01*
X0139443Y0052203D01*
X0139347Y0052282D01*
X0139254Y0052365D01*
X0139163Y0052450D01*
X0139076Y0052539D01*
X0138991Y0052630D01*
X0138909Y0052724D01*
X0138831Y0052820D01*
X0138755Y0052919D01*
X0138682Y0053020D01*
X0138613Y0053123D01*
X0138547Y0053229D01*
X0138485Y0053336D01*
X0138426Y0053446D01*
X0138370Y0053557D01*
X0138318Y0053670D01*
X0138270Y0053785D01*
X0138226Y0053901D01*
X0138185Y0054018D01*
X0138148Y0054137D01*
X0138114Y0054257D01*
X0138085Y0054377D01*
X0138059Y0054499D01*
X0138037Y0054622D01*
X0138020Y0054745D01*
X0138006Y0054868D01*
X0137996Y0054992D01*
X0137990Y0055117D01*
X0137988Y0055241D01*
X0137888Y0051241D02*
X0145888Y0059241D01*
X0137675Y0050553D02*
X0137677Y0050677D01*
X0137683Y0050802D01*
X0137693Y0050926D01*
X0137707Y0051049D01*
X0137724Y0051172D01*
X0137746Y0051295D01*
X0137772Y0051417D01*
X0137801Y0051537D01*
X0137835Y0051657D01*
X0137872Y0051776D01*
X0137913Y0051893D01*
X0137957Y0052009D01*
X0138005Y0052124D01*
X0138057Y0052237D01*
X0138113Y0052348D01*
X0138172Y0052458D01*
X0138234Y0052565D01*
X0138300Y0052671D01*
X0138369Y0052774D01*
X0138442Y0052875D01*
X0138518Y0052974D01*
X0138596Y0053070D01*
X0138678Y0053164D01*
X0138763Y0053255D01*
X0138850Y0053344D01*
X0138941Y0053429D01*
X0139034Y0053512D01*
X0139130Y0053591D01*
X0139228Y0053667D01*
X0139328Y0053741D01*
X0139431Y0053811D01*
X0139536Y0053877D01*
X0139643Y0053941D01*
X0139752Y0054001D01*
X0139863Y0054057D01*
X0139975Y0054110D01*
X0140090Y0054159D01*
X0140205Y0054205D01*
X0140323Y0054246D01*
X0140441Y0054285D01*
X0140561Y0054319D01*
X0140681Y0054349D01*
X0140803Y0054376D01*
X0140925Y0054398D01*
X0141048Y0054417D01*
X0141171Y0054432D01*
X0141295Y0054443D01*
X0141420Y0054450D01*
X0141544Y0054453D01*
X0141668Y0054452D01*
X0141793Y0054447D01*
X0141917Y0054438D01*
X0142040Y0054425D01*
X0142164Y0054408D01*
X0142286Y0054388D01*
X0142408Y0054363D01*
X0142529Y0054334D01*
X0142649Y0054302D01*
X0142768Y0054266D01*
X0142886Y0054226D01*
X0143003Y0054182D01*
X0143118Y0054135D01*
X0143231Y0054084D01*
X0143343Y0054029D01*
X0143453Y0053971D01*
X0143561Y0053910D01*
X0143667Y0053845D01*
X0143771Y0053776D01*
X0143872Y0053705D01*
X0143972Y0053630D01*
X0144069Y0053552D01*
X0144163Y0053471D01*
X0144255Y0053387D01*
X0144344Y0053300D01*
X0144430Y0053210D01*
X0144513Y0053118D01*
X0144593Y0053023D01*
X0144671Y0052925D01*
X0144745Y0052825D01*
X0144816Y0052723D01*
X0144883Y0052619D01*
X0144947Y0052512D01*
X0145008Y0052403D01*
X0145065Y0052293D01*
X0145119Y0052181D01*
X0145169Y0052067D01*
X0145216Y0051952D01*
X0145258Y0051835D01*
X0145297Y0051717D01*
X0145333Y0051597D01*
X0145364Y0051477D01*
X0145391Y0051356D01*
X0145415Y0051234D01*
X0145435Y0051111D01*
X0145451Y0050987D01*
X0145463Y0050864D01*
X0145471Y0050740D01*
X0145475Y0050615D01*
X0145475Y0050491D01*
X0145471Y0050366D01*
X0145463Y0050242D01*
X0145451Y0050119D01*
X0145435Y0049995D01*
X0145415Y0049872D01*
X0145391Y0049750D01*
X0145364Y0049629D01*
X0145333Y0049509D01*
X0145297Y0049389D01*
X0145258Y0049271D01*
X0145216Y0049154D01*
X0145169Y0049039D01*
X0145119Y0048925D01*
X0145065Y0048813D01*
X0145008Y0048703D01*
X0144947Y0048594D01*
X0144883Y0048487D01*
X0144816Y0048383D01*
X0144745Y0048281D01*
X0144671Y0048181D01*
X0144593Y0048083D01*
X0144513Y0047988D01*
X0144430Y0047896D01*
X0144344Y0047806D01*
X0144255Y0047719D01*
X0144163Y0047635D01*
X0144069Y0047554D01*
X0143972Y0047476D01*
X0143872Y0047401D01*
X0143771Y0047330D01*
X0143667Y0047261D01*
X0143561Y0047196D01*
X0143453Y0047135D01*
X0143343Y0047077D01*
X0143231Y0047022D01*
X0143118Y0046971D01*
X0143003Y0046924D01*
X0142886Y0046880D01*
X0142768Y0046840D01*
X0142649Y0046804D01*
X0142529Y0046772D01*
X0142408Y0046743D01*
X0142286Y0046718D01*
X0142164Y0046698D01*
X0142040Y0046681D01*
X0141917Y0046668D01*
X0141793Y0046659D01*
X0141668Y0046654D01*
X0141544Y0046653D01*
X0141420Y0046656D01*
X0141295Y0046663D01*
X0141171Y0046674D01*
X0141048Y0046689D01*
X0140925Y0046708D01*
X0140803Y0046730D01*
X0140681Y0046757D01*
X0140561Y0046787D01*
X0140441Y0046821D01*
X0140323Y0046860D01*
X0140205Y0046901D01*
X0140090Y0046947D01*
X0139975Y0046996D01*
X0139863Y0047049D01*
X0139752Y0047105D01*
X0139643Y0047165D01*
X0139536Y0047229D01*
X0139431Y0047295D01*
X0139328Y0047365D01*
X0139228Y0047439D01*
X0139130Y0047515D01*
X0139034Y0047594D01*
X0138941Y0047677D01*
X0138850Y0047762D01*
X0138763Y0047851D01*
X0138678Y0047942D01*
X0138596Y0048036D01*
X0138518Y0048132D01*
X0138442Y0048231D01*
X0138369Y0048332D01*
X0138300Y0048435D01*
X0138234Y0048541D01*
X0138172Y0048648D01*
X0138113Y0048758D01*
X0138057Y0048869D01*
X0138005Y0048982D01*
X0137957Y0049097D01*
X0137913Y0049213D01*
X0137872Y0049330D01*
X0137835Y0049449D01*
X0137801Y0049569D01*
X0137772Y0049689D01*
X0137746Y0049811D01*
X0137724Y0049934D01*
X0137707Y0050057D01*
X0137693Y0050180D01*
X0137683Y0050304D01*
X0137677Y0050429D01*
X0137675Y0050553D01*
X0137575Y0046553D02*
X0145575Y0054553D01*
X0127050Y0060241D02*
X0127052Y0060365D01*
X0127058Y0060490D01*
X0127068Y0060614D01*
X0127082Y0060737D01*
X0127099Y0060860D01*
X0127121Y0060983D01*
X0127147Y0061105D01*
X0127176Y0061225D01*
X0127210Y0061345D01*
X0127247Y0061464D01*
X0127288Y0061581D01*
X0127332Y0061697D01*
X0127380Y0061812D01*
X0127432Y0061925D01*
X0127488Y0062036D01*
X0127547Y0062146D01*
X0127609Y0062253D01*
X0127675Y0062359D01*
X0127744Y0062462D01*
X0127817Y0062563D01*
X0127893Y0062662D01*
X0127971Y0062758D01*
X0128053Y0062852D01*
X0128138Y0062943D01*
X0128225Y0063032D01*
X0128316Y0063117D01*
X0128409Y0063200D01*
X0128505Y0063279D01*
X0128603Y0063355D01*
X0128703Y0063429D01*
X0128806Y0063499D01*
X0128911Y0063565D01*
X0129018Y0063629D01*
X0129127Y0063689D01*
X0129238Y0063745D01*
X0129350Y0063798D01*
X0129465Y0063847D01*
X0129580Y0063893D01*
X0129698Y0063934D01*
X0129816Y0063973D01*
X0129936Y0064007D01*
X0130056Y0064037D01*
X0130178Y0064064D01*
X0130300Y0064086D01*
X0130423Y0064105D01*
X0130546Y0064120D01*
X0130670Y0064131D01*
X0130795Y0064138D01*
X0130919Y0064141D01*
X0131043Y0064140D01*
X0131168Y0064135D01*
X0131292Y0064126D01*
X0131415Y0064113D01*
X0131539Y0064096D01*
X0131661Y0064076D01*
X0131783Y0064051D01*
X0131904Y0064022D01*
X0132024Y0063990D01*
X0132143Y0063954D01*
X0132261Y0063914D01*
X0132378Y0063870D01*
X0132493Y0063823D01*
X0132606Y0063772D01*
X0132718Y0063717D01*
X0132828Y0063659D01*
X0132936Y0063598D01*
X0133042Y0063533D01*
X0133146Y0063464D01*
X0133247Y0063393D01*
X0133347Y0063318D01*
X0133444Y0063240D01*
X0133538Y0063159D01*
X0133630Y0063075D01*
X0133719Y0062988D01*
X0133805Y0062898D01*
X0133888Y0062806D01*
X0133968Y0062711D01*
X0134046Y0062613D01*
X0134120Y0062513D01*
X0134191Y0062411D01*
X0134258Y0062307D01*
X0134322Y0062200D01*
X0134383Y0062091D01*
X0134440Y0061981D01*
X0134494Y0061869D01*
X0134544Y0061755D01*
X0134591Y0061640D01*
X0134633Y0061523D01*
X0134672Y0061405D01*
X0134708Y0061285D01*
X0134739Y0061165D01*
X0134766Y0061044D01*
X0134790Y0060922D01*
X0134810Y0060799D01*
X0134826Y0060675D01*
X0134838Y0060552D01*
X0134846Y0060428D01*
X0134850Y0060303D01*
X0134850Y0060179D01*
X0134846Y0060054D01*
X0134838Y0059930D01*
X0134826Y0059807D01*
X0134810Y0059683D01*
X0134790Y0059560D01*
X0134766Y0059438D01*
X0134739Y0059317D01*
X0134708Y0059197D01*
X0134672Y0059077D01*
X0134633Y0058959D01*
X0134591Y0058842D01*
X0134544Y0058727D01*
X0134494Y0058613D01*
X0134440Y0058501D01*
X0134383Y0058391D01*
X0134322Y0058282D01*
X0134258Y0058175D01*
X0134191Y0058071D01*
X0134120Y0057969D01*
X0134046Y0057869D01*
X0133968Y0057771D01*
X0133888Y0057676D01*
X0133805Y0057584D01*
X0133719Y0057494D01*
X0133630Y0057407D01*
X0133538Y0057323D01*
X0133444Y0057242D01*
X0133347Y0057164D01*
X0133247Y0057089D01*
X0133146Y0057018D01*
X0133042Y0056949D01*
X0132936Y0056884D01*
X0132828Y0056823D01*
X0132718Y0056765D01*
X0132606Y0056710D01*
X0132493Y0056659D01*
X0132378Y0056612D01*
X0132261Y0056568D01*
X0132143Y0056528D01*
X0132024Y0056492D01*
X0131904Y0056460D01*
X0131783Y0056431D01*
X0131661Y0056406D01*
X0131539Y0056386D01*
X0131415Y0056369D01*
X0131292Y0056356D01*
X0131168Y0056347D01*
X0131043Y0056342D01*
X0130919Y0056341D01*
X0130795Y0056344D01*
X0130670Y0056351D01*
X0130546Y0056362D01*
X0130423Y0056377D01*
X0130300Y0056396D01*
X0130178Y0056418D01*
X0130056Y0056445D01*
X0129936Y0056475D01*
X0129816Y0056509D01*
X0129698Y0056548D01*
X0129580Y0056589D01*
X0129465Y0056635D01*
X0129350Y0056684D01*
X0129238Y0056737D01*
X0129127Y0056793D01*
X0129018Y0056853D01*
X0128911Y0056917D01*
X0128806Y0056983D01*
X0128703Y0057053D01*
X0128603Y0057127D01*
X0128505Y0057203D01*
X0128409Y0057282D01*
X0128316Y0057365D01*
X0128225Y0057450D01*
X0128138Y0057539D01*
X0128053Y0057630D01*
X0127971Y0057724D01*
X0127893Y0057820D01*
X0127817Y0057919D01*
X0127744Y0058020D01*
X0127675Y0058123D01*
X0127609Y0058229D01*
X0127547Y0058336D01*
X0127488Y0058446D01*
X0127432Y0058557D01*
X0127380Y0058670D01*
X0127332Y0058785D01*
X0127288Y0058901D01*
X0127247Y0059018D01*
X0127210Y0059137D01*
X0127176Y0059257D01*
X0127147Y0059377D01*
X0127121Y0059499D01*
X0127099Y0059622D01*
X0127082Y0059745D01*
X0127068Y0059868D01*
X0127058Y0059992D01*
X0127052Y0060117D01*
X0127050Y0060241D01*
X0126950Y0056241D02*
X0134950Y0064241D01*
X0127050Y0064303D02*
X0127052Y0064427D01*
X0127058Y0064552D01*
X0127068Y0064676D01*
X0127082Y0064799D01*
X0127099Y0064922D01*
X0127121Y0065045D01*
X0127147Y0065167D01*
X0127176Y0065287D01*
X0127210Y0065407D01*
X0127247Y0065526D01*
X0127288Y0065643D01*
X0127332Y0065759D01*
X0127380Y0065874D01*
X0127432Y0065987D01*
X0127488Y0066098D01*
X0127547Y0066208D01*
X0127609Y0066315D01*
X0127675Y0066421D01*
X0127744Y0066524D01*
X0127817Y0066625D01*
X0127893Y0066724D01*
X0127971Y0066820D01*
X0128053Y0066914D01*
X0128138Y0067005D01*
X0128225Y0067094D01*
X0128316Y0067179D01*
X0128409Y0067262D01*
X0128505Y0067341D01*
X0128603Y0067417D01*
X0128703Y0067491D01*
X0128806Y0067561D01*
X0128911Y0067627D01*
X0129018Y0067691D01*
X0129127Y0067751D01*
X0129238Y0067807D01*
X0129350Y0067860D01*
X0129465Y0067909D01*
X0129580Y0067955D01*
X0129698Y0067996D01*
X0129816Y0068035D01*
X0129936Y0068069D01*
X0130056Y0068099D01*
X0130178Y0068126D01*
X0130300Y0068148D01*
X0130423Y0068167D01*
X0130546Y0068182D01*
X0130670Y0068193D01*
X0130795Y0068200D01*
X0130919Y0068203D01*
X0131043Y0068202D01*
X0131168Y0068197D01*
X0131292Y0068188D01*
X0131415Y0068175D01*
X0131539Y0068158D01*
X0131661Y0068138D01*
X0131783Y0068113D01*
X0131904Y0068084D01*
X0132024Y0068052D01*
X0132143Y0068016D01*
X0132261Y0067976D01*
X0132378Y0067932D01*
X0132493Y0067885D01*
X0132606Y0067834D01*
X0132718Y0067779D01*
X0132828Y0067721D01*
X0132936Y0067660D01*
X0133042Y0067595D01*
X0133146Y0067526D01*
X0133247Y0067455D01*
X0133347Y0067380D01*
X0133444Y0067302D01*
X0133538Y0067221D01*
X0133630Y0067137D01*
X0133719Y0067050D01*
X0133805Y0066960D01*
X0133888Y0066868D01*
X0133968Y0066773D01*
X0134046Y0066675D01*
X0134120Y0066575D01*
X0134191Y0066473D01*
X0134258Y0066369D01*
X0134322Y0066262D01*
X0134383Y0066153D01*
X0134440Y0066043D01*
X0134494Y0065931D01*
X0134544Y0065817D01*
X0134591Y0065702D01*
X0134633Y0065585D01*
X0134672Y0065467D01*
X0134708Y0065347D01*
X0134739Y0065227D01*
X0134766Y0065106D01*
X0134790Y0064984D01*
X0134810Y0064861D01*
X0134826Y0064737D01*
X0134838Y0064614D01*
X0134846Y0064490D01*
X0134850Y0064365D01*
X0134850Y0064241D01*
X0134846Y0064116D01*
X0134838Y0063992D01*
X0134826Y0063869D01*
X0134810Y0063745D01*
X0134790Y0063622D01*
X0134766Y0063500D01*
X0134739Y0063379D01*
X0134708Y0063259D01*
X0134672Y0063139D01*
X0134633Y0063021D01*
X0134591Y0062904D01*
X0134544Y0062789D01*
X0134494Y0062675D01*
X0134440Y0062563D01*
X0134383Y0062453D01*
X0134322Y0062344D01*
X0134258Y0062237D01*
X0134191Y0062133D01*
X0134120Y0062031D01*
X0134046Y0061931D01*
X0133968Y0061833D01*
X0133888Y0061738D01*
X0133805Y0061646D01*
X0133719Y0061556D01*
X0133630Y0061469D01*
X0133538Y0061385D01*
X0133444Y0061304D01*
X0133347Y0061226D01*
X0133247Y0061151D01*
X0133146Y0061080D01*
X0133042Y0061011D01*
X0132936Y0060946D01*
X0132828Y0060885D01*
X0132718Y0060827D01*
X0132606Y0060772D01*
X0132493Y0060721D01*
X0132378Y0060674D01*
X0132261Y0060630D01*
X0132143Y0060590D01*
X0132024Y0060554D01*
X0131904Y0060522D01*
X0131783Y0060493D01*
X0131661Y0060468D01*
X0131539Y0060448D01*
X0131415Y0060431D01*
X0131292Y0060418D01*
X0131168Y0060409D01*
X0131043Y0060404D01*
X0130919Y0060403D01*
X0130795Y0060406D01*
X0130670Y0060413D01*
X0130546Y0060424D01*
X0130423Y0060439D01*
X0130300Y0060458D01*
X0130178Y0060480D01*
X0130056Y0060507D01*
X0129936Y0060537D01*
X0129816Y0060571D01*
X0129698Y0060610D01*
X0129580Y0060651D01*
X0129465Y0060697D01*
X0129350Y0060746D01*
X0129238Y0060799D01*
X0129127Y0060855D01*
X0129018Y0060915D01*
X0128911Y0060979D01*
X0128806Y0061045D01*
X0128703Y0061115D01*
X0128603Y0061189D01*
X0128505Y0061265D01*
X0128409Y0061344D01*
X0128316Y0061427D01*
X0128225Y0061512D01*
X0128138Y0061601D01*
X0128053Y0061692D01*
X0127971Y0061786D01*
X0127893Y0061882D01*
X0127817Y0061981D01*
X0127744Y0062082D01*
X0127675Y0062185D01*
X0127609Y0062291D01*
X0127547Y0062398D01*
X0127488Y0062508D01*
X0127432Y0062619D01*
X0127380Y0062732D01*
X0127332Y0062847D01*
X0127288Y0062963D01*
X0127247Y0063080D01*
X0127210Y0063199D01*
X0127176Y0063319D01*
X0127147Y0063439D01*
X0127121Y0063561D01*
X0127099Y0063684D01*
X0127082Y0063807D01*
X0127068Y0063930D01*
X0127058Y0064054D01*
X0127052Y0064179D01*
X0127050Y0064303D01*
X0126950Y0060303D02*
X0134950Y0068303D01*
X0127363Y0069928D02*
X0127365Y0070052D01*
X0127371Y0070177D01*
X0127381Y0070301D01*
X0127395Y0070424D01*
X0127412Y0070547D01*
X0127434Y0070670D01*
X0127460Y0070792D01*
X0127489Y0070912D01*
X0127523Y0071032D01*
X0127560Y0071151D01*
X0127601Y0071268D01*
X0127645Y0071384D01*
X0127693Y0071499D01*
X0127745Y0071612D01*
X0127801Y0071723D01*
X0127860Y0071833D01*
X0127922Y0071940D01*
X0127988Y0072046D01*
X0128057Y0072149D01*
X0128130Y0072250D01*
X0128206Y0072349D01*
X0128284Y0072445D01*
X0128366Y0072539D01*
X0128451Y0072630D01*
X0128538Y0072719D01*
X0128629Y0072804D01*
X0128722Y0072887D01*
X0128818Y0072966D01*
X0128916Y0073042D01*
X0129016Y0073116D01*
X0129119Y0073186D01*
X0129224Y0073252D01*
X0129331Y0073316D01*
X0129440Y0073376D01*
X0129551Y0073432D01*
X0129663Y0073485D01*
X0129778Y0073534D01*
X0129893Y0073580D01*
X0130011Y0073621D01*
X0130129Y0073660D01*
X0130249Y0073694D01*
X0130369Y0073724D01*
X0130491Y0073751D01*
X0130613Y0073773D01*
X0130736Y0073792D01*
X0130859Y0073807D01*
X0130983Y0073818D01*
X0131108Y0073825D01*
X0131232Y0073828D01*
X0131356Y0073827D01*
X0131481Y0073822D01*
X0131605Y0073813D01*
X0131728Y0073800D01*
X0131852Y0073783D01*
X0131974Y0073763D01*
X0132096Y0073738D01*
X0132217Y0073709D01*
X0132337Y0073677D01*
X0132456Y0073641D01*
X0132574Y0073601D01*
X0132691Y0073557D01*
X0132806Y0073510D01*
X0132919Y0073459D01*
X0133031Y0073404D01*
X0133141Y0073346D01*
X0133249Y0073285D01*
X0133355Y0073220D01*
X0133459Y0073151D01*
X0133560Y0073080D01*
X0133660Y0073005D01*
X0133757Y0072927D01*
X0133851Y0072846D01*
X0133943Y0072762D01*
X0134032Y0072675D01*
X0134118Y0072585D01*
X0134201Y0072493D01*
X0134281Y0072398D01*
X0134359Y0072300D01*
X0134433Y0072200D01*
X0134504Y0072098D01*
X0134571Y0071994D01*
X0134635Y0071887D01*
X0134696Y0071778D01*
X0134753Y0071668D01*
X0134807Y0071556D01*
X0134857Y0071442D01*
X0134904Y0071327D01*
X0134946Y0071210D01*
X0134985Y0071092D01*
X0135021Y0070972D01*
X0135052Y0070852D01*
X0135079Y0070731D01*
X0135103Y0070609D01*
X0135123Y0070486D01*
X0135139Y0070362D01*
X0135151Y0070239D01*
X0135159Y0070115D01*
X0135163Y0069990D01*
X0135163Y0069866D01*
X0135159Y0069741D01*
X0135151Y0069617D01*
X0135139Y0069494D01*
X0135123Y0069370D01*
X0135103Y0069247D01*
X0135079Y0069125D01*
X0135052Y0069004D01*
X0135021Y0068884D01*
X0134985Y0068764D01*
X0134946Y0068646D01*
X0134904Y0068529D01*
X0134857Y0068414D01*
X0134807Y0068300D01*
X0134753Y0068188D01*
X0134696Y0068078D01*
X0134635Y0067969D01*
X0134571Y0067862D01*
X0134504Y0067758D01*
X0134433Y0067656D01*
X0134359Y0067556D01*
X0134281Y0067458D01*
X0134201Y0067363D01*
X0134118Y0067271D01*
X0134032Y0067181D01*
X0133943Y0067094D01*
X0133851Y0067010D01*
X0133757Y0066929D01*
X0133660Y0066851D01*
X0133560Y0066776D01*
X0133459Y0066705D01*
X0133355Y0066636D01*
X0133249Y0066571D01*
X0133141Y0066510D01*
X0133031Y0066452D01*
X0132919Y0066397D01*
X0132806Y0066346D01*
X0132691Y0066299D01*
X0132574Y0066255D01*
X0132456Y0066215D01*
X0132337Y0066179D01*
X0132217Y0066147D01*
X0132096Y0066118D01*
X0131974Y0066093D01*
X0131852Y0066073D01*
X0131728Y0066056D01*
X0131605Y0066043D01*
X0131481Y0066034D01*
X0131356Y0066029D01*
X0131232Y0066028D01*
X0131108Y0066031D01*
X0130983Y0066038D01*
X0130859Y0066049D01*
X0130736Y0066064D01*
X0130613Y0066083D01*
X0130491Y0066105D01*
X0130369Y0066132D01*
X0130249Y0066162D01*
X0130129Y0066196D01*
X0130011Y0066235D01*
X0129893Y0066276D01*
X0129778Y0066322D01*
X0129663Y0066371D01*
X0129551Y0066424D01*
X0129440Y0066480D01*
X0129331Y0066540D01*
X0129224Y0066604D01*
X0129119Y0066670D01*
X0129016Y0066740D01*
X0128916Y0066814D01*
X0128818Y0066890D01*
X0128722Y0066969D01*
X0128629Y0067052D01*
X0128538Y0067137D01*
X0128451Y0067226D01*
X0128366Y0067317D01*
X0128284Y0067411D01*
X0128206Y0067507D01*
X0128130Y0067606D01*
X0128057Y0067707D01*
X0127988Y0067810D01*
X0127922Y0067916D01*
X0127860Y0068023D01*
X0127801Y0068133D01*
X0127745Y0068244D01*
X0127693Y0068357D01*
X0127645Y0068472D01*
X0127601Y0068588D01*
X0127560Y0068705D01*
X0127523Y0068824D01*
X0127489Y0068944D01*
X0127460Y0069064D01*
X0127434Y0069186D01*
X0127412Y0069309D01*
X0127395Y0069432D01*
X0127381Y0069555D01*
X0127371Y0069679D01*
X0127365Y0069804D01*
X0127363Y0069928D01*
X0127263Y0065928D02*
X0135263Y0073928D01*
X0124238Y0072428D02*
X0124240Y0072552D01*
X0124246Y0072677D01*
X0124256Y0072801D01*
X0124270Y0072924D01*
X0124287Y0073047D01*
X0124309Y0073170D01*
X0124335Y0073292D01*
X0124364Y0073412D01*
X0124398Y0073532D01*
X0124435Y0073651D01*
X0124476Y0073768D01*
X0124520Y0073884D01*
X0124568Y0073999D01*
X0124620Y0074112D01*
X0124676Y0074223D01*
X0124735Y0074333D01*
X0124797Y0074440D01*
X0124863Y0074546D01*
X0124932Y0074649D01*
X0125005Y0074750D01*
X0125081Y0074849D01*
X0125159Y0074945D01*
X0125241Y0075039D01*
X0125326Y0075130D01*
X0125413Y0075219D01*
X0125504Y0075304D01*
X0125597Y0075387D01*
X0125693Y0075466D01*
X0125791Y0075542D01*
X0125891Y0075616D01*
X0125994Y0075686D01*
X0126099Y0075752D01*
X0126206Y0075816D01*
X0126315Y0075876D01*
X0126426Y0075932D01*
X0126538Y0075985D01*
X0126653Y0076034D01*
X0126768Y0076080D01*
X0126886Y0076121D01*
X0127004Y0076160D01*
X0127124Y0076194D01*
X0127244Y0076224D01*
X0127366Y0076251D01*
X0127488Y0076273D01*
X0127611Y0076292D01*
X0127734Y0076307D01*
X0127858Y0076318D01*
X0127983Y0076325D01*
X0128107Y0076328D01*
X0128231Y0076327D01*
X0128356Y0076322D01*
X0128480Y0076313D01*
X0128603Y0076300D01*
X0128727Y0076283D01*
X0128849Y0076263D01*
X0128971Y0076238D01*
X0129092Y0076209D01*
X0129212Y0076177D01*
X0129331Y0076141D01*
X0129449Y0076101D01*
X0129566Y0076057D01*
X0129681Y0076010D01*
X0129794Y0075959D01*
X0129906Y0075904D01*
X0130016Y0075846D01*
X0130124Y0075785D01*
X0130230Y0075720D01*
X0130334Y0075651D01*
X0130435Y0075580D01*
X0130535Y0075505D01*
X0130632Y0075427D01*
X0130726Y0075346D01*
X0130818Y0075262D01*
X0130907Y0075175D01*
X0130993Y0075085D01*
X0131076Y0074993D01*
X0131156Y0074898D01*
X0131234Y0074800D01*
X0131308Y0074700D01*
X0131379Y0074598D01*
X0131446Y0074494D01*
X0131510Y0074387D01*
X0131571Y0074278D01*
X0131628Y0074168D01*
X0131682Y0074056D01*
X0131732Y0073942D01*
X0131779Y0073827D01*
X0131821Y0073710D01*
X0131860Y0073592D01*
X0131896Y0073472D01*
X0131927Y0073352D01*
X0131954Y0073231D01*
X0131978Y0073109D01*
X0131998Y0072986D01*
X0132014Y0072862D01*
X0132026Y0072739D01*
X0132034Y0072615D01*
X0132038Y0072490D01*
X0132038Y0072366D01*
X0132034Y0072241D01*
X0132026Y0072117D01*
X0132014Y0071994D01*
X0131998Y0071870D01*
X0131978Y0071747D01*
X0131954Y0071625D01*
X0131927Y0071504D01*
X0131896Y0071384D01*
X0131860Y0071264D01*
X0131821Y0071146D01*
X0131779Y0071029D01*
X0131732Y0070914D01*
X0131682Y0070800D01*
X0131628Y0070688D01*
X0131571Y0070578D01*
X0131510Y0070469D01*
X0131446Y0070362D01*
X0131379Y0070258D01*
X0131308Y0070156D01*
X0131234Y0070056D01*
X0131156Y0069958D01*
X0131076Y0069863D01*
X0130993Y0069771D01*
X0130907Y0069681D01*
X0130818Y0069594D01*
X0130726Y0069510D01*
X0130632Y0069429D01*
X0130535Y0069351D01*
X0130435Y0069276D01*
X0130334Y0069205D01*
X0130230Y0069136D01*
X0130124Y0069071D01*
X0130016Y0069010D01*
X0129906Y0068952D01*
X0129794Y0068897D01*
X0129681Y0068846D01*
X0129566Y0068799D01*
X0129449Y0068755D01*
X0129331Y0068715D01*
X0129212Y0068679D01*
X0129092Y0068647D01*
X0128971Y0068618D01*
X0128849Y0068593D01*
X0128727Y0068573D01*
X0128603Y0068556D01*
X0128480Y0068543D01*
X0128356Y0068534D01*
X0128231Y0068529D01*
X0128107Y0068528D01*
X0127983Y0068531D01*
X0127858Y0068538D01*
X0127734Y0068549D01*
X0127611Y0068564D01*
X0127488Y0068583D01*
X0127366Y0068605D01*
X0127244Y0068632D01*
X0127124Y0068662D01*
X0127004Y0068696D01*
X0126886Y0068735D01*
X0126768Y0068776D01*
X0126653Y0068822D01*
X0126538Y0068871D01*
X0126426Y0068924D01*
X0126315Y0068980D01*
X0126206Y0069040D01*
X0126099Y0069104D01*
X0125994Y0069170D01*
X0125891Y0069240D01*
X0125791Y0069314D01*
X0125693Y0069390D01*
X0125597Y0069469D01*
X0125504Y0069552D01*
X0125413Y0069637D01*
X0125326Y0069726D01*
X0125241Y0069817D01*
X0125159Y0069911D01*
X0125081Y0070007D01*
X0125005Y0070106D01*
X0124932Y0070207D01*
X0124863Y0070310D01*
X0124797Y0070416D01*
X0124735Y0070523D01*
X0124676Y0070633D01*
X0124620Y0070744D01*
X0124568Y0070857D01*
X0124520Y0070972D01*
X0124476Y0071088D01*
X0124435Y0071205D01*
X0124398Y0071324D01*
X0124364Y0071444D01*
X0124335Y0071564D01*
X0124309Y0071686D01*
X0124287Y0071809D01*
X0124270Y0071932D01*
X0124256Y0072055D01*
X0124246Y0072179D01*
X0124240Y0072304D01*
X0124238Y0072428D01*
X0124138Y0068428D02*
X0132138Y0076428D01*
X0131425Y0078678D02*
X0131427Y0078802D01*
X0131433Y0078927D01*
X0131443Y0079051D01*
X0131457Y0079174D01*
X0131474Y0079297D01*
X0131496Y0079420D01*
X0131522Y0079542D01*
X0131551Y0079662D01*
X0131585Y0079782D01*
X0131622Y0079901D01*
X0131663Y0080018D01*
X0131707Y0080134D01*
X0131755Y0080249D01*
X0131807Y0080362D01*
X0131863Y0080473D01*
X0131922Y0080583D01*
X0131984Y0080690D01*
X0132050Y0080796D01*
X0132119Y0080899D01*
X0132192Y0081000D01*
X0132268Y0081099D01*
X0132346Y0081195D01*
X0132428Y0081289D01*
X0132513Y0081380D01*
X0132600Y0081469D01*
X0132691Y0081554D01*
X0132784Y0081637D01*
X0132880Y0081716D01*
X0132978Y0081792D01*
X0133078Y0081866D01*
X0133181Y0081936D01*
X0133286Y0082002D01*
X0133393Y0082066D01*
X0133502Y0082126D01*
X0133613Y0082182D01*
X0133725Y0082235D01*
X0133840Y0082284D01*
X0133955Y0082330D01*
X0134073Y0082371D01*
X0134191Y0082410D01*
X0134311Y0082444D01*
X0134431Y0082474D01*
X0134553Y0082501D01*
X0134675Y0082523D01*
X0134798Y0082542D01*
X0134921Y0082557D01*
X0135045Y0082568D01*
X0135170Y0082575D01*
X0135294Y0082578D01*
X0135418Y0082577D01*
X0135543Y0082572D01*
X0135667Y0082563D01*
X0135790Y0082550D01*
X0135914Y0082533D01*
X0136036Y0082513D01*
X0136158Y0082488D01*
X0136279Y0082459D01*
X0136399Y0082427D01*
X0136518Y0082391D01*
X0136636Y0082351D01*
X0136753Y0082307D01*
X0136868Y0082260D01*
X0136981Y0082209D01*
X0137093Y0082154D01*
X0137203Y0082096D01*
X0137311Y0082035D01*
X0137417Y0081970D01*
X0137521Y0081901D01*
X0137622Y0081830D01*
X0137722Y0081755D01*
X0137819Y0081677D01*
X0137913Y0081596D01*
X0138005Y0081512D01*
X0138094Y0081425D01*
X0138180Y0081335D01*
X0138263Y0081243D01*
X0138343Y0081148D01*
X0138421Y0081050D01*
X0138495Y0080950D01*
X0138566Y0080848D01*
X0138633Y0080744D01*
X0138697Y0080637D01*
X0138758Y0080528D01*
X0138815Y0080418D01*
X0138869Y0080306D01*
X0138919Y0080192D01*
X0138966Y0080077D01*
X0139008Y0079960D01*
X0139047Y0079842D01*
X0139083Y0079722D01*
X0139114Y0079602D01*
X0139141Y0079481D01*
X0139165Y0079359D01*
X0139185Y0079236D01*
X0139201Y0079112D01*
X0139213Y0078989D01*
X0139221Y0078865D01*
X0139225Y0078740D01*
X0139225Y0078616D01*
X0139221Y0078491D01*
X0139213Y0078367D01*
X0139201Y0078244D01*
X0139185Y0078120D01*
X0139165Y0077997D01*
X0139141Y0077875D01*
X0139114Y0077754D01*
X0139083Y0077634D01*
X0139047Y0077514D01*
X0139008Y0077396D01*
X0138966Y0077279D01*
X0138919Y0077164D01*
X0138869Y0077050D01*
X0138815Y0076938D01*
X0138758Y0076828D01*
X0138697Y0076719D01*
X0138633Y0076612D01*
X0138566Y0076508D01*
X0138495Y0076406D01*
X0138421Y0076306D01*
X0138343Y0076208D01*
X0138263Y0076113D01*
X0138180Y0076021D01*
X0138094Y0075931D01*
X0138005Y0075844D01*
X0137913Y0075760D01*
X0137819Y0075679D01*
X0137722Y0075601D01*
X0137622Y0075526D01*
X0137521Y0075455D01*
X0137417Y0075386D01*
X0137311Y0075321D01*
X0137203Y0075260D01*
X0137093Y0075202D01*
X0136981Y0075147D01*
X0136868Y0075096D01*
X0136753Y0075049D01*
X0136636Y0075005D01*
X0136518Y0074965D01*
X0136399Y0074929D01*
X0136279Y0074897D01*
X0136158Y0074868D01*
X0136036Y0074843D01*
X0135914Y0074823D01*
X0135790Y0074806D01*
X0135667Y0074793D01*
X0135543Y0074784D01*
X0135418Y0074779D01*
X0135294Y0074778D01*
X0135170Y0074781D01*
X0135045Y0074788D01*
X0134921Y0074799D01*
X0134798Y0074814D01*
X0134675Y0074833D01*
X0134553Y0074855D01*
X0134431Y0074882D01*
X0134311Y0074912D01*
X0134191Y0074946D01*
X0134073Y0074985D01*
X0133955Y0075026D01*
X0133840Y0075072D01*
X0133725Y0075121D01*
X0133613Y0075174D01*
X0133502Y0075230D01*
X0133393Y0075290D01*
X0133286Y0075354D01*
X0133181Y0075420D01*
X0133078Y0075490D01*
X0132978Y0075564D01*
X0132880Y0075640D01*
X0132784Y0075719D01*
X0132691Y0075802D01*
X0132600Y0075887D01*
X0132513Y0075976D01*
X0132428Y0076067D01*
X0132346Y0076161D01*
X0132268Y0076257D01*
X0132192Y0076356D01*
X0132119Y0076457D01*
X0132050Y0076560D01*
X0131984Y0076666D01*
X0131922Y0076773D01*
X0131863Y0076883D01*
X0131807Y0076994D01*
X0131755Y0077107D01*
X0131707Y0077222D01*
X0131663Y0077338D01*
X0131622Y0077455D01*
X0131585Y0077574D01*
X0131551Y0077694D01*
X0131522Y0077814D01*
X0131496Y0077936D01*
X0131474Y0078059D01*
X0131457Y0078182D01*
X0131443Y0078305D01*
X0131433Y0078429D01*
X0131427Y0078554D01*
X0131425Y0078678D01*
X0131325Y0074678D02*
X0139325Y0082678D01*
X0152675Y0071803D02*
X0152677Y0071927D01*
X0152683Y0072052D01*
X0152693Y0072176D01*
X0152707Y0072299D01*
X0152724Y0072422D01*
X0152746Y0072545D01*
X0152772Y0072667D01*
X0152801Y0072787D01*
X0152835Y0072907D01*
X0152872Y0073026D01*
X0152913Y0073143D01*
X0152957Y0073259D01*
X0153005Y0073374D01*
X0153057Y0073487D01*
X0153113Y0073598D01*
X0153172Y0073708D01*
X0153234Y0073815D01*
X0153300Y0073921D01*
X0153369Y0074024D01*
X0153442Y0074125D01*
X0153518Y0074224D01*
X0153596Y0074320D01*
X0153678Y0074414D01*
X0153763Y0074505D01*
X0153850Y0074594D01*
X0153941Y0074679D01*
X0154034Y0074762D01*
X0154130Y0074841D01*
X0154228Y0074917D01*
X0154328Y0074991D01*
X0154431Y0075061D01*
X0154536Y0075127D01*
X0154643Y0075191D01*
X0154752Y0075251D01*
X0154863Y0075307D01*
X0154975Y0075360D01*
X0155090Y0075409D01*
X0155205Y0075455D01*
X0155323Y0075496D01*
X0155441Y0075535D01*
X0155561Y0075569D01*
X0155681Y0075599D01*
X0155803Y0075626D01*
X0155925Y0075648D01*
X0156048Y0075667D01*
X0156171Y0075682D01*
X0156295Y0075693D01*
X0156420Y0075700D01*
X0156544Y0075703D01*
X0156668Y0075702D01*
X0156793Y0075697D01*
X0156917Y0075688D01*
X0157040Y0075675D01*
X0157164Y0075658D01*
X0157286Y0075638D01*
X0157408Y0075613D01*
X0157529Y0075584D01*
X0157649Y0075552D01*
X0157768Y0075516D01*
X0157886Y0075476D01*
X0158003Y0075432D01*
X0158118Y0075385D01*
X0158231Y0075334D01*
X0158343Y0075279D01*
X0158453Y0075221D01*
X0158561Y0075160D01*
X0158667Y0075095D01*
X0158771Y0075026D01*
X0158872Y0074955D01*
X0158972Y0074880D01*
X0159069Y0074802D01*
X0159163Y0074721D01*
X0159255Y0074637D01*
X0159344Y0074550D01*
X0159430Y0074460D01*
X0159513Y0074368D01*
X0159593Y0074273D01*
X0159671Y0074175D01*
X0159745Y0074075D01*
X0159816Y0073973D01*
X0159883Y0073869D01*
X0159947Y0073762D01*
X0160008Y0073653D01*
X0160065Y0073543D01*
X0160119Y0073431D01*
X0160169Y0073317D01*
X0160216Y0073202D01*
X0160258Y0073085D01*
X0160297Y0072967D01*
X0160333Y0072847D01*
X0160364Y0072727D01*
X0160391Y0072606D01*
X0160415Y0072484D01*
X0160435Y0072361D01*
X0160451Y0072237D01*
X0160463Y0072114D01*
X0160471Y0071990D01*
X0160475Y0071865D01*
X0160475Y0071741D01*
X0160471Y0071616D01*
X0160463Y0071492D01*
X0160451Y0071369D01*
X0160435Y0071245D01*
X0160415Y0071122D01*
X0160391Y0071000D01*
X0160364Y0070879D01*
X0160333Y0070759D01*
X0160297Y0070639D01*
X0160258Y0070521D01*
X0160216Y0070404D01*
X0160169Y0070289D01*
X0160119Y0070175D01*
X0160065Y0070063D01*
X0160008Y0069953D01*
X0159947Y0069844D01*
X0159883Y0069737D01*
X0159816Y0069633D01*
X0159745Y0069531D01*
X0159671Y0069431D01*
X0159593Y0069333D01*
X0159513Y0069238D01*
X0159430Y0069146D01*
X0159344Y0069056D01*
X0159255Y0068969D01*
X0159163Y0068885D01*
X0159069Y0068804D01*
X0158972Y0068726D01*
X0158872Y0068651D01*
X0158771Y0068580D01*
X0158667Y0068511D01*
X0158561Y0068446D01*
X0158453Y0068385D01*
X0158343Y0068327D01*
X0158231Y0068272D01*
X0158118Y0068221D01*
X0158003Y0068174D01*
X0157886Y0068130D01*
X0157768Y0068090D01*
X0157649Y0068054D01*
X0157529Y0068022D01*
X0157408Y0067993D01*
X0157286Y0067968D01*
X0157164Y0067948D01*
X0157040Y0067931D01*
X0156917Y0067918D01*
X0156793Y0067909D01*
X0156668Y0067904D01*
X0156544Y0067903D01*
X0156420Y0067906D01*
X0156295Y0067913D01*
X0156171Y0067924D01*
X0156048Y0067939D01*
X0155925Y0067958D01*
X0155803Y0067980D01*
X0155681Y0068007D01*
X0155561Y0068037D01*
X0155441Y0068071D01*
X0155323Y0068110D01*
X0155205Y0068151D01*
X0155090Y0068197D01*
X0154975Y0068246D01*
X0154863Y0068299D01*
X0154752Y0068355D01*
X0154643Y0068415D01*
X0154536Y0068479D01*
X0154431Y0068545D01*
X0154328Y0068615D01*
X0154228Y0068689D01*
X0154130Y0068765D01*
X0154034Y0068844D01*
X0153941Y0068927D01*
X0153850Y0069012D01*
X0153763Y0069101D01*
X0153678Y0069192D01*
X0153596Y0069286D01*
X0153518Y0069382D01*
X0153442Y0069481D01*
X0153369Y0069582D01*
X0153300Y0069685D01*
X0153234Y0069791D01*
X0153172Y0069898D01*
X0153113Y0070008D01*
X0153057Y0070119D01*
X0153005Y0070232D01*
X0152957Y0070347D01*
X0152913Y0070463D01*
X0152872Y0070580D01*
X0152835Y0070699D01*
X0152801Y0070819D01*
X0152772Y0070939D01*
X0152746Y0071061D01*
X0152724Y0071184D01*
X0152707Y0071307D01*
X0152693Y0071430D01*
X0152683Y0071554D01*
X0152677Y0071679D01*
X0152675Y0071803D01*
X0152575Y0067803D02*
X0160575Y0075803D01*
X0151425Y0068678D02*
X0151427Y0068802D01*
X0151433Y0068927D01*
X0151443Y0069051D01*
X0151457Y0069174D01*
X0151474Y0069297D01*
X0151496Y0069420D01*
X0151522Y0069542D01*
X0151551Y0069662D01*
X0151585Y0069782D01*
X0151622Y0069901D01*
X0151663Y0070018D01*
X0151707Y0070134D01*
X0151755Y0070249D01*
X0151807Y0070362D01*
X0151863Y0070473D01*
X0151922Y0070583D01*
X0151984Y0070690D01*
X0152050Y0070796D01*
X0152119Y0070899D01*
X0152192Y0071000D01*
X0152268Y0071099D01*
X0152346Y0071195D01*
X0152428Y0071289D01*
X0152513Y0071380D01*
X0152600Y0071469D01*
X0152691Y0071554D01*
X0152784Y0071637D01*
X0152880Y0071716D01*
X0152978Y0071792D01*
X0153078Y0071866D01*
X0153181Y0071936D01*
X0153286Y0072002D01*
X0153393Y0072066D01*
X0153502Y0072126D01*
X0153613Y0072182D01*
X0153725Y0072235D01*
X0153840Y0072284D01*
X0153955Y0072330D01*
X0154073Y0072371D01*
X0154191Y0072410D01*
X0154311Y0072444D01*
X0154431Y0072474D01*
X0154553Y0072501D01*
X0154675Y0072523D01*
X0154798Y0072542D01*
X0154921Y0072557D01*
X0155045Y0072568D01*
X0155170Y0072575D01*
X0155294Y0072578D01*
X0155418Y0072577D01*
X0155543Y0072572D01*
X0155667Y0072563D01*
X0155790Y0072550D01*
X0155914Y0072533D01*
X0156036Y0072513D01*
X0156158Y0072488D01*
X0156279Y0072459D01*
X0156399Y0072427D01*
X0156518Y0072391D01*
X0156636Y0072351D01*
X0156753Y0072307D01*
X0156868Y0072260D01*
X0156981Y0072209D01*
X0157093Y0072154D01*
X0157203Y0072096D01*
X0157311Y0072035D01*
X0157417Y0071970D01*
X0157521Y0071901D01*
X0157622Y0071830D01*
X0157722Y0071755D01*
X0157819Y0071677D01*
X0157913Y0071596D01*
X0158005Y0071512D01*
X0158094Y0071425D01*
X0158180Y0071335D01*
X0158263Y0071243D01*
X0158343Y0071148D01*
X0158421Y0071050D01*
X0158495Y0070950D01*
X0158566Y0070848D01*
X0158633Y0070744D01*
X0158697Y0070637D01*
X0158758Y0070528D01*
X0158815Y0070418D01*
X0158869Y0070306D01*
X0158919Y0070192D01*
X0158966Y0070077D01*
X0159008Y0069960D01*
X0159047Y0069842D01*
X0159083Y0069722D01*
X0159114Y0069602D01*
X0159141Y0069481D01*
X0159165Y0069359D01*
X0159185Y0069236D01*
X0159201Y0069112D01*
X0159213Y0068989D01*
X0159221Y0068865D01*
X0159225Y0068740D01*
X0159225Y0068616D01*
X0159221Y0068491D01*
X0159213Y0068367D01*
X0159201Y0068244D01*
X0159185Y0068120D01*
X0159165Y0067997D01*
X0159141Y0067875D01*
X0159114Y0067754D01*
X0159083Y0067634D01*
X0159047Y0067514D01*
X0159008Y0067396D01*
X0158966Y0067279D01*
X0158919Y0067164D01*
X0158869Y0067050D01*
X0158815Y0066938D01*
X0158758Y0066828D01*
X0158697Y0066719D01*
X0158633Y0066612D01*
X0158566Y0066508D01*
X0158495Y0066406D01*
X0158421Y0066306D01*
X0158343Y0066208D01*
X0158263Y0066113D01*
X0158180Y0066021D01*
X0158094Y0065931D01*
X0158005Y0065844D01*
X0157913Y0065760D01*
X0157819Y0065679D01*
X0157722Y0065601D01*
X0157622Y0065526D01*
X0157521Y0065455D01*
X0157417Y0065386D01*
X0157311Y0065321D01*
X0157203Y0065260D01*
X0157093Y0065202D01*
X0156981Y0065147D01*
X0156868Y0065096D01*
X0156753Y0065049D01*
X0156636Y0065005D01*
X0156518Y0064965D01*
X0156399Y0064929D01*
X0156279Y0064897D01*
X0156158Y0064868D01*
X0156036Y0064843D01*
X0155914Y0064823D01*
X0155790Y0064806D01*
X0155667Y0064793D01*
X0155543Y0064784D01*
X0155418Y0064779D01*
X0155294Y0064778D01*
X0155170Y0064781D01*
X0155045Y0064788D01*
X0154921Y0064799D01*
X0154798Y0064814D01*
X0154675Y0064833D01*
X0154553Y0064855D01*
X0154431Y0064882D01*
X0154311Y0064912D01*
X0154191Y0064946D01*
X0154073Y0064985D01*
X0153955Y0065026D01*
X0153840Y0065072D01*
X0153725Y0065121D01*
X0153613Y0065174D01*
X0153502Y0065230D01*
X0153393Y0065290D01*
X0153286Y0065354D01*
X0153181Y0065420D01*
X0153078Y0065490D01*
X0152978Y0065564D01*
X0152880Y0065640D01*
X0152784Y0065719D01*
X0152691Y0065802D01*
X0152600Y0065887D01*
X0152513Y0065976D01*
X0152428Y0066067D01*
X0152346Y0066161D01*
X0152268Y0066257D01*
X0152192Y0066356D01*
X0152119Y0066457D01*
X0152050Y0066560D01*
X0151984Y0066666D01*
X0151922Y0066773D01*
X0151863Y0066883D01*
X0151807Y0066994D01*
X0151755Y0067107D01*
X0151707Y0067222D01*
X0151663Y0067338D01*
X0151622Y0067455D01*
X0151585Y0067574D01*
X0151551Y0067694D01*
X0151522Y0067814D01*
X0151496Y0067936D01*
X0151474Y0068059D01*
X0151457Y0068182D01*
X0151443Y0068305D01*
X0151433Y0068429D01*
X0151427Y0068554D01*
X0151425Y0068678D01*
X0151325Y0064678D02*
X0159325Y0072678D01*
X0124550Y0067116D02*
X0124552Y0067240D01*
X0124558Y0067365D01*
X0124568Y0067489D01*
X0124582Y0067612D01*
X0124599Y0067735D01*
X0124621Y0067858D01*
X0124647Y0067980D01*
X0124676Y0068100D01*
X0124710Y0068220D01*
X0124747Y0068339D01*
X0124788Y0068456D01*
X0124832Y0068572D01*
X0124880Y0068687D01*
X0124932Y0068800D01*
X0124988Y0068911D01*
X0125047Y0069021D01*
X0125109Y0069128D01*
X0125175Y0069234D01*
X0125244Y0069337D01*
X0125317Y0069438D01*
X0125393Y0069537D01*
X0125471Y0069633D01*
X0125553Y0069727D01*
X0125638Y0069818D01*
X0125725Y0069907D01*
X0125816Y0069992D01*
X0125909Y0070075D01*
X0126005Y0070154D01*
X0126103Y0070230D01*
X0126203Y0070304D01*
X0126306Y0070374D01*
X0126411Y0070440D01*
X0126518Y0070504D01*
X0126627Y0070564D01*
X0126738Y0070620D01*
X0126850Y0070673D01*
X0126965Y0070722D01*
X0127080Y0070768D01*
X0127198Y0070809D01*
X0127316Y0070848D01*
X0127436Y0070882D01*
X0127556Y0070912D01*
X0127678Y0070939D01*
X0127800Y0070961D01*
X0127923Y0070980D01*
X0128046Y0070995D01*
X0128170Y0071006D01*
X0128295Y0071013D01*
X0128419Y0071016D01*
X0128543Y0071015D01*
X0128668Y0071010D01*
X0128792Y0071001D01*
X0128915Y0070988D01*
X0129039Y0070971D01*
X0129161Y0070951D01*
X0129283Y0070926D01*
X0129404Y0070897D01*
X0129524Y0070865D01*
X0129643Y0070829D01*
X0129761Y0070789D01*
X0129878Y0070745D01*
X0129993Y0070698D01*
X0130106Y0070647D01*
X0130218Y0070592D01*
X0130328Y0070534D01*
X0130436Y0070473D01*
X0130542Y0070408D01*
X0130646Y0070339D01*
X0130747Y0070268D01*
X0130847Y0070193D01*
X0130944Y0070115D01*
X0131038Y0070034D01*
X0131130Y0069950D01*
X0131219Y0069863D01*
X0131305Y0069773D01*
X0131388Y0069681D01*
X0131468Y0069586D01*
X0131546Y0069488D01*
X0131620Y0069388D01*
X0131691Y0069286D01*
X0131758Y0069182D01*
X0131822Y0069075D01*
X0131883Y0068966D01*
X0131940Y0068856D01*
X0131994Y0068744D01*
X0132044Y0068630D01*
X0132091Y0068515D01*
X0132133Y0068398D01*
X0132172Y0068280D01*
X0132208Y0068160D01*
X0132239Y0068040D01*
X0132266Y0067919D01*
X0132290Y0067797D01*
X0132310Y0067674D01*
X0132326Y0067550D01*
X0132338Y0067427D01*
X0132346Y0067303D01*
X0132350Y0067178D01*
X0132350Y0067054D01*
X0132346Y0066929D01*
X0132338Y0066805D01*
X0132326Y0066682D01*
X0132310Y0066558D01*
X0132290Y0066435D01*
X0132266Y0066313D01*
X0132239Y0066192D01*
X0132208Y0066072D01*
X0132172Y0065952D01*
X0132133Y0065834D01*
X0132091Y0065717D01*
X0132044Y0065602D01*
X0131994Y0065488D01*
X0131940Y0065376D01*
X0131883Y0065266D01*
X0131822Y0065157D01*
X0131758Y0065050D01*
X0131691Y0064946D01*
X0131620Y0064844D01*
X0131546Y0064744D01*
X0131468Y0064646D01*
X0131388Y0064551D01*
X0131305Y0064459D01*
X0131219Y0064369D01*
X0131130Y0064282D01*
X0131038Y0064198D01*
X0130944Y0064117D01*
X0130847Y0064039D01*
X0130747Y0063964D01*
X0130646Y0063893D01*
X0130542Y0063824D01*
X0130436Y0063759D01*
X0130328Y0063698D01*
X0130218Y0063640D01*
X0130106Y0063585D01*
X0129993Y0063534D01*
X0129878Y0063487D01*
X0129761Y0063443D01*
X0129643Y0063403D01*
X0129524Y0063367D01*
X0129404Y0063335D01*
X0129283Y0063306D01*
X0129161Y0063281D01*
X0129039Y0063261D01*
X0128915Y0063244D01*
X0128792Y0063231D01*
X0128668Y0063222D01*
X0128543Y0063217D01*
X0128419Y0063216D01*
X0128295Y0063219D01*
X0128170Y0063226D01*
X0128046Y0063237D01*
X0127923Y0063252D01*
X0127800Y0063271D01*
X0127678Y0063293D01*
X0127556Y0063320D01*
X0127436Y0063350D01*
X0127316Y0063384D01*
X0127198Y0063423D01*
X0127080Y0063464D01*
X0126965Y0063510D01*
X0126850Y0063559D01*
X0126738Y0063612D01*
X0126627Y0063668D01*
X0126518Y0063728D01*
X0126411Y0063792D01*
X0126306Y0063858D01*
X0126203Y0063928D01*
X0126103Y0064002D01*
X0126005Y0064078D01*
X0125909Y0064157D01*
X0125816Y0064240D01*
X0125725Y0064325D01*
X0125638Y0064414D01*
X0125553Y0064505D01*
X0125471Y0064599D01*
X0125393Y0064695D01*
X0125317Y0064794D01*
X0125244Y0064895D01*
X0125175Y0064998D01*
X0125109Y0065104D01*
X0125047Y0065211D01*
X0124988Y0065321D01*
X0124932Y0065432D01*
X0124880Y0065545D01*
X0124832Y0065660D01*
X0124788Y0065776D01*
X0124747Y0065893D01*
X0124710Y0066012D01*
X0124676Y0066132D01*
X0124647Y0066252D01*
X0124621Y0066374D01*
X0124599Y0066497D01*
X0124582Y0066620D01*
X0124568Y0066743D01*
X0124558Y0066867D01*
X0124552Y0066992D01*
X0124550Y0067116D01*
X0124450Y0063116D02*
X0132450Y0071116D01*
X0121425Y0069928D02*
X0121427Y0070052D01*
X0121433Y0070177D01*
X0121443Y0070301D01*
X0121457Y0070424D01*
X0121474Y0070547D01*
X0121496Y0070670D01*
X0121522Y0070792D01*
X0121551Y0070912D01*
X0121585Y0071032D01*
X0121622Y0071151D01*
X0121663Y0071268D01*
X0121707Y0071384D01*
X0121755Y0071499D01*
X0121807Y0071612D01*
X0121863Y0071723D01*
X0121922Y0071833D01*
X0121984Y0071940D01*
X0122050Y0072046D01*
X0122119Y0072149D01*
X0122192Y0072250D01*
X0122268Y0072349D01*
X0122346Y0072445D01*
X0122428Y0072539D01*
X0122513Y0072630D01*
X0122600Y0072719D01*
X0122691Y0072804D01*
X0122784Y0072887D01*
X0122880Y0072966D01*
X0122978Y0073042D01*
X0123078Y0073116D01*
X0123181Y0073186D01*
X0123286Y0073252D01*
X0123393Y0073316D01*
X0123502Y0073376D01*
X0123613Y0073432D01*
X0123725Y0073485D01*
X0123840Y0073534D01*
X0123955Y0073580D01*
X0124073Y0073621D01*
X0124191Y0073660D01*
X0124311Y0073694D01*
X0124431Y0073724D01*
X0124553Y0073751D01*
X0124675Y0073773D01*
X0124798Y0073792D01*
X0124921Y0073807D01*
X0125045Y0073818D01*
X0125170Y0073825D01*
X0125294Y0073828D01*
X0125418Y0073827D01*
X0125543Y0073822D01*
X0125667Y0073813D01*
X0125790Y0073800D01*
X0125914Y0073783D01*
X0126036Y0073763D01*
X0126158Y0073738D01*
X0126279Y0073709D01*
X0126399Y0073677D01*
X0126518Y0073641D01*
X0126636Y0073601D01*
X0126753Y0073557D01*
X0126868Y0073510D01*
X0126981Y0073459D01*
X0127093Y0073404D01*
X0127203Y0073346D01*
X0127311Y0073285D01*
X0127417Y0073220D01*
X0127521Y0073151D01*
X0127622Y0073080D01*
X0127722Y0073005D01*
X0127819Y0072927D01*
X0127913Y0072846D01*
X0128005Y0072762D01*
X0128094Y0072675D01*
X0128180Y0072585D01*
X0128263Y0072493D01*
X0128343Y0072398D01*
X0128421Y0072300D01*
X0128495Y0072200D01*
X0128566Y0072098D01*
X0128633Y0071994D01*
X0128697Y0071887D01*
X0128758Y0071778D01*
X0128815Y0071668D01*
X0128869Y0071556D01*
X0128919Y0071442D01*
X0128966Y0071327D01*
X0129008Y0071210D01*
X0129047Y0071092D01*
X0129083Y0070972D01*
X0129114Y0070852D01*
X0129141Y0070731D01*
X0129165Y0070609D01*
X0129185Y0070486D01*
X0129201Y0070362D01*
X0129213Y0070239D01*
X0129221Y0070115D01*
X0129225Y0069990D01*
X0129225Y0069866D01*
X0129221Y0069741D01*
X0129213Y0069617D01*
X0129201Y0069494D01*
X0129185Y0069370D01*
X0129165Y0069247D01*
X0129141Y0069125D01*
X0129114Y0069004D01*
X0129083Y0068884D01*
X0129047Y0068764D01*
X0129008Y0068646D01*
X0128966Y0068529D01*
X0128919Y0068414D01*
X0128869Y0068300D01*
X0128815Y0068188D01*
X0128758Y0068078D01*
X0128697Y0067969D01*
X0128633Y0067862D01*
X0128566Y0067758D01*
X0128495Y0067656D01*
X0128421Y0067556D01*
X0128343Y0067458D01*
X0128263Y0067363D01*
X0128180Y0067271D01*
X0128094Y0067181D01*
X0128005Y0067094D01*
X0127913Y0067010D01*
X0127819Y0066929D01*
X0127722Y0066851D01*
X0127622Y0066776D01*
X0127521Y0066705D01*
X0127417Y0066636D01*
X0127311Y0066571D01*
X0127203Y0066510D01*
X0127093Y0066452D01*
X0126981Y0066397D01*
X0126868Y0066346D01*
X0126753Y0066299D01*
X0126636Y0066255D01*
X0126518Y0066215D01*
X0126399Y0066179D01*
X0126279Y0066147D01*
X0126158Y0066118D01*
X0126036Y0066093D01*
X0125914Y0066073D01*
X0125790Y0066056D01*
X0125667Y0066043D01*
X0125543Y0066034D01*
X0125418Y0066029D01*
X0125294Y0066028D01*
X0125170Y0066031D01*
X0125045Y0066038D01*
X0124921Y0066049D01*
X0124798Y0066064D01*
X0124675Y0066083D01*
X0124553Y0066105D01*
X0124431Y0066132D01*
X0124311Y0066162D01*
X0124191Y0066196D01*
X0124073Y0066235D01*
X0123955Y0066276D01*
X0123840Y0066322D01*
X0123725Y0066371D01*
X0123613Y0066424D01*
X0123502Y0066480D01*
X0123393Y0066540D01*
X0123286Y0066604D01*
X0123181Y0066670D01*
X0123078Y0066740D01*
X0122978Y0066814D01*
X0122880Y0066890D01*
X0122784Y0066969D01*
X0122691Y0067052D01*
X0122600Y0067137D01*
X0122513Y0067226D01*
X0122428Y0067317D01*
X0122346Y0067411D01*
X0122268Y0067507D01*
X0122192Y0067606D01*
X0122119Y0067707D01*
X0122050Y0067810D01*
X0121984Y0067916D01*
X0121922Y0068023D01*
X0121863Y0068133D01*
X0121807Y0068244D01*
X0121755Y0068357D01*
X0121707Y0068472D01*
X0121663Y0068588D01*
X0121622Y0068705D01*
X0121585Y0068824D01*
X0121551Y0068944D01*
X0121522Y0069064D01*
X0121496Y0069186D01*
X0121474Y0069309D01*
X0121457Y0069432D01*
X0121443Y0069555D01*
X0121433Y0069679D01*
X0121427Y0069804D01*
X0121425Y0069928D01*
X0121325Y0065928D02*
X0129325Y0073928D01*
X0107050Y0050241D02*
X0107052Y0050365D01*
X0107058Y0050490D01*
X0107068Y0050614D01*
X0107082Y0050737D01*
X0107099Y0050860D01*
X0107121Y0050983D01*
X0107147Y0051105D01*
X0107176Y0051225D01*
X0107210Y0051345D01*
X0107247Y0051464D01*
X0107288Y0051581D01*
X0107332Y0051697D01*
X0107380Y0051812D01*
X0107432Y0051925D01*
X0107488Y0052036D01*
X0107547Y0052146D01*
X0107609Y0052253D01*
X0107675Y0052359D01*
X0107744Y0052462D01*
X0107817Y0052563D01*
X0107893Y0052662D01*
X0107971Y0052758D01*
X0108053Y0052852D01*
X0108138Y0052943D01*
X0108225Y0053032D01*
X0108316Y0053117D01*
X0108409Y0053200D01*
X0108505Y0053279D01*
X0108603Y0053355D01*
X0108703Y0053429D01*
X0108806Y0053499D01*
X0108911Y0053565D01*
X0109018Y0053629D01*
X0109127Y0053689D01*
X0109238Y0053745D01*
X0109350Y0053798D01*
X0109465Y0053847D01*
X0109580Y0053893D01*
X0109698Y0053934D01*
X0109816Y0053973D01*
X0109936Y0054007D01*
X0110056Y0054037D01*
X0110178Y0054064D01*
X0110300Y0054086D01*
X0110423Y0054105D01*
X0110546Y0054120D01*
X0110670Y0054131D01*
X0110795Y0054138D01*
X0110919Y0054141D01*
X0111043Y0054140D01*
X0111168Y0054135D01*
X0111292Y0054126D01*
X0111415Y0054113D01*
X0111539Y0054096D01*
X0111661Y0054076D01*
X0111783Y0054051D01*
X0111904Y0054022D01*
X0112024Y0053990D01*
X0112143Y0053954D01*
X0112261Y0053914D01*
X0112378Y0053870D01*
X0112493Y0053823D01*
X0112606Y0053772D01*
X0112718Y0053717D01*
X0112828Y0053659D01*
X0112936Y0053598D01*
X0113042Y0053533D01*
X0113146Y0053464D01*
X0113247Y0053393D01*
X0113347Y0053318D01*
X0113444Y0053240D01*
X0113538Y0053159D01*
X0113630Y0053075D01*
X0113719Y0052988D01*
X0113805Y0052898D01*
X0113888Y0052806D01*
X0113968Y0052711D01*
X0114046Y0052613D01*
X0114120Y0052513D01*
X0114191Y0052411D01*
X0114258Y0052307D01*
X0114322Y0052200D01*
X0114383Y0052091D01*
X0114440Y0051981D01*
X0114494Y0051869D01*
X0114544Y0051755D01*
X0114591Y0051640D01*
X0114633Y0051523D01*
X0114672Y0051405D01*
X0114708Y0051285D01*
X0114739Y0051165D01*
X0114766Y0051044D01*
X0114790Y0050922D01*
X0114810Y0050799D01*
X0114826Y0050675D01*
X0114838Y0050552D01*
X0114846Y0050428D01*
X0114850Y0050303D01*
X0114850Y0050179D01*
X0114846Y0050054D01*
X0114838Y0049930D01*
X0114826Y0049807D01*
X0114810Y0049683D01*
X0114790Y0049560D01*
X0114766Y0049438D01*
X0114739Y0049317D01*
X0114708Y0049197D01*
X0114672Y0049077D01*
X0114633Y0048959D01*
X0114591Y0048842D01*
X0114544Y0048727D01*
X0114494Y0048613D01*
X0114440Y0048501D01*
X0114383Y0048391D01*
X0114322Y0048282D01*
X0114258Y0048175D01*
X0114191Y0048071D01*
X0114120Y0047969D01*
X0114046Y0047869D01*
X0113968Y0047771D01*
X0113888Y0047676D01*
X0113805Y0047584D01*
X0113719Y0047494D01*
X0113630Y0047407D01*
X0113538Y0047323D01*
X0113444Y0047242D01*
X0113347Y0047164D01*
X0113247Y0047089D01*
X0113146Y0047018D01*
X0113042Y0046949D01*
X0112936Y0046884D01*
X0112828Y0046823D01*
X0112718Y0046765D01*
X0112606Y0046710D01*
X0112493Y0046659D01*
X0112378Y0046612D01*
X0112261Y0046568D01*
X0112143Y0046528D01*
X0112024Y0046492D01*
X0111904Y0046460D01*
X0111783Y0046431D01*
X0111661Y0046406D01*
X0111539Y0046386D01*
X0111415Y0046369D01*
X0111292Y0046356D01*
X0111168Y0046347D01*
X0111043Y0046342D01*
X0110919Y0046341D01*
X0110795Y0046344D01*
X0110670Y0046351D01*
X0110546Y0046362D01*
X0110423Y0046377D01*
X0110300Y0046396D01*
X0110178Y0046418D01*
X0110056Y0046445D01*
X0109936Y0046475D01*
X0109816Y0046509D01*
X0109698Y0046548D01*
X0109580Y0046589D01*
X0109465Y0046635D01*
X0109350Y0046684D01*
X0109238Y0046737D01*
X0109127Y0046793D01*
X0109018Y0046853D01*
X0108911Y0046917D01*
X0108806Y0046983D01*
X0108703Y0047053D01*
X0108603Y0047127D01*
X0108505Y0047203D01*
X0108409Y0047282D01*
X0108316Y0047365D01*
X0108225Y0047450D01*
X0108138Y0047539D01*
X0108053Y0047630D01*
X0107971Y0047724D01*
X0107893Y0047820D01*
X0107817Y0047919D01*
X0107744Y0048020D01*
X0107675Y0048123D01*
X0107609Y0048229D01*
X0107547Y0048336D01*
X0107488Y0048446D01*
X0107432Y0048557D01*
X0107380Y0048670D01*
X0107332Y0048785D01*
X0107288Y0048901D01*
X0107247Y0049018D01*
X0107210Y0049137D01*
X0107176Y0049257D01*
X0107147Y0049377D01*
X0107121Y0049499D01*
X0107099Y0049622D01*
X0107082Y0049745D01*
X0107068Y0049868D01*
X0107058Y0049992D01*
X0107052Y0050117D01*
X0107050Y0050241D01*
X0106950Y0046241D02*
X0114950Y0054241D01*
X0113300Y0048366D02*
X0113302Y0048490D01*
X0113308Y0048615D01*
X0113318Y0048739D01*
X0113332Y0048862D01*
X0113349Y0048985D01*
X0113371Y0049108D01*
X0113397Y0049230D01*
X0113426Y0049350D01*
X0113460Y0049470D01*
X0113497Y0049589D01*
X0113538Y0049706D01*
X0113582Y0049822D01*
X0113630Y0049937D01*
X0113682Y0050050D01*
X0113738Y0050161D01*
X0113797Y0050271D01*
X0113859Y0050378D01*
X0113925Y0050484D01*
X0113994Y0050587D01*
X0114067Y0050688D01*
X0114143Y0050787D01*
X0114221Y0050883D01*
X0114303Y0050977D01*
X0114388Y0051068D01*
X0114475Y0051157D01*
X0114566Y0051242D01*
X0114659Y0051325D01*
X0114755Y0051404D01*
X0114853Y0051480D01*
X0114953Y0051554D01*
X0115056Y0051624D01*
X0115161Y0051690D01*
X0115268Y0051754D01*
X0115377Y0051814D01*
X0115488Y0051870D01*
X0115600Y0051923D01*
X0115715Y0051972D01*
X0115830Y0052018D01*
X0115948Y0052059D01*
X0116066Y0052098D01*
X0116186Y0052132D01*
X0116306Y0052162D01*
X0116428Y0052189D01*
X0116550Y0052211D01*
X0116673Y0052230D01*
X0116796Y0052245D01*
X0116920Y0052256D01*
X0117045Y0052263D01*
X0117169Y0052266D01*
X0117293Y0052265D01*
X0117418Y0052260D01*
X0117542Y0052251D01*
X0117665Y0052238D01*
X0117789Y0052221D01*
X0117911Y0052201D01*
X0118033Y0052176D01*
X0118154Y0052147D01*
X0118274Y0052115D01*
X0118393Y0052079D01*
X0118511Y0052039D01*
X0118628Y0051995D01*
X0118743Y0051948D01*
X0118856Y0051897D01*
X0118968Y0051842D01*
X0119078Y0051784D01*
X0119186Y0051723D01*
X0119292Y0051658D01*
X0119396Y0051589D01*
X0119497Y0051518D01*
X0119597Y0051443D01*
X0119694Y0051365D01*
X0119788Y0051284D01*
X0119880Y0051200D01*
X0119969Y0051113D01*
X0120055Y0051023D01*
X0120138Y0050931D01*
X0120218Y0050836D01*
X0120296Y0050738D01*
X0120370Y0050638D01*
X0120441Y0050536D01*
X0120508Y0050432D01*
X0120572Y0050325D01*
X0120633Y0050216D01*
X0120690Y0050106D01*
X0120744Y0049994D01*
X0120794Y0049880D01*
X0120841Y0049765D01*
X0120883Y0049648D01*
X0120922Y0049530D01*
X0120958Y0049410D01*
X0120989Y0049290D01*
X0121016Y0049169D01*
X0121040Y0049047D01*
X0121060Y0048924D01*
X0121076Y0048800D01*
X0121088Y0048677D01*
X0121096Y0048553D01*
X0121100Y0048428D01*
X0121100Y0048304D01*
X0121096Y0048179D01*
X0121088Y0048055D01*
X0121076Y0047932D01*
X0121060Y0047808D01*
X0121040Y0047685D01*
X0121016Y0047563D01*
X0120989Y0047442D01*
X0120958Y0047322D01*
X0120922Y0047202D01*
X0120883Y0047084D01*
X0120841Y0046967D01*
X0120794Y0046852D01*
X0120744Y0046738D01*
X0120690Y0046626D01*
X0120633Y0046516D01*
X0120572Y0046407D01*
X0120508Y0046300D01*
X0120441Y0046196D01*
X0120370Y0046094D01*
X0120296Y0045994D01*
X0120218Y0045896D01*
X0120138Y0045801D01*
X0120055Y0045709D01*
X0119969Y0045619D01*
X0119880Y0045532D01*
X0119788Y0045448D01*
X0119694Y0045367D01*
X0119597Y0045289D01*
X0119497Y0045214D01*
X0119396Y0045143D01*
X0119292Y0045074D01*
X0119186Y0045009D01*
X0119078Y0044948D01*
X0118968Y0044890D01*
X0118856Y0044835D01*
X0118743Y0044784D01*
X0118628Y0044737D01*
X0118511Y0044693D01*
X0118393Y0044653D01*
X0118274Y0044617D01*
X0118154Y0044585D01*
X0118033Y0044556D01*
X0117911Y0044531D01*
X0117789Y0044511D01*
X0117665Y0044494D01*
X0117542Y0044481D01*
X0117418Y0044472D01*
X0117293Y0044467D01*
X0117169Y0044466D01*
X0117045Y0044469D01*
X0116920Y0044476D01*
X0116796Y0044487D01*
X0116673Y0044502D01*
X0116550Y0044521D01*
X0116428Y0044543D01*
X0116306Y0044570D01*
X0116186Y0044600D01*
X0116066Y0044634D01*
X0115948Y0044673D01*
X0115830Y0044714D01*
X0115715Y0044760D01*
X0115600Y0044809D01*
X0115488Y0044862D01*
X0115377Y0044918D01*
X0115268Y0044978D01*
X0115161Y0045042D01*
X0115056Y0045108D01*
X0114953Y0045178D01*
X0114853Y0045252D01*
X0114755Y0045328D01*
X0114659Y0045407D01*
X0114566Y0045490D01*
X0114475Y0045575D01*
X0114388Y0045664D01*
X0114303Y0045755D01*
X0114221Y0045849D01*
X0114143Y0045945D01*
X0114067Y0046044D01*
X0113994Y0046145D01*
X0113925Y0046248D01*
X0113859Y0046354D01*
X0113797Y0046461D01*
X0113738Y0046571D01*
X0113682Y0046682D01*
X0113630Y0046795D01*
X0113582Y0046910D01*
X0113538Y0047026D01*
X0113497Y0047143D01*
X0113460Y0047262D01*
X0113426Y0047382D01*
X0113397Y0047502D01*
X0113371Y0047624D01*
X0113349Y0047747D01*
X0113332Y0047870D01*
X0113318Y0047993D01*
X0113308Y0048117D01*
X0113302Y0048242D01*
X0113300Y0048366D01*
X0113200Y0044366D02*
X0121200Y0052366D01*
X0126738Y0049303D02*
X0126740Y0049427D01*
X0126746Y0049552D01*
X0126756Y0049676D01*
X0126770Y0049799D01*
X0126787Y0049922D01*
X0126809Y0050045D01*
X0126835Y0050167D01*
X0126864Y0050287D01*
X0126898Y0050407D01*
X0126935Y0050526D01*
X0126976Y0050643D01*
X0127020Y0050759D01*
X0127068Y0050874D01*
X0127120Y0050987D01*
X0127176Y0051098D01*
X0127235Y0051208D01*
X0127297Y0051315D01*
X0127363Y0051421D01*
X0127432Y0051524D01*
X0127505Y0051625D01*
X0127581Y0051724D01*
X0127659Y0051820D01*
X0127741Y0051914D01*
X0127826Y0052005D01*
X0127913Y0052094D01*
X0128004Y0052179D01*
X0128097Y0052262D01*
X0128193Y0052341D01*
X0128291Y0052417D01*
X0128391Y0052491D01*
X0128494Y0052561D01*
X0128599Y0052627D01*
X0128706Y0052691D01*
X0128815Y0052751D01*
X0128926Y0052807D01*
X0129038Y0052860D01*
X0129153Y0052909D01*
X0129268Y0052955D01*
X0129386Y0052996D01*
X0129504Y0053035D01*
X0129624Y0053069D01*
X0129744Y0053099D01*
X0129866Y0053126D01*
X0129988Y0053148D01*
X0130111Y0053167D01*
X0130234Y0053182D01*
X0130358Y0053193D01*
X0130483Y0053200D01*
X0130607Y0053203D01*
X0130731Y0053202D01*
X0130856Y0053197D01*
X0130980Y0053188D01*
X0131103Y0053175D01*
X0131227Y0053158D01*
X0131349Y0053138D01*
X0131471Y0053113D01*
X0131592Y0053084D01*
X0131712Y0053052D01*
X0131831Y0053016D01*
X0131949Y0052976D01*
X0132066Y0052932D01*
X0132181Y0052885D01*
X0132294Y0052834D01*
X0132406Y0052779D01*
X0132516Y0052721D01*
X0132624Y0052660D01*
X0132730Y0052595D01*
X0132834Y0052526D01*
X0132935Y0052455D01*
X0133035Y0052380D01*
X0133132Y0052302D01*
X0133226Y0052221D01*
X0133318Y0052137D01*
X0133407Y0052050D01*
X0133493Y0051960D01*
X0133576Y0051868D01*
X0133656Y0051773D01*
X0133734Y0051675D01*
X0133808Y0051575D01*
X0133879Y0051473D01*
X0133946Y0051369D01*
X0134010Y0051262D01*
X0134071Y0051153D01*
X0134128Y0051043D01*
X0134182Y0050931D01*
X0134232Y0050817D01*
X0134279Y0050702D01*
X0134321Y0050585D01*
X0134360Y0050467D01*
X0134396Y0050347D01*
X0134427Y0050227D01*
X0134454Y0050106D01*
X0134478Y0049984D01*
X0134498Y0049861D01*
X0134514Y0049737D01*
X0134526Y0049614D01*
X0134534Y0049490D01*
X0134538Y0049365D01*
X0134538Y0049241D01*
X0134534Y0049116D01*
X0134526Y0048992D01*
X0134514Y0048869D01*
X0134498Y0048745D01*
X0134478Y0048622D01*
X0134454Y0048500D01*
X0134427Y0048379D01*
X0134396Y0048259D01*
X0134360Y0048139D01*
X0134321Y0048021D01*
X0134279Y0047904D01*
X0134232Y0047789D01*
X0134182Y0047675D01*
X0134128Y0047563D01*
X0134071Y0047453D01*
X0134010Y0047344D01*
X0133946Y0047237D01*
X0133879Y0047133D01*
X0133808Y0047031D01*
X0133734Y0046931D01*
X0133656Y0046833D01*
X0133576Y0046738D01*
X0133493Y0046646D01*
X0133407Y0046556D01*
X0133318Y0046469D01*
X0133226Y0046385D01*
X0133132Y0046304D01*
X0133035Y0046226D01*
X0132935Y0046151D01*
X0132834Y0046080D01*
X0132730Y0046011D01*
X0132624Y0045946D01*
X0132516Y0045885D01*
X0132406Y0045827D01*
X0132294Y0045772D01*
X0132181Y0045721D01*
X0132066Y0045674D01*
X0131949Y0045630D01*
X0131831Y0045590D01*
X0131712Y0045554D01*
X0131592Y0045522D01*
X0131471Y0045493D01*
X0131349Y0045468D01*
X0131227Y0045448D01*
X0131103Y0045431D01*
X0130980Y0045418D01*
X0130856Y0045409D01*
X0130731Y0045404D01*
X0130607Y0045403D01*
X0130483Y0045406D01*
X0130358Y0045413D01*
X0130234Y0045424D01*
X0130111Y0045439D01*
X0129988Y0045458D01*
X0129866Y0045480D01*
X0129744Y0045507D01*
X0129624Y0045537D01*
X0129504Y0045571D01*
X0129386Y0045610D01*
X0129268Y0045651D01*
X0129153Y0045697D01*
X0129038Y0045746D01*
X0128926Y0045799D01*
X0128815Y0045855D01*
X0128706Y0045915D01*
X0128599Y0045979D01*
X0128494Y0046045D01*
X0128391Y0046115D01*
X0128291Y0046189D01*
X0128193Y0046265D01*
X0128097Y0046344D01*
X0128004Y0046427D01*
X0127913Y0046512D01*
X0127826Y0046601D01*
X0127741Y0046692D01*
X0127659Y0046786D01*
X0127581Y0046882D01*
X0127505Y0046981D01*
X0127432Y0047082D01*
X0127363Y0047185D01*
X0127297Y0047291D01*
X0127235Y0047398D01*
X0127176Y0047508D01*
X0127120Y0047619D01*
X0127068Y0047732D01*
X0127020Y0047847D01*
X0126976Y0047963D01*
X0126935Y0048080D01*
X0126898Y0048199D01*
X0126864Y0048319D01*
X0126835Y0048439D01*
X0126809Y0048561D01*
X0126787Y0048684D01*
X0126770Y0048807D01*
X0126756Y0048930D01*
X0126746Y0049054D01*
X0126740Y0049179D01*
X0126738Y0049303D01*
X0126638Y0045303D02*
X0134638Y0053303D01*
X0135175Y0046491D02*
X0135177Y0046615D01*
X0135183Y0046740D01*
X0135193Y0046864D01*
X0135207Y0046987D01*
X0135224Y0047110D01*
X0135246Y0047233D01*
X0135272Y0047355D01*
X0135301Y0047475D01*
X0135335Y0047595D01*
X0135372Y0047714D01*
X0135413Y0047831D01*
X0135457Y0047947D01*
X0135505Y0048062D01*
X0135557Y0048175D01*
X0135613Y0048286D01*
X0135672Y0048396D01*
X0135734Y0048503D01*
X0135800Y0048609D01*
X0135869Y0048712D01*
X0135942Y0048813D01*
X0136018Y0048912D01*
X0136096Y0049008D01*
X0136178Y0049102D01*
X0136263Y0049193D01*
X0136350Y0049282D01*
X0136441Y0049367D01*
X0136534Y0049450D01*
X0136630Y0049529D01*
X0136728Y0049605D01*
X0136828Y0049679D01*
X0136931Y0049749D01*
X0137036Y0049815D01*
X0137143Y0049879D01*
X0137252Y0049939D01*
X0137363Y0049995D01*
X0137475Y0050048D01*
X0137590Y0050097D01*
X0137705Y0050143D01*
X0137823Y0050184D01*
X0137941Y0050223D01*
X0138061Y0050257D01*
X0138181Y0050287D01*
X0138303Y0050314D01*
X0138425Y0050336D01*
X0138548Y0050355D01*
X0138671Y0050370D01*
X0138795Y0050381D01*
X0138920Y0050388D01*
X0139044Y0050391D01*
X0139168Y0050390D01*
X0139293Y0050385D01*
X0139417Y0050376D01*
X0139540Y0050363D01*
X0139664Y0050346D01*
X0139786Y0050326D01*
X0139908Y0050301D01*
X0140029Y0050272D01*
X0140149Y0050240D01*
X0140268Y0050204D01*
X0140386Y0050164D01*
X0140503Y0050120D01*
X0140618Y0050073D01*
X0140731Y0050022D01*
X0140843Y0049967D01*
X0140953Y0049909D01*
X0141061Y0049848D01*
X0141167Y0049783D01*
X0141271Y0049714D01*
X0141372Y0049643D01*
X0141472Y0049568D01*
X0141569Y0049490D01*
X0141663Y0049409D01*
X0141755Y0049325D01*
X0141844Y0049238D01*
X0141930Y0049148D01*
X0142013Y0049056D01*
X0142093Y0048961D01*
X0142171Y0048863D01*
X0142245Y0048763D01*
X0142316Y0048661D01*
X0142383Y0048557D01*
X0142447Y0048450D01*
X0142508Y0048341D01*
X0142565Y0048231D01*
X0142619Y0048119D01*
X0142669Y0048005D01*
X0142716Y0047890D01*
X0142758Y0047773D01*
X0142797Y0047655D01*
X0142833Y0047535D01*
X0142864Y0047415D01*
X0142891Y0047294D01*
X0142915Y0047172D01*
X0142935Y0047049D01*
X0142951Y0046925D01*
X0142963Y0046802D01*
X0142971Y0046678D01*
X0142975Y0046553D01*
X0142975Y0046429D01*
X0142971Y0046304D01*
X0142963Y0046180D01*
X0142951Y0046057D01*
X0142935Y0045933D01*
X0142915Y0045810D01*
X0142891Y0045688D01*
X0142864Y0045567D01*
X0142833Y0045447D01*
X0142797Y0045327D01*
X0142758Y0045209D01*
X0142716Y0045092D01*
X0142669Y0044977D01*
X0142619Y0044863D01*
X0142565Y0044751D01*
X0142508Y0044641D01*
X0142447Y0044532D01*
X0142383Y0044425D01*
X0142316Y0044321D01*
X0142245Y0044219D01*
X0142171Y0044119D01*
X0142093Y0044021D01*
X0142013Y0043926D01*
X0141930Y0043834D01*
X0141844Y0043744D01*
X0141755Y0043657D01*
X0141663Y0043573D01*
X0141569Y0043492D01*
X0141472Y0043414D01*
X0141372Y0043339D01*
X0141271Y0043268D01*
X0141167Y0043199D01*
X0141061Y0043134D01*
X0140953Y0043073D01*
X0140843Y0043015D01*
X0140731Y0042960D01*
X0140618Y0042909D01*
X0140503Y0042862D01*
X0140386Y0042818D01*
X0140268Y0042778D01*
X0140149Y0042742D01*
X0140029Y0042710D01*
X0139908Y0042681D01*
X0139786Y0042656D01*
X0139664Y0042636D01*
X0139540Y0042619D01*
X0139417Y0042606D01*
X0139293Y0042597D01*
X0139168Y0042592D01*
X0139044Y0042591D01*
X0138920Y0042594D01*
X0138795Y0042601D01*
X0138671Y0042612D01*
X0138548Y0042627D01*
X0138425Y0042646D01*
X0138303Y0042668D01*
X0138181Y0042695D01*
X0138061Y0042725D01*
X0137941Y0042759D01*
X0137823Y0042798D01*
X0137705Y0042839D01*
X0137590Y0042885D01*
X0137475Y0042934D01*
X0137363Y0042987D01*
X0137252Y0043043D01*
X0137143Y0043103D01*
X0137036Y0043167D01*
X0136931Y0043233D01*
X0136828Y0043303D01*
X0136728Y0043377D01*
X0136630Y0043453D01*
X0136534Y0043532D01*
X0136441Y0043615D01*
X0136350Y0043700D01*
X0136263Y0043789D01*
X0136178Y0043880D01*
X0136096Y0043974D01*
X0136018Y0044070D01*
X0135942Y0044169D01*
X0135869Y0044270D01*
X0135800Y0044373D01*
X0135734Y0044479D01*
X0135672Y0044586D01*
X0135613Y0044696D01*
X0135557Y0044807D01*
X0135505Y0044920D01*
X0135457Y0045035D01*
X0135413Y0045151D01*
X0135372Y0045268D01*
X0135335Y0045387D01*
X0135301Y0045507D01*
X0135272Y0045627D01*
X0135246Y0045749D01*
X0135224Y0045872D01*
X0135207Y0045995D01*
X0135193Y0046118D01*
X0135183Y0046242D01*
X0135177Y0046367D01*
X0135175Y0046491D01*
X0135075Y0042491D02*
X0143075Y0050491D01*
X0139238Y0046178D02*
X0139240Y0046302D01*
X0139246Y0046427D01*
X0139256Y0046551D01*
X0139270Y0046674D01*
X0139287Y0046797D01*
X0139309Y0046920D01*
X0139335Y0047042D01*
X0139364Y0047162D01*
X0139398Y0047282D01*
X0139435Y0047401D01*
X0139476Y0047518D01*
X0139520Y0047634D01*
X0139568Y0047749D01*
X0139620Y0047862D01*
X0139676Y0047973D01*
X0139735Y0048083D01*
X0139797Y0048190D01*
X0139863Y0048296D01*
X0139932Y0048399D01*
X0140005Y0048500D01*
X0140081Y0048599D01*
X0140159Y0048695D01*
X0140241Y0048789D01*
X0140326Y0048880D01*
X0140413Y0048969D01*
X0140504Y0049054D01*
X0140597Y0049137D01*
X0140693Y0049216D01*
X0140791Y0049292D01*
X0140891Y0049366D01*
X0140994Y0049436D01*
X0141099Y0049502D01*
X0141206Y0049566D01*
X0141315Y0049626D01*
X0141426Y0049682D01*
X0141538Y0049735D01*
X0141653Y0049784D01*
X0141768Y0049830D01*
X0141886Y0049871D01*
X0142004Y0049910D01*
X0142124Y0049944D01*
X0142244Y0049974D01*
X0142366Y0050001D01*
X0142488Y0050023D01*
X0142611Y0050042D01*
X0142734Y0050057D01*
X0142858Y0050068D01*
X0142983Y0050075D01*
X0143107Y0050078D01*
X0143231Y0050077D01*
X0143356Y0050072D01*
X0143480Y0050063D01*
X0143603Y0050050D01*
X0143727Y0050033D01*
X0143849Y0050013D01*
X0143971Y0049988D01*
X0144092Y0049959D01*
X0144212Y0049927D01*
X0144331Y0049891D01*
X0144449Y0049851D01*
X0144566Y0049807D01*
X0144681Y0049760D01*
X0144794Y0049709D01*
X0144906Y0049654D01*
X0145016Y0049596D01*
X0145124Y0049535D01*
X0145230Y0049470D01*
X0145334Y0049401D01*
X0145435Y0049330D01*
X0145535Y0049255D01*
X0145632Y0049177D01*
X0145726Y0049096D01*
X0145818Y0049012D01*
X0145907Y0048925D01*
X0145993Y0048835D01*
X0146076Y0048743D01*
X0146156Y0048648D01*
X0146234Y0048550D01*
X0146308Y0048450D01*
X0146379Y0048348D01*
X0146446Y0048244D01*
X0146510Y0048137D01*
X0146571Y0048028D01*
X0146628Y0047918D01*
X0146682Y0047806D01*
X0146732Y0047692D01*
X0146779Y0047577D01*
X0146821Y0047460D01*
X0146860Y0047342D01*
X0146896Y0047222D01*
X0146927Y0047102D01*
X0146954Y0046981D01*
X0146978Y0046859D01*
X0146998Y0046736D01*
X0147014Y0046612D01*
X0147026Y0046489D01*
X0147034Y0046365D01*
X0147038Y0046240D01*
X0147038Y0046116D01*
X0147034Y0045991D01*
X0147026Y0045867D01*
X0147014Y0045744D01*
X0146998Y0045620D01*
X0146978Y0045497D01*
X0146954Y0045375D01*
X0146927Y0045254D01*
X0146896Y0045134D01*
X0146860Y0045014D01*
X0146821Y0044896D01*
X0146779Y0044779D01*
X0146732Y0044664D01*
X0146682Y0044550D01*
X0146628Y0044438D01*
X0146571Y0044328D01*
X0146510Y0044219D01*
X0146446Y0044112D01*
X0146379Y0044008D01*
X0146308Y0043906D01*
X0146234Y0043806D01*
X0146156Y0043708D01*
X0146076Y0043613D01*
X0145993Y0043521D01*
X0145907Y0043431D01*
X0145818Y0043344D01*
X0145726Y0043260D01*
X0145632Y0043179D01*
X0145535Y0043101D01*
X0145435Y0043026D01*
X0145334Y0042955D01*
X0145230Y0042886D01*
X0145124Y0042821D01*
X0145016Y0042760D01*
X0144906Y0042702D01*
X0144794Y0042647D01*
X0144681Y0042596D01*
X0144566Y0042549D01*
X0144449Y0042505D01*
X0144331Y0042465D01*
X0144212Y0042429D01*
X0144092Y0042397D01*
X0143971Y0042368D01*
X0143849Y0042343D01*
X0143727Y0042323D01*
X0143603Y0042306D01*
X0143480Y0042293D01*
X0143356Y0042284D01*
X0143231Y0042279D01*
X0143107Y0042278D01*
X0142983Y0042281D01*
X0142858Y0042288D01*
X0142734Y0042299D01*
X0142611Y0042314D01*
X0142488Y0042333D01*
X0142366Y0042355D01*
X0142244Y0042382D01*
X0142124Y0042412D01*
X0142004Y0042446D01*
X0141886Y0042485D01*
X0141768Y0042526D01*
X0141653Y0042572D01*
X0141538Y0042621D01*
X0141426Y0042674D01*
X0141315Y0042730D01*
X0141206Y0042790D01*
X0141099Y0042854D01*
X0140994Y0042920D01*
X0140891Y0042990D01*
X0140791Y0043064D01*
X0140693Y0043140D01*
X0140597Y0043219D01*
X0140504Y0043302D01*
X0140413Y0043387D01*
X0140326Y0043476D01*
X0140241Y0043567D01*
X0140159Y0043661D01*
X0140081Y0043757D01*
X0140005Y0043856D01*
X0139932Y0043957D01*
X0139863Y0044060D01*
X0139797Y0044166D01*
X0139735Y0044273D01*
X0139676Y0044383D01*
X0139620Y0044494D01*
X0139568Y0044607D01*
X0139520Y0044722D01*
X0139476Y0044838D01*
X0139435Y0044955D01*
X0139398Y0045074D01*
X0139364Y0045194D01*
X0139335Y0045314D01*
X0139309Y0045436D01*
X0139287Y0045559D01*
X0139270Y0045682D01*
X0139256Y0045805D01*
X0139246Y0045929D01*
X0139240Y0046054D01*
X0139238Y0046178D01*
X0139138Y0042178D02*
X0147138Y0050178D01*
X0143925Y0045553D02*
X0143927Y0045677D01*
X0143933Y0045802D01*
X0143943Y0045926D01*
X0143957Y0046049D01*
X0143974Y0046172D01*
X0143996Y0046295D01*
X0144022Y0046417D01*
X0144051Y0046537D01*
X0144085Y0046657D01*
X0144122Y0046776D01*
X0144163Y0046893D01*
X0144207Y0047009D01*
X0144255Y0047124D01*
X0144307Y0047237D01*
X0144363Y0047348D01*
X0144422Y0047458D01*
X0144484Y0047565D01*
X0144550Y0047671D01*
X0144619Y0047774D01*
X0144692Y0047875D01*
X0144768Y0047974D01*
X0144846Y0048070D01*
X0144928Y0048164D01*
X0145013Y0048255D01*
X0145100Y0048344D01*
X0145191Y0048429D01*
X0145284Y0048512D01*
X0145380Y0048591D01*
X0145478Y0048667D01*
X0145578Y0048741D01*
X0145681Y0048811D01*
X0145786Y0048877D01*
X0145893Y0048941D01*
X0146002Y0049001D01*
X0146113Y0049057D01*
X0146225Y0049110D01*
X0146340Y0049159D01*
X0146455Y0049205D01*
X0146573Y0049246D01*
X0146691Y0049285D01*
X0146811Y0049319D01*
X0146931Y0049349D01*
X0147053Y0049376D01*
X0147175Y0049398D01*
X0147298Y0049417D01*
X0147421Y0049432D01*
X0147545Y0049443D01*
X0147670Y0049450D01*
X0147794Y0049453D01*
X0147918Y0049452D01*
X0148043Y0049447D01*
X0148167Y0049438D01*
X0148290Y0049425D01*
X0148414Y0049408D01*
X0148536Y0049388D01*
X0148658Y0049363D01*
X0148779Y0049334D01*
X0148899Y0049302D01*
X0149018Y0049266D01*
X0149136Y0049226D01*
X0149253Y0049182D01*
X0149368Y0049135D01*
X0149481Y0049084D01*
X0149593Y0049029D01*
X0149703Y0048971D01*
X0149811Y0048910D01*
X0149917Y0048845D01*
X0150021Y0048776D01*
X0150122Y0048705D01*
X0150222Y0048630D01*
X0150319Y0048552D01*
X0150413Y0048471D01*
X0150505Y0048387D01*
X0150594Y0048300D01*
X0150680Y0048210D01*
X0150763Y0048118D01*
X0150843Y0048023D01*
X0150921Y0047925D01*
X0150995Y0047825D01*
X0151066Y0047723D01*
X0151133Y0047619D01*
X0151197Y0047512D01*
X0151258Y0047403D01*
X0151315Y0047293D01*
X0151369Y0047181D01*
X0151419Y0047067D01*
X0151466Y0046952D01*
X0151508Y0046835D01*
X0151547Y0046717D01*
X0151583Y0046597D01*
X0151614Y0046477D01*
X0151641Y0046356D01*
X0151665Y0046234D01*
X0151685Y0046111D01*
X0151701Y0045987D01*
X0151713Y0045864D01*
X0151721Y0045740D01*
X0151725Y0045615D01*
X0151725Y0045491D01*
X0151721Y0045366D01*
X0151713Y0045242D01*
X0151701Y0045119D01*
X0151685Y0044995D01*
X0151665Y0044872D01*
X0151641Y0044750D01*
X0151614Y0044629D01*
X0151583Y0044509D01*
X0151547Y0044389D01*
X0151508Y0044271D01*
X0151466Y0044154D01*
X0151419Y0044039D01*
X0151369Y0043925D01*
X0151315Y0043813D01*
X0151258Y0043703D01*
X0151197Y0043594D01*
X0151133Y0043487D01*
X0151066Y0043383D01*
X0150995Y0043281D01*
X0150921Y0043181D01*
X0150843Y0043083D01*
X0150763Y0042988D01*
X0150680Y0042896D01*
X0150594Y0042806D01*
X0150505Y0042719D01*
X0150413Y0042635D01*
X0150319Y0042554D01*
X0150222Y0042476D01*
X0150122Y0042401D01*
X0150021Y0042330D01*
X0149917Y0042261D01*
X0149811Y0042196D01*
X0149703Y0042135D01*
X0149593Y0042077D01*
X0149481Y0042022D01*
X0149368Y0041971D01*
X0149253Y0041924D01*
X0149136Y0041880D01*
X0149018Y0041840D01*
X0148899Y0041804D01*
X0148779Y0041772D01*
X0148658Y0041743D01*
X0148536Y0041718D01*
X0148414Y0041698D01*
X0148290Y0041681D01*
X0148167Y0041668D01*
X0148043Y0041659D01*
X0147918Y0041654D01*
X0147794Y0041653D01*
X0147670Y0041656D01*
X0147545Y0041663D01*
X0147421Y0041674D01*
X0147298Y0041689D01*
X0147175Y0041708D01*
X0147053Y0041730D01*
X0146931Y0041757D01*
X0146811Y0041787D01*
X0146691Y0041821D01*
X0146573Y0041860D01*
X0146455Y0041901D01*
X0146340Y0041947D01*
X0146225Y0041996D01*
X0146113Y0042049D01*
X0146002Y0042105D01*
X0145893Y0042165D01*
X0145786Y0042229D01*
X0145681Y0042295D01*
X0145578Y0042365D01*
X0145478Y0042439D01*
X0145380Y0042515D01*
X0145284Y0042594D01*
X0145191Y0042677D01*
X0145100Y0042762D01*
X0145013Y0042851D01*
X0144928Y0042942D01*
X0144846Y0043036D01*
X0144768Y0043132D01*
X0144692Y0043231D01*
X0144619Y0043332D01*
X0144550Y0043435D01*
X0144484Y0043541D01*
X0144422Y0043648D01*
X0144363Y0043758D01*
X0144307Y0043869D01*
X0144255Y0043982D01*
X0144207Y0044097D01*
X0144163Y0044213D01*
X0144122Y0044330D01*
X0144085Y0044449D01*
X0144051Y0044569D01*
X0144022Y0044689D01*
X0143996Y0044811D01*
X0143974Y0044934D01*
X0143957Y0045057D01*
X0143943Y0045180D01*
X0143933Y0045304D01*
X0143927Y0045429D01*
X0143925Y0045553D01*
X0143825Y0041553D02*
X0151825Y0049553D01*
X0149550Y0041178D02*
X0149552Y0041302D01*
X0149558Y0041427D01*
X0149568Y0041551D01*
X0149582Y0041674D01*
X0149599Y0041797D01*
X0149621Y0041920D01*
X0149647Y0042042D01*
X0149676Y0042162D01*
X0149710Y0042282D01*
X0149747Y0042401D01*
X0149788Y0042518D01*
X0149832Y0042634D01*
X0149880Y0042749D01*
X0149932Y0042862D01*
X0149988Y0042973D01*
X0150047Y0043083D01*
X0150109Y0043190D01*
X0150175Y0043296D01*
X0150244Y0043399D01*
X0150317Y0043500D01*
X0150393Y0043599D01*
X0150471Y0043695D01*
X0150553Y0043789D01*
X0150638Y0043880D01*
X0150725Y0043969D01*
X0150816Y0044054D01*
X0150909Y0044137D01*
X0151005Y0044216D01*
X0151103Y0044292D01*
X0151203Y0044366D01*
X0151306Y0044436D01*
X0151411Y0044502D01*
X0151518Y0044566D01*
X0151627Y0044626D01*
X0151738Y0044682D01*
X0151850Y0044735D01*
X0151965Y0044784D01*
X0152080Y0044830D01*
X0152198Y0044871D01*
X0152316Y0044910D01*
X0152436Y0044944D01*
X0152556Y0044974D01*
X0152678Y0045001D01*
X0152800Y0045023D01*
X0152923Y0045042D01*
X0153046Y0045057D01*
X0153170Y0045068D01*
X0153295Y0045075D01*
X0153419Y0045078D01*
X0153543Y0045077D01*
X0153668Y0045072D01*
X0153792Y0045063D01*
X0153915Y0045050D01*
X0154039Y0045033D01*
X0154161Y0045013D01*
X0154283Y0044988D01*
X0154404Y0044959D01*
X0154524Y0044927D01*
X0154643Y0044891D01*
X0154761Y0044851D01*
X0154878Y0044807D01*
X0154993Y0044760D01*
X0155106Y0044709D01*
X0155218Y0044654D01*
X0155328Y0044596D01*
X0155436Y0044535D01*
X0155542Y0044470D01*
X0155646Y0044401D01*
X0155747Y0044330D01*
X0155847Y0044255D01*
X0155944Y0044177D01*
X0156038Y0044096D01*
X0156130Y0044012D01*
X0156219Y0043925D01*
X0156305Y0043835D01*
X0156388Y0043743D01*
X0156468Y0043648D01*
X0156546Y0043550D01*
X0156620Y0043450D01*
X0156691Y0043348D01*
X0156758Y0043244D01*
X0156822Y0043137D01*
X0156883Y0043028D01*
X0156940Y0042918D01*
X0156994Y0042806D01*
X0157044Y0042692D01*
X0157091Y0042577D01*
X0157133Y0042460D01*
X0157172Y0042342D01*
X0157208Y0042222D01*
X0157239Y0042102D01*
X0157266Y0041981D01*
X0157290Y0041859D01*
X0157310Y0041736D01*
X0157326Y0041612D01*
X0157338Y0041489D01*
X0157346Y0041365D01*
X0157350Y0041240D01*
X0157350Y0041116D01*
X0157346Y0040991D01*
X0157338Y0040867D01*
X0157326Y0040744D01*
X0157310Y0040620D01*
X0157290Y0040497D01*
X0157266Y0040375D01*
X0157239Y0040254D01*
X0157208Y0040134D01*
X0157172Y0040014D01*
X0157133Y0039896D01*
X0157091Y0039779D01*
X0157044Y0039664D01*
X0156994Y0039550D01*
X0156940Y0039438D01*
X0156883Y0039328D01*
X0156822Y0039219D01*
X0156758Y0039112D01*
X0156691Y0039008D01*
X0156620Y0038906D01*
X0156546Y0038806D01*
X0156468Y0038708D01*
X0156388Y0038613D01*
X0156305Y0038521D01*
X0156219Y0038431D01*
X0156130Y0038344D01*
X0156038Y0038260D01*
X0155944Y0038179D01*
X0155847Y0038101D01*
X0155747Y0038026D01*
X0155646Y0037955D01*
X0155542Y0037886D01*
X0155436Y0037821D01*
X0155328Y0037760D01*
X0155218Y0037702D01*
X0155106Y0037647D01*
X0154993Y0037596D01*
X0154878Y0037549D01*
X0154761Y0037505D01*
X0154643Y0037465D01*
X0154524Y0037429D01*
X0154404Y0037397D01*
X0154283Y0037368D01*
X0154161Y0037343D01*
X0154039Y0037323D01*
X0153915Y0037306D01*
X0153792Y0037293D01*
X0153668Y0037284D01*
X0153543Y0037279D01*
X0153419Y0037278D01*
X0153295Y0037281D01*
X0153170Y0037288D01*
X0153046Y0037299D01*
X0152923Y0037314D01*
X0152800Y0037333D01*
X0152678Y0037355D01*
X0152556Y0037382D01*
X0152436Y0037412D01*
X0152316Y0037446D01*
X0152198Y0037485D01*
X0152080Y0037526D01*
X0151965Y0037572D01*
X0151850Y0037621D01*
X0151738Y0037674D01*
X0151627Y0037730D01*
X0151518Y0037790D01*
X0151411Y0037854D01*
X0151306Y0037920D01*
X0151203Y0037990D01*
X0151103Y0038064D01*
X0151005Y0038140D01*
X0150909Y0038219D01*
X0150816Y0038302D01*
X0150725Y0038387D01*
X0150638Y0038476D01*
X0150553Y0038567D01*
X0150471Y0038661D01*
X0150393Y0038757D01*
X0150317Y0038856D01*
X0150244Y0038957D01*
X0150175Y0039060D01*
X0150109Y0039166D01*
X0150047Y0039273D01*
X0149988Y0039383D01*
X0149932Y0039494D01*
X0149880Y0039607D01*
X0149832Y0039722D01*
X0149788Y0039838D01*
X0149747Y0039955D01*
X0149710Y0040074D01*
X0149676Y0040194D01*
X0149647Y0040314D01*
X0149621Y0040436D01*
X0149599Y0040559D01*
X0149582Y0040682D01*
X0149568Y0040805D01*
X0149558Y0040929D01*
X0149552Y0041054D01*
X0149550Y0041178D01*
X0149450Y0037178D02*
X0157450Y0045178D01*
X0164550Y0041178D02*
X0164552Y0041302D01*
X0164558Y0041427D01*
X0164568Y0041551D01*
X0164582Y0041674D01*
X0164599Y0041797D01*
X0164621Y0041920D01*
X0164647Y0042042D01*
X0164676Y0042162D01*
X0164710Y0042282D01*
X0164747Y0042401D01*
X0164788Y0042518D01*
X0164832Y0042634D01*
X0164880Y0042749D01*
X0164932Y0042862D01*
X0164988Y0042973D01*
X0165047Y0043083D01*
X0165109Y0043190D01*
X0165175Y0043296D01*
X0165244Y0043399D01*
X0165317Y0043500D01*
X0165393Y0043599D01*
X0165471Y0043695D01*
X0165553Y0043789D01*
X0165638Y0043880D01*
X0165725Y0043969D01*
X0165816Y0044054D01*
X0165909Y0044137D01*
X0166005Y0044216D01*
X0166103Y0044292D01*
X0166203Y0044366D01*
X0166306Y0044436D01*
X0166411Y0044502D01*
X0166518Y0044566D01*
X0166627Y0044626D01*
X0166738Y0044682D01*
X0166850Y0044735D01*
X0166965Y0044784D01*
X0167080Y0044830D01*
X0167198Y0044871D01*
X0167316Y0044910D01*
X0167436Y0044944D01*
X0167556Y0044974D01*
X0167678Y0045001D01*
X0167800Y0045023D01*
X0167923Y0045042D01*
X0168046Y0045057D01*
X0168170Y0045068D01*
X0168295Y0045075D01*
X0168419Y0045078D01*
X0168543Y0045077D01*
X0168668Y0045072D01*
X0168792Y0045063D01*
X0168915Y0045050D01*
X0169039Y0045033D01*
X0169161Y0045013D01*
X0169283Y0044988D01*
X0169404Y0044959D01*
X0169524Y0044927D01*
X0169643Y0044891D01*
X0169761Y0044851D01*
X0169878Y0044807D01*
X0169993Y0044760D01*
X0170106Y0044709D01*
X0170218Y0044654D01*
X0170328Y0044596D01*
X0170436Y0044535D01*
X0170542Y0044470D01*
X0170646Y0044401D01*
X0170747Y0044330D01*
X0170847Y0044255D01*
X0170944Y0044177D01*
X0171038Y0044096D01*
X0171130Y0044012D01*
X0171219Y0043925D01*
X0171305Y0043835D01*
X0171388Y0043743D01*
X0171468Y0043648D01*
X0171546Y0043550D01*
X0171620Y0043450D01*
X0171691Y0043348D01*
X0171758Y0043244D01*
X0171822Y0043137D01*
X0171883Y0043028D01*
X0171940Y0042918D01*
X0171994Y0042806D01*
X0172044Y0042692D01*
X0172091Y0042577D01*
X0172133Y0042460D01*
X0172172Y0042342D01*
X0172208Y0042222D01*
X0172239Y0042102D01*
X0172266Y0041981D01*
X0172290Y0041859D01*
X0172310Y0041736D01*
X0172326Y0041612D01*
X0172338Y0041489D01*
X0172346Y0041365D01*
X0172350Y0041240D01*
X0172350Y0041116D01*
X0172346Y0040991D01*
X0172338Y0040867D01*
X0172326Y0040744D01*
X0172310Y0040620D01*
X0172290Y0040497D01*
X0172266Y0040375D01*
X0172239Y0040254D01*
X0172208Y0040134D01*
X0172172Y0040014D01*
X0172133Y0039896D01*
X0172091Y0039779D01*
X0172044Y0039664D01*
X0171994Y0039550D01*
X0171940Y0039438D01*
X0171883Y0039328D01*
X0171822Y0039219D01*
X0171758Y0039112D01*
X0171691Y0039008D01*
X0171620Y0038906D01*
X0171546Y0038806D01*
X0171468Y0038708D01*
X0171388Y0038613D01*
X0171305Y0038521D01*
X0171219Y0038431D01*
X0171130Y0038344D01*
X0171038Y0038260D01*
X0170944Y0038179D01*
X0170847Y0038101D01*
X0170747Y0038026D01*
X0170646Y0037955D01*
X0170542Y0037886D01*
X0170436Y0037821D01*
X0170328Y0037760D01*
X0170218Y0037702D01*
X0170106Y0037647D01*
X0169993Y0037596D01*
X0169878Y0037549D01*
X0169761Y0037505D01*
X0169643Y0037465D01*
X0169524Y0037429D01*
X0169404Y0037397D01*
X0169283Y0037368D01*
X0169161Y0037343D01*
X0169039Y0037323D01*
X0168915Y0037306D01*
X0168792Y0037293D01*
X0168668Y0037284D01*
X0168543Y0037279D01*
X0168419Y0037278D01*
X0168295Y0037281D01*
X0168170Y0037288D01*
X0168046Y0037299D01*
X0167923Y0037314D01*
X0167800Y0037333D01*
X0167678Y0037355D01*
X0167556Y0037382D01*
X0167436Y0037412D01*
X0167316Y0037446D01*
X0167198Y0037485D01*
X0167080Y0037526D01*
X0166965Y0037572D01*
X0166850Y0037621D01*
X0166738Y0037674D01*
X0166627Y0037730D01*
X0166518Y0037790D01*
X0166411Y0037854D01*
X0166306Y0037920D01*
X0166203Y0037990D01*
X0166103Y0038064D01*
X0166005Y0038140D01*
X0165909Y0038219D01*
X0165816Y0038302D01*
X0165725Y0038387D01*
X0165638Y0038476D01*
X0165553Y0038567D01*
X0165471Y0038661D01*
X0165393Y0038757D01*
X0165317Y0038856D01*
X0165244Y0038957D01*
X0165175Y0039060D01*
X0165109Y0039166D01*
X0165047Y0039273D01*
X0164988Y0039383D01*
X0164932Y0039494D01*
X0164880Y0039607D01*
X0164832Y0039722D01*
X0164788Y0039838D01*
X0164747Y0039955D01*
X0164710Y0040074D01*
X0164676Y0040194D01*
X0164647Y0040314D01*
X0164621Y0040436D01*
X0164599Y0040559D01*
X0164582Y0040682D01*
X0164568Y0040805D01*
X0164558Y0040929D01*
X0164552Y0041054D01*
X0164550Y0041178D01*
X0164450Y0037178D02*
X0172450Y0045178D01*
X0181200Y0042991D02*
X0173200Y0034991D01*
X0181200Y0034991D02*
X0181200Y0042991D01*
X0181200Y0034991D02*
X0173200Y0042991D01*
X0173200Y0034991D01*
X0193200Y0034991D02*
X0201200Y0042991D01*
X0201200Y0034991D01*
X0193200Y0042991D01*
X0193200Y0034991D01*
X0214138Y0041178D02*
X0222138Y0041178D01*
X0218138Y0037178D01*
X0218138Y0045178D01*
X0214138Y0041178D01*
X0193200Y0054991D02*
X0201200Y0062991D01*
X0201200Y0054991D01*
X0193200Y0062991D01*
X0193200Y0054991D01*
X0214138Y0060863D02*
X0222138Y0060863D01*
X0218138Y0056863D01*
X0218138Y0064863D01*
X0214138Y0060863D01*
X0201200Y0072991D02*
X0193200Y0064991D01*
X0201200Y0064991D02*
X0201200Y0072991D01*
X0201200Y0064991D02*
X0193200Y0072991D01*
X0193200Y0064991D01*
X0193200Y0074991D02*
X0201200Y0082991D01*
X0201200Y0074991D01*
X0193200Y0082991D01*
X0193200Y0074991D01*
X0214138Y0080548D02*
X0222138Y0080548D01*
X0218138Y0076548D01*
X0218138Y0084548D01*
X0214138Y0080548D01*
X0201200Y0092991D02*
X0193200Y0084991D01*
X0201200Y0084991D02*
X0201200Y0092991D01*
X0201200Y0084991D02*
X0193200Y0092991D01*
X0193200Y0084991D01*
X0214138Y0100233D02*
X0222138Y0100233D01*
X0218138Y0096233D01*
X0218138Y0104233D01*
X0214138Y0100233D01*
X0132050Y0045241D02*
X0132052Y0045365D01*
X0132058Y0045490D01*
X0132068Y0045614D01*
X0132082Y0045737D01*
X0132099Y0045860D01*
X0132121Y0045983D01*
X0132147Y0046105D01*
X0132176Y0046225D01*
X0132210Y0046345D01*
X0132247Y0046464D01*
X0132288Y0046581D01*
X0132332Y0046697D01*
X0132380Y0046812D01*
X0132432Y0046925D01*
X0132488Y0047036D01*
X0132547Y0047146D01*
X0132609Y0047253D01*
X0132675Y0047359D01*
X0132744Y0047462D01*
X0132817Y0047563D01*
X0132893Y0047662D01*
X0132971Y0047758D01*
X0133053Y0047852D01*
X0133138Y0047943D01*
X0133225Y0048032D01*
X0133316Y0048117D01*
X0133409Y0048200D01*
X0133505Y0048279D01*
X0133603Y0048355D01*
X0133703Y0048429D01*
X0133806Y0048499D01*
X0133911Y0048565D01*
X0134018Y0048629D01*
X0134127Y0048689D01*
X0134238Y0048745D01*
X0134350Y0048798D01*
X0134465Y0048847D01*
X0134580Y0048893D01*
X0134698Y0048934D01*
X0134816Y0048973D01*
X0134936Y0049007D01*
X0135056Y0049037D01*
X0135178Y0049064D01*
X0135300Y0049086D01*
X0135423Y0049105D01*
X0135546Y0049120D01*
X0135670Y0049131D01*
X0135795Y0049138D01*
X0135919Y0049141D01*
X0136043Y0049140D01*
X0136168Y0049135D01*
X0136292Y0049126D01*
X0136415Y0049113D01*
X0136539Y0049096D01*
X0136661Y0049076D01*
X0136783Y0049051D01*
X0136904Y0049022D01*
X0137024Y0048990D01*
X0137143Y0048954D01*
X0137261Y0048914D01*
X0137378Y0048870D01*
X0137493Y0048823D01*
X0137606Y0048772D01*
X0137718Y0048717D01*
X0137828Y0048659D01*
X0137936Y0048598D01*
X0138042Y0048533D01*
X0138146Y0048464D01*
X0138247Y0048393D01*
X0138347Y0048318D01*
X0138444Y0048240D01*
X0138538Y0048159D01*
X0138630Y0048075D01*
X0138719Y0047988D01*
X0138805Y0047898D01*
X0138888Y0047806D01*
X0138968Y0047711D01*
X0139046Y0047613D01*
X0139120Y0047513D01*
X0139191Y0047411D01*
X0139258Y0047307D01*
X0139322Y0047200D01*
X0139383Y0047091D01*
X0139440Y0046981D01*
X0139494Y0046869D01*
X0139544Y0046755D01*
X0139591Y0046640D01*
X0139633Y0046523D01*
X0139672Y0046405D01*
X0139708Y0046285D01*
X0139739Y0046165D01*
X0139766Y0046044D01*
X0139790Y0045922D01*
X0139810Y0045799D01*
X0139826Y0045675D01*
X0139838Y0045552D01*
X0139846Y0045428D01*
X0139850Y0045303D01*
X0139850Y0045179D01*
X0139846Y0045054D01*
X0139838Y0044930D01*
X0139826Y0044807D01*
X0139810Y0044683D01*
X0139790Y0044560D01*
X0139766Y0044438D01*
X0139739Y0044317D01*
X0139708Y0044197D01*
X0139672Y0044077D01*
X0139633Y0043959D01*
X0139591Y0043842D01*
X0139544Y0043727D01*
X0139494Y0043613D01*
X0139440Y0043501D01*
X0139383Y0043391D01*
X0139322Y0043282D01*
X0139258Y0043175D01*
X0139191Y0043071D01*
X0139120Y0042969D01*
X0139046Y0042869D01*
X0138968Y0042771D01*
X0138888Y0042676D01*
X0138805Y0042584D01*
X0138719Y0042494D01*
X0138630Y0042407D01*
X0138538Y0042323D01*
X0138444Y0042242D01*
X0138347Y0042164D01*
X0138247Y0042089D01*
X0138146Y0042018D01*
X0138042Y0041949D01*
X0137936Y0041884D01*
X0137828Y0041823D01*
X0137718Y0041765D01*
X0137606Y0041710D01*
X0137493Y0041659D01*
X0137378Y0041612D01*
X0137261Y0041568D01*
X0137143Y0041528D01*
X0137024Y0041492D01*
X0136904Y0041460D01*
X0136783Y0041431D01*
X0136661Y0041406D01*
X0136539Y0041386D01*
X0136415Y0041369D01*
X0136292Y0041356D01*
X0136168Y0041347D01*
X0136043Y0041342D01*
X0135919Y0041341D01*
X0135795Y0041344D01*
X0135670Y0041351D01*
X0135546Y0041362D01*
X0135423Y0041377D01*
X0135300Y0041396D01*
X0135178Y0041418D01*
X0135056Y0041445D01*
X0134936Y0041475D01*
X0134816Y0041509D01*
X0134698Y0041548D01*
X0134580Y0041589D01*
X0134465Y0041635D01*
X0134350Y0041684D01*
X0134238Y0041737D01*
X0134127Y0041793D01*
X0134018Y0041853D01*
X0133911Y0041917D01*
X0133806Y0041983D01*
X0133703Y0042053D01*
X0133603Y0042127D01*
X0133505Y0042203D01*
X0133409Y0042282D01*
X0133316Y0042365D01*
X0133225Y0042450D01*
X0133138Y0042539D01*
X0133053Y0042630D01*
X0132971Y0042724D01*
X0132893Y0042820D01*
X0132817Y0042919D01*
X0132744Y0043020D01*
X0132675Y0043123D01*
X0132609Y0043229D01*
X0132547Y0043336D01*
X0132488Y0043446D01*
X0132432Y0043557D01*
X0132380Y0043670D01*
X0132332Y0043785D01*
X0132288Y0043901D01*
X0132247Y0044018D01*
X0132210Y0044137D01*
X0132176Y0044257D01*
X0132147Y0044377D01*
X0132121Y0044499D01*
X0132099Y0044622D01*
X0132082Y0044745D01*
X0132068Y0044868D01*
X0132058Y0044992D01*
X0132052Y0045117D01*
X0132050Y0045241D01*
X0131950Y0041241D02*
X0139950Y0049241D01*
X0125263Y0045241D02*
X0117263Y0045241D01*
X0121263Y0041241D02*
X0121263Y0049241D01*
X0106425Y0040553D02*
X0106427Y0040677D01*
X0106433Y0040802D01*
X0106443Y0040926D01*
X0106457Y0041049D01*
X0106474Y0041172D01*
X0106496Y0041295D01*
X0106522Y0041417D01*
X0106551Y0041537D01*
X0106585Y0041657D01*
X0106622Y0041776D01*
X0106663Y0041893D01*
X0106707Y0042009D01*
X0106755Y0042124D01*
X0106807Y0042237D01*
X0106863Y0042348D01*
X0106922Y0042458D01*
X0106984Y0042565D01*
X0107050Y0042671D01*
X0107119Y0042774D01*
X0107192Y0042875D01*
X0107268Y0042974D01*
X0107346Y0043070D01*
X0107428Y0043164D01*
X0107513Y0043255D01*
X0107600Y0043344D01*
X0107691Y0043429D01*
X0107784Y0043512D01*
X0107880Y0043591D01*
X0107978Y0043667D01*
X0108078Y0043741D01*
X0108181Y0043811D01*
X0108286Y0043877D01*
X0108393Y0043941D01*
X0108502Y0044001D01*
X0108613Y0044057D01*
X0108725Y0044110D01*
X0108840Y0044159D01*
X0108955Y0044205D01*
X0109073Y0044246D01*
X0109191Y0044285D01*
X0109311Y0044319D01*
X0109431Y0044349D01*
X0109553Y0044376D01*
X0109675Y0044398D01*
X0109798Y0044417D01*
X0109921Y0044432D01*
X0110045Y0044443D01*
X0110170Y0044450D01*
X0110294Y0044453D01*
X0110418Y0044452D01*
X0110543Y0044447D01*
X0110667Y0044438D01*
X0110790Y0044425D01*
X0110914Y0044408D01*
X0111036Y0044388D01*
X0111158Y0044363D01*
X0111279Y0044334D01*
X0111399Y0044302D01*
X0111518Y0044266D01*
X0111636Y0044226D01*
X0111753Y0044182D01*
X0111868Y0044135D01*
X0111981Y0044084D01*
X0112093Y0044029D01*
X0112203Y0043971D01*
X0112311Y0043910D01*
X0112417Y0043845D01*
X0112521Y0043776D01*
X0112622Y0043705D01*
X0112722Y0043630D01*
X0112819Y0043552D01*
X0112913Y0043471D01*
X0113005Y0043387D01*
X0113094Y0043300D01*
X0113180Y0043210D01*
X0113263Y0043118D01*
X0113343Y0043023D01*
X0113421Y0042925D01*
X0113495Y0042825D01*
X0113566Y0042723D01*
X0113633Y0042619D01*
X0113697Y0042512D01*
X0113758Y0042403D01*
X0113815Y0042293D01*
X0113869Y0042181D01*
X0113919Y0042067D01*
X0113966Y0041952D01*
X0114008Y0041835D01*
X0114047Y0041717D01*
X0114083Y0041597D01*
X0114114Y0041477D01*
X0114141Y0041356D01*
X0114165Y0041234D01*
X0114185Y0041111D01*
X0114201Y0040987D01*
X0114213Y0040864D01*
X0114221Y0040740D01*
X0114225Y0040615D01*
X0114225Y0040491D01*
X0114221Y0040366D01*
X0114213Y0040242D01*
X0114201Y0040119D01*
X0114185Y0039995D01*
X0114165Y0039872D01*
X0114141Y0039750D01*
X0114114Y0039629D01*
X0114083Y0039509D01*
X0114047Y0039389D01*
X0114008Y0039271D01*
X0113966Y0039154D01*
X0113919Y0039039D01*
X0113869Y0038925D01*
X0113815Y0038813D01*
X0113758Y0038703D01*
X0113697Y0038594D01*
X0113633Y0038487D01*
X0113566Y0038383D01*
X0113495Y0038281D01*
X0113421Y0038181D01*
X0113343Y0038083D01*
X0113263Y0037988D01*
X0113180Y0037896D01*
X0113094Y0037806D01*
X0113005Y0037719D01*
X0112913Y0037635D01*
X0112819Y0037554D01*
X0112722Y0037476D01*
X0112622Y0037401D01*
X0112521Y0037330D01*
X0112417Y0037261D01*
X0112311Y0037196D01*
X0112203Y0037135D01*
X0112093Y0037077D01*
X0111981Y0037022D01*
X0111868Y0036971D01*
X0111753Y0036924D01*
X0111636Y0036880D01*
X0111518Y0036840D01*
X0111399Y0036804D01*
X0111279Y0036772D01*
X0111158Y0036743D01*
X0111036Y0036718D01*
X0110914Y0036698D01*
X0110790Y0036681D01*
X0110667Y0036668D01*
X0110543Y0036659D01*
X0110418Y0036654D01*
X0110294Y0036653D01*
X0110170Y0036656D01*
X0110045Y0036663D01*
X0109921Y0036674D01*
X0109798Y0036689D01*
X0109675Y0036708D01*
X0109553Y0036730D01*
X0109431Y0036757D01*
X0109311Y0036787D01*
X0109191Y0036821D01*
X0109073Y0036860D01*
X0108955Y0036901D01*
X0108840Y0036947D01*
X0108725Y0036996D01*
X0108613Y0037049D01*
X0108502Y0037105D01*
X0108393Y0037165D01*
X0108286Y0037229D01*
X0108181Y0037295D01*
X0108078Y0037365D01*
X0107978Y0037439D01*
X0107880Y0037515D01*
X0107784Y0037594D01*
X0107691Y0037677D01*
X0107600Y0037762D01*
X0107513Y0037851D01*
X0107428Y0037942D01*
X0107346Y0038036D01*
X0107268Y0038132D01*
X0107192Y0038231D01*
X0107119Y0038332D01*
X0107050Y0038435D01*
X0106984Y0038541D01*
X0106922Y0038648D01*
X0106863Y0038758D01*
X0106807Y0038869D01*
X0106755Y0038982D01*
X0106707Y0039097D01*
X0106663Y0039213D01*
X0106622Y0039330D01*
X0106585Y0039449D01*
X0106551Y0039569D01*
X0106522Y0039689D01*
X0106496Y0039811D01*
X0106474Y0039934D01*
X0106457Y0040057D01*
X0106443Y0040180D01*
X0106433Y0040304D01*
X0106427Y0040429D01*
X0106425Y0040553D01*
X0106325Y0036553D02*
X0114325Y0044553D01*
X0103300Y0040553D02*
X0103302Y0040677D01*
X0103308Y0040802D01*
X0103318Y0040926D01*
X0103332Y0041049D01*
X0103349Y0041172D01*
X0103371Y0041295D01*
X0103397Y0041417D01*
X0103426Y0041537D01*
X0103460Y0041657D01*
X0103497Y0041776D01*
X0103538Y0041893D01*
X0103582Y0042009D01*
X0103630Y0042124D01*
X0103682Y0042237D01*
X0103738Y0042348D01*
X0103797Y0042458D01*
X0103859Y0042565D01*
X0103925Y0042671D01*
X0103994Y0042774D01*
X0104067Y0042875D01*
X0104143Y0042974D01*
X0104221Y0043070D01*
X0104303Y0043164D01*
X0104388Y0043255D01*
X0104475Y0043344D01*
X0104566Y0043429D01*
X0104659Y0043512D01*
X0104755Y0043591D01*
X0104853Y0043667D01*
X0104953Y0043741D01*
X0105056Y0043811D01*
X0105161Y0043877D01*
X0105268Y0043941D01*
X0105377Y0044001D01*
X0105488Y0044057D01*
X0105600Y0044110D01*
X0105715Y0044159D01*
X0105830Y0044205D01*
X0105948Y0044246D01*
X0106066Y0044285D01*
X0106186Y0044319D01*
X0106306Y0044349D01*
X0106428Y0044376D01*
X0106550Y0044398D01*
X0106673Y0044417D01*
X0106796Y0044432D01*
X0106920Y0044443D01*
X0107045Y0044450D01*
X0107169Y0044453D01*
X0107293Y0044452D01*
X0107418Y0044447D01*
X0107542Y0044438D01*
X0107665Y0044425D01*
X0107789Y0044408D01*
X0107911Y0044388D01*
X0108033Y0044363D01*
X0108154Y0044334D01*
X0108274Y0044302D01*
X0108393Y0044266D01*
X0108511Y0044226D01*
X0108628Y0044182D01*
X0108743Y0044135D01*
X0108856Y0044084D01*
X0108968Y0044029D01*
X0109078Y0043971D01*
X0109186Y0043910D01*
X0109292Y0043845D01*
X0109396Y0043776D01*
X0109497Y0043705D01*
X0109597Y0043630D01*
X0109694Y0043552D01*
X0109788Y0043471D01*
X0109880Y0043387D01*
X0109969Y0043300D01*
X0110055Y0043210D01*
X0110138Y0043118D01*
X0110218Y0043023D01*
X0110296Y0042925D01*
X0110370Y0042825D01*
X0110441Y0042723D01*
X0110508Y0042619D01*
X0110572Y0042512D01*
X0110633Y0042403D01*
X0110690Y0042293D01*
X0110744Y0042181D01*
X0110794Y0042067D01*
X0110841Y0041952D01*
X0110883Y0041835D01*
X0110922Y0041717D01*
X0110958Y0041597D01*
X0110989Y0041477D01*
X0111016Y0041356D01*
X0111040Y0041234D01*
X0111060Y0041111D01*
X0111076Y0040987D01*
X0111088Y0040864D01*
X0111096Y0040740D01*
X0111100Y0040615D01*
X0111100Y0040491D01*
X0111096Y0040366D01*
X0111088Y0040242D01*
X0111076Y0040119D01*
X0111060Y0039995D01*
X0111040Y0039872D01*
X0111016Y0039750D01*
X0110989Y0039629D01*
X0110958Y0039509D01*
X0110922Y0039389D01*
X0110883Y0039271D01*
X0110841Y0039154D01*
X0110794Y0039039D01*
X0110744Y0038925D01*
X0110690Y0038813D01*
X0110633Y0038703D01*
X0110572Y0038594D01*
X0110508Y0038487D01*
X0110441Y0038383D01*
X0110370Y0038281D01*
X0110296Y0038181D01*
X0110218Y0038083D01*
X0110138Y0037988D01*
X0110055Y0037896D01*
X0109969Y0037806D01*
X0109880Y0037719D01*
X0109788Y0037635D01*
X0109694Y0037554D01*
X0109597Y0037476D01*
X0109497Y0037401D01*
X0109396Y0037330D01*
X0109292Y0037261D01*
X0109186Y0037196D01*
X0109078Y0037135D01*
X0108968Y0037077D01*
X0108856Y0037022D01*
X0108743Y0036971D01*
X0108628Y0036924D01*
X0108511Y0036880D01*
X0108393Y0036840D01*
X0108274Y0036804D01*
X0108154Y0036772D01*
X0108033Y0036743D01*
X0107911Y0036718D01*
X0107789Y0036698D01*
X0107665Y0036681D01*
X0107542Y0036668D01*
X0107418Y0036659D01*
X0107293Y0036654D01*
X0107169Y0036653D01*
X0107045Y0036656D01*
X0106920Y0036663D01*
X0106796Y0036674D01*
X0106673Y0036689D01*
X0106550Y0036708D01*
X0106428Y0036730D01*
X0106306Y0036757D01*
X0106186Y0036787D01*
X0106066Y0036821D01*
X0105948Y0036860D01*
X0105830Y0036901D01*
X0105715Y0036947D01*
X0105600Y0036996D01*
X0105488Y0037049D01*
X0105377Y0037105D01*
X0105268Y0037165D01*
X0105161Y0037229D01*
X0105056Y0037295D01*
X0104953Y0037365D01*
X0104853Y0037439D01*
X0104755Y0037515D01*
X0104659Y0037594D01*
X0104566Y0037677D01*
X0104475Y0037762D01*
X0104388Y0037851D01*
X0104303Y0037942D01*
X0104221Y0038036D01*
X0104143Y0038132D01*
X0104067Y0038231D01*
X0103994Y0038332D01*
X0103925Y0038435D01*
X0103859Y0038541D01*
X0103797Y0038648D01*
X0103738Y0038758D01*
X0103682Y0038869D01*
X0103630Y0038982D01*
X0103582Y0039097D01*
X0103538Y0039213D01*
X0103497Y0039330D01*
X0103460Y0039449D01*
X0103426Y0039569D01*
X0103397Y0039689D01*
X0103371Y0039811D01*
X0103349Y0039934D01*
X0103332Y0040057D01*
X0103318Y0040180D01*
X0103308Y0040304D01*
X0103302Y0040429D01*
X0103300Y0040553D01*
X0103200Y0036553D02*
X0111200Y0044553D01*
X0100175Y0040553D02*
X0100177Y0040677D01*
X0100183Y0040802D01*
X0100193Y0040926D01*
X0100207Y0041049D01*
X0100224Y0041172D01*
X0100246Y0041295D01*
X0100272Y0041417D01*
X0100301Y0041537D01*
X0100335Y0041657D01*
X0100372Y0041776D01*
X0100413Y0041893D01*
X0100457Y0042009D01*
X0100505Y0042124D01*
X0100557Y0042237D01*
X0100613Y0042348D01*
X0100672Y0042458D01*
X0100734Y0042565D01*
X0100800Y0042671D01*
X0100869Y0042774D01*
X0100942Y0042875D01*
X0101018Y0042974D01*
X0101096Y0043070D01*
X0101178Y0043164D01*
X0101263Y0043255D01*
X0101350Y0043344D01*
X0101441Y0043429D01*
X0101534Y0043512D01*
X0101630Y0043591D01*
X0101728Y0043667D01*
X0101828Y0043741D01*
X0101931Y0043811D01*
X0102036Y0043877D01*
X0102143Y0043941D01*
X0102252Y0044001D01*
X0102363Y0044057D01*
X0102475Y0044110D01*
X0102590Y0044159D01*
X0102705Y0044205D01*
X0102823Y0044246D01*
X0102941Y0044285D01*
X0103061Y0044319D01*
X0103181Y0044349D01*
X0103303Y0044376D01*
X0103425Y0044398D01*
X0103548Y0044417D01*
X0103671Y0044432D01*
X0103795Y0044443D01*
X0103920Y0044450D01*
X0104044Y0044453D01*
X0104168Y0044452D01*
X0104293Y0044447D01*
X0104417Y0044438D01*
X0104540Y0044425D01*
X0104664Y0044408D01*
X0104786Y0044388D01*
X0104908Y0044363D01*
X0105029Y0044334D01*
X0105149Y0044302D01*
X0105268Y0044266D01*
X0105386Y0044226D01*
X0105503Y0044182D01*
X0105618Y0044135D01*
X0105731Y0044084D01*
X0105843Y0044029D01*
X0105953Y0043971D01*
X0106061Y0043910D01*
X0106167Y0043845D01*
X0106271Y0043776D01*
X0106372Y0043705D01*
X0106472Y0043630D01*
X0106569Y0043552D01*
X0106663Y0043471D01*
X0106755Y0043387D01*
X0106844Y0043300D01*
X0106930Y0043210D01*
X0107013Y0043118D01*
X0107093Y0043023D01*
X0107171Y0042925D01*
X0107245Y0042825D01*
X0107316Y0042723D01*
X0107383Y0042619D01*
X0107447Y0042512D01*
X0107508Y0042403D01*
X0107565Y0042293D01*
X0107619Y0042181D01*
X0107669Y0042067D01*
X0107716Y0041952D01*
X0107758Y0041835D01*
X0107797Y0041717D01*
X0107833Y0041597D01*
X0107864Y0041477D01*
X0107891Y0041356D01*
X0107915Y0041234D01*
X0107935Y0041111D01*
X0107951Y0040987D01*
X0107963Y0040864D01*
X0107971Y0040740D01*
X0107975Y0040615D01*
X0107975Y0040491D01*
X0107971Y0040366D01*
X0107963Y0040242D01*
X0107951Y0040119D01*
X0107935Y0039995D01*
X0107915Y0039872D01*
X0107891Y0039750D01*
X0107864Y0039629D01*
X0107833Y0039509D01*
X0107797Y0039389D01*
X0107758Y0039271D01*
X0107716Y0039154D01*
X0107669Y0039039D01*
X0107619Y0038925D01*
X0107565Y0038813D01*
X0107508Y0038703D01*
X0107447Y0038594D01*
X0107383Y0038487D01*
X0107316Y0038383D01*
X0107245Y0038281D01*
X0107171Y0038181D01*
X0107093Y0038083D01*
X0107013Y0037988D01*
X0106930Y0037896D01*
X0106844Y0037806D01*
X0106755Y0037719D01*
X0106663Y0037635D01*
X0106569Y0037554D01*
X0106472Y0037476D01*
X0106372Y0037401D01*
X0106271Y0037330D01*
X0106167Y0037261D01*
X0106061Y0037196D01*
X0105953Y0037135D01*
X0105843Y0037077D01*
X0105731Y0037022D01*
X0105618Y0036971D01*
X0105503Y0036924D01*
X0105386Y0036880D01*
X0105268Y0036840D01*
X0105149Y0036804D01*
X0105029Y0036772D01*
X0104908Y0036743D01*
X0104786Y0036718D01*
X0104664Y0036698D01*
X0104540Y0036681D01*
X0104417Y0036668D01*
X0104293Y0036659D01*
X0104168Y0036654D01*
X0104044Y0036653D01*
X0103920Y0036656D01*
X0103795Y0036663D01*
X0103671Y0036674D01*
X0103548Y0036689D01*
X0103425Y0036708D01*
X0103303Y0036730D01*
X0103181Y0036757D01*
X0103061Y0036787D01*
X0102941Y0036821D01*
X0102823Y0036860D01*
X0102705Y0036901D01*
X0102590Y0036947D01*
X0102475Y0036996D01*
X0102363Y0037049D01*
X0102252Y0037105D01*
X0102143Y0037165D01*
X0102036Y0037229D01*
X0101931Y0037295D01*
X0101828Y0037365D01*
X0101728Y0037439D01*
X0101630Y0037515D01*
X0101534Y0037594D01*
X0101441Y0037677D01*
X0101350Y0037762D01*
X0101263Y0037851D01*
X0101178Y0037942D01*
X0101096Y0038036D01*
X0101018Y0038132D01*
X0100942Y0038231D01*
X0100869Y0038332D01*
X0100800Y0038435D01*
X0100734Y0038541D01*
X0100672Y0038648D01*
X0100613Y0038758D01*
X0100557Y0038869D01*
X0100505Y0038982D01*
X0100457Y0039097D01*
X0100413Y0039213D01*
X0100372Y0039330D01*
X0100335Y0039449D01*
X0100301Y0039569D01*
X0100272Y0039689D01*
X0100246Y0039811D01*
X0100224Y0039934D01*
X0100207Y0040057D01*
X0100193Y0040180D01*
X0100183Y0040304D01*
X0100177Y0040429D01*
X0100175Y0040553D01*
X0100075Y0036553D02*
X0108075Y0044553D01*
X0097050Y0040553D02*
X0097052Y0040677D01*
X0097058Y0040802D01*
X0097068Y0040926D01*
X0097082Y0041049D01*
X0097099Y0041172D01*
X0097121Y0041295D01*
X0097147Y0041417D01*
X0097176Y0041537D01*
X0097210Y0041657D01*
X0097247Y0041776D01*
X0097288Y0041893D01*
X0097332Y0042009D01*
X0097380Y0042124D01*
X0097432Y0042237D01*
X0097488Y0042348D01*
X0097547Y0042458D01*
X0097609Y0042565D01*
X0097675Y0042671D01*
X0097744Y0042774D01*
X0097817Y0042875D01*
X0097893Y0042974D01*
X0097971Y0043070D01*
X0098053Y0043164D01*
X0098138Y0043255D01*
X0098225Y0043344D01*
X0098316Y0043429D01*
X0098409Y0043512D01*
X0098505Y0043591D01*
X0098603Y0043667D01*
X0098703Y0043741D01*
X0098806Y0043811D01*
X0098911Y0043877D01*
X0099018Y0043941D01*
X0099127Y0044001D01*
X0099238Y0044057D01*
X0099350Y0044110D01*
X0099465Y0044159D01*
X0099580Y0044205D01*
X0099698Y0044246D01*
X0099816Y0044285D01*
X0099936Y0044319D01*
X0100056Y0044349D01*
X0100178Y0044376D01*
X0100300Y0044398D01*
X0100423Y0044417D01*
X0100546Y0044432D01*
X0100670Y0044443D01*
X0100795Y0044450D01*
X0100919Y0044453D01*
X0101043Y0044452D01*
X0101168Y0044447D01*
X0101292Y0044438D01*
X0101415Y0044425D01*
X0101539Y0044408D01*
X0101661Y0044388D01*
X0101783Y0044363D01*
X0101904Y0044334D01*
X0102024Y0044302D01*
X0102143Y0044266D01*
X0102261Y0044226D01*
X0102378Y0044182D01*
X0102493Y0044135D01*
X0102606Y0044084D01*
X0102718Y0044029D01*
X0102828Y0043971D01*
X0102936Y0043910D01*
X0103042Y0043845D01*
X0103146Y0043776D01*
X0103247Y0043705D01*
X0103347Y0043630D01*
X0103444Y0043552D01*
X0103538Y0043471D01*
X0103630Y0043387D01*
X0103719Y0043300D01*
X0103805Y0043210D01*
X0103888Y0043118D01*
X0103968Y0043023D01*
X0104046Y0042925D01*
X0104120Y0042825D01*
X0104191Y0042723D01*
X0104258Y0042619D01*
X0104322Y0042512D01*
X0104383Y0042403D01*
X0104440Y0042293D01*
X0104494Y0042181D01*
X0104544Y0042067D01*
X0104591Y0041952D01*
X0104633Y0041835D01*
X0104672Y0041717D01*
X0104708Y0041597D01*
X0104739Y0041477D01*
X0104766Y0041356D01*
X0104790Y0041234D01*
X0104810Y0041111D01*
X0104826Y0040987D01*
X0104838Y0040864D01*
X0104846Y0040740D01*
X0104850Y0040615D01*
X0104850Y0040491D01*
X0104846Y0040366D01*
X0104838Y0040242D01*
X0104826Y0040119D01*
X0104810Y0039995D01*
X0104790Y0039872D01*
X0104766Y0039750D01*
X0104739Y0039629D01*
X0104708Y0039509D01*
X0104672Y0039389D01*
X0104633Y0039271D01*
X0104591Y0039154D01*
X0104544Y0039039D01*
X0104494Y0038925D01*
X0104440Y0038813D01*
X0104383Y0038703D01*
X0104322Y0038594D01*
X0104258Y0038487D01*
X0104191Y0038383D01*
X0104120Y0038281D01*
X0104046Y0038181D01*
X0103968Y0038083D01*
X0103888Y0037988D01*
X0103805Y0037896D01*
X0103719Y0037806D01*
X0103630Y0037719D01*
X0103538Y0037635D01*
X0103444Y0037554D01*
X0103347Y0037476D01*
X0103247Y0037401D01*
X0103146Y0037330D01*
X0103042Y0037261D01*
X0102936Y0037196D01*
X0102828Y0037135D01*
X0102718Y0037077D01*
X0102606Y0037022D01*
X0102493Y0036971D01*
X0102378Y0036924D01*
X0102261Y0036880D01*
X0102143Y0036840D01*
X0102024Y0036804D01*
X0101904Y0036772D01*
X0101783Y0036743D01*
X0101661Y0036718D01*
X0101539Y0036698D01*
X0101415Y0036681D01*
X0101292Y0036668D01*
X0101168Y0036659D01*
X0101043Y0036654D01*
X0100919Y0036653D01*
X0100795Y0036656D01*
X0100670Y0036663D01*
X0100546Y0036674D01*
X0100423Y0036689D01*
X0100300Y0036708D01*
X0100178Y0036730D01*
X0100056Y0036757D01*
X0099936Y0036787D01*
X0099816Y0036821D01*
X0099698Y0036860D01*
X0099580Y0036901D01*
X0099465Y0036947D01*
X0099350Y0036996D01*
X0099238Y0037049D01*
X0099127Y0037105D01*
X0099018Y0037165D01*
X0098911Y0037229D01*
X0098806Y0037295D01*
X0098703Y0037365D01*
X0098603Y0037439D01*
X0098505Y0037515D01*
X0098409Y0037594D01*
X0098316Y0037677D01*
X0098225Y0037762D01*
X0098138Y0037851D01*
X0098053Y0037942D01*
X0097971Y0038036D01*
X0097893Y0038132D01*
X0097817Y0038231D01*
X0097744Y0038332D01*
X0097675Y0038435D01*
X0097609Y0038541D01*
X0097547Y0038648D01*
X0097488Y0038758D01*
X0097432Y0038869D01*
X0097380Y0038982D01*
X0097332Y0039097D01*
X0097288Y0039213D01*
X0097247Y0039330D01*
X0097210Y0039449D01*
X0097176Y0039569D01*
X0097147Y0039689D01*
X0097121Y0039811D01*
X0097099Y0039934D01*
X0097082Y0040057D01*
X0097068Y0040180D01*
X0097058Y0040304D01*
X0097052Y0040429D01*
X0097050Y0040553D01*
X0096950Y0036553D02*
X0104950Y0044553D01*
X0099638Y0036866D02*
X0091638Y0044866D01*
X0091638Y0036866D02*
X0099638Y0044866D01*
X0097988Y0036803D02*
X0097990Y0036927D01*
X0097996Y0037052D01*
X0098006Y0037176D01*
X0098020Y0037299D01*
X0098037Y0037422D01*
X0098059Y0037545D01*
X0098085Y0037667D01*
X0098114Y0037787D01*
X0098148Y0037907D01*
X0098185Y0038026D01*
X0098226Y0038143D01*
X0098270Y0038259D01*
X0098318Y0038374D01*
X0098370Y0038487D01*
X0098426Y0038598D01*
X0098485Y0038708D01*
X0098547Y0038815D01*
X0098613Y0038921D01*
X0098682Y0039024D01*
X0098755Y0039125D01*
X0098831Y0039224D01*
X0098909Y0039320D01*
X0098991Y0039414D01*
X0099076Y0039505D01*
X0099163Y0039594D01*
X0099254Y0039679D01*
X0099347Y0039762D01*
X0099443Y0039841D01*
X0099541Y0039917D01*
X0099641Y0039991D01*
X0099744Y0040061D01*
X0099849Y0040127D01*
X0099956Y0040191D01*
X0100065Y0040251D01*
X0100176Y0040307D01*
X0100288Y0040360D01*
X0100403Y0040409D01*
X0100518Y0040455D01*
X0100636Y0040496D01*
X0100754Y0040535D01*
X0100874Y0040569D01*
X0100994Y0040599D01*
X0101116Y0040626D01*
X0101238Y0040648D01*
X0101361Y0040667D01*
X0101484Y0040682D01*
X0101608Y0040693D01*
X0101733Y0040700D01*
X0101857Y0040703D01*
X0101981Y0040702D01*
X0102106Y0040697D01*
X0102230Y0040688D01*
X0102353Y0040675D01*
X0102477Y0040658D01*
X0102599Y0040638D01*
X0102721Y0040613D01*
X0102842Y0040584D01*
X0102962Y0040552D01*
X0103081Y0040516D01*
X0103199Y0040476D01*
X0103316Y0040432D01*
X0103431Y0040385D01*
X0103544Y0040334D01*
X0103656Y0040279D01*
X0103766Y0040221D01*
X0103874Y0040160D01*
X0103980Y0040095D01*
X0104084Y0040026D01*
X0104185Y0039955D01*
X0104285Y0039880D01*
X0104382Y0039802D01*
X0104476Y0039721D01*
X0104568Y0039637D01*
X0104657Y0039550D01*
X0104743Y0039460D01*
X0104826Y0039368D01*
X0104906Y0039273D01*
X0104984Y0039175D01*
X0105058Y0039075D01*
X0105129Y0038973D01*
X0105196Y0038869D01*
X0105260Y0038762D01*
X0105321Y0038653D01*
X0105378Y0038543D01*
X0105432Y0038431D01*
X0105482Y0038317D01*
X0105529Y0038202D01*
X0105571Y0038085D01*
X0105610Y0037967D01*
X0105646Y0037847D01*
X0105677Y0037727D01*
X0105704Y0037606D01*
X0105728Y0037484D01*
X0105748Y0037361D01*
X0105764Y0037237D01*
X0105776Y0037114D01*
X0105784Y0036990D01*
X0105788Y0036865D01*
X0105788Y0036741D01*
X0105784Y0036616D01*
X0105776Y0036492D01*
X0105764Y0036369D01*
X0105748Y0036245D01*
X0105728Y0036122D01*
X0105704Y0036000D01*
X0105677Y0035879D01*
X0105646Y0035759D01*
X0105610Y0035639D01*
X0105571Y0035521D01*
X0105529Y0035404D01*
X0105482Y0035289D01*
X0105432Y0035175D01*
X0105378Y0035063D01*
X0105321Y0034953D01*
X0105260Y0034844D01*
X0105196Y0034737D01*
X0105129Y0034633D01*
X0105058Y0034531D01*
X0104984Y0034431D01*
X0104906Y0034333D01*
X0104826Y0034238D01*
X0104743Y0034146D01*
X0104657Y0034056D01*
X0104568Y0033969D01*
X0104476Y0033885D01*
X0104382Y0033804D01*
X0104285Y0033726D01*
X0104185Y0033651D01*
X0104084Y0033580D01*
X0103980Y0033511D01*
X0103874Y0033446D01*
X0103766Y0033385D01*
X0103656Y0033327D01*
X0103544Y0033272D01*
X0103431Y0033221D01*
X0103316Y0033174D01*
X0103199Y0033130D01*
X0103081Y0033090D01*
X0102962Y0033054D01*
X0102842Y0033022D01*
X0102721Y0032993D01*
X0102599Y0032968D01*
X0102477Y0032948D01*
X0102353Y0032931D01*
X0102230Y0032918D01*
X0102106Y0032909D01*
X0101981Y0032904D01*
X0101857Y0032903D01*
X0101733Y0032906D01*
X0101608Y0032913D01*
X0101484Y0032924D01*
X0101361Y0032939D01*
X0101238Y0032958D01*
X0101116Y0032980D01*
X0100994Y0033007D01*
X0100874Y0033037D01*
X0100754Y0033071D01*
X0100636Y0033110D01*
X0100518Y0033151D01*
X0100403Y0033197D01*
X0100288Y0033246D01*
X0100176Y0033299D01*
X0100065Y0033355D01*
X0099956Y0033415D01*
X0099849Y0033479D01*
X0099744Y0033545D01*
X0099641Y0033615D01*
X0099541Y0033689D01*
X0099443Y0033765D01*
X0099347Y0033844D01*
X0099254Y0033927D01*
X0099163Y0034012D01*
X0099076Y0034101D01*
X0098991Y0034192D01*
X0098909Y0034286D01*
X0098831Y0034382D01*
X0098755Y0034481D01*
X0098682Y0034582D01*
X0098613Y0034685D01*
X0098547Y0034791D01*
X0098485Y0034898D01*
X0098426Y0035008D01*
X0098370Y0035119D01*
X0098318Y0035232D01*
X0098270Y0035347D01*
X0098226Y0035463D01*
X0098185Y0035580D01*
X0098148Y0035699D01*
X0098114Y0035819D01*
X0098085Y0035939D01*
X0098059Y0036061D01*
X0098037Y0036184D01*
X0098020Y0036307D01*
X0098006Y0036430D01*
X0097996Y0036554D01*
X0097990Y0036679D01*
X0097988Y0036803D01*
X0097888Y0032803D02*
X0105888Y0040803D01*
X0101425Y0035553D02*
X0101427Y0035677D01*
X0101433Y0035802D01*
X0101443Y0035926D01*
X0101457Y0036049D01*
X0101474Y0036172D01*
X0101496Y0036295D01*
X0101522Y0036417D01*
X0101551Y0036537D01*
X0101585Y0036657D01*
X0101622Y0036776D01*
X0101663Y0036893D01*
X0101707Y0037009D01*
X0101755Y0037124D01*
X0101807Y0037237D01*
X0101863Y0037348D01*
X0101922Y0037458D01*
X0101984Y0037565D01*
X0102050Y0037671D01*
X0102119Y0037774D01*
X0102192Y0037875D01*
X0102268Y0037974D01*
X0102346Y0038070D01*
X0102428Y0038164D01*
X0102513Y0038255D01*
X0102600Y0038344D01*
X0102691Y0038429D01*
X0102784Y0038512D01*
X0102880Y0038591D01*
X0102978Y0038667D01*
X0103078Y0038741D01*
X0103181Y0038811D01*
X0103286Y0038877D01*
X0103393Y0038941D01*
X0103502Y0039001D01*
X0103613Y0039057D01*
X0103725Y0039110D01*
X0103840Y0039159D01*
X0103955Y0039205D01*
X0104073Y0039246D01*
X0104191Y0039285D01*
X0104311Y0039319D01*
X0104431Y0039349D01*
X0104553Y0039376D01*
X0104675Y0039398D01*
X0104798Y0039417D01*
X0104921Y0039432D01*
X0105045Y0039443D01*
X0105170Y0039450D01*
X0105294Y0039453D01*
X0105418Y0039452D01*
X0105543Y0039447D01*
X0105667Y0039438D01*
X0105790Y0039425D01*
X0105914Y0039408D01*
X0106036Y0039388D01*
X0106158Y0039363D01*
X0106279Y0039334D01*
X0106399Y0039302D01*
X0106518Y0039266D01*
X0106636Y0039226D01*
X0106753Y0039182D01*
X0106868Y0039135D01*
X0106981Y0039084D01*
X0107093Y0039029D01*
X0107203Y0038971D01*
X0107311Y0038910D01*
X0107417Y0038845D01*
X0107521Y0038776D01*
X0107622Y0038705D01*
X0107722Y0038630D01*
X0107819Y0038552D01*
X0107913Y0038471D01*
X0108005Y0038387D01*
X0108094Y0038300D01*
X0108180Y0038210D01*
X0108263Y0038118D01*
X0108343Y0038023D01*
X0108421Y0037925D01*
X0108495Y0037825D01*
X0108566Y0037723D01*
X0108633Y0037619D01*
X0108697Y0037512D01*
X0108758Y0037403D01*
X0108815Y0037293D01*
X0108869Y0037181D01*
X0108919Y0037067D01*
X0108966Y0036952D01*
X0109008Y0036835D01*
X0109047Y0036717D01*
X0109083Y0036597D01*
X0109114Y0036477D01*
X0109141Y0036356D01*
X0109165Y0036234D01*
X0109185Y0036111D01*
X0109201Y0035987D01*
X0109213Y0035864D01*
X0109221Y0035740D01*
X0109225Y0035615D01*
X0109225Y0035491D01*
X0109221Y0035366D01*
X0109213Y0035242D01*
X0109201Y0035119D01*
X0109185Y0034995D01*
X0109165Y0034872D01*
X0109141Y0034750D01*
X0109114Y0034629D01*
X0109083Y0034509D01*
X0109047Y0034389D01*
X0109008Y0034271D01*
X0108966Y0034154D01*
X0108919Y0034039D01*
X0108869Y0033925D01*
X0108815Y0033813D01*
X0108758Y0033703D01*
X0108697Y0033594D01*
X0108633Y0033487D01*
X0108566Y0033383D01*
X0108495Y0033281D01*
X0108421Y0033181D01*
X0108343Y0033083D01*
X0108263Y0032988D01*
X0108180Y0032896D01*
X0108094Y0032806D01*
X0108005Y0032719D01*
X0107913Y0032635D01*
X0107819Y0032554D01*
X0107722Y0032476D01*
X0107622Y0032401D01*
X0107521Y0032330D01*
X0107417Y0032261D01*
X0107311Y0032196D01*
X0107203Y0032135D01*
X0107093Y0032077D01*
X0106981Y0032022D01*
X0106868Y0031971D01*
X0106753Y0031924D01*
X0106636Y0031880D01*
X0106518Y0031840D01*
X0106399Y0031804D01*
X0106279Y0031772D01*
X0106158Y0031743D01*
X0106036Y0031718D01*
X0105914Y0031698D01*
X0105790Y0031681D01*
X0105667Y0031668D01*
X0105543Y0031659D01*
X0105418Y0031654D01*
X0105294Y0031653D01*
X0105170Y0031656D01*
X0105045Y0031663D01*
X0104921Y0031674D01*
X0104798Y0031689D01*
X0104675Y0031708D01*
X0104553Y0031730D01*
X0104431Y0031757D01*
X0104311Y0031787D01*
X0104191Y0031821D01*
X0104073Y0031860D01*
X0103955Y0031901D01*
X0103840Y0031947D01*
X0103725Y0031996D01*
X0103613Y0032049D01*
X0103502Y0032105D01*
X0103393Y0032165D01*
X0103286Y0032229D01*
X0103181Y0032295D01*
X0103078Y0032365D01*
X0102978Y0032439D01*
X0102880Y0032515D01*
X0102784Y0032594D01*
X0102691Y0032677D01*
X0102600Y0032762D01*
X0102513Y0032851D01*
X0102428Y0032942D01*
X0102346Y0033036D01*
X0102268Y0033132D01*
X0102192Y0033231D01*
X0102119Y0033332D01*
X0102050Y0033435D01*
X0101984Y0033541D01*
X0101922Y0033648D01*
X0101863Y0033758D01*
X0101807Y0033869D01*
X0101755Y0033982D01*
X0101707Y0034097D01*
X0101663Y0034213D01*
X0101622Y0034330D01*
X0101585Y0034449D01*
X0101551Y0034569D01*
X0101522Y0034689D01*
X0101496Y0034811D01*
X0101474Y0034934D01*
X0101457Y0035057D01*
X0101443Y0035180D01*
X0101433Y0035304D01*
X0101427Y0035429D01*
X0101425Y0035553D01*
X0101325Y0031553D02*
X0109325Y0039553D01*
X0104550Y0035553D02*
X0104552Y0035677D01*
X0104558Y0035802D01*
X0104568Y0035926D01*
X0104582Y0036049D01*
X0104599Y0036172D01*
X0104621Y0036295D01*
X0104647Y0036417D01*
X0104676Y0036537D01*
X0104710Y0036657D01*
X0104747Y0036776D01*
X0104788Y0036893D01*
X0104832Y0037009D01*
X0104880Y0037124D01*
X0104932Y0037237D01*
X0104988Y0037348D01*
X0105047Y0037458D01*
X0105109Y0037565D01*
X0105175Y0037671D01*
X0105244Y0037774D01*
X0105317Y0037875D01*
X0105393Y0037974D01*
X0105471Y0038070D01*
X0105553Y0038164D01*
X0105638Y0038255D01*
X0105725Y0038344D01*
X0105816Y0038429D01*
X0105909Y0038512D01*
X0106005Y0038591D01*
X0106103Y0038667D01*
X0106203Y0038741D01*
X0106306Y0038811D01*
X0106411Y0038877D01*
X0106518Y0038941D01*
X0106627Y0039001D01*
X0106738Y0039057D01*
X0106850Y0039110D01*
X0106965Y0039159D01*
X0107080Y0039205D01*
X0107198Y0039246D01*
X0107316Y0039285D01*
X0107436Y0039319D01*
X0107556Y0039349D01*
X0107678Y0039376D01*
X0107800Y0039398D01*
X0107923Y0039417D01*
X0108046Y0039432D01*
X0108170Y0039443D01*
X0108295Y0039450D01*
X0108419Y0039453D01*
X0108543Y0039452D01*
X0108668Y0039447D01*
X0108792Y0039438D01*
X0108915Y0039425D01*
X0109039Y0039408D01*
X0109161Y0039388D01*
X0109283Y0039363D01*
X0109404Y0039334D01*
X0109524Y0039302D01*
X0109643Y0039266D01*
X0109761Y0039226D01*
X0109878Y0039182D01*
X0109993Y0039135D01*
X0110106Y0039084D01*
X0110218Y0039029D01*
X0110328Y0038971D01*
X0110436Y0038910D01*
X0110542Y0038845D01*
X0110646Y0038776D01*
X0110747Y0038705D01*
X0110847Y0038630D01*
X0110944Y0038552D01*
X0111038Y0038471D01*
X0111130Y0038387D01*
X0111219Y0038300D01*
X0111305Y0038210D01*
X0111388Y0038118D01*
X0111468Y0038023D01*
X0111546Y0037925D01*
X0111620Y0037825D01*
X0111691Y0037723D01*
X0111758Y0037619D01*
X0111822Y0037512D01*
X0111883Y0037403D01*
X0111940Y0037293D01*
X0111994Y0037181D01*
X0112044Y0037067D01*
X0112091Y0036952D01*
X0112133Y0036835D01*
X0112172Y0036717D01*
X0112208Y0036597D01*
X0112239Y0036477D01*
X0112266Y0036356D01*
X0112290Y0036234D01*
X0112310Y0036111D01*
X0112326Y0035987D01*
X0112338Y0035864D01*
X0112346Y0035740D01*
X0112350Y0035615D01*
X0112350Y0035491D01*
X0112346Y0035366D01*
X0112338Y0035242D01*
X0112326Y0035119D01*
X0112310Y0034995D01*
X0112290Y0034872D01*
X0112266Y0034750D01*
X0112239Y0034629D01*
X0112208Y0034509D01*
X0112172Y0034389D01*
X0112133Y0034271D01*
X0112091Y0034154D01*
X0112044Y0034039D01*
X0111994Y0033925D01*
X0111940Y0033813D01*
X0111883Y0033703D01*
X0111822Y0033594D01*
X0111758Y0033487D01*
X0111691Y0033383D01*
X0111620Y0033281D01*
X0111546Y0033181D01*
X0111468Y0033083D01*
X0111388Y0032988D01*
X0111305Y0032896D01*
X0111219Y0032806D01*
X0111130Y0032719D01*
X0111038Y0032635D01*
X0110944Y0032554D01*
X0110847Y0032476D01*
X0110747Y0032401D01*
X0110646Y0032330D01*
X0110542Y0032261D01*
X0110436Y0032196D01*
X0110328Y0032135D01*
X0110218Y0032077D01*
X0110106Y0032022D01*
X0109993Y0031971D01*
X0109878Y0031924D01*
X0109761Y0031880D01*
X0109643Y0031840D01*
X0109524Y0031804D01*
X0109404Y0031772D01*
X0109283Y0031743D01*
X0109161Y0031718D01*
X0109039Y0031698D01*
X0108915Y0031681D01*
X0108792Y0031668D01*
X0108668Y0031659D01*
X0108543Y0031654D01*
X0108419Y0031653D01*
X0108295Y0031656D01*
X0108170Y0031663D01*
X0108046Y0031674D01*
X0107923Y0031689D01*
X0107800Y0031708D01*
X0107678Y0031730D01*
X0107556Y0031757D01*
X0107436Y0031787D01*
X0107316Y0031821D01*
X0107198Y0031860D01*
X0107080Y0031901D01*
X0106965Y0031947D01*
X0106850Y0031996D01*
X0106738Y0032049D01*
X0106627Y0032105D01*
X0106518Y0032165D01*
X0106411Y0032229D01*
X0106306Y0032295D01*
X0106203Y0032365D01*
X0106103Y0032439D01*
X0106005Y0032515D01*
X0105909Y0032594D01*
X0105816Y0032677D01*
X0105725Y0032762D01*
X0105638Y0032851D01*
X0105553Y0032942D01*
X0105471Y0033036D01*
X0105393Y0033132D01*
X0105317Y0033231D01*
X0105244Y0033332D01*
X0105175Y0033435D01*
X0105109Y0033541D01*
X0105047Y0033648D01*
X0104988Y0033758D01*
X0104932Y0033869D01*
X0104880Y0033982D01*
X0104832Y0034097D01*
X0104788Y0034213D01*
X0104747Y0034330D01*
X0104710Y0034449D01*
X0104676Y0034569D01*
X0104647Y0034689D01*
X0104621Y0034811D01*
X0104599Y0034934D01*
X0104582Y0035057D01*
X0104568Y0035180D01*
X0104558Y0035304D01*
X0104552Y0035429D01*
X0104550Y0035553D01*
X0104450Y0031553D02*
X0112450Y0039553D01*
X0107675Y0035553D02*
X0107677Y0035677D01*
X0107683Y0035802D01*
X0107693Y0035926D01*
X0107707Y0036049D01*
X0107724Y0036172D01*
X0107746Y0036295D01*
X0107772Y0036417D01*
X0107801Y0036537D01*
X0107835Y0036657D01*
X0107872Y0036776D01*
X0107913Y0036893D01*
X0107957Y0037009D01*
X0108005Y0037124D01*
X0108057Y0037237D01*
X0108113Y0037348D01*
X0108172Y0037458D01*
X0108234Y0037565D01*
X0108300Y0037671D01*
X0108369Y0037774D01*
X0108442Y0037875D01*
X0108518Y0037974D01*
X0108596Y0038070D01*
X0108678Y0038164D01*
X0108763Y0038255D01*
X0108850Y0038344D01*
X0108941Y0038429D01*
X0109034Y0038512D01*
X0109130Y0038591D01*
X0109228Y0038667D01*
X0109328Y0038741D01*
X0109431Y0038811D01*
X0109536Y0038877D01*
X0109643Y0038941D01*
X0109752Y0039001D01*
X0109863Y0039057D01*
X0109975Y0039110D01*
X0110090Y0039159D01*
X0110205Y0039205D01*
X0110323Y0039246D01*
X0110441Y0039285D01*
X0110561Y0039319D01*
X0110681Y0039349D01*
X0110803Y0039376D01*
X0110925Y0039398D01*
X0111048Y0039417D01*
X0111171Y0039432D01*
X0111295Y0039443D01*
X0111420Y0039450D01*
X0111544Y0039453D01*
X0111668Y0039452D01*
X0111793Y0039447D01*
X0111917Y0039438D01*
X0112040Y0039425D01*
X0112164Y0039408D01*
X0112286Y0039388D01*
X0112408Y0039363D01*
X0112529Y0039334D01*
X0112649Y0039302D01*
X0112768Y0039266D01*
X0112886Y0039226D01*
X0113003Y0039182D01*
X0113118Y0039135D01*
X0113231Y0039084D01*
X0113343Y0039029D01*
X0113453Y0038971D01*
X0113561Y0038910D01*
X0113667Y0038845D01*
X0113771Y0038776D01*
X0113872Y0038705D01*
X0113972Y0038630D01*
X0114069Y0038552D01*
X0114163Y0038471D01*
X0114255Y0038387D01*
X0114344Y0038300D01*
X0114430Y0038210D01*
X0114513Y0038118D01*
X0114593Y0038023D01*
X0114671Y0037925D01*
X0114745Y0037825D01*
X0114816Y0037723D01*
X0114883Y0037619D01*
X0114947Y0037512D01*
X0115008Y0037403D01*
X0115065Y0037293D01*
X0115119Y0037181D01*
X0115169Y0037067D01*
X0115216Y0036952D01*
X0115258Y0036835D01*
X0115297Y0036717D01*
X0115333Y0036597D01*
X0115364Y0036477D01*
X0115391Y0036356D01*
X0115415Y0036234D01*
X0115435Y0036111D01*
X0115451Y0035987D01*
X0115463Y0035864D01*
X0115471Y0035740D01*
X0115475Y0035615D01*
X0115475Y0035491D01*
X0115471Y0035366D01*
X0115463Y0035242D01*
X0115451Y0035119D01*
X0115435Y0034995D01*
X0115415Y0034872D01*
X0115391Y0034750D01*
X0115364Y0034629D01*
X0115333Y0034509D01*
X0115297Y0034389D01*
X0115258Y0034271D01*
X0115216Y0034154D01*
X0115169Y0034039D01*
X0115119Y0033925D01*
X0115065Y0033813D01*
X0115008Y0033703D01*
X0114947Y0033594D01*
X0114883Y0033487D01*
X0114816Y0033383D01*
X0114745Y0033281D01*
X0114671Y0033181D01*
X0114593Y0033083D01*
X0114513Y0032988D01*
X0114430Y0032896D01*
X0114344Y0032806D01*
X0114255Y0032719D01*
X0114163Y0032635D01*
X0114069Y0032554D01*
X0113972Y0032476D01*
X0113872Y0032401D01*
X0113771Y0032330D01*
X0113667Y0032261D01*
X0113561Y0032196D01*
X0113453Y0032135D01*
X0113343Y0032077D01*
X0113231Y0032022D01*
X0113118Y0031971D01*
X0113003Y0031924D01*
X0112886Y0031880D01*
X0112768Y0031840D01*
X0112649Y0031804D01*
X0112529Y0031772D01*
X0112408Y0031743D01*
X0112286Y0031718D01*
X0112164Y0031698D01*
X0112040Y0031681D01*
X0111917Y0031668D01*
X0111793Y0031659D01*
X0111668Y0031654D01*
X0111544Y0031653D01*
X0111420Y0031656D01*
X0111295Y0031663D01*
X0111171Y0031674D01*
X0111048Y0031689D01*
X0110925Y0031708D01*
X0110803Y0031730D01*
X0110681Y0031757D01*
X0110561Y0031787D01*
X0110441Y0031821D01*
X0110323Y0031860D01*
X0110205Y0031901D01*
X0110090Y0031947D01*
X0109975Y0031996D01*
X0109863Y0032049D01*
X0109752Y0032105D01*
X0109643Y0032165D01*
X0109536Y0032229D01*
X0109431Y0032295D01*
X0109328Y0032365D01*
X0109228Y0032439D01*
X0109130Y0032515D01*
X0109034Y0032594D01*
X0108941Y0032677D01*
X0108850Y0032762D01*
X0108763Y0032851D01*
X0108678Y0032942D01*
X0108596Y0033036D01*
X0108518Y0033132D01*
X0108442Y0033231D01*
X0108369Y0033332D01*
X0108300Y0033435D01*
X0108234Y0033541D01*
X0108172Y0033648D01*
X0108113Y0033758D01*
X0108057Y0033869D01*
X0108005Y0033982D01*
X0107957Y0034097D01*
X0107913Y0034213D01*
X0107872Y0034330D01*
X0107835Y0034449D01*
X0107801Y0034569D01*
X0107772Y0034689D01*
X0107746Y0034811D01*
X0107724Y0034934D01*
X0107707Y0035057D01*
X0107693Y0035180D01*
X0107683Y0035304D01*
X0107677Y0035429D01*
X0107675Y0035553D01*
X0107575Y0031553D02*
X0115575Y0039553D01*
X0110800Y0035553D02*
X0110802Y0035677D01*
X0110808Y0035802D01*
X0110818Y0035926D01*
X0110832Y0036049D01*
X0110849Y0036172D01*
X0110871Y0036295D01*
X0110897Y0036417D01*
X0110926Y0036537D01*
X0110960Y0036657D01*
X0110997Y0036776D01*
X0111038Y0036893D01*
X0111082Y0037009D01*
X0111130Y0037124D01*
X0111182Y0037237D01*
X0111238Y0037348D01*
X0111297Y0037458D01*
X0111359Y0037565D01*
X0111425Y0037671D01*
X0111494Y0037774D01*
X0111567Y0037875D01*
X0111643Y0037974D01*
X0111721Y0038070D01*
X0111803Y0038164D01*
X0111888Y0038255D01*
X0111975Y0038344D01*
X0112066Y0038429D01*
X0112159Y0038512D01*
X0112255Y0038591D01*
X0112353Y0038667D01*
X0112453Y0038741D01*
X0112556Y0038811D01*
X0112661Y0038877D01*
X0112768Y0038941D01*
X0112877Y0039001D01*
X0112988Y0039057D01*
X0113100Y0039110D01*
X0113215Y0039159D01*
X0113330Y0039205D01*
X0113448Y0039246D01*
X0113566Y0039285D01*
X0113686Y0039319D01*
X0113806Y0039349D01*
X0113928Y0039376D01*
X0114050Y0039398D01*
X0114173Y0039417D01*
X0114296Y0039432D01*
X0114420Y0039443D01*
X0114545Y0039450D01*
X0114669Y0039453D01*
X0114793Y0039452D01*
X0114918Y0039447D01*
X0115042Y0039438D01*
X0115165Y0039425D01*
X0115289Y0039408D01*
X0115411Y0039388D01*
X0115533Y0039363D01*
X0115654Y0039334D01*
X0115774Y0039302D01*
X0115893Y0039266D01*
X0116011Y0039226D01*
X0116128Y0039182D01*
X0116243Y0039135D01*
X0116356Y0039084D01*
X0116468Y0039029D01*
X0116578Y0038971D01*
X0116686Y0038910D01*
X0116792Y0038845D01*
X0116896Y0038776D01*
X0116997Y0038705D01*
X0117097Y0038630D01*
X0117194Y0038552D01*
X0117288Y0038471D01*
X0117380Y0038387D01*
X0117469Y0038300D01*
X0117555Y0038210D01*
X0117638Y0038118D01*
X0117718Y0038023D01*
X0117796Y0037925D01*
X0117870Y0037825D01*
X0117941Y0037723D01*
X0118008Y0037619D01*
X0118072Y0037512D01*
X0118133Y0037403D01*
X0118190Y0037293D01*
X0118244Y0037181D01*
X0118294Y0037067D01*
X0118341Y0036952D01*
X0118383Y0036835D01*
X0118422Y0036717D01*
X0118458Y0036597D01*
X0118489Y0036477D01*
X0118516Y0036356D01*
X0118540Y0036234D01*
X0118560Y0036111D01*
X0118576Y0035987D01*
X0118588Y0035864D01*
X0118596Y0035740D01*
X0118600Y0035615D01*
X0118600Y0035491D01*
X0118596Y0035366D01*
X0118588Y0035242D01*
X0118576Y0035119D01*
X0118560Y0034995D01*
X0118540Y0034872D01*
X0118516Y0034750D01*
X0118489Y0034629D01*
X0118458Y0034509D01*
X0118422Y0034389D01*
X0118383Y0034271D01*
X0118341Y0034154D01*
X0118294Y0034039D01*
X0118244Y0033925D01*
X0118190Y0033813D01*
X0118133Y0033703D01*
X0118072Y0033594D01*
X0118008Y0033487D01*
X0117941Y0033383D01*
X0117870Y0033281D01*
X0117796Y0033181D01*
X0117718Y0033083D01*
X0117638Y0032988D01*
X0117555Y0032896D01*
X0117469Y0032806D01*
X0117380Y0032719D01*
X0117288Y0032635D01*
X0117194Y0032554D01*
X0117097Y0032476D01*
X0116997Y0032401D01*
X0116896Y0032330D01*
X0116792Y0032261D01*
X0116686Y0032196D01*
X0116578Y0032135D01*
X0116468Y0032077D01*
X0116356Y0032022D01*
X0116243Y0031971D01*
X0116128Y0031924D01*
X0116011Y0031880D01*
X0115893Y0031840D01*
X0115774Y0031804D01*
X0115654Y0031772D01*
X0115533Y0031743D01*
X0115411Y0031718D01*
X0115289Y0031698D01*
X0115165Y0031681D01*
X0115042Y0031668D01*
X0114918Y0031659D01*
X0114793Y0031654D01*
X0114669Y0031653D01*
X0114545Y0031656D01*
X0114420Y0031663D01*
X0114296Y0031674D01*
X0114173Y0031689D01*
X0114050Y0031708D01*
X0113928Y0031730D01*
X0113806Y0031757D01*
X0113686Y0031787D01*
X0113566Y0031821D01*
X0113448Y0031860D01*
X0113330Y0031901D01*
X0113215Y0031947D01*
X0113100Y0031996D01*
X0112988Y0032049D01*
X0112877Y0032105D01*
X0112768Y0032165D01*
X0112661Y0032229D01*
X0112556Y0032295D01*
X0112453Y0032365D01*
X0112353Y0032439D01*
X0112255Y0032515D01*
X0112159Y0032594D01*
X0112066Y0032677D01*
X0111975Y0032762D01*
X0111888Y0032851D01*
X0111803Y0032942D01*
X0111721Y0033036D01*
X0111643Y0033132D01*
X0111567Y0033231D01*
X0111494Y0033332D01*
X0111425Y0033435D01*
X0111359Y0033541D01*
X0111297Y0033648D01*
X0111238Y0033758D01*
X0111182Y0033869D01*
X0111130Y0033982D01*
X0111082Y0034097D01*
X0111038Y0034213D01*
X0110997Y0034330D01*
X0110960Y0034449D01*
X0110926Y0034569D01*
X0110897Y0034689D01*
X0110871Y0034811D01*
X0110849Y0034934D01*
X0110832Y0035057D01*
X0110818Y0035180D01*
X0110808Y0035304D01*
X0110802Y0035429D01*
X0110800Y0035553D01*
X0110700Y0031553D02*
X0118700Y0039553D01*
X0120700Y0034928D02*
X0128700Y0034928D01*
X0124700Y0030928D02*
X0124700Y0038928D01*
X0071513Y0076803D02*
X0063513Y0076803D01*
X0067513Y0072803D02*
X0067513Y0080803D01*
X0050575Y0080548D02*
X0042575Y0080548D01*
X0046575Y0076548D02*
X0050575Y0080548D01*
X0046575Y0076548D02*
X0046575Y0084548D01*
X0042575Y0080548D01*
X0042575Y0100233D02*
X0050575Y0100233D01*
X0046575Y0096233D01*
X0046575Y0104233D01*
X0042575Y0100233D01*
X0086950Y0101491D02*
X0094950Y0101491D01*
X0090950Y0097491D02*
X0090950Y0105491D01*
X0050575Y0060863D02*
X0042575Y0060863D01*
X0046575Y0056863D02*
X0050575Y0060863D01*
X0046575Y0056863D02*
X0046575Y0064863D01*
X0042575Y0060863D01*
X0042575Y0041178D02*
X0050575Y0041178D01*
X0046575Y0037178D01*
X0046575Y0045178D01*
X0042575Y0041178D01*
M02*
