G75*
%MOIN*%
%OFA0B0*%
%FSLAX25Y25*%
%IPPOS*%
%LPD*%
%AMOC8*
5,1,8,0,0,1.08239X$1,22.5*
%
%ADD10R,0.05512X0.04528*%
%ADD11R,0.06496X0.05709*%
%ADD12R,0.06378X0.05591*%
%ADD13R,0.08491X0.06491*%
%ADD14R,0.08491X0.15591*%
%ADD15C,0.07991*%
%ADD16R,0.06890X0.05709*%
%ADD17R,0.10433X0.12402*%
%ADD18R,0.08591X0.08591*%
%ADD19C,0.08591*%
%ADD20R,0.05709X0.06890*%
%ADD21C,0.06102*%
%ADD22R,0.04134X0.03740*%
%ADD23R,0.04528X0.06102*%
%ADD24C,0.02953*%
%ADD25C,0.04843*%
%ADD26C,0.04134*%
D10*
X0064088Y0035888D03*
X0064088Y0045967D03*
X0086568Y0045967D03*
X0086568Y0035888D03*
D11*
X0101324Y0062748D03*
X0101324Y0070228D03*
D12*
X0096012Y0052458D03*
X0096012Y0035529D03*
D13*
X0077239Y0085206D03*
X0077239Y0094206D03*
X0077239Y0103206D03*
D14*
X0102039Y0094306D03*
D15*
X0164075Y0101803D03*
D16*
X0065328Y0061542D03*
X0065328Y0054062D03*
D17*
X0139137Y0064643D03*
X0139137Y0037084D03*
D18*
X0218138Y0041178D03*
X0046575Y0041178D03*
D19*
X0046575Y0060863D03*
X0046575Y0080548D03*
X0046575Y0100233D03*
X0218138Y0100233D03*
X0218138Y0080548D03*
X0218138Y0060863D03*
D20*
X0150003Y0075553D03*
X0142523Y0075553D03*
X0142523Y0083678D03*
X0150003Y0083678D03*
X0150003Y0091803D03*
X0142523Y0091803D03*
X0142523Y0099928D03*
X0150003Y0099928D03*
D21*
X0177200Y0088991D03*
X0177200Y0078991D03*
X0177200Y0068991D03*
X0177200Y0058991D03*
X0197200Y0058991D03*
X0197200Y0068991D03*
X0197200Y0078991D03*
X0197200Y0088991D03*
X0117513Y0091803D03*
X0117513Y0085553D03*
X0117513Y0079303D03*
X0117513Y0073053D03*
X0117513Y0066803D03*
X0117513Y0060553D03*
X0117513Y0054303D03*
X0177200Y0038991D03*
X0197200Y0038991D03*
X0117513Y0098053D03*
D22*
X0158263Y0091793D03*
X0166531Y0088053D03*
X0158263Y0084313D03*
X0158263Y0049606D03*
X0166531Y0045866D03*
X0158263Y0042125D03*
D23*
X0162210Y0054972D03*
X0169691Y0054972D03*
X0165950Y0063634D03*
X0162200Y0070285D03*
X0158460Y0078946D03*
X0165941Y0078946D03*
D24*
X0156575Y0071803D03*
X0155325Y0068678D03*
X0135325Y0078678D03*
X0128138Y0080241D03*
X0124700Y0075866D03*
X0128138Y0072428D03*
X0125325Y0069928D03*
X0128450Y0067116D03*
X0131263Y0069928D03*
X0130950Y0064303D03*
X0130950Y0060241D03*
X0141888Y0055241D03*
X0147513Y0055241D03*
X0141575Y0050553D03*
X0143138Y0046178D03*
X0139075Y0046491D03*
X0135950Y0045241D03*
X0130638Y0049303D03*
X0117200Y0048366D03*
X0110950Y0050241D03*
X0102200Y0053366D03*
X0110950Y0056178D03*
X0110950Y0062116D03*
X0110950Y0068053D03*
X0110950Y0073678D03*
X0127200Y0088991D03*
X0134075Y0088991D03*
X0128450Y0099928D03*
X0080013Y0053366D03*
X0100950Y0040553D03*
X0104075Y0040553D03*
X0107200Y0040553D03*
X0110325Y0040553D03*
X0111575Y0035553D03*
X0108450Y0035553D03*
X0105325Y0035553D03*
X0101888Y0036803D03*
X0114700Y0035553D03*
X0147825Y0045553D03*
X0153450Y0044616D03*
X0153450Y0041178D03*
X0168450Y0041178D03*
X0151888Y0049928D03*
D25*
X0095638Y0040866D03*
D26*
X0101575Y0048678D03*
X0121263Y0045241D03*
X0124700Y0034928D03*
X0080013Y0031491D03*
X0073450Y0040866D03*
X0069700Y0045866D03*
X0067513Y0076803D03*
X0090950Y0101491D03*
M02*
