%
M48
M72
T01C0.01181
T02C0.01969
T03C0.02362
T04C0.03937
T05C0.04000
T06C0.04724
%
T01
X101888Y36803
X105325Y35553
X108450Y35553
X111575Y35553
X114700Y35553
X110325Y40553
X107200Y40553
X104075Y40553
X100950Y40553
X117200Y48366
X110950Y50241
X102200Y53366
X110950Y56178
X110950Y62116
X110950Y68053
X110950Y73678
X124700Y75866
X128138Y72428
X125325Y69928
X128450Y67116
X131263Y69928
X130950Y64303
X130950Y60241
X141888Y55241
X147513Y55241
X141575Y50553
X143138Y46178
X139075Y46491
X135950Y45241
X130638Y49303
X147825Y45553
X153450Y44616
X153450Y41178
X168450Y41178
X151888Y49928
X155325Y68678
X156575Y71803
X135325Y78678
X128138Y80241
X127200Y88991
X134075Y88991
X128450Y99928
X80013Y53366
T02
X80013Y31491
X73450Y40866
X69700Y45866
X101575Y48678
X121263Y45241
X124700Y34928
X67513Y76803
X90950Y101491
T03
X95638Y40866
T04
X177200Y38991
X197200Y38991
X197200Y58991
X197200Y68991
X197200Y78991
X197200Y88991
X177200Y88991
X177200Y78991
X177200Y68991
X177200Y58991
T05
X164075Y101803
T06
X218138Y100233
X218138Y80548
X218138Y60863
X218138Y41178
X46575Y41178
X46575Y60863
X46575Y80548
X46575Y100233
M30
