G75*
%MOIN*%
%OFA0B0*%
%FSLAX25Y25*%
%IPPOS*%
%LPD*%
%AMOC8*
5,1,8,0,0,1.08239X$1,22.5*
%
%ADD10R,0.05906X0.05118*%
%ADD11R,0.03937X0.05512*%
%ADD12R,0.08661X0.02362*%
%ADD13C,0.07400*%
%ADD14R,0.03937X0.03937*%
%ADD15R,0.04724X0.04724*%
%ADD16R,0.06299X0.05118*%
%ADD17R,0.05118X0.06299*%
%ADD18R,0.12598X0.04724*%
%ADD19R,0.05512X0.04528*%
%ADD20R,0.03937X0.03150*%
%ADD21R,0.05118X0.04528*%
%ADD22R,0.03150X0.03937*%
%ADD23R,0.04528X0.05512*%
%ADD24R,0.08000X0.08000*%
%ADD25C,0.08000*%
%ADD26C,0.05512*%
%ADD27C,0.01600*%
%ADD28C,0.02362*%
%ADD29C,0.04252*%
%ADD30C,0.03200*%
%ADD31C,0.02400*%
%ADD32C,0.03543*%
D10*
X0073450Y0076894D03*
X0073450Y0083587D03*
X0089700Y0083587D03*
X0098450Y0083587D03*
X0098450Y0076894D03*
X0089700Y0076894D03*
X0075013Y0097438D03*
X0075013Y0104918D03*
X0164075Y0062337D03*
X0164075Y0055644D03*
D11*
X0138128Y0094347D03*
X0130648Y0094347D03*
X0134388Y0103009D03*
D12*
X0092749Y0067428D03*
X0092749Y0062428D03*
X0092749Y0057428D03*
X0092749Y0052428D03*
X0072277Y0052428D03*
X0072277Y0057428D03*
X0072277Y0062428D03*
X0072277Y0067428D03*
D13*
X0164075Y0101803D03*
D14*
X0156137Y0092428D03*
X0148263Y0092428D03*
X0164075Y0046678D03*
X0164075Y0038804D03*
D15*
X0065013Y0097044D03*
X0065013Y0105312D03*
D16*
X0083138Y0104918D03*
X0083138Y0097438D03*
X0081575Y0083981D03*
X0081575Y0076500D03*
D17*
X0079710Y0043991D03*
X0087191Y0043991D03*
X0131273Y0033366D03*
X0138753Y0033366D03*
D18*
X0120899Y0093929D03*
X0094127Y0093929D03*
X0094127Y0109677D03*
X0120899Y0109677D03*
D19*
X0147816Y0083671D03*
X0147816Y0040561D03*
D20*
X0138957Y0039872D03*
X0133052Y0039872D03*
X0127146Y0039872D03*
X0121241Y0039872D03*
X0121241Y0084360D03*
X0127146Y0084360D03*
X0133052Y0084360D03*
D21*
X0115335Y0083671D03*
X0115335Y0040561D03*
D22*
X0107166Y0050305D03*
X0107166Y0056210D03*
X0107166Y0062116D03*
X0107166Y0068021D03*
X0107166Y0073927D03*
X0155985Y0056210D03*
D23*
X0155296Y0063100D03*
D24*
X0218138Y0041178D03*
X0046575Y0041178D03*
D25*
X0046575Y0060863D03*
X0046575Y0080548D03*
X0046575Y0100233D03*
X0218138Y0100233D03*
X0218138Y0080548D03*
X0218138Y0060863D03*
D26*
X0197200Y0058991D03*
X0197200Y0068991D03*
X0197200Y0078991D03*
X0197200Y0088991D03*
X0177200Y0088991D03*
X0177200Y0078991D03*
X0177200Y0068991D03*
X0177200Y0058991D03*
X0177200Y0038991D03*
X0197200Y0038991D03*
D27*
X0226420Y0027847D02*
X0040432Y0027847D01*
X0040432Y0113845D01*
X0226420Y0113845D01*
X0226420Y0027847D01*
X0226420Y0029267D02*
X0142330Y0029267D01*
X0142703Y0029640D02*
X0142703Y0037091D01*
X0142195Y0037599D01*
X0142316Y0037721D01*
X0142316Y0042022D01*
X0141502Y0042837D01*
X0141266Y0042837D01*
X0141266Y0045059D01*
X0141647Y0045979D01*
X0141647Y0047002D01*
X0141256Y0047947D01*
X0140532Y0048671D01*
X0139587Y0049062D01*
X0139120Y0049062D01*
X0140319Y0050261D01*
X0140319Y0090201D01*
X0140673Y0090201D01*
X0141487Y0091016D01*
X0141487Y0097679D01*
X0141266Y0097900D01*
X0141266Y0108083D01*
X0141545Y0108363D01*
X0202231Y0108363D01*
X0212550Y0098043D01*
X0213211Y0098043D01*
X0213568Y0097180D01*
X0215084Y0095663D01*
X0217066Y0094843D01*
X0219210Y0094843D01*
X0221191Y0095663D01*
X0222708Y0097180D01*
X0223529Y0099161D01*
X0223529Y0101306D01*
X0222708Y0103287D01*
X0221191Y0104803D01*
X0219210Y0105624D01*
X0217066Y0105624D01*
X0215084Y0104803D01*
X0213568Y0103287D01*
X0213549Y0103240D01*
X0204045Y0112744D01*
X0139731Y0112744D01*
X0138447Y0111460D01*
X0136885Y0109898D01*
X0136885Y0107155D01*
X0131843Y0107155D01*
X0131029Y0106341D01*
X0131029Y0105244D01*
X0126606Y0105244D01*
X0125322Y0103960D01*
X0119991Y0098630D01*
X0119044Y0097682D01*
X0114024Y0097682D01*
X0113209Y0096867D01*
X0113209Y0096120D01*
X0101817Y0096120D01*
X0101817Y0096867D01*
X0101002Y0097682D01*
X0093472Y0097682D01*
X0092461Y0098693D01*
X0092742Y0098810D01*
X0093631Y0099699D01*
X0094113Y0100862D01*
X0094113Y0102120D01*
X0093631Y0103282D01*
X0092742Y0104171D01*
X0091579Y0104653D01*
X0091080Y0104653D01*
X0090005Y0105728D01*
X0093746Y0105728D01*
X0093746Y0109296D01*
X0094508Y0109296D01*
X0094508Y0105728D01*
X0100635Y0105728D01*
X0101039Y0105836D01*
X0101401Y0106045D01*
X0101697Y0106340D01*
X0101906Y0106702D01*
X0102014Y0107106D01*
X0102014Y0109296D01*
X0094508Y0109296D01*
X0094508Y0110058D01*
X0093746Y0110058D01*
X0093746Y0109296D01*
X0086241Y0109296D01*
X0086241Y0108868D01*
X0079412Y0108868D01*
X0079116Y0108572D01*
X0078940Y0108748D01*
X0078578Y0108957D01*
X0078175Y0109065D01*
X0075492Y0109065D01*
X0075492Y0105398D01*
X0074533Y0105398D01*
X0074533Y0104439D01*
X0070473Y0104439D01*
X0070473Y0102150D01*
X0070581Y0101747D01*
X0070790Y0101385D01*
X0071086Y0101089D01*
X0071149Y0101052D01*
X0070670Y0100573D01*
X0070670Y0094303D01*
X0071484Y0093488D01*
X0078542Y0093488D01*
X0078977Y0093924D01*
X0079412Y0093488D01*
X0086437Y0093488D01*
X0086437Y0090991D01*
X0087252Y0090176D01*
X0101002Y0090176D01*
X0101817Y0090991D01*
X0101817Y0091739D01*
X0108101Y0091739D01*
X0107231Y0090869D01*
X0105947Y0089585D01*
X0105947Y0080271D01*
X0108933Y0077286D01*
X0107471Y0077286D01*
X0105666Y0079090D01*
X0104714Y0079485D01*
X0102794Y0079485D01*
X0102794Y0080029D01*
X0102709Y0080114D01*
X0102882Y0080415D01*
X0102991Y0080819D01*
X0102991Y0083108D01*
X0098930Y0083108D01*
X0098930Y0084067D01*
X0097971Y0084067D01*
X0097971Y0087734D01*
X0095289Y0087734D01*
X0094885Y0087625D01*
X0094523Y0087416D01*
X0094227Y0087121D01*
X0094075Y0086858D01*
X0093923Y0087121D01*
X0093628Y0087416D01*
X0093266Y0087625D01*
X0092862Y0087734D01*
X0090180Y0087734D01*
X0090180Y0084067D01*
X0089221Y0084067D01*
X0089221Y0087734D01*
X0086539Y0087734D01*
X0086135Y0087625D01*
X0085800Y0087432D01*
X0085301Y0087930D01*
X0080724Y0087930D01*
X0076881Y0091773D01*
X0075598Y0093056D01*
X0070920Y0093056D01*
X0068766Y0095211D01*
X0068766Y0099982D01*
X0067951Y0100797D01*
X0062075Y0100797D01*
X0061260Y0099982D01*
X0061260Y0094106D01*
X0062075Y0093292D01*
X0064489Y0093292D01*
X0069106Y0088675D01*
X0073783Y0088675D01*
X0074725Y0087734D01*
X0073930Y0087734D01*
X0073930Y0084067D01*
X0072971Y0084067D01*
X0072971Y0087734D01*
X0070289Y0087734D01*
X0069885Y0087625D01*
X0069523Y0087416D01*
X0069227Y0087121D01*
X0069018Y0086759D01*
X0068910Y0086355D01*
X0068910Y0084067D01*
X0072971Y0084067D01*
X0072971Y0083108D01*
X0068910Y0083108D01*
X0068910Y0080819D01*
X0069018Y0080415D01*
X0069192Y0080114D01*
X0069107Y0080029D01*
X0069107Y0079794D01*
X0068556Y0079794D01*
X0068142Y0079965D01*
X0066884Y0079965D01*
X0065722Y0079484D01*
X0064832Y0078594D01*
X0064351Y0077432D01*
X0064351Y0076174D01*
X0064832Y0075012D01*
X0065722Y0074122D01*
X0066884Y0073641D01*
X0068142Y0073641D01*
X0068556Y0073813D01*
X0069107Y0073813D01*
X0069107Y0073759D01*
X0069922Y0072945D01*
X0072083Y0072945D01*
X0074831Y0070197D01*
X0072277Y0070197D01*
X0072277Y0067428D01*
X0072277Y0067428D01*
X0066359Y0067428D01*
X0066359Y0066038D01*
X0066467Y0065634D01*
X0066676Y0065272D01*
X0066971Y0064977D01*
X0067210Y0064839D01*
X0066555Y0064185D01*
X0066555Y0060671D01*
X0067298Y0059928D01*
X0066989Y0059619D01*
X0066606Y0059619D01*
X0065322Y0058335D01*
X0064731Y0057744D01*
X0063447Y0056460D01*
X0063447Y0041208D01*
X0065800Y0038856D01*
X0059064Y0038856D01*
X0058316Y0039604D01*
X0058316Y0084898D01*
X0057861Y0085997D01*
X0057019Y0086838D01*
X0049566Y0094292D01*
X0049566Y0095637D01*
X0049629Y0095663D01*
X0051145Y0097180D01*
X0051966Y0099161D01*
X0051966Y0101306D01*
X0051145Y0103287D01*
X0049629Y0104803D01*
X0047648Y0105624D01*
X0045503Y0105624D01*
X0043522Y0104803D01*
X0042006Y0103287D01*
X0041185Y0101306D01*
X0041185Y0099161D01*
X0042006Y0097180D01*
X0043522Y0095663D01*
X0043585Y0095637D01*
X0043585Y0092458D01*
X0044040Y0091359D01*
X0052335Y0083064D01*
X0052335Y0037771D01*
X0052790Y0036672D01*
X0056131Y0033330D01*
X0057231Y0032875D01*
X0077164Y0032875D01*
X0076851Y0032120D01*
X0076851Y0030862D01*
X0077332Y0029699D01*
X0078222Y0028810D01*
X0079384Y0028328D01*
X0080642Y0028328D01*
X0081804Y0028810D01*
X0081894Y0028900D01*
X0116778Y0028900D01*
X0117730Y0029294D01*
X0121889Y0033453D01*
X0122020Y0033137D01*
X0122909Y0032247D01*
X0124071Y0031766D01*
X0124199Y0031766D01*
X0124796Y0031169D01*
X0125748Y0030775D01*
X0127323Y0030775D01*
X0127323Y0029640D01*
X0128138Y0028825D01*
X0134408Y0028825D01*
X0135013Y0029431D01*
X0135618Y0028825D01*
X0141888Y0028825D01*
X0142703Y0029640D01*
X0142703Y0030866D02*
X0226420Y0030866D01*
X0226420Y0032464D02*
X0142703Y0032464D01*
X0142703Y0034063D02*
X0226420Y0034063D01*
X0226420Y0035661D02*
X0199735Y0035661D01*
X0199549Y0035475D02*
X0200716Y0036642D01*
X0201347Y0038166D01*
X0201347Y0038188D01*
X0212747Y0038188D01*
X0212747Y0036602D01*
X0213562Y0035788D01*
X0222714Y0035788D01*
X0223529Y0036602D01*
X0223529Y0045754D01*
X0222714Y0046569D01*
X0213562Y0046569D01*
X0212747Y0045754D01*
X0212747Y0044169D01*
X0198793Y0044169D01*
X0197694Y0043713D01*
X0197118Y0043137D01*
X0196376Y0043137D01*
X0194852Y0042506D01*
X0193685Y0041339D01*
X0193054Y0039815D01*
X0193054Y0038166D01*
X0193685Y0036642D01*
X0194852Y0035475D01*
X0196376Y0034844D01*
X0198025Y0034844D01*
X0199549Y0035475D01*
X0200972Y0037260D02*
X0212747Y0037260D01*
X0223529Y0037260D02*
X0226420Y0037260D01*
X0226420Y0038858D02*
X0223529Y0038858D01*
X0223529Y0040457D02*
X0226420Y0040457D01*
X0226420Y0042055D02*
X0223529Y0042055D01*
X0223529Y0043654D02*
X0226420Y0043654D01*
X0226420Y0045252D02*
X0223529Y0045252D01*
X0226420Y0046851D02*
X0167435Y0046851D01*
X0167435Y0048449D02*
X0226420Y0048449D01*
X0226420Y0050048D02*
X0167066Y0050048D01*
X0167066Y0049591D02*
X0167066Y0051695D01*
X0167604Y0051695D01*
X0168419Y0052509D01*
X0168419Y0058779D01*
X0168207Y0058991D01*
X0168419Y0059202D01*
X0168419Y0065472D01*
X0167604Y0066287D01*
X0166666Y0066287D01*
X0166666Y0097366D01*
X0166959Y0097488D01*
X0168391Y0098920D01*
X0169166Y0100791D01*
X0169166Y0102816D01*
X0168391Y0104687D01*
X0166959Y0106119D01*
X0165088Y0106894D01*
X0163063Y0106894D01*
X0161192Y0106119D01*
X0159760Y0104687D01*
X0158985Y0102816D01*
X0158985Y0100791D01*
X0159760Y0098920D01*
X0161192Y0097488D01*
X0161485Y0097366D01*
X0161485Y0095019D01*
X0159450Y0095019D01*
X0158682Y0095787D01*
X0153593Y0095787D01*
X0152778Y0094973D01*
X0152778Y0089884D01*
X0153593Y0089069D01*
X0158682Y0089069D01*
X0159450Y0089838D01*
X0161485Y0089838D01*
X0161485Y0066287D01*
X0160547Y0066287D01*
X0159732Y0065472D01*
X0159732Y0059202D01*
X0159766Y0059169D01*
X0158629Y0059169D01*
X0158830Y0059369D01*
X0159039Y0059731D01*
X0159147Y0060135D01*
X0159147Y0062768D01*
X0155628Y0062768D01*
X0155628Y0063432D01*
X0154964Y0063432D01*
X0154964Y0067443D01*
X0152823Y0067443D01*
X0152419Y0067335D01*
X0152057Y0067126D01*
X0151762Y0066830D01*
X0151553Y0066469D01*
X0151445Y0066065D01*
X0151445Y0063432D01*
X0154964Y0063432D01*
X0154964Y0062768D01*
X0151445Y0062768D01*
X0151445Y0060135D01*
X0151553Y0059731D01*
X0151762Y0059369D01*
X0152057Y0059074D01*
X0152419Y0058865D01*
X0152823Y0058757D01*
X0153022Y0058757D01*
X0153020Y0058755D01*
X0153020Y0056866D01*
X0152994Y0056805D01*
X0152994Y0055615D01*
X0153020Y0055554D01*
X0153020Y0053666D01*
X0153834Y0052851D01*
X0158136Y0052851D01*
X0158472Y0053188D01*
X0159732Y0053188D01*
X0159732Y0052509D01*
X0160547Y0051695D01*
X0161085Y0051695D01*
X0161085Y0049591D01*
X0160716Y0049222D01*
X0160716Y0044133D01*
X0161531Y0043319D01*
X0166620Y0043319D01*
X0167435Y0044133D01*
X0167435Y0049222D01*
X0167066Y0049591D01*
X0167066Y0051646D02*
X0226420Y0051646D01*
X0226420Y0053245D02*
X0168419Y0053245D01*
X0168419Y0054843D02*
X0175909Y0054843D01*
X0176183Y0054754D02*
X0176859Y0054647D01*
X0177016Y0054647D01*
X0177016Y0058806D01*
X0177385Y0058806D01*
X0177385Y0054647D01*
X0177542Y0054647D01*
X0178218Y0054754D01*
X0178868Y0054966D01*
X0179477Y0055276D01*
X0180030Y0055678D01*
X0180513Y0056161D01*
X0180915Y0056714D01*
X0181226Y0057323D01*
X0181437Y0057974D01*
X0181544Y0058649D01*
X0181544Y0058806D01*
X0177385Y0058806D01*
X0177385Y0059175D01*
X0181544Y0059175D01*
X0181544Y0059332D01*
X0181437Y0060008D01*
X0181226Y0060658D01*
X0180915Y0061267D01*
X0180513Y0061820D01*
X0180030Y0062304D01*
X0179477Y0062705D01*
X0178868Y0063016D01*
X0178218Y0063227D01*
X0177542Y0063334D01*
X0177385Y0063334D01*
X0177385Y0059175D01*
X0177016Y0059175D01*
X0177016Y0058806D01*
X0172857Y0058806D01*
X0172857Y0058649D01*
X0172964Y0057974D01*
X0173175Y0057323D01*
X0173486Y0056714D01*
X0173888Y0056161D01*
X0174371Y0055678D01*
X0174924Y0055276D01*
X0175533Y0054966D01*
X0176183Y0054754D01*
X0177016Y0054843D02*
X0177385Y0054843D01*
X0178492Y0054843D02*
X0195909Y0054843D01*
X0196183Y0054754D02*
X0196859Y0054647D01*
X0197016Y0054647D01*
X0197016Y0058806D01*
X0197385Y0058806D01*
X0197385Y0054647D01*
X0197542Y0054647D01*
X0198218Y0054754D01*
X0198868Y0054966D01*
X0199477Y0055276D01*
X0200030Y0055678D01*
X0200513Y0056161D01*
X0200915Y0056714D01*
X0201226Y0057323D01*
X0201437Y0057974D01*
X0201544Y0058649D01*
X0201544Y0058806D01*
X0197385Y0058806D01*
X0197385Y0059175D01*
X0201544Y0059175D01*
X0201544Y0059332D01*
X0201437Y0060008D01*
X0201226Y0060658D01*
X0200915Y0061267D01*
X0200513Y0061820D01*
X0200030Y0062304D01*
X0199477Y0062705D01*
X0198868Y0063016D01*
X0198218Y0063227D01*
X0197542Y0063334D01*
X0197385Y0063334D01*
X0197385Y0059175D01*
X0197016Y0059175D01*
X0197016Y0058806D01*
X0192857Y0058806D01*
X0192857Y0058649D01*
X0192964Y0057974D01*
X0193175Y0057323D01*
X0193486Y0056714D01*
X0193888Y0056161D01*
X0194371Y0055678D01*
X0194924Y0055276D01*
X0195533Y0054966D01*
X0196183Y0054754D01*
X0197016Y0054843D02*
X0197385Y0054843D01*
X0198492Y0054843D02*
X0226420Y0054843D01*
X0226420Y0056442D02*
X0221340Y0056442D01*
X0221191Y0056293D02*
X0222708Y0057810D01*
X0223529Y0059791D01*
X0223529Y0061935D01*
X0222708Y0063917D01*
X0221191Y0065433D01*
X0219210Y0066254D01*
X0217066Y0066254D01*
X0217003Y0066228D01*
X0211705Y0071526D01*
X0210605Y0071981D01*
X0200074Y0071981D01*
X0199549Y0072506D01*
X0198025Y0073137D01*
X0196376Y0073137D01*
X0194852Y0072506D01*
X0194327Y0071981D01*
X0180074Y0071981D01*
X0179549Y0072506D01*
X0178025Y0073137D01*
X0176376Y0073137D01*
X0174852Y0072506D01*
X0173685Y0071339D01*
X0173054Y0069815D01*
X0173054Y0068166D01*
X0173685Y0066642D01*
X0174852Y0065475D01*
X0176376Y0064844D01*
X0178025Y0064844D01*
X0179549Y0065475D01*
X0180074Y0066000D01*
X0194327Y0066000D01*
X0194852Y0065475D01*
X0196376Y0064844D01*
X0198025Y0064844D01*
X0199549Y0065475D01*
X0200074Y0066000D01*
X0208772Y0066000D01*
X0212773Y0061998D01*
X0212747Y0061935D01*
X0212747Y0059791D01*
X0213568Y0057810D01*
X0215084Y0056293D01*
X0217066Y0055473D01*
X0219210Y0055473D01*
X0221191Y0056293D01*
X0222803Y0058040D02*
X0226420Y0058040D01*
X0226420Y0059639D02*
X0223466Y0059639D01*
X0223529Y0061237D02*
X0226420Y0061237D01*
X0226420Y0062836D02*
X0223156Y0062836D01*
X0222190Y0064434D02*
X0226420Y0064434D01*
X0226420Y0066033D02*
X0219743Y0066033D01*
X0215599Y0067631D02*
X0226420Y0067631D01*
X0226420Y0069230D02*
X0214001Y0069230D01*
X0212402Y0070828D02*
X0226420Y0070828D01*
X0226420Y0072427D02*
X0199628Y0072427D01*
X0198025Y0074844D02*
X0196376Y0074844D01*
X0194852Y0075475D01*
X0194327Y0076000D01*
X0180074Y0076000D01*
X0179549Y0075475D01*
X0178025Y0074844D01*
X0176376Y0074844D01*
X0174852Y0075475D01*
X0173685Y0076642D01*
X0173054Y0078166D01*
X0173054Y0079815D01*
X0173685Y0081339D01*
X0174852Y0082506D01*
X0176376Y0083137D01*
X0178025Y0083137D01*
X0179549Y0082506D01*
X0180074Y0081981D01*
X0194210Y0081981D01*
X0194210Y0086117D01*
X0193685Y0086642D01*
X0193054Y0088166D01*
X0193054Y0089815D01*
X0193685Y0091339D01*
X0194852Y0092506D01*
X0196376Y0093137D01*
X0198025Y0093137D01*
X0199549Y0092506D01*
X0200716Y0091339D01*
X0201347Y0089815D01*
X0201347Y0088166D01*
X0200716Y0086642D01*
X0200191Y0086117D01*
X0200191Y0081864D01*
X0200716Y0081339D01*
X0201347Y0079815D01*
X0201347Y0078166D01*
X0200716Y0076642D01*
X0199549Y0075475D01*
X0198025Y0074844D01*
X0199698Y0075624D02*
X0215495Y0075624D01*
X0215210Y0075769D02*
X0215993Y0075370D01*
X0216830Y0075098D01*
X0217698Y0074961D01*
X0217757Y0074961D01*
X0217757Y0080167D01*
X0218519Y0080167D01*
X0218519Y0074961D01*
X0218578Y0074961D01*
X0219446Y0075098D01*
X0220283Y0075370D01*
X0221066Y0075769D01*
X0221778Y0076286D01*
X0222400Y0076908D01*
X0222917Y0077620D01*
X0223316Y0078403D01*
X0223588Y0079240D01*
X0223725Y0080108D01*
X0223725Y0080167D01*
X0218519Y0080167D01*
X0218519Y0080929D01*
X0223725Y0080929D01*
X0223725Y0080988D01*
X0223588Y0081857D01*
X0223316Y0082693D01*
X0222917Y0083477D01*
X0222400Y0084188D01*
X0221778Y0084810D01*
X0221066Y0085327D01*
X0220283Y0085726D01*
X0219446Y0085998D01*
X0218578Y0086136D01*
X0218519Y0086136D01*
X0218519Y0080929D01*
X0217757Y0080929D01*
X0217757Y0080167D01*
X0212551Y0080167D01*
X0212551Y0080108D01*
X0212688Y0079240D01*
X0212960Y0078403D01*
X0213359Y0077620D01*
X0213876Y0076908D01*
X0214498Y0076286D01*
X0215210Y0075769D01*
X0213648Y0077222D02*
X0200956Y0077222D01*
X0201347Y0078821D02*
X0212824Y0078821D01*
X0212551Y0080929D02*
X0217757Y0080929D01*
X0217757Y0086136D01*
X0217698Y0086136D01*
X0216830Y0085998D01*
X0215993Y0085726D01*
X0215210Y0085327D01*
X0214498Y0084810D01*
X0213876Y0084188D01*
X0213359Y0083477D01*
X0212960Y0082693D01*
X0212688Y0081857D01*
X0212551Y0080988D01*
X0212551Y0080929D01*
X0212741Y0082018D02*
X0200191Y0082018D01*
X0200191Y0083617D02*
X0213461Y0083617D01*
X0215055Y0085215D02*
X0200191Y0085215D01*
X0200787Y0086814D02*
X0226420Y0086814D01*
X0226420Y0088412D02*
X0201347Y0088412D01*
X0201266Y0090011D02*
X0226420Y0090011D01*
X0226420Y0091609D02*
X0200446Y0091609D01*
X0193955Y0091609D02*
X0180446Y0091609D01*
X0180716Y0091339D02*
X0179549Y0092506D01*
X0178025Y0093137D01*
X0176376Y0093137D01*
X0174852Y0092506D01*
X0173685Y0091339D01*
X0173054Y0089815D01*
X0173054Y0088166D01*
X0173685Y0086642D01*
X0174852Y0085475D01*
X0176376Y0084844D01*
X0178025Y0084844D01*
X0179549Y0085475D01*
X0180716Y0086642D01*
X0181347Y0088166D01*
X0181347Y0089815D01*
X0180716Y0091339D01*
X0181266Y0090011D02*
X0193135Y0090011D01*
X0193054Y0088412D02*
X0181347Y0088412D01*
X0180787Y0086814D02*
X0193614Y0086814D01*
X0194210Y0085215D02*
X0178921Y0085215D01*
X0175480Y0085215D02*
X0166666Y0085215D01*
X0166666Y0086814D02*
X0173614Y0086814D01*
X0173054Y0088412D02*
X0166666Y0088412D01*
X0166666Y0090011D02*
X0173135Y0090011D01*
X0173955Y0091609D02*
X0166666Y0091609D01*
X0166666Y0093208D02*
X0226420Y0093208D01*
X0226420Y0094806D02*
X0166666Y0094806D01*
X0166666Y0096405D02*
X0214343Y0096405D01*
X0213227Y0098003D02*
X0167475Y0098003D01*
X0168674Y0099602D02*
X0210992Y0099602D01*
X0209393Y0101200D02*
X0169166Y0101200D01*
X0169166Y0102799D02*
X0207795Y0102799D01*
X0206196Y0104397D02*
X0168511Y0104397D01*
X0167082Y0105996D02*
X0204598Y0105996D01*
X0202999Y0107594D02*
X0141266Y0107594D01*
X0141266Y0105996D02*
X0161069Y0105996D01*
X0159640Y0104397D02*
X0141266Y0104397D01*
X0141266Y0102799D02*
X0158985Y0102799D01*
X0158985Y0101200D02*
X0141266Y0101200D01*
X0141266Y0099602D02*
X0159477Y0099602D01*
X0160676Y0098003D02*
X0141266Y0098003D01*
X0141487Y0096405D02*
X0161485Y0096405D01*
X0152778Y0094806D02*
X0151766Y0094806D01*
X0151819Y0094606D02*
X0151711Y0095009D01*
X0151502Y0095371D01*
X0151207Y0095667D01*
X0150845Y0095876D01*
X0150441Y0095984D01*
X0148448Y0095984D01*
X0148448Y0092612D01*
X0151819Y0092612D01*
X0151819Y0094606D01*
X0148448Y0094806D02*
X0148079Y0094806D01*
X0148079Y0095984D02*
X0146086Y0095984D01*
X0145682Y0095876D01*
X0145320Y0095667D01*
X0145025Y0095371D01*
X0144816Y0095009D01*
X0144708Y0094606D01*
X0144708Y0092612D01*
X0148079Y0092612D01*
X0148079Y0092244D01*
X0144708Y0092244D01*
X0144708Y0090251D01*
X0144816Y0089847D01*
X0145025Y0089485D01*
X0145320Y0089189D01*
X0145682Y0088980D01*
X0146086Y0088872D01*
X0148079Y0088872D01*
X0148079Y0092244D01*
X0148448Y0092244D01*
X0148448Y0092612D01*
X0148079Y0092612D01*
X0148079Y0095984D01*
X0144761Y0094806D02*
X0141487Y0094806D01*
X0139075Y0095295D02*
X0138128Y0094347D01*
X0138128Y0051168D01*
X0133138Y0046178D01*
X0133138Y0039958D01*
X0133052Y0039872D01*
X0130947Y0042837D02*
X0130507Y0042837D01*
X0130099Y0042429D01*
X0129691Y0042837D01*
X0129391Y0042837D01*
X0129391Y0063023D01*
X0128108Y0064306D01*
X0112594Y0079820D01*
X0115003Y0079820D01*
X0115003Y0083339D01*
X0111189Y0083339D01*
X0111189Y0081225D01*
X0110329Y0082085D01*
X0110329Y0087771D01*
X0113379Y0090821D01*
X0114024Y0090176D01*
X0121538Y0090176D01*
X0120333Y0088972D01*
X0119050Y0087688D01*
X0119050Y0087325D01*
X0118696Y0087325D01*
X0118683Y0087312D01*
X0118507Y0087414D01*
X0118103Y0087522D01*
X0115667Y0087522D01*
X0115667Y0084003D01*
X0115003Y0084003D01*
X0115003Y0083339D01*
X0115667Y0083339D01*
X0115667Y0079820D01*
X0118103Y0079820D01*
X0118507Y0079928D01*
X0118869Y0080137D01*
X0119165Y0080432D01*
X0119374Y0080794D01*
X0119482Y0081198D01*
X0119482Y0081394D01*
X0123785Y0081394D01*
X0124194Y0081803D01*
X0124602Y0081394D01*
X0124956Y0081394D01*
X0124956Y0080325D01*
X0125577Y0079704D01*
X0125958Y0078784D01*
X0126681Y0078061D01*
X0126692Y0078056D01*
X0126132Y0078056D01*
X0125212Y0078437D01*
X0124189Y0078437D01*
X0123244Y0078046D01*
X0122520Y0077322D01*
X0122129Y0076377D01*
X0122129Y0075354D01*
X0122520Y0074409D01*
X0123244Y0073686D01*
X0124189Y0073294D01*
X0125212Y0073294D01*
X0126132Y0073675D01*
X0129186Y0073675D01*
X0135242Y0079732D01*
X0135242Y0081394D01*
X0135596Y0081394D01*
X0135938Y0081736D01*
X0135938Y0052076D01*
X0132231Y0048369D01*
X0130947Y0047085D01*
X0130947Y0042837D01*
X0130947Y0043654D02*
X0129391Y0043654D01*
X0129391Y0045252D02*
X0130947Y0045252D01*
X0130947Y0046851D02*
X0129391Y0046851D01*
X0129391Y0048449D02*
X0132311Y0048449D01*
X0133910Y0050048D02*
X0129391Y0050048D01*
X0129391Y0051646D02*
X0135508Y0051646D01*
X0135938Y0053245D02*
X0129391Y0053245D01*
X0129391Y0054843D02*
X0135938Y0054843D01*
X0135938Y0056442D02*
X0129391Y0056442D01*
X0129391Y0058040D02*
X0135938Y0058040D01*
X0135938Y0059639D02*
X0129391Y0059639D01*
X0129391Y0061237D02*
X0135938Y0061237D01*
X0135938Y0062836D02*
X0129391Y0062836D01*
X0127980Y0064434D02*
X0135938Y0064434D01*
X0135938Y0066033D02*
X0126381Y0066033D01*
X0124783Y0067631D02*
X0135938Y0067631D01*
X0135938Y0069230D02*
X0123184Y0069230D01*
X0121586Y0070828D02*
X0135938Y0070828D01*
X0135938Y0072427D02*
X0119987Y0072427D01*
X0118389Y0074025D02*
X0122904Y0074025D01*
X0122129Y0075624D02*
X0116790Y0075624D01*
X0115192Y0077222D02*
X0122479Y0077222D01*
X0124700Y0075866D02*
X0128278Y0075866D01*
X0133052Y0080639D01*
X0133052Y0084360D01*
X0135938Y0086984D02*
X0135596Y0087325D01*
X0130507Y0087325D01*
X0130099Y0086917D01*
X0129691Y0087325D01*
X0129172Y0087325D01*
X0129381Y0087534D01*
X0129772Y0088479D01*
X0129772Y0089502D01*
X0129483Y0090201D01*
X0133192Y0090201D01*
X0134007Y0091016D01*
X0134007Y0097679D01*
X0133192Y0098494D01*
X0128103Y0098494D01*
X0127291Y0097682D01*
X0125240Y0097682D01*
X0128420Y0100863D01*
X0131029Y0100863D01*
X0131029Y0099677D01*
X0131843Y0098862D01*
X0136885Y0098862D01*
X0136885Y0098494D01*
X0135584Y0098494D01*
X0134769Y0097679D01*
X0134769Y0091016D01*
X0135584Y0090201D01*
X0135938Y0090201D01*
X0135938Y0086984D01*
X0135938Y0088412D02*
X0129744Y0088412D01*
X0127200Y0088991D02*
X0123450Y0088991D01*
X0121241Y0086781D01*
X0121241Y0084360D01*
X0115667Y0085215D02*
X0115003Y0085215D01*
X0115003Y0084003D02*
X0115003Y0087522D01*
X0112567Y0087522D01*
X0112164Y0087414D01*
X0111802Y0087205D01*
X0111506Y0086909D01*
X0111297Y0086547D01*
X0111189Y0086144D01*
X0111189Y0084003D01*
X0115003Y0084003D01*
X0115003Y0083617D02*
X0110329Y0083617D01*
X0110396Y0082018D02*
X0111189Y0082018D01*
X0108138Y0081178D02*
X0127200Y0062116D01*
X0127200Y0039926D01*
X0127146Y0039872D01*
X0135329Y0042837D02*
X0135329Y0045271D01*
X0136504Y0046446D01*
X0136504Y0045979D01*
X0136885Y0045059D01*
X0136885Y0042837D01*
X0136413Y0042837D01*
X0136005Y0042429D01*
X0135596Y0042837D01*
X0135329Y0042837D01*
X0135329Y0043654D02*
X0136885Y0043654D01*
X0136805Y0045252D02*
X0135329Y0045252D01*
X0139075Y0046491D02*
X0139075Y0039990D01*
X0138957Y0039872D01*
X0138957Y0033570D01*
X0138753Y0033366D01*
X0142703Y0035661D02*
X0161036Y0035661D01*
X0161132Y0035565D02*
X0161494Y0035356D01*
X0161898Y0035248D01*
X0163891Y0035248D01*
X0163891Y0038619D01*
X0164260Y0038619D01*
X0164260Y0035248D01*
X0166253Y0035248D01*
X0166657Y0035356D01*
X0167019Y0035565D01*
X0167314Y0035860D01*
X0167523Y0036222D01*
X0167631Y0036626D01*
X0167631Y0038619D01*
X0164260Y0038619D01*
X0164260Y0038988D01*
X0167631Y0038988D01*
X0167631Y0040981D01*
X0167523Y0041385D01*
X0167314Y0041747D01*
X0167019Y0042042D01*
X0166657Y0042251D01*
X0166253Y0042360D01*
X0164260Y0042360D01*
X0164260Y0038988D01*
X0163891Y0038988D01*
X0163891Y0038619D01*
X0160520Y0038619D01*
X0160520Y0036626D01*
X0160628Y0036222D01*
X0160837Y0035860D01*
X0161132Y0035565D01*
X0163891Y0035661D02*
X0164260Y0035661D01*
X0167115Y0035661D02*
X0174666Y0035661D01*
X0174852Y0035475D02*
X0173685Y0036642D01*
X0173054Y0038166D01*
X0173054Y0039815D01*
X0173685Y0041339D01*
X0174852Y0042506D01*
X0176376Y0043137D01*
X0178025Y0043137D01*
X0179549Y0042506D01*
X0180716Y0041339D01*
X0181347Y0039815D01*
X0181347Y0038166D01*
X0180716Y0036642D01*
X0179549Y0035475D01*
X0178025Y0034844D01*
X0176376Y0034844D01*
X0174852Y0035475D01*
X0173429Y0037260D02*
X0167631Y0037260D01*
X0167631Y0040457D02*
X0173320Y0040457D01*
X0173054Y0038858D02*
X0164260Y0038858D01*
X0163891Y0038858D02*
X0152159Y0038858D01*
X0152159Y0038088D02*
X0152159Y0040229D01*
X0148148Y0040229D01*
X0148148Y0040892D01*
X0152159Y0040892D01*
X0152159Y0043033D01*
X0152051Y0043437D01*
X0151842Y0043799D01*
X0151546Y0044095D01*
X0151184Y0044304D01*
X0150781Y0044412D01*
X0148148Y0044412D01*
X0148148Y0040892D01*
X0147484Y0040892D01*
X0147484Y0040229D01*
X0143472Y0040229D01*
X0143472Y0038088D01*
X0143580Y0037684D01*
X0143789Y0037322D01*
X0144085Y0037027D01*
X0144447Y0036818D01*
X0144851Y0036709D01*
X0147484Y0036709D01*
X0147484Y0040229D01*
X0148148Y0040229D01*
X0148148Y0036709D01*
X0150781Y0036709D01*
X0151184Y0036818D01*
X0151546Y0037027D01*
X0151842Y0037322D01*
X0152051Y0037684D01*
X0152159Y0038088D01*
X0151779Y0037260D02*
X0160520Y0037260D01*
X0160520Y0038988D02*
X0163891Y0038988D01*
X0163891Y0042360D01*
X0161898Y0042360D01*
X0161494Y0042251D01*
X0161132Y0042042D01*
X0160837Y0041747D01*
X0160628Y0041385D01*
X0160520Y0040981D01*
X0160520Y0038988D01*
X0160520Y0040457D02*
X0148148Y0040457D01*
X0147484Y0040457D02*
X0142316Y0040457D01*
X0143472Y0040892D02*
X0143472Y0043033D01*
X0143580Y0043437D01*
X0143789Y0043799D01*
X0144085Y0044095D01*
X0144447Y0044304D01*
X0144851Y0044412D01*
X0147484Y0044412D01*
X0147484Y0040892D01*
X0143472Y0040892D01*
X0143472Y0042055D02*
X0142284Y0042055D01*
X0141266Y0043654D02*
X0143706Y0043654D01*
X0141346Y0045252D02*
X0160716Y0045252D01*
X0161196Y0043654D02*
X0151926Y0043654D01*
X0152159Y0042055D02*
X0161155Y0042055D01*
X0163891Y0042055D02*
X0164260Y0042055D01*
X0166996Y0042055D02*
X0174401Y0042055D01*
X0180000Y0042055D02*
X0194401Y0042055D01*
X0197634Y0043654D02*
X0166955Y0043654D01*
X0167435Y0045252D02*
X0212747Y0045252D01*
X0193320Y0040457D02*
X0181081Y0040457D01*
X0181347Y0038858D02*
X0193054Y0038858D01*
X0193429Y0037260D02*
X0180972Y0037260D01*
X0179735Y0035661D02*
X0194666Y0035661D01*
X0164260Y0037260D02*
X0163891Y0037260D01*
X0163891Y0040457D02*
X0164260Y0040457D01*
X0160716Y0046851D02*
X0141647Y0046851D01*
X0140754Y0048449D02*
X0160716Y0048449D01*
X0161085Y0050048D02*
X0140105Y0050048D01*
X0140319Y0051646D02*
X0161085Y0051646D01*
X0153440Y0053245D02*
X0140319Y0053245D01*
X0140319Y0054843D02*
X0153020Y0054843D01*
X0152994Y0056442D02*
X0140319Y0056442D01*
X0140319Y0058040D02*
X0153020Y0058040D01*
X0151606Y0059639D02*
X0140319Y0059639D01*
X0140319Y0061237D02*
X0151445Y0061237D01*
X0154964Y0062836D02*
X0140319Y0062836D01*
X0140319Y0064434D02*
X0151445Y0064434D01*
X0154964Y0064434D02*
X0155628Y0064434D01*
X0155628Y0063432D02*
X0155628Y0067443D01*
X0157769Y0067443D01*
X0158172Y0067335D01*
X0158534Y0067126D01*
X0158830Y0066830D01*
X0159039Y0066469D01*
X0159147Y0066065D01*
X0159147Y0063432D01*
X0155628Y0063432D01*
X0155628Y0062836D02*
X0159732Y0062836D01*
X0159732Y0064434D02*
X0159147Y0064434D01*
X0159147Y0066033D02*
X0160293Y0066033D01*
X0161485Y0067631D02*
X0140319Y0067631D01*
X0140319Y0066033D02*
X0151445Y0066033D01*
X0154964Y0066033D02*
X0155628Y0066033D01*
X0161485Y0069230D02*
X0140319Y0069230D01*
X0140319Y0070828D02*
X0161485Y0070828D01*
X0161485Y0072427D02*
X0140319Y0072427D01*
X0140319Y0074025D02*
X0161485Y0074025D01*
X0161485Y0075624D02*
X0140319Y0075624D01*
X0140319Y0077222D02*
X0161485Y0077222D01*
X0161485Y0078821D02*
X0140319Y0078821D01*
X0140319Y0080420D02*
X0143802Y0080420D01*
X0143789Y0080432D02*
X0144085Y0080137D01*
X0144447Y0079928D01*
X0144851Y0079820D01*
X0147484Y0079820D01*
X0147484Y0083339D01*
X0148148Y0083339D01*
X0148148Y0084003D01*
X0152159Y0084003D01*
X0152159Y0086144D01*
X0152051Y0086547D01*
X0151842Y0086909D01*
X0151546Y0087205D01*
X0151184Y0087414D01*
X0150781Y0087522D01*
X0148148Y0087522D01*
X0148148Y0084003D01*
X0147484Y0084003D01*
X0147484Y0087522D01*
X0144851Y0087522D01*
X0144447Y0087414D01*
X0144085Y0087205D01*
X0143789Y0086909D01*
X0143580Y0086547D01*
X0143472Y0086144D01*
X0143472Y0084003D01*
X0147484Y0084003D01*
X0147484Y0083339D01*
X0143472Y0083339D01*
X0143472Y0081198D01*
X0143580Y0080794D01*
X0143789Y0080432D01*
X0143472Y0082018D02*
X0140319Y0082018D01*
X0140319Y0083617D02*
X0147484Y0083617D01*
X0148148Y0083617D02*
X0161485Y0083617D01*
X0161485Y0082018D02*
X0152159Y0082018D01*
X0152159Y0081198D02*
X0152159Y0083339D01*
X0148148Y0083339D01*
X0148148Y0079820D01*
X0150781Y0079820D01*
X0151184Y0079928D01*
X0151546Y0080137D01*
X0151842Y0080432D01*
X0152051Y0080794D01*
X0152159Y0081198D01*
X0151829Y0080420D02*
X0161485Y0080420D01*
X0166666Y0080420D02*
X0173304Y0080420D01*
X0174364Y0082018D02*
X0166666Y0082018D01*
X0166666Y0083617D02*
X0194210Y0083617D01*
X0194210Y0082018D02*
X0180037Y0082018D01*
X0173054Y0078821D02*
X0166666Y0078821D01*
X0166666Y0077222D02*
X0173445Y0077222D01*
X0174703Y0075624D02*
X0166666Y0075624D01*
X0166666Y0074025D02*
X0226420Y0074025D01*
X0226420Y0075624D02*
X0220781Y0075624D01*
X0218519Y0075624D02*
X0217757Y0075624D01*
X0217757Y0077222D02*
X0218519Y0077222D01*
X0218519Y0078821D02*
X0217757Y0078821D01*
X0217757Y0080420D02*
X0201097Y0080420D01*
X0194703Y0075624D02*
X0179698Y0075624D01*
X0179628Y0072427D02*
X0194773Y0072427D01*
X0210337Y0064434D02*
X0168419Y0064434D01*
X0168419Y0062836D02*
X0175180Y0062836D01*
X0174924Y0062705D02*
X0174371Y0062304D01*
X0173888Y0061820D01*
X0173486Y0061267D01*
X0173175Y0060658D01*
X0172964Y0060008D01*
X0172857Y0059332D01*
X0172857Y0059175D01*
X0177016Y0059175D01*
X0177016Y0063334D01*
X0176859Y0063334D01*
X0176183Y0063227D01*
X0175533Y0063016D01*
X0174924Y0062705D01*
X0173471Y0061237D02*
X0168419Y0061237D01*
X0168419Y0059639D02*
X0172906Y0059639D01*
X0172954Y0058040D02*
X0168419Y0058040D01*
X0168419Y0056442D02*
X0173684Y0056442D01*
X0177016Y0056442D02*
X0177385Y0056442D01*
X0177385Y0058040D02*
X0177016Y0058040D01*
X0177016Y0059639D02*
X0177385Y0059639D01*
X0181495Y0059639D02*
X0192906Y0059639D01*
X0192857Y0059332D02*
X0192857Y0059175D01*
X0197016Y0059175D01*
X0197016Y0063334D01*
X0196859Y0063334D01*
X0196183Y0063227D01*
X0195533Y0063016D01*
X0194924Y0062705D01*
X0194371Y0062304D01*
X0193888Y0061820D01*
X0193486Y0061267D01*
X0193175Y0060658D01*
X0192964Y0060008D01*
X0192857Y0059332D01*
X0192954Y0058040D02*
X0181447Y0058040D01*
X0180717Y0056442D02*
X0193684Y0056442D01*
X0197016Y0056442D02*
X0197385Y0056442D01*
X0197385Y0058040D02*
X0197016Y0058040D01*
X0197016Y0059639D02*
X0197385Y0059639D01*
X0201495Y0059639D02*
X0212810Y0059639D01*
X0213473Y0058040D02*
X0201447Y0058040D01*
X0200717Y0056442D02*
X0214936Y0056442D01*
X0212747Y0061237D02*
X0200930Y0061237D01*
X0199221Y0062836D02*
X0211936Y0062836D01*
X0197385Y0062836D02*
X0197016Y0062836D01*
X0197016Y0061237D02*
X0197385Y0061237D01*
X0195180Y0062836D02*
X0179221Y0062836D01*
X0177385Y0062836D02*
X0177016Y0062836D01*
X0177016Y0061237D02*
X0177385Y0061237D01*
X0180930Y0061237D02*
X0193471Y0061237D01*
X0174294Y0066033D02*
X0167858Y0066033D01*
X0166666Y0067631D02*
X0173275Y0067631D01*
X0173054Y0069230D02*
X0166666Y0069230D01*
X0166666Y0070828D02*
X0173474Y0070828D01*
X0174773Y0072427D02*
X0166666Y0072427D01*
X0148148Y0080420D02*
X0147484Y0080420D01*
X0147484Y0082018D02*
X0148148Y0082018D01*
X0148148Y0085215D02*
X0147484Y0085215D01*
X0147484Y0086814D02*
X0148148Y0086814D01*
X0151897Y0086814D02*
X0161485Y0086814D01*
X0161485Y0088412D02*
X0140319Y0088412D01*
X0140319Y0086814D02*
X0143734Y0086814D01*
X0143472Y0085215D02*
X0140319Y0085215D01*
X0140319Y0090011D02*
X0144772Y0090011D01*
X0144708Y0091609D02*
X0141487Y0091609D01*
X0141487Y0093208D02*
X0144708Y0093208D01*
X0148079Y0093208D02*
X0148448Y0093208D01*
X0148448Y0092244D02*
X0151819Y0092244D01*
X0151819Y0090251D01*
X0151711Y0089847D01*
X0151502Y0089485D01*
X0151207Y0089189D01*
X0150845Y0088980D01*
X0150441Y0088872D01*
X0148448Y0088872D01*
X0148448Y0092244D01*
X0148448Y0091609D02*
X0148079Y0091609D01*
X0148079Y0090011D02*
X0148448Y0090011D01*
X0151755Y0090011D02*
X0152778Y0090011D01*
X0152778Y0091609D02*
X0151819Y0091609D01*
X0151819Y0093208D02*
X0152778Y0093208D01*
X0139075Y0095295D02*
X0139075Y0108991D01*
X0140638Y0110553D01*
X0203138Y0110553D01*
X0213458Y0100233D01*
X0218138Y0100233D01*
X0223049Y0098003D02*
X0226420Y0098003D01*
X0226420Y0096405D02*
X0221933Y0096405D01*
X0223529Y0099602D02*
X0226420Y0099602D01*
X0226420Y0101200D02*
X0223529Y0101200D01*
X0222910Y0102799D02*
X0226420Y0102799D01*
X0226420Y0104397D02*
X0221597Y0104397D01*
X0226420Y0105996D02*
X0210793Y0105996D01*
X0209195Y0107594D02*
X0226420Y0107594D01*
X0226420Y0109193D02*
X0207596Y0109193D01*
X0205998Y0110791D02*
X0226420Y0110791D01*
X0226420Y0112390D02*
X0204399Y0112390D01*
X0212392Y0104397D02*
X0214678Y0104397D01*
X0217757Y0085215D02*
X0218519Y0085215D01*
X0218519Y0083617D02*
X0217757Y0083617D01*
X0217757Y0082018D02*
X0218519Y0082018D01*
X0218519Y0080420D02*
X0226420Y0080420D01*
X0226420Y0082018D02*
X0223535Y0082018D01*
X0222815Y0083617D02*
X0226420Y0083617D01*
X0226420Y0085215D02*
X0221220Y0085215D01*
X0223452Y0078821D02*
X0226420Y0078821D01*
X0226420Y0077222D02*
X0222628Y0077222D01*
X0161485Y0085215D02*
X0152159Y0085215D01*
X0135938Y0080420D02*
X0135242Y0080420D01*
X0135938Y0078821D02*
X0134331Y0078821D01*
X0132733Y0077222D02*
X0135938Y0077222D01*
X0135938Y0075624D02*
X0131134Y0075624D01*
X0129536Y0074025D02*
X0135938Y0074025D01*
X0125942Y0078821D02*
X0113593Y0078821D01*
X0115003Y0080420D02*
X0115667Y0080420D01*
X0115667Y0082018D02*
X0115003Y0082018D01*
X0119152Y0080420D02*
X0124956Y0080420D01*
X0127146Y0081232D02*
X0127146Y0084360D01*
X0127146Y0081232D02*
X0128138Y0080241D01*
X0115667Y0086814D02*
X0115003Y0086814D01*
X0111451Y0086814D02*
X0110329Y0086814D01*
X0110329Y0085215D02*
X0111189Y0085215D01*
X0110970Y0088412D02*
X0119774Y0088412D01*
X0121373Y0090011D02*
X0112568Y0090011D01*
X0113389Y0093929D02*
X0108138Y0088678D01*
X0108138Y0081178D01*
X0105947Y0080420D02*
X0102884Y0080420D01*
X0102991Y0082018D02*
X0105947Y0082018D01*
X0105947Y0083617D02*
X0098930Y0083617D01*
X0098930Y0084067D02*
X0102991Y0084067D01*
X0102991Y0086355D01*
X0102882Y0086759D01*
X0102673Y0087121D01*
X0102378Y0087416D01*
X0102016Y0087625D01*
X0101612Y0087734D01*
X0098930Y0087734D01*
X0098930Y0084067D01*
X0097971Y0084067D02*
X0097971Y0083108D01*
X0090180Y0083108D01*
X0090180Y0084067D01*
X0094241Y0084067D01*
X0097971Y0084067D01*
X0097971Y0083617D02*
X0090180Y0083617D01*
X0090180Y0085215D02*
X0089221Y0085215D01*
X0089221Y0086814D02*
X0090180Y0086814D01*
X0097971Y0086814D02*
X0098930Y0086814D01*
X0098930Y0085215D02*
X0097971Y0085215D01*
X0102991Y0085215D02*
X0105947Y0085215D01*
X0105947Y0086814D02*
X0102851Y0086814D01*
X0105947Y0088412D02*
X0080242Y0088412D01*
X0078644Y0090011D02*
X0106372Y0090011D01*
X0107971Y0091609D02*
X0101817Y0091609D01*
X0094127Y0093929D02*
X0113389Y0093929D01*
X0114700Y0093929D01*
X0120899Y0093929D01*
X0120899Y0096439D01*
X0127513Y0103053D01*
X0134344Y0103053D01*
X0134388Y0103009D01*
X0131029Y0105996D02*
X0128088Y0105996D01*
X0128173Y0106045D02*
X0128468Y0106340D01*
X0128677Y0106702D01*
X0128785Y0107106D01*
X0128785Y0109296D01*
X0121280Y0109296D01*
X0121280Y0110058D01*
X0128785Y0110058D01*
X0128785Y0112248D01*
X0128677Y0112652D01*
X0128468Y0113014D01*
X0128173Y0113310D01*
X0127811Y0113519D01*
X0127407Y0113627D01*
X0121280Y0113627D01*
X0121280Y0110058D01*
X0120518Y0110058D01*
X0120518Y0109296D01*
X0121280Y0109296D01*
X0121280Y0105728D01*
X0127407Y0105728D01*
X0127811Y0105836D01*
X0128173Y0106045D01*
X0128785Y0107594D02*
X0136885Y0107594D01*
X0136885Y0109193D02*
X0128785Y0109193D01*
X0128785Y0110791D02*
X0137778Y0110791D01*
X0139377Y0112390D02*
X0128748Y0112390D01*
X0121280Y0112390D02*
X0120518Y0112390D01*
X0120518Y0113627D02*
X0114391Y0113627D01*
X0113987Y0113519D01*
X0113625Y0113310D01*
X0113329Y0113014D01*
X0113120Y0112652D01*
X0113012Y0112248D01*
X0113012Y0110058D01*
X0120518Y0110058D01*
X0120518Y0113627D01*
X0120518Y0110791D02*
X0121280Y0110791D01*
X0121280Y0109193D02*
X0120518Y0109193D01*
X0120518Y0109296D02*
X0120518Y0105728D01*
X0114391Y0105728D01*
X0113987Y0105836D01*
X0113625Y0106045D01*
X0113329Y0106340D01*
X0113120Y0106702D01*
X0113012Y0107106D01*
X0113012Y0109296D01*
X0120518Y0109296D01*
X0120518Y0107594D02*
X0121280Y0107594D01*
X0121280Y0105996D02*
X0120518Y0105996D01*
X0125322Y0103960D02*
X0125322Y0103960D01*
X0125759Y0104397D02*
X0092197Y0104397D01*
X0093746Y0105996D02*
X0094508Y0105996D01*
X0094508Y0107594D02*
X0093746Y0107594D01*
X0093746Y0109193D02*
X0094508Y0109193D01*
X0094508Y0110058D02*
X0102014Y0110058D01*
X0102014Y0112248D01*
X0101906Y0112652D01*
X0101697Y0113014D01*
X0101401Y0113310D01*
X0101039Y0113519D01*
X0100635Y0113627D01*
X0094508Y0113627D01*
X0094508Y0110058D01*
X0094508Y0110791D02*
X0093746Y0110791D01*
X0093746Y0110058D02*
X0093746Y0113627D01*
X0087619Y0113627D01*
X0087215Y0113519D01*
X0086853Y0113310D01*
X0086558Y0113014D01*
X0086349Y0112652D01*
X0086241Y0112248D01*
X0086241Y0110058D01*
X0093746Y0110058D01*
X0093746Y0112390D02*
X0094508Y0112390D01*
X0101976Y0112390D02*
X0113050Y0112390D01*
X0113012Y0110791D02*
X0102014Y0110791D01*
X0102014Y0109193D02*
X0113012Y0109193D01*
X0113012Y0107594D02*
X0102014Y0107594D01*
X0101316Y0105996D02*
X0113710Y0105996D01*
X0122562Y0101200D02*
X0094113Y0101200D01*
X0093831Y0102799D02*
X0124161Y0102799D01*
X0127159Y0099602D02*
X0131104Y0099602D01*
X0133683Y0098003D02*
X0135093Y0098003D01*
X0134769Y0096405D02*
X0134007Y0096405D01*
X0134007Y0094806D02*
X0134769Y0094806D01*
X0134769Y0093208D02*
X0134007Y0093208D01*
X0134007Y0091609D02*
X0134769Y0091609D01*
X0135938Y0090011D02*
X0129562Y0090011D01*
X0127613Y0098003D02*
X0125561Y0098003D01*
X0120964Y0099602D02*
X0093533Y0099602D01*
X0093151Y0098003D02*
X0119365Y0098003D01*
X0119991Y0098630D02*
X0119991Y0098630D01*
X0113209Y0096405D02*
X0101817Y0096405D01*
X0094127Y0093929D02*
X0090618Y0097438D01*
X0083138Y0097438D01*
X0075013Y0097438D01*
X0070670Y0098003D02*
X0068766Y0098003D01*
X0068766Y0096405D02*
X0070670Y0096405D01*
X0070670Y0094806D02*
X0069170Y0094806D01*
X0070769Y0093208D02*
X0086437Y0093208D01*
X0086437Y0091609D02*
X0077045Y0091609D01*
X0074691Y0090866D02*
X0070013Y0090866D01*
X0065013Y0095866D01*
X0065013Y0097044D01*
X0061260Y0096405D02*
X0050370Y0096405D01*
X0049566Y0094806D02*
X0061260Y0094806D01*
X0061260Y0098003D02*
X0051486Y0098003D01*
X0051966Y0099602D02*
X0061260Y0099602D01*
X0062038Y0101471D02*
X0062442Y0101362D01*
X0064632Y0101362D01*
X0064632Y0104931D01*
X0065394Y0104931D01*
X0065394Y0105693D01*
X0068963Y0105693D01*
X0068963Y0107883D01*
X0068854Y0108287D01*
X0068645Y0108649D01*
X0068350Y0108944D01*
X0067988Y0109153D01*
X0067584Y0109262D01*
X0065394Y0109262D01*
X0065394Y0105693D01*
X0064632Y0105693D01*
X0064632Y0109262D01*
X0062442Y0109262D01*
X0062038Y0109153D01*
X0061676Y0108944D01*
X0061381Y0108649D01*
X0061172Y0108287D01*
X0061063Y0107883D01*
X0061063Y0105693D01*
X0064632Y0105693D01*
X0064632Y0104931D01*
X0061063Y0104931D01*
X0061063Y0102741D01*
X0061172Y0102337D01*
X0061381Y0101975D01*
X0061676Y0101680D01*
X0062038Y0101471D01*
X0061063Y0102799D02*
X0051348Y0102799D01*
X0051966Y0101200D02*
X0070974Y0101200D01*
X0070670Y0099602D02*
X0068766Y0099602D01*
X0067988Y0101471D02*
X0067584Y0101362D01*
X0065394Y0101362D01*
X0065394Y0104931D01*
X0068963Y0104931D01*
X0068963Y0102741D01*
X0068854Y0102337D01*
X0068645Y0101975D01*
X0068350Y0101680D01*
X0067988Y0101471D01*
X0068963Y0102799D02*
X0070473Y0102799D01*
X0070473Y0104397D02*
X0068963Y0104397D01*
X0068963Y0105996D02*
X0070473Y0105996D01*
X0070473Y0105398D02*
X0074533Y0105398D01*
X0074533Y0109065D01*
X0071851Y0109065D01*
X0071447Y0108957D01*
X0071086Y0108748D01*
X0070790Y0108452D01*
X0070581Y0108090D01*
X0070473Y0107686D01*
X0070473Y0105398D01*
X0070473Y0107594D02*
X0068963Y0107594D01*
X0067841Y0109193D02*
X0086241Y0109193D01*
X0086241Y0110791D02*
X0040432Y0110791D01*
X0040432Y0109193D02*
X0062185Y0109193D01*
X0064632Y0109193D02*
X0065394Y0109193D01*
X0065394Y0107594D02*
X0064632Y0107594D01*
X0064632Y0105996D02*
X0065394Y0105996D01*
X0065394Y0104397D02*
X0064632Y0104397D01*
X0061063Y0104397D02*
X0050035Y0104397D01*
X0043116Y0104397D02*
X0040432Y0104397D01*
X0040432Y0105996D02*
X0061063Y0105996D01*
X0061063Y0107594D02*
X0040432Y0107594D01*
X0040432Y0102799D02*
X0041803Y0102799D01*
X0041185Y0101200D02*
X0040432Y0101200D01*
X0040432Y0099602D02*
X0041185Y0099602D01*
X0041665Y0098003D02*
X0040432Y0098003D01*
X0040432Y0096405D02*
X0042781Y0096405D01*
X0043585Y0094806D02*
X0040432Y0094806D01*
X0040432Y0093208D02*
X0043585Y0093208D01*
X0043937Y0091609D02*
X0040432Y0091609D01*
X0040432Y0090011D02*
X0045389Y0090011D01*
X0046987Y0088412D02*
X0040432Y0088412D01*
X0040432Y0086814D02*
X0048586Y0086814D01*
X0047884Y0085998D02*
X0047015Y0086136D01*
X0046957Y0086136D01*
X0046957Y0080929D01*
X0052163Y0080929D01*
X0052163Y0080988D01*
X0052025Y0081857D01*
X0051754Y0082693D01*
X0051354Y0083477D01*
X0050837Y0084188D01*
X0050215Y0084810D01*
X0049504Y0085327D01*
X0048720Y0085726D01*
X0047884Y0085998D01*
X0046957Y0085215D02*
X0046194Y0085215D01*
X0046194Y0086136D02*
X0046136Y0086136D01*
X0045267Y0085998D01*
X0044431Y0085726D01*
X0043647Y0085327D01*
X0042936Y0084810D01*
X0042314Y0084188D01*
X0041797Y0083477D01*
X0041397Y0082693D01*
X0041126Y0081857D01*
X0040988Y0080988D01*
X0040988Y0080929D01*
X0046194Y0080929D01*
X0046194Y0080167D01*
X0040988Y0080167D01*
X0040988Y0080108D01*
X0041126Y0079240D01*
X0041397Y0078403D01*
X0041797Y0077620D01*
X0042314Y0076908D01*
X0042936Y0076286D01*
X0043647Y0075769D01*
X0044431Y0075370D01*
X0045267Y0075098D01*
X0046136Y0074961D01*
X0046194Y0074961D01*
X0046194Y0080167D01*
X0046957Y0080167D01*
X0046957Y0080929D01*
X0046194Y0080929D01*
X0046194Y0086136D01*
X0049658Y0085215D02*
X0050184Y0085215D01*
X0051253Y0083617D02*
X0051783Y0083617D01*
X0051973Y0082018D02*
X0052335Y0082018D01*
X0052335Y0080420D02*
X0046957Y0080420D01*
X0046957Y0080167D02*
X0052163Y0080167D01*
X0052163Y0080108D01*
X0052025Y0079240D01*
X0051754Y0078403D01*
X0051354Y0077620D01*
X0050837Y0076908D01*
X0050215Y0076286D01*
X0049504Y0075769D01*
X0048720Y0075370D01*
X0047884Y0075098D01*
X0047015Y0074961D01*
X0046957Y0074961D01*
X0046957Y0080167D01*
X0046194Y0080420D02*
X0040432Y0080420D01*
X0040432Y0082018D02*
X0041178Y0082018D01*
X0041898Y0083617D02*
X0040432Y0083617D01*
X0040432Y0085215D02*
X0043493Y0085215D01*
X0046194Y0083617D02*
X0046957Y0083617D01*
X0046957Y0082018D02*
X0046194Y0082018D01*
X0046194Y0078821D02*
X0046957Y0078821D01*
X0046957Y0077222D02*
X0046194Y0077222D01*
X0046194Y0075624D02*
X0046957Y0075624D01*
X0049218Y0075624D02*
X0052335Y0075624D01*
X0052335Y0077222D02*
X0051066Y0077222D01*
X0051889Y0078821D02*
X0052335Y0078821D01*
X0058316Y0078821D02*
X0065059Y0078821D01*
X0064351Y0077222D02*
X0058316Y0077222D01*
X0058316Y0075624D02*
X0064579Y0075624D01*
X0065956Y0074025D02*
X0058316Y0074025D01*
X0058316Y0072427D02*
X0072601Y0072427D01*
X0074199Y0070828D02*
X0058316Y0070828D01*
X0058316Y0069230D02*
X0066471Y0069230D01*
X0066467Y0069222D02*
X0066359Y0068818D01*
X0066359Y0067428D01*
X0072277Y0067428D01*
X0072277Y0067428D01*
X0072277Y0070197D01*
X0067737Y0070197D01*
X0067333Y0070088D01*
X0066971Y0069879D01*
X0066676Y0069584D01*
X0066467Y0069222D01*
X0066359Y0067631D02*
X0058316Y0067631D01*
X0058316Y0066033D02*
X0066360Y0066033D01*
X0066805Y0064434D02*
X0058316Y0064434D01*
X0058316Y0062836D02*
X0066555Y0062836D01*
X0066555Y0061237D02*
X0058316Y0061237D01*
X0058316Y0059639D02*
X0067009Y0059639D01*
X0067513Y0057428D02*
X0072277Y0057428D01*
X0067513Y0057428D02*
X0065638Y0055553D01*
X0065638Y0042116D01*
X0066888Y0040866D01*
X0073450Y0040866D01*
X0078148Y0045866D02*
X0079710Y0043991D01*
X0078450Y0045563D01*
X0079146Y0048531D02*
X0077502Y0050175D01*
X0077998Y0050671D01*
X0077998Y0054185D01*
X0077255Y0054928D01*
X0077998Y0055671D01*
X0077998Y0058280D01*
X0083663Y0052615D01*
X0083663Y0048138D01*
X0083450Y0047926D01*
X0082845Y0048531D01*
X0079146Y0048531D01*
X0077629Y0050048D02*
X0083663Y0050048D01*
X0083663Y0048449D02*
X0082927Y0048449D01*
X0088844Y0048531D02*
X0088844Y0049838D01*
X0093264Y0049838D01*
X0093310Y0049856D01*
X0097656Y0049856D01*
X0098470Y0050671D01*
X0098470Y0054185D01*
X0097728Y0054928D01*
X0098470Y0055671D01*
X0098470Y0058373D01*
X0102231Y0054613D01*
X0104045Y0054613D01*
X0104201Y0054613D01*
X0104201Y0053666D01*
X0104609Y0053257D01*
X0104201Y0052849D01*
X0104201Y0052431D01*
X0102231Y0052431D01*
X0101640Y0051840D01*
X0100946Y0051840D01*
X0099784Y0051359D01*
X0098895Y0050469D01*
X0098413Y0049307D01*
X0098413Y0048049D01*
X0098633Y0047519D01*
X0091140Y0047519D01*
X0091140Y0047716D01*
X0090326Y0048531D01*
X0088844Y0048531D01*
X0090407Y0048449D02*
X0098413Y0048449D01*
X0098720Y0050048D02*
X0097847Y0050048D01*
X0101575Y0048678D02*
X0103138Y0050241D01*
X0107200Y0050241D01*
X0107166Y0050305D01*
X0107230Y0050241D01*
X0110950Y0050241D01*
X0113522Y0050048D02*
X0121797Y0050048D01*
X0121797Y0049439D02*
X0120762Y0048403D01*
X0120634Y0048403D01*
X0119472Y0047921D01*
X0119069Y0047519D01*
X0109890Y0047519D01*
X0110131Y0047760D01*
X0110131Y0047796D01*
X0110439Y0047669D01*
X0111462Y0047669D01*
X0112407Y0048061D01*
X0113131Y0048784D01*
X0113522Y0049729D01*
X0113522Y0050752D01*
X0113131Y0051697D01*
X0112407Y0052421D01*
X0111462Y0052812D01*
X0110439Y0052812D01*
X0110131Y0052685D01*
X0110131Y0052849D01*
X0109723Y0053257D01*
X0110131Y0053666D01*
X0110131Y0053734D01*
X0110439Y0053606D01*
X0111462Y0053606D01*
X0112407Y0053998D01*
X0113131Y0054721D01*
X0113522Y0055667D01*
X0113522Y0056690D01*
X0113131Y0057635D01*
X0112407Y0058358D01*
X0111462Y0058750D01*
X0110439Y0058750D01*
X0110131Y0058622D01*
X0110131Y0058755D01*
X0109723Y0059163D01*
X0110131Y0059571D01*
X0110131Y0059671D01*
X0110439Y0059544D01*
X0111462Y0059544D01*
X0112407Y0059936D01*
X0113131Y0060659D01*
X0113522Y0061604D01*
X0113522Y0062627D01*
X0113131Y0063572D01*
X0112407Y0064296D01*
X0111462Y0064687D01*
X0110439Y0064687D01*
X0110131Y0064560D01*
X0110131Y0064660D01*
X0109723Y0065068D01*
X0110131Y0065477D01*
X0110131Y0065609D01*
X0110439Y0065481D01*
X0111462Y0065481D01*
X0112407Y0065873D01*
X0113131Y0066596D01*
X0113522Y0067542D01*
X0113522Y0068068D01*
X0121797Y0059793D01*
X0121797Y0049439D01*
X0120808Y0048449D02*
X0112796Y0048449D01*
X0113152Y0051646D02*
X0121797Y0051646D01*
X0121797Y0053245D02*
X0109736Y0053245D01*
X0113181Y0054843D02*
X0121797Y0054843D01*
X0121797Y0056442D02*
X0113522Y0056442D01*
X0112725Y0058040D02*
X0121797Y0058040D01*
X0121797Y0059639D02*
X0111691Y0059639D01*
X0110210Y0059639D02*
X0110131Y0059639D01*
X0110950Y0062116D02*
X0107166Y0062116D01*
X0106854Y0062428D01*
X0103138Y0062428D01*
X0098138Y0067428D01*
X0092749Y0067428D01*
X0088450Y0062428D02*
X0085325Y0065553D01*
X0085325Y0070231D01*
X0081575Y0073981D01*
X0081575Y0076500D01*
X0069017Y0080420D02*
X0058316Y0080420D01*
X0058316Y0082018D02*
X0068910Y0082018D01*
X0072971Y0083617D02*
X0058316Y0083617D01*
X0058185Y0085215D02*
X0068910Y0085215D01*
X0069050Y0086814D02*
X0057044Y0086814D01*
X0055446Y0088412D02*
X0074046Y0088412D01*
X0073930Y0086814D02*
X0072971Y0086814D01*
X0072971Y0085215D02*
X0073930Y0085215D01*
X0074691Y0090866D02*
X0081575Y0083981D01*
X0067770Y0090011D02*
X0053847Y0090011D01*
X0052249Y0091609D02*
X0066172Y0091609D01*
X0064573Y0093208D02*
X0050650Y0093208D01*
X0064632Y0102799D02*
X0065394Y0102799D01*
X0074533Y0105996D02*
X0075492Y0105996D01*
X0075492Y0107594D02*
X0074533Y0107594D01*
X0086278Y0112390D02*
X0040432Y0112390D01*
X0040432Y0078821D02*
X0041262Y0078821D01*
X0042085Y0077222D02*
X0040432Y0077222D01*
X0040432Y0075624D02*
X0043933Y0075624D01*
X0040432Y0074025D02*
X0052335Y0074025D01*
X0052335Y0072427D02*
X0040432Y0072427D01*
X0040432Y0070828D02*
X0052335Y0070828D01*
X0052335Y0069230D02*
X0040432Y0069230D01*
X0040432Y0067631D02*
X0052335Y0067631D01*
X0052335Y0066033D02*
X0048181Y0066033D01*
X0047648Y0066254D02*
X0045503Y0066254D01*
X0043522Y0065433D01*
X0042006Y0063917D01*
X0041185Y0061935D01*
X0041185Y0059791D01*
X0042006Y0057810D01*
X0043522Y0056293D01*
X0045503Y0055473D01*
X0047648Y0055473D01*
X0049629Y0056293D01*
X0051145Y0057810D01*
X0051966Y0059791D01*
X0051966Y0061935D01*
X0051145Y0063917D01*
X0049629Y0065433D01*
X0047648Y0066254D01*
X0044970Y0066033D02*
X0040432Y0066033D01*
X0040432Y0064434D02*
X0042523Y0064434D01*
X0041558Y0062836D02*
X0040432Y0062836D01*
X0040432Y0061237D02*
X0041185Y0061237D01*
X0041248Y0059639D02*
X0040432Y0059639D01*
X0040432Y0058040D02*
X0041910Y0058040D01*
X0043373Y0056442D02*
X0040432Y0056442D01*
X0040432Y0054843D02*
X0052335Y0054843D01*
X0052335Y0053245D02*
X0040432Y0053245D01*
X0040432Y0051646D02*
X0052335Y0051646D01*
X0052335Y0050048D02*
X0040432Y0050048D01*
X0040432Y0048449D02*
X0052335Y0048449D01*
X0052335Y0046851D02*
X0040432Y0046851D01*
X0041185Y0045754D02*
X0041185Y0036602D01*
X0041999Y0035788D01*
X0051151Y0035788D01*
X0051966Y0036602D01*
X0051966Y0045754D01*
X0051151Y0046569D01*
X0041999Y0046569D01*
X0041185Y0045754D01*
X0041185Y0045252D02*
X0040432Y0045252D01*
X0040432Y0043654D02*
X0041185Y0043654D01*
X0041185Y0042055D02*
X0040432Y0042055D01*
X0040432Y0040457D02*
X0041185Y0040457D01*
X0041185Y0038858D02*
X0040432Y0038858D01*
X0040432Y0037260D02*
X0041185Y0037260D01*
X0040432Y0035661D02*
X0053801Y0035661D01*
X0055399Y0034063D02*
X0040432Y0034063D01*
X0040432Y0032464D02*
X0076993Y0032464D01*
X0076851Y0030866D02*
X0040432Y0030866D01*
X0040432Y0029267D02*
X0077764Y0029267D01*
X0092770Y0034081D02*
X0115190Y0034081D01*
X0117818Y0036709D01*
X0115667Y0036709D01*
X0115667Y0040229D01*
X0115003Y0040229D01*
X0111189Y0040229D01*
X0111189Y0038088D01*
X0111297Y0037684D01*
X0111506Y0037322D01*
X0111802Y0037027D01*
X0112164Y0036818D01*
X0112567Y0036709D01*
X0115003Y0036709D01*
X0115003Y0040229D01*
X0115003Y0040892D01*
X0111189Y0040892D01*
X0111189Y0042338D01*
X0098835Y0042338D01*
X0099154Y0041565D01*
X0099154Y0040166D01*
X0098619Y0038874D01*
X0097630Y0037884D01*
X0096337Y0037349D01*
X0096038Y0037349D01*
X0092770Y0034081D01*
X0094350Y0035661D02*
X0116770Y0035661D01*
X0115667Y0037260D02*
X0115003Y0037260D01*
X0115003Y0038858D02*
X0115667Y0038858D01*
X0115003Y0040457D02*
X0099154Y0040457D01*
X0098604Y0038858D02*
X0111189Y0038858D01*
X0111568Y0037260D02*
X0095949Y0037260D01*
X0098951Y0042055D02*
X0111189Y0042055D01*
X0121263Y0044303D02*
X0121263Y0045241D01*
X0104596Y0053245D02*
X0098470Y0053245D01*
X0098470Y0051646D02*
X0100478Y0051646D01*
X0102000Y0054843D02*
X0097812Y0054843D01*
X0098470Y0056442D02*
X0100401Y0056442D01*
X0098803Y0058040D02*
X0098470Y0058040D01*
X0097513Y0062428D02*
X0103138Y0056803D01*
X0106573Y0056803D01*
X0107166Y0056210D01*
X0107198Y0056178D01*
X0110950Y0056178D01*
X0113370Y0061237D02*
X0120353Y0061237D01*
X0118754Y0062836D02*
X0113436Y0062836D01*
X0112073Y0064434D02*
X0117156Y0064434D01*
X0115557Y0066033D02*
X0112567Y0066033D01*
X0113522Y0067631D02*
X0113959Y0067631D01*
X0110950Y0068053D02*
X0107198Y0068053D01*
X0107166Y0068021D01*
X0097513Y0062428D02*
X0092749Y0062428D01*
X0088450Y0062428D01*
X0092749Y0057428D02*
X0092749Y0052428D01*
X0083663Y0051646D02*
X0077998Y0051646D01*
X0077998Y0053245D02*
X0083033Y0053245D01*
X0081434Y0054843D02*
X0077340Y0054843D01*
X0077998Y0056442D02*
X0079836Y0056442D01*
X0078237Y0058040D02*
X0077998Y0058040D01*
X0065027Y0058040D02*
X0058316Y0058040D01*
X0058316Y0056442D02*
X0063447Y0056442D01*
X0063447Y0054843D02*
X0058316Y0054843D01*
X0058316Y0053245D02*
X0063447Y0053245D01*
X0063447Y0051646D02*
X0058316Y0051646D01*
X0058316Y0050048D02*
X0063447Y0050048D01*
X0063447Y0048449D02*
X0058316Y0048449D01*
X0058316Y0046851D02*
X0063447Y0046851D01*
X0063447Y0045252D02*
X0058316Y0045252D01*
X0058316Y0043654D02*
X0063447Y0043654D01*
X0063447Y0042055D02*
X0058316Y0042055D01*
X0058316Y0040457D02*
X0064199Y0040457D01*
X0065798Y0038858D02*
X0059062Y0038858D01*
X0052547Y0037260D02*
X0051966Y0037260D01*
X0051966Y0038858D02*
X0052335Y0038858D01*
X0052335Y0040457D02*
X0051966Y0040457D01*
X0051966Y0042055D02*
X0052335Y0042055D01*
X0052335Y0043654D02*
X0051966Y0043654D01*
X0051966Y0045252D02*
X0052335Y0045252D01*
X0052335Y0056442D02*
X0049777Y0056442D01*
X0051241Y0058040D02*
X0052335Y0058040D01*
X0052335Y0059639D02*
X0051903Y0059639D01*
X0051966Y0061237D02*
X0052335Y0061237D01*
X0052335Y0062836D02*
X0051593Y0062836D01*
X0052335Y0064434D02*
X0050628Y0064434D01*
X0072277Y0067631D02*
X0072277Y0067631D01*
X0072277Y0069230D02*
X0072277Y0069230D01*
X0105935Y0078821D02*
X0107397Y0078821D01*
X0110950Y0073927D02*
X0111327Y0073927D01*
X0159147Y0061237D02*
X0159732Y0061237D01*
X0159732Y0059639D02*
X0158986Y0059639D01*
X0148148Y0043654D02*
X0147484Y0043654D01*
X0147484Y0042055D02*
X0148148Y0042055D01*
X0148148Y0038858D02*
X0147484Y0038858D01*
X0147484Y0037260D02*
X0148148Y0037260D01*
X0143852Y0037260D02*
X0142534Y0037260D01*
X0142316Y0038858D02*
X0143472Y0038858D01*
X0135176Y0029267D02*
X0134849Y0029267D01*
X0127696Y0029267D02*
X0117664Y0029267D01*
X0119302Y0030866D02*
X0125529Y0030866D01*
X0122692Y0032464D02*
X0120900Y0032464D01*
X0087191Y0043991D02*
X0086253Y0044928D01*
D28*
X0100950Y0040553D03*
X0104075Y0040553D03*
X0107200Y0040553D03*
X0110325Y0040553D03*
X0111575Y0035553D03*
X0108450Y0035553D03*
X0105325Y0035553D03*
X0101888Y0036803D03*
X0114700Y0035553D03*
X0135950Y0045241D03*
X0139075Y0046491D03*
X0143138Y0046178D03*
X0147825Y0045553D03*
X0153450Y0044616D03*
X0153450Y0041178D03*
X0168450Y0041178D03*
X0151888Y0049928D03*
X0141575Y0050553D03*
X0141888Y0055241D03*
X0147513Y0055241D03*
X0130950Y0060241D03*
X0130950Y0064303D03*
X0128450Y0067116D03*
X0131263Y0069928D03*
X0128138Y0072428D03*
X0125325Y0069928D03*
X0124700Y0075866D03*
X0128138Y0080241D03*
X0135325Y0078678D03*
X0155325Y0068678D03*
X0156575Y0071803D03*
X0134075Y0088991D03*
X0127200Y0088991D03*
X0128450Y0099928D03*
X0110950Y0073678D03*
X0110950Y0068053D03*
X0110950Y0062116D03*
X0110950Y0056178D03*
X0102200Y0053366D03*
X0110950Y0050241D03*
X0117200Y0048366D03*
X0130638Y0049303D03*
X0080013Y0053366D03*
D29*
X0095638Y0040866D03*
D30*
X0095325Y0040866D01*
X0090325Y0035866D01*
X0057825Y0035866D01*
X0055325Y0038366D01*
X0055325Y0084303D01*
X0046575Y0093053D01*
X0046575Y0100233D01*
X0083138Y0104918D02*
X0084066Y0103991D01*
X0087513Y0103991D01*
X0090013Y0101491D01*
X0090950Y0101491D01*
X0073450Y0076894D02*
X0073359Y0076803D01*
X0067513Y0076803D01*
X0155985Y0056210D02*
X0156017Y0056178D01*
X0161263Y0056178D01*
X0161797Y0055644D01*
X0164075Y0055644D01*
X0164075Y0046678D01*
X0197200Y0038991D02*
X0199388Y0041178D01*
X0218138Y0041178D01*
X0218138Y0060863D02*
X0210011Y0068991D01*
X0197200Y0068991D01*
X0177200Y0068991D01*
X0177200Y0078991D02*
X0197200Y0078991D01*
X0197200Y0088991D01*
D31*
X0164075Y0092428D02*
X0164075Y0062337D01*
X0124388Y0060866D02*
X0124388Y0048366D01*
X0120950Y0044928D01*
X0121263Y0044303D01*
X0120950Y0044928D02*
X0086566Y0044928D01*
X0087191Y0043991D01*
X0086253Y0044928D02*
X0086253Y0052428D01*
X0092749Y0052428D01*
X0086253Y0052428D02*
X0086253Y0053688D01*
X0078450Y0061491D01*
X0078450Y0062428D01*
X0080638Y0064616D01*
X0080638Y0068053D01*
X0073450Y0075241D01*
X0073450Y0076894D01*
X0089700Y0076894D02*
X0098450Y0076894D01*
X0104198Y0076894D01*
X0107166Y0073927D01*
X0110950Y0073927D01*
X0110950Y0073678D01*
X0111327Y0073927D02*
X0124388Y0060866D01*
X0121241Y0039872D02*
X0121241Y0036469D01*
X0116263Y0031491D01*
X0080013Y0031491D01*
X0078148Y0045866D02*
X0069700Y0045866D01*
X0072277Y0051737D02*
X0078148Y0045866D01*
X0072277Y0051737D02*
X0072277Y0052428D01*
X0072277Y0062428D02*
X0078450Y0062428D01*
X0124700Y0034928D02*
X0126263Y0033366D01*
X0131273Y0033366D01*
X0156137Y0092428D02*
X0164075Y0092428D01*
X0164075Y0092741D01*
X0164075Y0101803D01*
D32*
X0090950Y0101491D03*
X0067513Y0076803D03*
X0101575Y0048678D03*
X0121263Y0045241D03*
X0124700Y0034928D03*
X0080013Y0031491D03*
X0073450Y0040866D03*
X0069700Y0045866D03*
M02*
