G75*
%MOIN*%
%OFA0B0*%
%FSLAX25Y25*%
%IPPOS*%
%LPD*%
%AMOC8*
5,1,8,0,0,1.08239X$1,22.5*
%
%ADD10C,0.00000*%
%ADD11C,0.00400*%
%ADD12R,0.05709X0.02953*%
%ADD13C,0.00300*%
%ADD14C,0.00600*%
%ADD15R,0.01800X0.02300*%
%ADD16C,0.00800*%
%ADD17C,0.00100*%
%ADD18R,0.04331X0.01930*%
%ADD19R,0.02000X0.02000*%
%ADD20R,0.01181X0.04724*%
%ADD21R,0.04724X0.01181*%
%ADD22R,0.00591X0.01181*%
%ADD23R,0.01181X0.01181*%
%ADD24R,0.05315X0.02362*%
%ADD25R,0.05600X0.01400*%
%ADD26R,0.01400X0.05600*%
%ADD27C,0.00500*%
%ADD28C,0.01200*%
D10*
X0038450Y0025866D02*
X0038450Y0115826D01*
X0228401Y0115826D01*
X0228401Y0115866D02*
X0228401Y0025866D01*
X0038450Y0025866D01*
D11*
X0070852Y0078741D02*
X0070852Y0081741D01*
X0076049Y0081642D02*
X0076049Y0078741D01*
X0087102Y0078839D02*
X0087102Y0081741D01*
X0092299Y0081741D02*
X0092299Y0078741D01*
X0095852Y0078839D02*
X0095852Y0081741D01*
X0101049Y0081741D02*
X0101049Y0078741D01*
X0077611Y0099678D02*
X0077611Y0102678D01*
X0072415Y0102678D02*
X0072415Y0099777D01*
X0067474Y0099406D02*
X0067474Y0102950D01*
X0062552Y0102950D02*
X0062552Y0099308D01*
X0148799Y0094554D02*
X0155602Y0094554D01*
X0155602Y0090251D02*
X0148799Y0090251D01*
X0161477Y0060491D02*
X0161477Y0057491D01*
X0166674Y0057491D02*
X0166674Y0060392D01*
X0166253Y0046142D02*
X0166253Y0039339D01*
X0161949Y0039339D02*
X0161949Y0046142D01*
D12*
X0164071Y0056114D03*
X0164071Y0061814D03*
X0098455Y0077417D03*
X0089705Y0077417D03*
X0089705Y0083117D03*
X0098455Y0083117D03*
X0073446Y0083064D03*
X0073446Y0077364D03*
X0075017Y0098355D03*
X0075017Y0104055D03*
D13*
X0075599Y0110391D02*
X0075115Y0110874D01*
X0075599Y0110391D02*
X0076567Y0110391D01*
X0077050Y0110874D01*
X0077050Y0112809D01*
X0076567Y0113293D01*
X0075599Y0113293D01*
X0075115Y0112809D01*
X0074104Y0113293D02*
X0074104Y0111842D01*
X0073136Y0112326D01*
X0072653Y0112326D01*
X0072169Y0111842D01*
X0072169Y0110874D01*
X0072653Y0110391D01*
X0073620Y0110391D01*
X0074104Y0110874D01*
X0074104Y0113293D02*
X0072169Y0113293D01*
X0080606Y0110391D02*
X0082541Y0110391D01*
X0081574Y0110391D02*
X0081574Y0113293D01*
X0082541Y0112326D01*
X0083553Y0112809D02*
X0083553Y0111842D01*
X0084037Y0111358D01*
X0085488Y0111358D01*
X0085488Y0110391D02*
X0085488Y0113293D01*
X0084037Y0113293D01*
X0083553Y0112809D01*
X0084520Y0111358D02*
X0083553Y0110391D01*
X0103533Y0101670D02*
X0105468Y0101670D01*
X0104501Y0101670D02*
X0104501Y0104573D01*
X0105468Y0103605D01*
X0106480Y0104089D02*
X0106964Y0104573D01*
X0107931Y0104573D01*
X0108415Y0104089D01*
X0108415Y0103605D01*
X0107931Y0103121D01*
X0106964Y0103121D01*
X0106480Y0102638D01*
X0106480Y0102154D01*
X0106964Y0101670D01*
X0107931Y0101670D01*
X0108415Y0102154D01*
X0109427Y0102154D02*
X0109427Y0104573D01*
X0111361Y0104573D02*
X0111361Y0102154D01*
X0110878Y0101670D01*
X0109910Y0101670D01*
X0109427Y0102154D01*
X0107447Y0101186D02*
X0107447Y0105056D01*
X0092050Y0089684D02*
X0092050Y0087749D01*
X0091567Y0087266D01*
X0090599Y0087266D01*
X0090115Y0087749D01*
X0089104Y0087266D02*
X0087169Y0087266D01*
X0088136Y0087266D02*
X0088136Y0090168D01*
X0089104Y0089201D01*
X0090115Y0089684D02*
X0090599Y0090168D01*
X0091567Y0090168D01*
X0092050Y0089684D01*
X0084863Y0090481D02*
X0084863Y0087578D01*
X0084863Y0088546D02*
X0083412Y0088546D01*
X0082928Y0089029D01*
X0082928Y0089997D01*
X0083412Y0090481D01*
X0084863Y0090481D01*
X0083895Y0088546D02*
X0082928Y0087578D01*
X0081916Y0088062D02*
X0081433Y0087578D01*
X0080465Y0087578D01*
X0079981Y0088062D01*
X0079981Y0088546D01*
X0080465Y0089029D01*
X0080949Y0089029D01*
X0080465Y0089029D02*
X0079981Y0089513D01*
X0079981Y0089997D01*
X0080465Y0090481D01*
X0081433Y0090481D01*
X0081916Y0089997D01*
X0078970Y0089997D02*
X0078486Y0090481D01*
X0077519Y0090481D01*
X0077035Y0089997D01*
X0077035Y0089513D01*
X0078970Y0087578D01*
X0077035Y0087578D01*
X0069819Y0084609D02*
X0069819Y0082674D01*
X0069335Y0082191D01*
X0068367Y0082191D01*
X0067884Y0082674D01*
X0066872Y0082674D02*
X0066388Y0082191D01*
X0065421Y0082191D01*
X0064937Y0082674D01*
X0064937Y0083158D01*
X0065421Y0083642D01*
X0066872Y0083642D01*
X0066872Y0082674D01*
X0066872Y0083642D02*
X0065905Y0084609D01*
X0064937Y0085093D01*
X0067884Y0084609D02*
X0068367Y0085093D01*
X0069335Y0085093D01*
X0069819Y0084609D01*
X0061815Y0096641D02*
X0058913Y0096641D01*
X0058913Y0098576D01*
X0058913Y0099587D02*
X0058913Y0101522D01*
X0058913Y0102534D02*
X0058913Y0103985D01*
X0059397Y0104469D01*
X0061332Y0104469D01*
X0061815Y0103985D01*
X0061815Y0102534D01*
X0058913Y0102534D01*
X0060364Y0100555D02*
X0060364Y0099587D01*
X0061815Y0099587D02*
X0058913Y0099587D01*
X0061815Y0099587D02*
X0061815Y0101522D01*
X0060364Y0105480D02*
X0060364Y0107415D01*
X0058913Y0106931D02*
X0061815Y0106931D01*
X0060364Y0105480D01*
X0103288Y0084163D02*
X0103288Y0083196D01*
X0103772Y0082712D01*
X0103772Y0081701D02*
X0103288Y0081217D01*
X0103288Y0080249D01*
X0103772Y0079766D01*
X0105707Y0079766D01*
X0106190Y0080249D01*
X0106190Y0081217D01*
X0105707Y0081701D01*
X0105707Y0082712D02*
X0106190Y0083196D01*
X0106190Y0084163D01*
X0105707Y0084647D01*
X0105223Y0084647D01*
X0104739Y0084163D01*
X0104255Y0084647D01*
X0103772Y0084647D01*
X0103288Y0084163D01*
X0104739Y0084163D02*
X0104739Y0083680D01*
X0140606Y0099766D02*
X0142541Y0099766D01*
X0140606Y0101701D01*
X0140606Y0102184D01*
X0141090Y0102668D01*
X0142058Y0102668D01*
X0142541Y0102184D01*
X0143553Y0102184D02*
X0144037Y0102668D01*
X0145488Y0102668D01*
X0145488Y0099766D01*
X0144037Y0099766D01*
X0143553Y0100249D01*
X0143553Y0102184D01*
X0149669Y0098434D02*
X0150153Y0098918D01*
X0151120Y0098918D01*
X0151604Y0098434D01*
X0149669Y0098434D02*
X0149669Y0097951D01*
X0151604Y0096016D01*
X0149669Y0096016D01*
X0152615Y0096016D02*
X0154550Y0096016D01*
X0154550Y0098918D01*
X0170575Y0096866D02*
X0172509Y0096866D01*
X0171542Y0096866D02*
X0171542Y0099768D01*
X0172509Y0098801D01*
X0173521Y0099284D02*
X0173521Y0098317D01*
X0174005Y0097833D01*
X0175456Y0097833D01*
X0175456Y0096866D02*
X0175456Y0099768D01*
X0174005Y0099768D01*
X0173521Y0099284D01*
X0176468Y0099768D02*
X0177435Y0099768D01*
X0176951Y0099768D02*
X0176951Y0097349D01*
X0177435Y0096866D01*
X0177919Y0096866D01*
X0178403Y0097349D01*
X0144776Y0064974D02*
X0144776Y0061104D01*
X0144292Y0061588D02*
X0143809Y0062072D01*
X0143809Y0062555D01*
X0144292Y0063039D01*
X0145260Y0063039D01*
X0145744Y0063523D01*
X0145744Y0064007D01*
X0145260Y0064490D01*
X0144292Y0064490D01*
X0143809Y0064007D01*
X0142797Y0064490D02*
X0142797Y0063039D01*
X0141830Y0063523D01*
X0141346Y0063523D01*
X0140862Y0063039D01*
X0140862Y0062072D01*
X0141346Y0061588D01*
X0142313Y0061588D01*
X0142797Y0062072D01*
X0144292Y0061588D02*
X0145260Y0061588D01*
X0145744Y0062072D01*
X0146755Y0062072D02*
X0146755Y0064490D01*
X0148690Y0064490D02*
X0148690Y0062072D01*
X0148206Y0061588D01*
X0147239Y0061588D01*
X0146755Y0062072D01*
X0142797Y0064490D02*
X0140862Y0064490D01*
X0168525Y0060458D02*
X0171428Y0060458D01*
X0169977Y0059007D01*
X0169977Y0060942D01*
X0170944Y0057995D02*
X0171428Y0057511D01*
X0171428Y0056544D01*
X0170944Y0056060D01*
X0169009Y0056060D01*
X0168525Y0056544D01*
X0168525Y0057511D01*
X0169009Y0057995D01*
X0168868Y0046567D02*
X0168384Y0046567D01*
X0167900Y0046083D01*
X0167900Y0045115D01*
X0168384Y0044632D01*
X0167900Y0043620D02*
X0167900Y0041685D01*
X0170803Y0041685D01*
X0170319Y0044632D02*
X0170803Y0045115D01*
X0170803Y0046083D01*
X0170319Y0046567D01*
X0169835Y0046567D01*
X0169352Y0046083D01*
X0168868Y0046567D01*
X0169352Y0046083D02*
X0169352Y0045599D01*
X0150175Y0034856D02*
X0148724Y0034856D01*
X0148240Y0034372D01*
X0148240Y0033404D01*
X0148724Y0032921D01*
X0150175Y0032921D01*
X0149208Y0032921D02*
X0148240Y0031953D01*
X0147229Y0031953D02*
X0145294Y0031953D01*
X0146261Y0031953D02*
X0146261Y0034856D01*
X0147229Y0033888D01*
X0144282Y0033888D02*
X0143315Y0034856D01*
X0143315Y0031953D01*
X0144282Y0031953D02*
X0142347Y0031953D01*
X0150175Y0031953D02*
X0150175Y0034856D01*
X0084194Y0035941D02*
X0084194Y0038843D01*
X0082742Y0038843D01*
X0082259Y0038359D01*
X0082259Y0037392D01*
X0082742Y0036908D01*
X0084194Y0036908D01*
X0083226Y0036908D02*
X0082259Y0035941D01*
X0081247Y0036424D02*
X0080763Y0035941D01*
X0079796Y0035941D01*
X0079312Y0036424D01*
X0079312Y0036908D01*
X0079796Y0037392D01*
X0080280Y0037392D01*
X0079796Y0037392D02*
X0079312Y0037876D01*
X0079312Y0038359D01*
X0079796Y0038843D01*
X0080763Y0038843D01*
X0081247Y0038359D01*
X0081753Y0046378D02*
X0082720Y0046378D01*
X0082237Y0046378D02*
X0082237Y0049281D01*
X0082720Y0049281D02*
X0081753Y0049281D01*
X0080756Y0048797D02*
X0080272Y0049281D01*
X0079305Y0049281D01*
X0078821Y0048797D01*
X0077809Y0048797D02*
X0077326Y0049281D01*
X0076358Y0049281D01*
X0075875Y0048797D01*
X0075875Y0048313D01*
X0076358Y0047829D01*
X0075875Y0047346D01*
X0075875Y0046862D01*
X0076358Y0046378D01*
X0077326Y0046378D01*
X0077809Y0046862D01*
X0078821Y0046862D02*
X0079305Y0046378D01*
X0080272Y0046378D01*
X0080756Y0046862D01*
X0080756Y0048797D01*
X0076842Y0047829D02*
X0076358Y0047829D01*
D14*
X0080650Y0046491D02*
X0086250Y0046491D01*
X0086250Y0041491D02*
X0080650Y0041491D01*
X0132213Y0035866D02*
X0137813Y0035866D01*
X0137813Y0030866D02*
X0132213Y0030866D01*
X0084075Y0077441D02*
X0084075Y0083041D01*
X0079075Y0083041D02*
X0079075Y0077441D01*
X0080638Y0098378D02*
X0080638Y0103978D01*
X0085638Y0103978D02*
X0085638Y0098378D01*
X0128788Y0096078D02*
X0139988Y0096078D01*
X0139988Y0101278D01*
X0128788Y0101278D01*
X0128788Y0096078D01*
D15*
X0130688Y0094728D03*
X0138088Y0094728D03*
X0134388Y0102628D03*
D16*
X0159075Y0104303D02*
X0159075Y0099303D01*
X0161575Y0096803D01*
X0166575Y0096803D01*
X0169075Y0099303D01*
X0169075Y0104303D01*
X0166575Y0106803D01*
X0161575Y0106803D01*
X0159075Y0104303D01*
X0089993Y0069377D02*
X0089993Y0050479D01*
X0077001Y0050479D01*
X0077001Y0069377D01*
X0075033Y0069377D01*
X0075033Y0050479D01*
X0077001Y0050479D01*
X0077001Y0069377D02*
X0089993Y0069377D01*
D17*
X0085101Y0068314D02*
X0084734Y0068681D01*
X0084000Y0068681D01*
X0084550Y0068681D02*
X0084550Y0067947D01*
X0084734Y0067947D02*
X0085101Y0068314D01*
X0084734Y0067947D02*
X0084000Y0067947D01*
X0084000Y0067576D02*
X0084734Y0067576D01*
X0085101Y0067209D01*
X0084734Y0066842D01*
X0084000Y0066842D01*
X0084550Y0066842D02*
X0084550Y0067576D01*
X0084734Y0065366D02*
X0084917Y0065366D01*
X0085101Y0065183D01*
X0085101Y0064816D01*
X0084917Y0064632D01*
X0084734Y0065366D02*
X0084000Y0064632D01*
X0084000Y0065366D01*
X0084000Y0064261D02*
X0084000Y0063527D01*
X0084000Y0063894D02*
X0085101Y0063894D01*
X0084734Y0063527D01*
X0084917Y0063157D02*
X0084183Y0062423D01*
X0084000Y0062606D01*
X0084000Y0062973D01*
X0084183Y0063157D01*
X0084917Y0063157D01*
X0085101Y0062973D01*
X0085101Y0062606D01*
X0084917Y0062423D01*
X0084183Y0062423D01*
X0084550Y0062052D02*
X0084550Y0061318D01*
X0084367Y0060947D02*
X0084183Y0060947D01*
X0084000Y0060763D01*
X0084000Y0060396D01*
X0084183Y0060213D01*
X0084550Y0060396D02*
X0084550Y0060763D01*
X0084367Y0060947D01*
X0084917Y0060947D02*
X0085101Y0060763D01*
X0085101Y0060396D01*
X0084917Y0060213D01*
X0084734Y0060213D01*
X0084550Y0060396D01*
X0084000Y0059842D02*
X0085101Y0059842D01*
X0084734Y0059475D01*
X0085101Y0059108D01*
X0084000Y0059108D01*
X0084183Y0057632D02*
X0084000Y0057448D01*
X0084000Y0057081D01*
X0084183Y0056898D01*
X0084917Y0056898D01*
X0085101Y0057081D01*
X0085101Y0057448D01*
X0084917Y0057632D01*
X0085101Y0056527D02*
X0085101Y0055793D01*
X0084000Y0055793D01*
X0084000Y0056527D01*
X0084550Y0056160D02*
X0084550Y0055793D01*
X0084183Y0055422D02*
X0084917Y0055422D01*
X0085101Y0055238D01*
X0085101Y0054688D01*
X0084000Y0054688D01*
X0084000Y0055238D01*
X0084183Y0055422D01*
X0084000Y0054317D02*
X0084000Y0053583D01*
X0085101Y0053583D01*
X0085101Y0054317D01*
X0084550Y0053950D02*
X0084550Y0053583D01*
X0085101Y0053212D02*
X0085101Y0052845D01*
X0085101Y0053029D02*
X0084183Y0053029D01*
X0084000Y0052845D01*
X0084000Y0052662D01*
X0084183Y0052478D01*
X0081564Y0052478D02*
X0081564Y0052979D01*
X0081564Y0052728D02*
X0080063Y0052728D01*
X0080063Y0052478D02*
X0080063Y0052979D01*
X0080063Y0053460D02*
X0081564Y0053460D01*
X0081564Y0054211D01*
X0081314Y0054461D01*
X0080814Y0054461D01*
X0080563Y0054211D01*
X0080563Y0053460D01*
X0080313Y0054934D02*
X0080063Y0055184D01*
X0080063Y0055684D01*
X0080313Y0055934D01*
X0080313Y0054934D02*
X0081314Y0054934D01*
X0081564Y0055184D01*
X0081564Y0055684D01*
X0081314Y0055934D01*
X0081314Y0057880D02*
X0081064Y0057880D01*
X0080814Y0058130D01*
X0080814Y0058631D01*
X0080563Y0058881D01*
X0080313Y0058881D01*
X0080063Y0058631D01*
X0080063Y0058130D01*
X0080313Y0057880D01*
X0081314Y0057880D02*
X0081564Y0058130D01*
X0081564Y0058631D01*
X0081314Y0058881D01*
X0081314Y0059353D02*
X0080313Y0059353D01*
X0080063Y0059604D01*
X0080063Y0060104D01*
X0080313Y0060354D01*
X0081314Y0060354D01*
X0081564Y0060104D01*
X0081564Y0059604D01*
X0081314Y0059353D01*
X0081314Y0060827D02*
X0081064Y0060827D01*
X0080814Y0061077D01*
X0080814Y0061577D01*
X0080563Y0061827D01*
X0080313Y0061827D01*
X0080063Y0061577D01*
X0080063Y0061077D01*
X0080313Y0060827D01*
X0080563Y0060827D01*
X0080814Y0061077D01*
X0080814Y0061577D02*
X0081064Y0061827D01*
X0081314Y0061827D01*
X0081564Y0061577D01*
X0081564Y0061077D01*
X0081314Y0060827D01*
D18*
X0072473Y0062428D03*
X0072473Y0057428D03*
X0072473Y0052428D03*
X0092553Y0052428D03*
X0092553Y0057428D03*
X0092553Y0062428D03*
X0092553Y0067428D03*
X0072473Y0067428D03*
D19*
X0164075Y0101803D03*
D20*
X0156110Y0092390D03*
X0148310Y0092390D03*
D21*
X0164113Y0046650D03*
X0164113Y0038850D03*
D22*
X0067375Y0101769D03*
X0062651Y0101769D03*
D23*
X0065013Y0101769D03*
D24*
X0065013Y0104131D03*
X0065013Y0098225D03*
D25*
X0083138Y0097778D03*
X0083138Y0104578D03*
X0081575Y0083641D03*
X0081575Y0076841D03*
D26*
X0080050Y0043991D03*
X0086850Y0043991D03*
X0131613Y0033366D03*
X0138413Y0033366D03*
D27*
X0158347Y0037509D02*
X0158347Y0086722D01*
X0104804Y0086722D01*
X0104804Y0037509D01*
X0158347Y0037509D01*
X0120505Y0089992D02*
X0094521Y0089992D01*
X0094521Y0113614D01*
X0120505Y0113614D01*
X0120505Y0089992D01*
X0103576Y0101803D02*
X0103578Y0101928D01*
X0103584Y0102053D01*
X0103594Y0102177D01*
X0103608Y0102301D01*
X0103625Y0102425D01*
X0103647Y0102548D01*
X0103673Y0102670D01*
X0103702Y0102792D01*
X0103735Y0102912D01*
X0103773Y0103031D01*
X0103813Y0103150D01*
X0103858Y0103266D01*
X0103906Y0103381D01*
X0103958Y0103495D01*
X0104014Y0103607D01*
X0104073Y0103717D01*
X0104135Y0103825D01*
X0104201Y0103932D01*
X0104270Y0104036D01*
X0104343Y0104137D01*
X0104418Y0104237D01*
X0104497Y0104334D01*
X0104579Y0104428D01*
X0104664Y0104520D01*
X0104751Y0104609D01*
X0104842Y0104695D01*
X0104935Y0104778D01*
X0105031Y0104859D01*
X0105129Y0104936D01*
X0105229Y0105010D01*
X0105332Y0105081D01*
X0105437Y0105148D01*
X0105545Y0105213D01*
X0105654Y0105273D01*
X0105765Y0105331D01*
X0105878Y0105384D01*
X0105992Y0105434D01*
X0106108Y0105481D01*
X0106225Y0105523D01*
X0106344Y0105562D01*
X0106464Y0105598D01*
X0106585Y0105629D01*
X0106707Y0105657D01*
X0106829Y0105680D01*
X0106953Y0105700D01*
X0107077Y0105716D01*
X0107201Y0105728D01*
X0107326Y0105736D01*
X0107451Y0105740D01*
X0107575Y0105740D01*
X0107700Y0105736D01*
X0107825Y0105728D01*
X0107949Y0105716D01*
X0108073Y0105700D01*
X0108197Y0105680D01*
X0108319Y0105657D01*
X0108441Y0105629D01*
X0108562Y0105598D01*
X0108682Y0105562D01*
X0108801Y0105523D01*
X0108918Y0105481D01*
X0109034Y0105434D01*
X0109148Y0105384D01*
X0109261Y0105331D01*
X0109372Y0105273D01*
X0109482Y0105213D01*
X0109589Y0105148D01*
X0109694Y0105081D01*
X0109797Y0105010D01*
X0109897Y0104936D01*
X0109995Y0104859D01*
X0110091Y0104778D01*
X0110184Y0104695D01*
X0110275Y0104609D01*
X0110362Y0104520D01*
X0110447Y0104428D01*
X0110529Y0104334D01*
X0110608Y0104237D01*
X0110683Y0104137D01*
X0110756Y0104036D01*
X0110825Y0103932D01*
X0110891Y0103825D01*
X0110953Y0103717D01*
X0111012Y0103607D01*
X0111068Y0103495D01*
X0111120Y0103381D01*
X0111168Y0103266D01*
X0111213Y0103150D01*
X0111253Y0103031D01*
X0111291Y0102912D01*
X0111324Y0102792D01*
X0111353Y0102670D01*
X0111379Y0102548D01*
X0111401Y0102425D01*
X0111418Y0102301D01*
X0111432Y0102177D01*
X0111442Y0102053D01*
X0111448Y0101928D01*
X0111450Y0101803D01*
X0111448Y0101678D01*
X0111442Y0101553D01*
X0111432Y0101429D01*
X0111418Y0101305D01*
X0111401Y0101181D01*
X0111379Y0101058D01*
X0111353Y0100936D01*
X0111324Y0100814D01*
X0111291Y0100694D01*
X0111253Y0100575D01*
X0111213Y0100456D01*
X0111168Y0100340D01*
X0111120Y0100225D01*
X0111068Y0100111D01*
X0111012Y0099999D01*
X0110953Y0099889D01*
X0110891Y0099781D01*
X0110825Y0099674D01*
X0110756Y0099570D01*
X0110683Y0099469D01*
X0110608Y0099369D01*
X0110529Y0099272D01*
X0110447Y0099178D01*
X0110362Y0099086D01*
X0110275Y0098997D01*
X0110184Y0098911D01*
X0110091Y0098828D01*
X0109995Y0098747D01*
X0109897Y0098670D01*
X0109797Y0098596D01*
X0109694Y0098525D01*
X0109589Y0098458D01*
X0109481Y0098393D01*
X0109372Y0098333D01*
X0109261Y0098275D01*
X0109148Y0098222D01*
X0109034Y0098172D01*
X0108918Y0098125D01*
X0108801Y0098083D01*
X0108682Y0098044D01*
X0108562Y0098008D01*
X0108441Y0097977D01*
X0108319Y0097949D01*
X0108197Y0097926D01*
X0108073Y0097906D01*
X0107949Y0097890D01*
X0107825Y0097878D01*
X0107700Y0097870D01*
X0107575Y0097866D01*
X0107451Y0097866D01*
X0107326Y0097870D01*
X0107201Y0097878D01*
X0107077Y0097890D01*
X0106953Y0097906D01*
X0106829Y0097926D01*
X0106707Y0097949D01*
X0106585Y0097977D01*
X0106464Y0098008D01*
X0106344Y0098044D01*
X0106225Y0098083D01*
X0106108Y0098125D01*
X0105992Y0098172D01*
X0105878Y0098222D01*
X0105765Y0098275D01*
X0105654Y0098333D01*
X0105544Y0098393D01*
X0105437Y0098458D01*
X0105332Y0098525D01*
X0105229Y0098596D01*
X0105129Y0098670D01*
X0105031Y0098747D01*
X0104935Y0098828D01*
X0104842Y0098911D01*
X0104751Y0098997D01*
X0104664Y0099086D01*
X0104579Y0099178D01*
X0104497Y0099272D01*
X0104418Y0099369D01*
X0104343Y0099469D01*
X0104270Y0099570D01*
X0104201Y0099674D01*
X0104135Y0099781D01*
X0104073Y0099889D01*
X0104014Y0099999D01*
X0103958Y0100111D01*
X0103906Y0100225D01*
X0103858Y0100340D01*
X0103813Y0100456D01*
X0103773Y0100575D01*
X0103735Y0100694D01*
X0103702Y0100814D01*
X0103673Y0100936D01*
X0103647Y0101058D01*
X0103625Y0101181D01*
X0103608Y0101305D01*
X0103594Y0101429D01*
X0103584Y0101553D01*
X0103578Y0101678D01*
X0103576Y0101803D01*
X0101594Y0101803D02*
X0101596Y0101957D01*
X0101602Y0102110D01*
X0101612Y0102264D01*
X0101626Y0102417D01*
X0101644Y0102569D01*
X0101666Y0102721D01*
X0101691Y0102873D01*
X0101721Y0103024D01*
X0101755Y0103174D01*
X0101792Y0103323D01*
X0101834Y0103471D01*
X0101879Y0103617D01*
X0101928Y0103763D01*
X0101981Y0103907D01*
X0102037Y0104050D01*
X0102097Y0104192D01*
X0102161Y0104332D01*
X0102229Y0104470D01*
X0102300Y0104606D01*
X0102374Y0104740D01*
X0102452Y0104873D01*
X0102534Y0105003D01*
X0102618Y0105131D01*
X0102706Y0105257D01*
X0102798Y0105381D01*
X0102892Y0105502D01*
X0102990Y0105621D01*
X0103090Y0105737D01*
X0103194Y0105850D01*
X0103301Y0105961D01*
X0103410Y0106069D01*
X0103522Y0106174D01*
X0103637Y0106276D01*
X0103754Y0106375D01*
X0103874Y0106471D01*
X0103997Y0106564D01*
X0104121Y0106654D01*
X0104249Y0106740D01*
X0104378Y0106824D01*
X0104509Y0106903D01*
X0104643Y0106979D01*
X0104778Y0107052D01*
X0104915Y0107121D01*
X0105054Y0107187D01*
X0105195Y0107249D01*
X0105337Y0107307D01*
X0105481Y0107362D01*
X0105626Y0107413D01*
X0105772Y0107460D01*
X0105919Y0107503D01*
X0106068Y0107543D01*
X0106217Y0107578D01*
X0106368Y0107610D01*
X0106519Y0107638D01*
X0106671Y0107662D01*
X0106823Y0107682D01*
X0106976Y0107698D01*
X0107129Y0107710D01*
X0107283Y0107718D01*
X0107436Y0107722D01*
X0107590Y0107722D01*
X0107743Y0107718D01*
X0107897Y0107710D01*
X0108050Y0107698D01*
X0108203Y0107682D01*
X0108355Y0107662D01*
X0108507Y0107638D01*
X0108658Y0107610D01*
X0108809Y0107578D01*
X0108958Y0107543D01*
X0109107Y0107503D01*
X0109254Y0107460D01*
X0109400Y0107413D01*
X0109545Y0107362D01*
X0109689Y0107307D01*
X0109831Y0107249D01*
X0109972Y0107187D01*
X0110111Y0107121D01*
X0110248Y0107052D01*
X0110383Y0106979D01*
X0110517Y0106903D01*
X0110648Y0106824D01*
X0110777Y0106740D01*
X0110905Y0106654D01*
X0111029Y0106564D01*
X0111152Y0106471D01*
X0111272Y0106375D01*
X0111389Y0106276D01*
X0111504Y0106174D01*
X0111616Y0106069D01*
X0111725Y0105961D01*
X0111832Y0105850D01*
X0111936Y0105737D01*
X0112036Y0105621D01*
X0112134Y0105502D01*
X0112228Y0105381D01*
X0112320Y0105257D01*
X0112408Y0105131D01*
X0112492Y0105003D01*
X0112574Y0104873D01*
X0112652Y0104740D01*
X0112726Y0104606D01*
X0112797Y0104470D01*
X0112865Y0104332D01*
X0112929Y0104192D01*
X0112989Y0104050D01*
X0113045Y0103907D01*
X0113098Y0103763D01*
X0113147Y0103617D01*
X0113192Y0103471D01*
X0113234Y0103323D01*
X0113271Y0103174D01*
X0113305Y0103024D01*
X0113335Y0102873D01*
X0113360Y0102721D01*
X0113382Y0102569D01*
X0113400Y0102417D01*
X0113414Y0102264D01*
X0113424Y0102110D01*
X0113430Y0101957D01*
X0113432Y0101803D01*
X0113430Y0101649D01*
X0113424Y0101496D01*
X0113414Y0101342D01*
X0113400Y0101189D01*
X0113382Y0101037D01*
X0113360Y0100885D01*
X0113335Y0100733D01*
X0113305Y0100582D01*
X0113271Y0100432D01*
X0113234Y0100283D01*
X0113192Y0100135D01*
X0113147Y0099989D01*
X0113098Y0099843D01*
X0113045Y0099699D01*
X0112989Y0099556D01*
X0112929Y0099414D01*
X0112865Y0099274D01*
X0112797Y0099136D01*
X0112726Y0099000D01*
X0112652Y0098866D01*
X0112574Y0098733D01*
X0112492Y0098603D01*
X0112408Y0098475D01*
X0112320Y0098349D01*
X0112228Y0098225D01*
X0112134Y0098104D01*
X0112036Y0097985D01*
X0111936Y0097869D01*
X0111832Y0097756D01*
X0111725Y0097645D01*
X0111616Y0097537D01*
X0111504Y0097432D01*
X0111389Y0097330D01*
X0111272Y0097231D01*
X0111152Y0097135D01*
X0111029Y0097042D01*
X0110905Y0096952D01*
X0110777Y0096866D01*
X0110648Y0096782D01*
X0110517Y0096703D01*
X0110383Y0096627D01*
X0110248Y0096554D01*
X0110111Y0096485D01*
X0109972Y0096419D01*
X0109831Y0096357D01*
X0109689Y0096299D01*
X0109545Y0096244D01*
X0109400Y0096193D01*
X0109254Y0096146D01*
X0109107Y0096103D01*
X0108958Y0096063D01*
X0108809Y0096028D01*
X0108658Y0095996D01*
X0108507Y0095968D01*
X0108355Y0095944D01*
X0108203Y0095924D01*
X0108050Y0095908D01*
X0107897Y0095896D01*
X0107743Y0095888D01*
X0107590Y0095884D01*
X0107436Y0095884D01*
X0107283Y0095888D01*
X0107129Y0095896D01*
X0106976Y0095908D01*
X0106823Y0095924D01*
X0106671Y0095944D01*
X0106519Y0095968D01*
X0106368Y0095996D01*
X0106217Y0096028D01*
X0106068Y0096063D01*
X0105919Y0096103D01*
X0105772Y0096146D01*
X0105626Y0096193D01*
X0105481Y0096244D01*
X0105337Y0096299D01*
X0105195Y0096357D01*
X0105054Y0096419D01*
X0104915Y0096485D01*
X0104778Y0096554D01*
X0104643Y0096627D01*
X0104509Y0096703D01*
X0104378Y0096782D01*
X0104249Y0096866D01*
X0104121Y0096952D01*
X0103997Y0097042D01*
X0103874Y0097135D01*
X0103754Y0097231D01*
X0103637Y0097330D01*
X0103522Y0097432D01*
X0103410Y0097537D01*
X0103301Y0097645D01*
X0103194Y0097756D01*
X0103090Y0097869D01*
X0102990Y0097985D01*
X0102892Y0098104D01*
X0102798Y0098225D01*
X0102706Y0098349D01*
X0102618Y0098475D01*
X0102534Y0098603D01*
X0102452Y0098733D01*
X0102374Y0098866D01*
X0102300Y0099000D01*
X0102229Y0099136D01*
X0102161Y0099274D01*
X0102097Y0099414D01*
X0102037Y0099556D01*
X0101981Y0099699D01*
X0101928Y0099843D01*
X0101879Y0099989D01*
X0101834Y0100135D01*
X0101792Y0100283D01*
X0101755Y0100432D01*
X0101721Y0100582D01*
X0101691Y0100733D01*
X0101666Y0100885D01*
X0101644Y0101037D01*
X0101626Y0101189D01*
X0101612Y0101342D01*
X0101602Y0101496D01*
X0101596Y0101649D01*
X0101594Y0101803D01*
D28*
X0103623Y0087903D02*
X0103623Y0080029D01*
X0103623Y0087903D02*
X0111497Y0087903D01*
X0151654Y0087903D02*
X0159528Y0087903D01*
X0159528Y0080029D01*
X0159528Y0044202D02*
X0159528Y0036328D01*
X0151654Y0036328D01*
X0111497Y0036328D02*
X0103623Y0036328D01*
X0103623Y0044202D01*
M02*
